<svg width="32" height="32" viewBox="0 0 32 32" fill="none" xmlns="http://www.w3.org/2000/svg">
<g clip-path="url(#clip0_139_2)">
<path d="M15.5138 0.150104C15.5138 0.23141 15.5459 0.331479 15.5825 0.375259C15.6192 0.41904 15.6512 0.519109 15.6512 0.594161C15.6512 0.675467 15.6833 0.750519 15.7199 0.775536C15.7749 0.800553 15.7886 0.956911 15.7886 1.59485C15.7886 2.23279 15.7749 2.38915 15.7199 2.41417C15.6787 2.43919 15.6512 2.533 15.6512 2.63932C15.6512 2.87073 15.5413 2.84572 15.523 2.60805C15.5138 2.51424 15.4772 2.43919 15.4406 2.43919C15.3856 2.43919 15.3765 2.61431 15.3765 3.47115V4.50311H15.9947H16.6129V3.47115C16.6129 2.59554 16.6038 2.43919 16.5442 2.43919C16.4984 2.43919 16.4755 2.50173 16.4755 2.62681C16.4755 2.7519 16.4526 2.81444 16.4068 2.81444C16.3611 2.81444 16.3382 2.7519 16.3382 2.63307C16.3382 2.533 16.3107 2.43919 16.2695 2.41417C16.2145 2.38915 16.2008 2.23905 16.2008 1.60736C16.2008 0.988183 16.2145 0.813062 16.2695 0.750519C16.3061 0.706738 16.3382 0.625432 16.3382 0.562889C16.3382 0.500346 16.3702 0.41904 16.4068 0.375259C16.4893 0.281444 16.4984 0 16.4206 0C16.3885 0 16.3198 0.0875605 16.2695 0.18763C16.1504 0.431548 16.0634 0.431548 16.0634 0.18763C16.0634 0.0625432 16.0405 0 15.9947 0C15.9489 0 15.926 0.0625432 15.926 0.18763C15.926 0.431548 15.839 0.431548 15.7199 0.18763C15.61 -0.0375259 15.5138 -0.0562889 15.5138 0.150104V0.150104Z" fill="#BA8B61"/>
<path d="M15.1705 4.88953C15.056 5.05215 15.0056 5.07716 14.7995 5.07716C14.6301 5.07716 14.5522 5.10218 14.5339 5.17098C14.5202 5.22727 14.4469 5.26479 14.3599 5.26479C14.2775 5.27105 14.1584 5.30857 14.0943 5.35861C14.0302 5.40864 13.9432 5.44617 13.8974 5.45242C13.76 5.45242 13.183 5.87772 12.8578 6.20294C12.3541 6.7158 11.7175 7.72274 11.5344 8.31065C11.5069 8.37944 11.4657 8.46075 11.4428 8.48577C11.4153 8.50453 11.3924 8.58584 11.3924 8.65463C11.3924 8.72969 11.3603 8.83601 11.3191 8.89855C11.2092 9.06742 11.2688 9.20501 11.4565 9.20501C11.5985 9.20501 11.6259 9.18 11.7221 8.90481C11.8183 8.64213 11.8458 8.61085 11.9969 8.59209C12.1572 8.57333 12.1709 8.58584 12.2854 8.88604C12.377 9.14247 12.4228 9.20501 12.5144 9.20501C12.6105 9.20501 12.6289 9.17374 12.6289 9.01738C12.6289 8.84226 12.6426 8.82975 12.7846 8.82975C12.8716 8.82975 12.9723 8.78597 13.0135 8.73594C13.0502 8.68591 13.1234 8.64213 13.1738 8.64213C13.2929 8.64213 13.3295 8.54831 13.2471 8.4545C13.2104 8.41072 13.1784 8.32316 13.1784 8.26061C13.1784 8.19807 13.1555 8.12927 13.128 8.11051C13.0547 8.04171 12.9998 7.79154 13.0273 7.64769C13.0639 7.4538 13.2471 7.47882 13.4715 7.71649C13.7233 7.99168 13.8378 8.19181 13.8653 8.41697C13.8836 8.56707 13.9157 8.61711 14.0027 8.62962C14.0668 8.64213 14.1355 8.69216 14.1538 8.74219C14.1767 8.79848 14.2729 8.82975 14.4377 8.82975C14.6713 8.82975 14.685 8.83601 14.6988 8.99862C14.7079 9.13622 14.7354 9.17374 14.827 9.17374C14.914 9.17374 14.9461 9.13622 14.9644 8.97986C15.0102 8.69216 15.0468 8.64213 15.2117 8.64213C15.3811 8.64213 15.459 8.73594 15.5093 8.99237C15.5414 9.16123 15.5414 9.16123 15.9535 9.16123C16.4115 9.16123 16.4756 9.13622 16.4756 8.92982C16.4756 8.73594 16.558 8.64213 16.7321 8.64213C16.8923 8.64213 16.9702 8.73594 17.0206 8.99862C17.0664 9.23629 17.2587 9.24879 17.2999 9.01738C17.3228 8.87979 17.3549 8.86103 17.5518 8.84226C17.6937 8.82975 17.8037 8.78597 17.8357 8.72343C17.8678 8.66714 17.9365 8.62336 17.996 8.61711C18.083 8.61085 18.1059 8.56707 18.1151 8.39195C18.1288 8.1668 18.225 8.01669 18.5593 7.66645C18.7516 7.47257 18.921 7.48508 18.9394 7.69772C18.9577 7.84157 18.8478 8.19807 18.7287 8.40446C18.6463 8.5358 18.6921 8.64213 18.834 8.64213C18.889 8.64213 18.9485 8.68591 18.9668 8.73594C18.9806 8.79848 19.0538 8.82975 19.1775 8.82975C19.3515 8.82975 19.3607 8.84226 19.3607 9.01738C19.3607 9.17374 19.379 9.20501 19.4752 9.20501C19.5622 9.20501 19.6034 9.14873 19.6767 8.92357C19.8232 8.467 20.098 8.4545 20.2537 8.90481C20.3361 9.14247 20.3682 9.17374 20.5193 9.19251C20.7208 9.21752 20.7895 9.07993 20.6704 8.89855C20.6292 8.83601 20.5971 8.74219 20.5971 8.68591C20.5971 8.62962 20.5788 8.57333 20.5559 8.55457C20.533 8.5358 20.4597 8.37319 20.3911 8.19181C20.1483 7.54762 19.6583 6.75332 19.2141 6.2905C19.0722 6.1404 18.9439 6.01531 18.9302 6.01531C18.9165 6.01531 18.8157 5.92775 18.7058 5.82768C18.5913 5.72136 18.4768 5.64005 18.4448 5.64005C18.4127 5.64005 18.3349 5.60253 18.2708 5.55249C18.0876 5.42741 17.7029 5.26479 17.5838 5.26479C17.5289 5.26479 17.4694 5.22101 17.4556 5.17098C17.4373 5.10218 17.3594 5.07716 17.19 5.07716C16.9839 5.07716 16.9336 5.05215 16.8191 4.88953L16.6863 4.7019H15.9948H15.3033L15.1705 4.88953V4.88953Z" fill="#BA8B61"/>
<path d="M13.2012 7.66596C13.1829 7.69723 13.2012 7.77854 13.2425 7.84108C13.2837 7.90363 13.3157 7.99744 13.3157 8.05373C13.3157 8.11002 13.3478 8.17882 13.389 8.21009C13.5035 8.29765 13.4577 8.68542 13.3295 8.71043C13.2745 8.72294 13.2058 8.77298 13.1783 8.82301C13.1463 8.87305 13.0501 8.91057 12.9631 8.91057C12.8669 8.91057 12.7982 8.9481 12.7845 9.00439C12.7662 9.05442 12.7296 9.0982 12.6929 9.0982C12.6425 9.0982 12.6288 9.20452 12.6288 9.52349C12.6288 9.91752 12.638 9.9613 12.7662 10.0989C12.9127 10.2678 12.9539 10.5617 12.8349 10.6243C12.7937 10.643 12.7662 10.7368 12.7662 10.8744C12.7662 11.0683 12.7112 11.1621 12.3266 11.6875C12.0884 12.019 11.8732 12.2879 11.8457 12.2879C11.745 12.2879 11.832 12.1315 12.2167 11.6124C12.583 11.1121 12.6288 11.0308 12.6288 10.8244C12.6288 10.668 12.6471 10.5992 12.6975 10.5992C12.8166 10.5992 12.7753 10.324 12.6288 10.1614C12.5143 10.0238 12.496 9.9613 12.4914 9.6736C12.4914 9.37965 12.4777 9.33586 12.3769 9.28583C12.3128 9.25456 12.2487 9.17325 12.2304 9.11696C12.2167 9.05442 12.1617 8.94184 12.1113 8.86054L12.0152 8.72294L11.9098 8.86054C11.8503 8.93559 11.8045 9.06068 11.8045 9.14198V9.29208L11.2 9.27332L10.5909 9.25456L10.568 8.91057L10.5451 8.56658L10.3711 8.54782C10.2704 8.53531 10.1834 8.48528 10.1696 8.43524C10.1376 8.31641 10.0826 8.32266 9.97271 8.47277C9.89944 8.57284 9.88112 8.67916 9.88112 8.99813C9.88112 9.27332 9.85823 9.41717 9.81243 9.47346C9.76206 9.52975 9.74374 9.74865 9.73458 10.4616C9.72084 11.2247 9.7071 11.381 9.65215 11.3873C8.98355 11.4936 8.46607 11.6937 7.99438 12.019C7.93027 12.0627 7.84784 12.1003 7.8112 12.1003C7.77457 12.1003 7.7013 12.1691 7.64176 12.2441L7.54102 12.3942L7.71504 12.5506C7.84784 12.6757 7.93027 12.7069 8.05392 12.6819C8.15008 12.6632 8.23709 12.6819 8.25083 12.7195C8.26915 12.757 8.31953 12.7882 8.36532 12.7882C8.41111 12.7882 8.48897 12.8508 8.54392 12.9321C8.62177 13.0447 8.64467 13.1635 8.65383 13.6013L8.66756 14.1329H9.88112H11.0947V13.9766C11.0947 13.839 11.0718 13.814 10.9115 13.7889L10.7283 13.7577L10.7146 12.5131C10.7054 11.306 10.7054 11.2622 10.8062 11.1183C10.9436 10.9182 11.3374 10.912 11.5343 11.1121L11.6717 11.2559L11.658 11.8313C11.6488 12.3442 11.6534 12.4192 11.7358 12.5068C11.8274 12.6006 11.8228 12.6069 11.6809 12.7757C11.5984 12.8758 11.5297 12.9946 11.5297 13.0509C11.5297 13.1072 11.4977 13.1823 11.461 13.2261C11.4244 13.2698 11.3923 13.3511 11.3923 13.4137C11.3923 13.4762 11.3603 13.5575 11.3237 13.6013C11.2779 13.6513 11.255 13.7952 11.255 14.0141V14.3518L9.96355 14.3643L8.66756 14.3831L8.65383 14.7146C8.64467 14.9648 8.65841 15.0523 8.70878 15.0773C8.76373 15.1086 8.78205 15.2087 8.78205 15.4776C8.78205 15.8341 8.77747 15.8466 8.65841 15.8654C8.56224 15.8779 8.5256 15.9217 8.51644 16.0405C8.50728 16.1218 8.47065 16.2219 8.42943 16.2594C8.38364 16.3094 8.3699 16.4283 8.37906 16.7285L8.3928 17.135L10.362 17.1475C11.4473 17.16 12.3586 17.1413 12.3907 17.11C12.4319 17.0787 12.4685 16.8348 12.4914 16.4408C12.5372 15.7591 12.6059 15.2399 12.7021 14.9335C12.7387 14.8272 12.7662 14.7083 12.7662 14.6771C12.7662 14.6395 12.8028 14.5207 12.844 14.4019C12.8853 14.2893 12.9494 14.1079 12.986 14.0078C13.0913 13.7139 13.4027 13.0885 13.563 12.8633C13.7599 12.5693 14.2087 12.1003 14.2912 12.1003C14.3278 12.1003 14.3827 12.0565 14.4148 12.0065C14.4469 11.9564 14.5018 11.9126 14.5384 11.9126C14.5751 11.9126 14.6484 11.8751 14.7033 11.8376C14.9185 11.6687 15.3353 11.5812 16.0085 11.5561C16.5855 11.5374 16.7229 11.5499 16.8053 11.6312C16.8602 11.6812 16.9518 11.725 17.0068 11.725C17.0617 11.725 17.1671 11.7688 17.2358 11.8188C17.309 11.8689 17.4052 11.9126 17.4464 11.9126C17.4876 11.9126 17.538 11.9439 17.5517 11.9814C17.5701 12.0127 17.6296 12.069 17.68 12.1065C18.1059 12.3567 18.7424 13.2573 18.9439 13.8953C19.0537 14.1202 19.0625 14.312 19.15 14.527C19.2461 14.7959 19.3194 15.1086 19.3652 15.4588C19.3881 15.6402 19.4293 15.8591 19.4522 15.9467C19.4797 16.0405 19.498 16.3344 19.498 16.6034C19.498 17.0662 19.5072 17.1037 19.6033 17.135C19.6583 17.1538 20.5788 17.16 21.6504 17.1538L23.5966 17.135L23.6104 16.7285C23.6195 16.4283 23.6058 16.3094 23.56 16.2594C23.5188 16.2219 23.4821 16.1218 23.473 16.0405C23.4638 15.9217 23.4272 15.8779 23.3356 15.8654C23.212 15.8466 23.2074 15.8341 23.2074 15.4776C23.2074 15.2087 23.2257 15.1086 23.2807 15.0773C23.331 15.0523 23.3448 14.9648 23.3356 14.7146L23.3219 14.3831L22.0305 14.3643L20.7345 14.3518V14.1579C20.7345 14.0516 20.707 13.889 20.6704 13.8014C20.6337 13.7076 20.5604 13.5075 20.5055 13.3511C20.4505 13.1948 20.3681 12.9821 20.3177 12.8821C20.1758 12.5756 20.1666 12.5256 20.2445 12.463C20.3086 12.4192 20.3223 12.3004 20.3223 11.8376C20.3223 11.3372 20.3361 11.2559 20.4276 11.1246C20.5696 10.912 20.9863 10.912 21.1604 11.1183L21.284 11.2622V12.4505C21.284 13.2886 21.2657 13.6639 21.2291 13.7139C21.197 13.7577 21.1054 13.7889 21.0184 13.7889C20.881 13.7889 20.8673 13.8014 20.881 13.9578L20.8947 14.1329H22.1083H23.3219L23.3081 13.6764C23.2944 13.1385 23.3722 12.8758 23.5646 12.8133C23.6333 12.7882 23.7157 12.7445 23.7478 12.7069C23.7798 12.6757 23.876 12.6632 23.9676 12.6819C24.1004 12.7132 24.1599 12.6882 24.2881 12.5506L24.4393 12.388L24.3431 12.2441C24.2881 12.1628 24.2149 12.1003 24.1782 12.1003C24.1416 12.1003 24.0592 12.0627 23.995 12.0127C23.6058 11.7375 22.7632 11.4123 22.4243 11.4123C22.351 11.4123 22.2777 11.3748 22.2686 11.331C22.2594 11.2935 22.2411 10.8682 22.232 10.3928C22.2228 9.83621 22.1999 9.51099 22.1633 9.46095C22.1312 9.41717 22.1083 9.21703 22.1083 8.99188C22.1083 8.67916 22.09 8.57284 22.0167 8.47277C21.9068 8.32266 21.8519 8.31641 21.8152 8.4415C21.8015 8.49779 21.7328 8.53531 21.632 8.53531C21.4397 8.53531 21.4214 8.57284 21.4031 8.95435L21.3939 9.25456L20.7894 9.27332L20.1849 9.29208V9.14198C20.1849 9.06068 20.1391 8.93559 20.0796 8.86054L19.9743 8.72294L19.8735 8.86679C19.8186 8.9481 19.7728 9.07318 19.7728 9.14198C19.7728 9.24205 19.7407 9.27958 19.6491 9.29834C19.5301 9.3171 19.5209 9.33586 19.5072 9.65484C19.4934 9.93628 19.4705 10.0176 19.356 10.1552C19.2141 10.324 19.1729 10.5992 19.2919 10.5992C19.3377 10.5992 19.3606 10.6618 19.3606 10.8119C19.3606 11.0058 19.411 11.0996 19.7728 11.5874C20.1529 12.1003 20.2536 12.2879 20.1437 12.2879C20.1162 12.2879 19.901 12.019 19.6629 11.6875C19.2553 11.1371 19.2232 11.0746 19.2232 10.8432C19.2232 10.6805 19.2049 10.5992 19.1591 10.5992C19.1271 10.5992 19.0859 10.5367 19.0721 10.4616C19.0492 10.3553 19.0813 10.274 19.2003 10.1302C19.3515 9.94879 19.3606 9.91752 19.3606 9.51724C19.3606 9.19827 19.3469 9.0982 19.2965 9.0982C19.2599 9.0982 19.2232 9.05442 19.2049 9.00439C19.1912 8.94184 19.1179 8.91057 18.9988 8.91057C18.8889 8.91057 18.8111 8.8793 18.7974 8.82301C18.7836 8.77298 18.7241 8.72294 18.6645 8.71043C18.5821 8.69792 18.5546 8.64789 18.5455 8.46651C18.5363 8.32266 18.5546 8.21634 18.6004 8.16005C18.6416 8.11627 18.6737 8.02871 18.6737 7.96617C18.6737 7.90363 18.7058 7.82857 18.747 7.7973C18.7882 7.76603 18.8111 7.70974 18.7928 7.66596C18.747 7.56589 18.7072 7.5881 18.6737 7.69098C18.6574 7.74101 18.6521 7.76256 18.6279 7.78479C18.6089 7.80224 18.5134 7.87861 18.4264 7.99119C18.3073 8.14754 18.2661 8.26638 18.2524 8.44775C18.2432 8.63538 18.2158 8.69792 18.1471 8.71043C18.0967 8.72294 18.0234 8.77298 17.9868 8.81676C17.9501 8.86679 17.8128 8.91057 17.6891 8.92308C17.4785 8.94184 17.4601 8.95435 17.4464 9.11071C17.4327 9.27958 17.4235 9.28583 17.1579 9.28583H16.8877V9.00439C16.8877 8.73545 16.8831 8.72294 16.7503 8.72294C16.6175 8.72294 16.6129 8.73545 16.6129 9.00439V9.28583H15.9947H15.3765V9.00439C15.3765 8.73545 15.3719 8.72294 15.2437 8.72294C15.1155 8.72294 15.1063 8.7417 15.0926 8.98562L15.0788 9.25456H14.8041C14.543 9.25456 14.5293 9.2483 14.5293 9.0982C14.5293 8.95435 14.511 8.94184 14.3003 8.92308C14.1767 8.91057 14.0393 8.86679 14.0026 8.81676C13.966 8.77298 13.8927 8.72294 13.8424 8.71043C13.7737 8.69792 13.7462 8.63538 13.737 8.46026C13.7279 8.28514 13.6775 8.17256 13.5172 7.97868C13.4073 7.83483 13.3157 7.69098 13.3157 7.65971C13.3157 7.5784 13.2379 7.5784 13.2012 7.66596V7.66596Z" fill="#BA8B61"/>
<path d="M5.00403 11.5437C4.93076 11.575 4.82543 11.5875 4.77506 11.5687C4.71552 11.5562 4.59646 11.6187 4.47739 11.7251C4.36291 11.8314 4.23468 11.9127 4.19347 11.9127C4.14767 11.9127 4.05608 11.994 3.98739 12.1003C3.92328 12.2004 3.83169 12.2879 3.78589 12.2879C3.59813 12.2879 3.55692 12.5194 3.57066 13.5451L3.5844 14.5082H5.14142H6.69843V13.4137C6.69843 12.3505 6.69843 12.3255 6.59769 12.2879C6.54273 12.2692 6.45572 12.1816 6.40535 12.0941C6.35497 12.0003 6.25423 11.9064 6.18553 11.8814C6.11684 11.8627 6.00236 11.7813 5.9245 11.7063C5.84207 11.625 5.70927 11.5687 5.59936 11.5624C5.49861 11.5624 5.35665 11.5374 5.2788 11.5187C5.20553 11.4999 5.08188 11.5062 5.00403 11.5437V11.5437Z" fill="#BA8B61"/>
<path d="M26.5733 11.5374C26.5001 11.5686 26.3947 11.5812 26.3352 11.5624C26.2711 11.5374 26.1887 11.5686 26.1108 11.6562C26.0421 11.725 25.9093 11.8188 25.8131 11.8501C25.7078 11.8876 25.6025 11.9814 25.5567 12.0752C25.5155 12.1628 25.433 12.2629 25.3735 12.2941L25.2682 12.3504L25.2773 13.4262L25.2911 14.5082H26.8481H28.4051L28.4189 13.5513C28.428 12.757 28.4189 12.5756 28.3548 12.4442C28.3135 12.3567 28.2448 12.2879 28.2036 12.2879C28.1578 12.2879 28.0662 12.2003 27.993 12.1003C27.9197 11.9939 27.8281 11.9126 27.7869 11.9126C27.7411 11.9126 27.6266 11.8376 27.5304 11.7438C27.4297 11.65 27.2832 11.5749 27.1916 11.5686C27.1046 11.5624 26.958 11.5374 26.871 11.5186C26.784 11.4998 26.6512 11.5061 26.5733 11.5374Z" fill="#BA8B61"/>
<path d="M15.3307 11.8189C15.2987 11.8689 15.2025 11.9127 15.1155 11.9127C15.0285 11.9127 14.9003 11.9503 14.8361 12.0003C14.7675 12.0441 14.6118 12.1504 14.4927 12.2317C14.0989 12.4944 14.0531 12.5382 13.8241 12.8384C13.5905 13.1511 13.1784 13.8641 13.1784 13.9641C13.1784 13.9954 13.1188 14.1768 13.041 14.3707C12.9677 14.5646 12.9036 14.7897 12.9036 14.871C12.9036 14.9523 12.8807 15.0461 12.8532 15.0837C12.8258 15.1212 12.7891 15.3026 12.7662 15.4839C12.7433 15.6716 12.7021 15.953 12.6746 16.1094C12.6472 16.272 12.6288 16.5659 12.638 16.7661L12.6517 17.1351L13.041 17.1538C13.3203 17.1664 13.4394 17.1976 13.4669 17.2602C13.4852 17.3102 13.5447 17.354 13.5951 17.354C13.6409 17.354 13.7233 17.3915 13.7737 17.429C13.9203 17.5541 13.966 17.4165 13.9889 16.8161C14.0027 16.4846 14.0347 16.2157 14.076 16.1406C14.1072 15.9171 14.2179 15.7192 14.2683 15.5527C14.3141 15.3776 14.6713 14.821 14.8224 14.7022C15.2941 14.3206 15.5876 14.1388 15.5876 14.3076C15.5876 14.4077 15.2391 14.7272 15.1292 14.7272C15.0697 14.7272 14.7262 15.1149 14.5797 15.3401C14.4286 15.5778 14.2775 15.9343 14.2775 16.0593C14.2775 16.1094 14.2454 16.2345 14.2088 16.3408C14.1584 16.4721 14.1401 16.6723 14.1492 16.9912L14.163 17.4478H15.9948H17.8265L17.8403 17.0851C17.854 16.7348 17.7945 16.3971 17.6021 15.7842C17.4831 15.3901 17.1442 14.9398 16.7962 14.7147C16.4756 14.5083 16.2689 14.289 16.4658 14.289C16.6948 14.289 17.3136 14.8147 17.538 15.2338C17.7166 15.559 17.7991 15.7341 17.822 15.8217C17.8265 15.8529 17.8632 15.9843 17.8952 16.1031C17.9273 16.222 17.9639 16.5159 17.9731 16.7598C17.996 17.3665 18.0189 17.4791 18.1242 17.4791C18.17 17.4791 18.225 17.4478 18.2387 17.4165C18.2524 17.379 18.3165 17.354 18.3761 17.354C18.4356 17.354 18.5043 17.3102 18.5226 17.2602C18.5501 17.1976 18.6692 17.1664 18.9485 17.1538L19.3378 17.1351L19.3515 16.8286C19.3607 16.666 19.3423 16.3971 19.3149 16.2345C19.2874 16.0781 19.2462 15.8029 19.2233 15.634C19.1866 15.3213 19.1271 15.0524 19.0172 14.6959C18.9806 14.5896 18.921 14.3957 18.8798 14.2581C18.8386 14.1205 18.7837 13.9641 18.7608 13.9141C18.7379 13.8641 18.7058 13.7765 18.6875 13.7265C18.5318 13.2449 17.941 12.5069 17.4602 12.2004C17.3594 12.1316 17.2221 12.0441 17.1534 11.994C17.0892 11.9503 16.9793 11.9127 16.9152 11.9127C16.8465 11.9127 16.7824 11.8689 16.7687 11.8189C16.7458 11.7439 16.6221 11.7251 16.0634 11.7251C15.5185 11.7251 15.3765 11.7439 15.3307 11.8189V11.8189ZM16.4301 14.2644C16.4301 14.3394 16.3107 14.3519 15.9993 14.3519C15.6421 14.3519 15.5185 14.3081 15.5918 14.2018C15.6055 14.183 15.7933 14.1643 16.0039 14.1643C16.3107 14.1643 16.4301 14.1893 16.4301 14.2644V14.2644Z" fill="#BA8B61"/>
<path d="M7.04187 12.4694L6.88159 12.5069L6.86785 13.7077L6.85869 14.9148H6.74878C6.68925 14.9148 6.61598 14.871 6.58392 14.821C6.53355 14.7397 6.31831 14.7272 5.14139 14.7272C3.96446 14.7272 3.74923 14.7397 3.69886 14.821C3.6668 14.871 3.59353 14.9148 3.53399 14.9148H3.42409L3.41493 13.7077L3.40119 12.5069L3.19969 12.4881C2.91577 12.4568 2.78754 12.5194 2.73717 12.6945C2.70053 12.8196 2.65932 12.8509 2.53567 12.8509C2.31128 12.8509 2.23343 12.9072 2.23343 13.0698C2.23343 13.1511 2.17847 13.3012 2.11436 13.4075C2.00445 13.5889 1.9724 13.6014 1.70679 13.6014C1.43202 13.6014 1.40912 13.6139 1.35417 13.7703C1.30837 13.9079 1.258 13.9516 1.12061 13.9641C0.987809 13.9829 0.951174 14.0079 0.951174 14.108C0.951174 14.1768 0.919117 14.3144 0.882482 14.4145C0.822949 14.5646 0.822949 14.6208 0.868743 14.7272C0.914538 14.8272 0.914538 14.8773 0.868743 14.9773C0.841266 15.0461 0.81379 15.1712 0.81379 15.2588C0.81379 15.3401 0.781733 15.509 0.740518 15.6278C0.616872 15.9718 0.667247 16.0406 1.03818 16.0406H1.35417L1.33127 15.6653L1.30379 15.2901H2.33417C3.19511 15.2901 3.37829 15.2775 3.42409 15.1962C3.45614 15.1462 3.54773 15.1024 3.63016 15.1024C3.71259 15.1024 3.80418 15.0586 3.83624 15.0086C3.88203 14.9273 4.07437 14.9148 5.004 14.9148C5.93364 14.9148 6.12597 14.9273 6.17177 15.0086C6.20382 15.0586 6.29541 15.1024 6.37784 15.1024C6.46028 15.1024 6.55186 15.1462 6.58392 15.1962C6.6343 15.2775 6.78542 15.2901 7.56393 15.2775L8.4844 15.2588V14.1643V13.0698L8.37907 13.051C8.31954 13.0385 8.26001 12.9885 8.24627 12.9384C8.21421 12.8196 8.00356 12.8259 7.93944 12.9509C7.89365 13.0322 7.87075 13.0197 7.75169 12.8571C7.67383 12.7508 7.58225 12.6632 7.54561 12.6632C7.50439 12.6632 7.44028 12.607 7.39449 12.5382C7.31206 12.4068 7.3029 12.4068 7.04187 12.4694Z" fill="#BA8B61"/>
<path d="M24.5813 12.5318C24.5538 12.6069 24.4989 12.6632 24.4531 12.6632C24.4119 12.6632 24.3157 12.7507 24.2378 12.857C24.1188 13.0196 24.0959 13.0322 24.0501 12.9509C23.986 12.8258 23.8211 12.8195 23.7707 12.9383C23.7524 12.9884 23.6837 13.0384 23.6196 13.0509L23.5051 13.0697V14.1642V15.2587L24.3569 15.2775C25.0759 15.29 25.2178 15.2775 25.2682 15.1962C25.3049 15.1336 25.4056 15.1023 25.543 15.1023C25.6804 15.1023 25.7811 15.0648 25.8178 15.0085C25.8636 14.9272 26.0559 14.9147 26.9855 14.9147C27.9152 14.9147 28.1075 14.9272 28.1533 15.0085C28.1853 15.0586 28.2769 15.1023 28.3594 15.1023C28.4418 15.1023 28.5334 15.1461 28.5654 15.1962C28.6112 15.2712 28.8082 15.29 29.637 15.3025L30.6491 15.3212L30.6628 15.5526C30.672 15.734 30.6583 15.7966 30.5804 15.8529C30.4155 15.9717 30.53 16.0405 30.9055 16.0405C31.3177 16.0405 31.3818 15.9717 31.249 15.6652C31.2078 15.5652 31.1757 15.4088 31.1757 15.3087C31.1757 15.2087 31.1437 15.0711 31.107 14.996C31.0475 14.8834 31.0475 14.8334 31.0933 14.7333C31.1345 14.6395 31.1345 14.577 31.0933 14.4456C31.0613 14.3581 31.0384 14.2142 31.0384 14.1329C31.0384 14.0078 31.0155 13.9828 30.8689 13.9641C30.7315 13.9515 30.6812 13.9078 30.6354 13.7702C30.5804 13.6138 30.5575 13.6013 30.2873 13.6013C30.04 13.6013 29.9851 13.5825 29.8935 13.4449C29.8294 13.3574 29.7607 13.1948 29.7332 13.0822C29.692 12.9071 29.6645 12.8758 29.4905 12.8508C29.3394 12.8258 29.2798 12.782 29.2386 12.6632C29.1837 12.5193 29.1562 12.5068 28.886 12.5068H28.5883L28.5746 13.7076L28.5654 14.9147H28.4555C28.396 14.9147 28.3227 14.8709 28.2907 14.8209C28.2403 14.7396 28.0251 14.7271 26.8481 14.7271C25.6712 14.7271 25.456 14.7396 25.4056 14.8209C25.3736 14.8709 25.3003 14.9147 25.2407 14.9147H25.1308V13.7326C25.1308 13.0759 25.1171 12.5318 25.0988 12.5193C25.0759 12.5005 24.966 12.4693 24.8469 12.4505C24.6592 12.413 24.6271 12.4255 24.5813 12.5318V12.5318Z" fill="#BA8B61"/>
<path d="M4.03773 15.1962C3.99193 15.2462 3.87287 15.29 3.7767 15.29C3.66679 15.29 3.59352 15.3213 3.57978 15.3838C3.55688 15.4589 3.43324 15.4777 2.86996 15.4777C2.22426 15.4777 2.18762 15.4839 2.18762 15.5965C2.18762 15.6715 2.27005 15.8029 2.38912 15.9155L2.59062 16.1156L2.60893 16.641C2.61809 16.9287 2.65015 17.1976 2.67763 17.2351C2.77837 17.3727 4.51399 17.1976 4.63306 17.035C4.66054 17.0037 4.95362 16.9787 5.28792 16.9787C5.80082 16.9787 5.89699 16.9912 5.89699 17.0725C5.89699 17.1538 6.04353 17.1663 7.0556 17.1538L8.20962 17.1351L8.22336 16.6973C8.23252 16.4408 8.26458 16.2219 8.30121 16.1656C8.33327 16.1156 8.36991 15.9843 8.37906 15.8842C8.38822 15.7466 8.42028 15.6903 8.49813 15.6778C8.55308 15.6653 8.59888 15.6153 8.59888 15.5652C8.59888 15.4902 8.42944 15.4777 7.54102 15.4777C6.66634 15.4777 6.47401 15.4589 6.41905 15.3838C6.37784 15.3338 6.29083 15.29 6.21755 15.29C6.14886 15.29 6.0298 15.2462 5.9611 15.1962C5.76877 15.0586 4.17053 15.0586 4.03773 15.1962V15.1962Z" fill="#BA8B61"/>
<path d="M26.0009 15.1962C25.9643 15.2588 25.859 15.29 25.6941 15.29C25.5201 15.29 25.4422 15.315 25.4239 15.3838C25.401 15.4651 25.2407 15.4777 24.3935 15.4777C23.5555 15.4777 23.3906 15.4902 23.3906 15.5652C23.3906 15.6153 23.4364 15.6653 23.496 15.6778C23.5738 15.6903 23.6013 15.7403 23.6104 15.9155C23.6196 16.0343 23.6517 16.1656 23.6883 16.2032C23.7295 16.2469 23.757 16.4221 23.7661 16.7035L23.7799 17.1351L24.8698 17.1538C25.8132 17.1663 25.9551 17.1538 25.9551 17.0725C25.9551 16.9912 26.0605 16.9787 26.642 16.9787C27.2328 16.9787 27.329 16.9912 27.329 17.0788C27.329 17.1476 27.3656 17.1726 27.4572 17.1601C27.7823 17.1288 28.0159 17.1663 28.0159 17.2601C28.0159 17.3414 28.1304 17.354 28.7715 17.354H29.5271V16.6973C29.5271 16.1531 29.5409 16.0405 29.5958 16.0405C29.6324 16.0405 29.6645 16.003 29.6645 15.953C29.6645 15.903 29.6966 15.8467 29.7378 15.8279C29.779 15.8091 29.8019 15.7341 29.7927 15.6528C29.779 15.5089 29.7652 15.5089 29.115 15.4902C28.5883 15.4777 28.4464 15.4526 28.4143 15.3838C28.396 15.3276 28.3136 15.29 28.2265 15.29C28.1395 15.29 28.0113 15.2462 27.9426 15.1962C27.7503 15.0586 26.0834 15.0586 26.0009 15.1962V15.1962Z" fill="#BA8B61"/>
<path d="M1.51449 15.5715C1.50075 15.6278 1.52365 15.7216 1.56487 15.7841C1.60608 15.8467 1.63814 15.9405 1.63814 16.003C1.63814 16.0656 1.70225 16.1469 1.78926 16.1969C2.00907 16.322 2.04571 16.4033 2.05945 16.8536L2.07319 17.2601H2.25637H2.43954L2.45328 16.7973L2.46702 16.3408L2.27468 16.1156C2.16936 15.9905 2.05487 15.7966 2.02281 15.6841C1.96328 15.4964 1.94038 15.4777 1.75262 15.4777C1.60608 15.4777 1.53739 15.5089 1.51449 15.5715V15.5715Z" fill="#BA8B61"/>
<path d="M29.9713 15.5152C29.9529 15.5402 29.9392 15.6277 29.9392 15.7028C29.9392 15.7903 29.8842 15.9029 29.8018 15.9905C29.669 16.1218 29.6644 16.1406 29.6644 16.6409C29.6644 17.2351 29.6873 17.3539 29.8018 17.3539C29.9117 17.3539 29.9392 17.2351 29.9392 16.7848C29.9392 16.4971 29.9529 16.4158 30.0079 16.4158C30.0445 16.4158 30.0766 16.372 30.0766 16.322C30.0766 16.2594 30.1224 16.2281 30.214 16.2281C30.3376 16.2281 30.3513 16.2094 30.3513 16.0405C30.3513 15.9092 30.3742 15.8529 30.4246 15.8529C30.475 15.8529 30.4887 15.8029 30.4796 15.6778C30.4658 15.5214 30.4475 15.5089 30.2369 15.4901C30.1086 15.4776 29.9896 15.4901 29.9713 15.5152V15.5152Z" fill="#BA8B61"/>
<path d="M30.3514 16.322C30.3514 16.3845 30.3056 16.4158 30.214 16.4158H30.0767V16.8849C30.0767 17.2476 30.095 17.3664 30.1454 17.3915C30.182 17.4165 30.214 17.4978 30.214 17.5791C30.214 17.7292 30.214 17.7292 30.7636 17.7292C31.2765 17.7292 31.3131 17.7229 31.3131 17.6104C31.3131 17.5416 31.4688 17.2664 31.6566 16.9974C31.8764 16.6847 32 16.4596 32 16.372V16.2281H31.1757C30.4751 16.2281 30.3514 16.2407 30.3514 16.322Z" fill="#BA8B61"/>
<path d="M0.0352783 16.3908C0.0352783 16.5472 0.113129 16.7036 0.351262 17.0288C0.470328 17.1914 0.607712 17.404 0.648927 17.4916C0.726778 17.6542 0.740517 17.6605 1.22136 17.6605H1.72052L1.79379 17.3853C1.83959 17.2289 1.86707 16.985 1.85791 16.8161C1.83501 16.3471 1.74342 16.3033 0.804629 16.297C0.136027 16.2908 0.0352783 16.3033 0.0352783 16.3908V16.3908Z" fill="#BA8B61"/>
<path d="M4.66054 17.2538C4.66054 17.3101 4.56895 17.3476 4.35829 17.3727C4.17511 17.3914 4.03773 17.4352 4.01483 17.4852C3.99194 17.5353 3.9782 18.9487 3.98736 20.6374L3.99651 23.702H4.24839H4.50026L4.514 22.2135L4.52315 20.7312H4.72923H4.93531L4.94447 22.2135L4.9582 23.702H5.15512H5.35662L5.3612 22.2323L5.37036 20.7625H5.75961H6.14887V22.3261V23.8897L5.004 23.9209L3.85913 23.9522V24.2024V24.4525L5.07269 24.4901C5.74129 24.5088 6.3412 24.5464 6.40532 24.5714C6.65261 24.6714 6.83579 24.3149 6.65261 24.1086C6.59307 24.0398 6.58392 23.5644 6.57476 20.7062L6.56102 17.3852L6.2313 17.3664C5.97485 17.3539 5.89699 17.3289 5.89699 17.2601C5.89699 17.185 5.79167 17.1663 5.27877 17.1663C4.78876 17.1663 4.66054 17.185 4.66054 17.2538ZM6.04812 18.0481L6.21756 18.1107V18.8299C6.21756 19.618 6.22004 19.4413 6.21437 19.6028C5.92491 19.6161 5.63894 19.6068 5.44363 19.5929C5.37952 19.5742 5.37036 19.4678 5.37036 18.8237V18.0731L5.50774 18.0356C5.72298 17.9731 5.86036 17.9731 6.04812 18.0481H6.04812ZM5.03147 18.5234C5.04521 19.1489 5.01774 19.5116 4.96278 19.5617C4.93531 19.5867 4.82998 19.5992 4.72923 19.5929L4.54605 19.5742L4.53231 18.9487L4.51857 18.3171L4.6697 18.2545C4.75213 18.217 4.86661 18.1795 4.92615 18.1732C5.01774 18.167 5.0269 18.192 5.03147 18.5234V18.5234Z" fill="#BA8B61"/>
<path d="M25.9551 17.2601C25.9551 17.3226 25.8864 17.3539 25.6941 17.3664L25.4285 17.3852L25.4147 20.7062C25.4056 23.5644 25.3964 24.0398 25.3369 24.1086C25.3002 24.1523 25.2682 24.2524 25.2682 24.3275C25.2682 24.5338 25.3781 24.6339 25.5521 24.5776C25.6345 24.5526 26.2482 24.5151 26.9168 24.4901L28.1304 24.4525L28.1441 24.1899L28.1578 23.9209L26.9992 23.9084L25.8406 23.8897V22.3261V20.7625H26.207H26.5733L26.5596 22.2135L26.5413 23.6645L26.6558 23.702C26.7153 23.727 26.8298 23.7333 26.8985 23.7208L27.0313 23.702L27.045 22.2135L27.0542 20.725L27.2511 20.7437L27.4434 20.7625L27.4663 22.2323L27.4892 23.702L27.7548 23.7208L28.0159 23.7396V20.5436V17.3539H27.6724C27.3976 17.3539 27.3289 17.3351 27.3289 17.2601C27.3289 17.1788 27.2236 17.1663 26.642 17.1663C26.0742 17.1663 25.9551 17.1788 25.9551 17.2601ZM26.6008 18.0794C26.6237 18.0982 26.642 18.4359 26.642 18.8299C26.642 19.3244 26.649 19.3649 26.6572 19.6246C26.3208 19.6319 26.0176 19.7478 25.7784 19.6092C25.7189 19.4028 25.7307 18.1732 25.7948 18.1044C25.8177 18.0794 25.891 18.0419 25.9551 18.0231C26.0833 17.9856 26.5413 18.0231 26.6008 18.0794ZM27.2603 18.2545L27.4434 18.3421V18.9613V19.5742L27.2465 19.5929C26.9489 19.6242 26.9168 19.5554 26.9168 18.9175C26.9168 18.1169 26.926 18.0982 27.2603 18.2545V18.2545Z" fill="#BA8B61"/>
<path d="M6.75337 17.3914C6.73505 17.4164 6.72131 18.8799 6.72131 20.6374C6.72131 23.3643 6.73047 23.8521 6.79001 23.9209C6.82664 23.9647 6.8587 24.1336 6.86786 24.3149L6.88159 24.6402H7.20216C7.5044 24.6402 7.52272 24.6339 7.53646 24.4901C7.54562 24.4088 7.61431 24.2712 7.68758 24.1899L7.82039 24.0335V21.2003C7.82039 18.7861 7.81123 18.3546 7.75627 18.3108C7.71048 18.2733 7.683 18.1232 7.67384 17.823L7.6601 17.3852L7.22506 17.3664C6.98234 17.3601 6.77169 17.3664 6.75337 17.3914V17.3914Z" fill="#BA8B61"/>
<path d="M8.51647 31.3386C8.53131 30.6632 8.61694 30.5006 8.63096 31.1135C8.63526 31.3011 8.64012 31.495 8.64012 31.5325C8.6447 31.5763 8.67676 31.6138 8.71339 31.6138C8.77292 31.6138 8.78208 31.3011 8.78208 29.1809C8.78208 27.0794 8.77292 26.7417 8.71339 26.7104C8.67676 26.6917 8.6447 26.6041 8.6447 26.5165C8.6447 26.4165 8.61722 26.3602 8.57601 26.3602C8.51647 26.3602 8.50731 26.6354 8.50731 28.4804C8.50731 30.4255 8.48442 30.8195 8.39283 30.6131M8.39283 30.6131C8.37909 30.5819 8.36535 29.381 8.36535 27.9488C8.36993 25.7473 8.37909 25.3282 8.43862 25.2157C8.47526 25.1406 8.50731 24.9655 8.50731 24.8279C8.50731 24.6215 8.47984 24.5339 8.36993 24.3901L8.23255 24.2087V21.1629C8.23255 18.4672 8.24171 18.1107 8.30582 18.0795C8.35619 18.0545 8.36993 17.9669 8.36077 17.7167L8.34703 17.3852L8.11806 17.3665C7.98983 17.354 7.87077 17.3665 7.85245 17.3915C7.78834 17.4791 7.81581 18.0419 7.88909 18.0795C7.94862 18.1107 7.95778 18.5173 7.95778 21.1816V24.24L7.82497 24.4088C7.7517 24.5027 7.68301 24.634 7.67385 24.7028C7.66469 24.7966 7.61432 24.8341 7.47693 24.8592L7.29376 24.8904L7.28002 25.2157C7.27086 25.397 7.2388 25.5659 7.20217 25.6097C7.09684 25.7285 7.10142 30.7507 7.20217 30.8633C7.25254 30.9196 7.27086 31.0697 7.27086 31.4074C7.27086 31.7201 7.28918 31.8765 7.33039 31.8953C7.35787 31.9078 7.63722 31.9328 7.94404 31.9453L8.50274 31.9641L8.51647 31.3386" fill="#BA8B61"/>
<path d="M8.52565 17.429C8.50733 17.4665 8.53939 17.5478 8.59892 17.6166C8.69509 17.7229 8.82332 17.7292 10.4994 17.7292C12.1755 17.7292 12.3037 17.7229 12.3999 17.6166C12.4594 17.5478 12.4915 17.4665 12.4732 17.429C12.4274 17.3227 8.57145 17.3227 8.52565 17.429V17.429Z" fill="#BA8B61"/>
<path d="M12.6517 17.429C12.6379 17.4728 12.6334 18.8175 12.6379 20.4186L12.6517 23.3269H12.9036H13.1554L13.1646 20.8564C13.1692 19.4992 13.1737 18.3672 13.1783 18.3359C13.1783 18.3109 13.2104 18.2921 13.247 18.2921C13.3065 18.2921 13.3157 18.2108 13.3066 17.8356L13.2928 17.3853L12.9814 17.3665C12.7616 17.354 12.6654 17.3728 12.6517 17.429Z" fill="#BA8B61"/>
<path d="M18.7058 17.3915C18.6874 17.4165 18.6737 17.6167 18.6737 17.8293C18.6737 18.1107 18.692 18.2358 18.7424 18.2734C18.8019 18.3171 18.8111 18.6924 18.8202 20.8251L18.834 23.3268H19.0859H19.3377V20.356V17.3852L19.0401 17.3665C18.8752 17.354 18.7241 17.3665 18.7058 17.3915Z" fill="#BA8B61"/>
<path d="M19.5301 17.3977C19.4797 17.4602 19.4934 17.5227 19.5713 17.6291C19.6308 17.7166 19.8689 17.7291 21.4672 17.7291C23.1661 17.7291 23.2944 17.7229 23.3905 17.6166C23.6149 17.3664 23.5188 17.3539 21.4946 17.3539C20.4322 17.3539 19.5438 17.3726 19.5301 17.3977Z" fill="#BA8B61"/>
<path d="M23.6379 17.4227C23.5829 17.5541 23.615 18.0044 23.6883 18.0794C23.7478 18.142 23.7569 18.561 23.7569 21.1941V24.2399L23.6196 24.4025C23.5005 24.5401 23.4822 24.5964 23.4822 24.8904C23.4822 25.103 23.5051 25.2469 23.5509 25.2969C23.6104 25.3657 23.6196 25.7347 23.6196 27.955C23.6196 30.1753 23.6104 30.5443 23.5509 30.6131C23.4959 30.6756 23.4822 30.8382 23.4822 31.3323V31.9703L24.0226 31.9765C24.3202 31.9765 24.5904 31.9578 24.6225 31.9327C24.6545 31.9015 24.6866 31.6888 24.7003 31.4011C24.7141 31.0884 24.7461 30.882 24.7873 30.8195C24.8881 30.6819 24.8881 25.7034 24.7919 25.6284C24.7507 25.5971 24.7186 25.4533 24.7095 25.2344L24.6957 24.8904L24.5034 24.8716C24.3294 24.8528 24.3065 24.8341 24.3065 24.7027C24.3065 24.6152 24.2515 24.4901 24.1691 24.4025L24.0317 24.2399V21.2128C24.0317 18.5547 24.0409 18.1732 24.1004 18.1044C24.1554 18.0419 24.1691 17.9293 24.1599 17.7042L24.1462 17.3852L23.9081 17.3664C23.7615 17.3539 23.6608 17.3727 23.6379 17.4227V17.4227Z" fill="#BA8B61"/>
<path d="M24.3385 17.3914C24.3202 17.4164 24.3065 17.6103 24.3065 17.823C24.3065 18.0919 24.2836 18.2357 24.2378 18.292C24.1782 18.3608 24.1691 18.7611 24.1691 21.2003V24.0335L24.3019 24.1899C24.3751 24.2712 24.4438 24.4088 24.453 24.4901C24.4667 24.6339 24.4851 24.6402 24.7873 24.6402H25.1079L25.1216 24.3024C25.1308 24.096 25.1628 23.9334 25.204 23.8959C25.259 23.8396 25.2681 23.3643 25.259 20.6061L25.2452 17.3852L24.8102 17.3664C24.5675 17.3601 24.3568 17.3664 24.3385 17.3914V17.3914Z" fill="#BA8B61"/>
<path d="M1.94499 17.5791C1.89003 17.6542 1.90835 17.7793 1.99536 17.8918C2.06863 17.9919 2.07321 18.2421 2.08695 21.0127C2.09611 23.971 2.09611 24.0273 2.00452 24.1399C1.95415 24.2024 1.91293 24.2775 1.91293 24.3088C1.91293 24.3338 1.8534 24.4776 1.77555 24.6215C1.61069 24.9342 1.60611 24.9842 1.75265 25.1719L1.86256 25.3157V28.5992C1.86256 30.4005 1.87172 31.8953 1.88545 31.9078C1.92209 31.9578 2.62275 31.9515 2.68228 31.9015C2.71434 31.8765 2.73724 31.6951 2.73724 31.4762C2.73724 31.1635 2.76013 31.0572 2.87462 30.8195L3.012 30.5443V28.1927C3.012 26.2476 3.00285 25.8223 2.94789 25.741C2.91126 25.6847 2.86546 25.4721 2.84256 25.2657C2.81051 24.9405 2.79219 24.8904 2.7006 24.8717C2.60443 24.8529 2.58153 24.7778 2.59527 24.5152C2.59985 24.4464 2.54032 24.3025 2.46247 24.2024L2.32508 24.0211V21.094C2.32508 18.5298 2.33424 18.142 2.39836 18.0107C2.43499 17.9294 2.46247 17.798 2.45331 17.7167C2.43957 17.5916 2.41209 17.5729 2.2106 17.5541C2.08237 17.5416 1.96331 17.5541 1.94499 17.5791V17.5791Z" fill="#BA8B61"/>
<path d="M2.65478 17.5916C2.62273 17.6229 2.60899 17.6917 2.62731 17.748C2.64105 17.8042 2.62273 17.9356 2.58151 18.0482C2.52198 18.217 2.50824 18.6298 2.50824 21.069L2.50366 23.8897L2.61815 24.021C2.696 24.1148 2.73722 24.2399 2.74637 24.3963L2.76011 24.6402L3.10357 24.6214C3.29133 24.6089 3.50199 24.5589 3.57068 24.5089C3.67601 24.4338 3.68974 24.39 3.68517 24.1336C3.67601 23.9272 3.6989 23.8272 3.75844 23.7709C3.83171 23.6896 3.83629 23.4894 3.82713 20.6312L3.81339 17.5728L3.26385 17.5541C2.96161 17.5478 2.68684 17.5666 2.65478 17.5916V17.5916Z" fill="#BA8B61"/>
<path d="M13.4852 17.5792C13.4669 17.6042 13.4532 17.773 13.4532 17.9544C13.4532 18.1858 13.4349 18.2921 13.3845 18.3172C13.3249 18.3484 13.3158 18.6674 13.3249 20.8377L13.3387 23.3269H13.6593H13.9798V20.5437V17.7605L13.8012 17.7418C13.7005 17.7293 13.5951 17.6792 13.5677 17.6292C13.5402 17.5791 13.5035 17.5541 13.4852 17.5792Z" fill="#BA8B61"/>
<path d="M28.2266 17.5916C28.1762 17.7042 28.1899 23.6583 28.2403 23.7896C28.2678 23.8584 28.2907 24.0273 28.2907 24.1649C28.2907 24.5276 28.4235 24.6339 28.8814 24.6402H29.2295L29.2432 24.4025C29.2524 24.2649 29.3027 24.1023 29.3714 24.0023L29.4813 23.8396V22.251C29.4817 21.2462 29.4784 19.8794 29.4401 18.88C29.4172 18.8487 29.3852 18.611 29.3714 18.3546C29.3256 17.479 29.3989 17.5728 28.7852 17.5541C28.4922 17.5478 28.2403 17.5603 28.2266 17.5916V17.5916Z" fill="#BA8B61"/>
<path d="M29.5042 17.6605C29.4767 17.7855 29.5409 18.067 29.6095 18.1295C29.6324 18.1483 29.6553 19.3867 29.6599 21.0878L29.6691 24.0148L29.5317 24.1587C29.4218 24.265 29.3943 24.3526 29.3806 24.559C29.3668 24.7841 29.3485 24.8279 29.2523 24.8592C29.1516 24.8905 29.1379 24.9342 29.1241 25.2344C29.115 25.4158 29.0783 25.6285 29.0417 25.6973C28.9409 25.8911 28.9455 30.6257 29.0463 30.7382C29.0829 30.782 29.115 30.8508 29.115 30.8946C29.115 30.9384 29.147 31.0072 29.1837 31.051C29.2249 31.0947 29.2523 31.2699 29.2615 31.5388L29.2752 31.9578L29.6324 31.9766C29.8614 31.9891 30.0171 31.9703 30.0583 31.9203C30.1133 31.8578 30.1224 31.3136 30.1224 28.5868V25.3157L30.2369 25.1719C30.301 25.0906 30.3514 24.9968 30.3514 24.9655C30.3514 24.8905 30.0309 24.215 29.9438 24.1212C29.8843 24.0524 29.8752 23.8085 29.8889 22.2699C29.8283 21.2005 29.8873 20.0649 29.8935 19.0739C29.8935 18.2859 29.9072 18.042 29.9622 17.9419C29.9988 17.8794 30.0309 17.7605 30.0309 17.6792C30.0309 17.5541 30.008 17.5416 29.7836 17.5416C29.5775 17.5416 29.5271 17.5604 29.5042 17.6605V17.6605Z" fill="#BA8B61"/>
<path d="M18.399 17.6604C18.399 17.6979 18.312 17.7292 18.2067 17.7417L18.0098 17.7605V20.5437V23.3268H18.3303H18.6509L18.6646 20.8376C18.6738 18.6674 18.6646 18.3484 18.6051 18.3171C18.5547 18.2858 18.5364 18.1858 18.5364 17.9419C18.5364 17.6854 18.5181 17.6041 18.4677 17.6041C18.4311 17.6041 18.399 17.6291 18.399 17.6604Z" fill="#BA8B61"/>
<path d="M14.1675 17.7854C14.1538 17.8167 14.1721 17.873 14.2088 17.9168C14.2454 17.9606 14.2775 18.0544 14.2775 18.1294C14.2775 18.1982 14.2958 18.292 14.3141 18.3296C14.3645 18.4421 14.5934 18.4734 14.6484 18.3796C14.6759 18.3296 14.7308 18.292 14.7675 18.292C14.8178 18.292 14.827 18.3984 14.8178 18.8362C14.8041 19.374 14.7995 19.3865 14.6896 19.3865C14.6209 19.3865 14.5705 19.4303 14.5614 19.4991C14.5522 19.5679 14.5018 19.6054 14.4103 19.6054H14.2775V19.0363C14.2775 18.611 14.2637 18.4734 14.2225 18.4922C14.1767 18.5172 14.163 18.7173 14.163 19.2364V19.9494H15.9948H17.8265V19.2364C17.8265 18.7173 17.8128 18.5172 17.7716 18.4922C17.7258 18.4734 17.7121 18.611 17.7121 19.0363V19.6054H17.5792C17.4877 19.6054 17.4419 19.5679 17.4235 19.4804C17.4052 19.3928 17.3686 19.3615 17.2907 19.3678C17.19 19.3865 17.1854 19.374 17.1717 18.8362C17.1625 18.3671 17.1671 18.292 17.2358 18.292C17.277 18.292 17.3182 18.3483 17.332 18.4171C17.3503 18.5047 17.3732 18.5234 17.4098 18.4859C17.4373 18.4547 17.5106 18.4171 17.5747 18.4046C17.6617 18.3921 17.6937 18.3421 17.7029 18.1982C17.7121 18.0919 17.7487 17.9668 17.7853 17.9105C17.822 17.8542 17.8357 17.7917 17.8174 17.7729C17.7716 17.7104 14.195 17.7229 14.1675 17.7854V17.7854ZM15.1384 18.9675C15.1521 19.5742 15.1475 19.6054 15.056 19.6054C14.969 19.6054 14.9644 19.5679 14.9644 18.9425C14.9644 18.3483 14.9735 18.2858 15.0468 18.3045C15.1155 18.3233 15.1247 18.4109 15.1384 18.9675ZM17.0251 18.9487C17.0251 19.5492 17.016 19.6054 16.9381 19.6054C16.8236 19.6054 16.7962 19.4866 16.7962 19.0113C16.7962 18.5547 16.8557 18.292 16.9564 18.292C17.0114 18.292 17.0251 18.4046 17.0251 18.9487Z" fill="#BA8B61"/>
<path d="M0.584839 18.0107C0.584839 18.0795 0.66269 18.1045 0.91914 18.117L1.24886 18.1358L1.27176 21.4819C1.29466 24.7404 1.29924 24.8279 1.38167 24.8279C1.44578 24.8279 1.48241 24.7654 1.50989 24.6278C1.53279 24.5215 1.62896 24.3151 1.72971 24.1775L1.91288 23.9273V21.0253C1.91288 18.2922 1.90831 18.117 1.83045 18.0232C1.71139 17.8731 0.584839 17.8669 0.584839 18.0107V18.0107Z" fill="#BA8B61"/>
<path d="M8.53023 17.9919C8.51649 18.0357 8.51191 19.3804 8.51649 20.9815L8.53023 23.8897H8.64471H8.7592L8.77294 21.1378C8.7821 18.7174 8.79126 18.3797 8.85537 18.3109C8.89658 18.2734 8.91948 18.1733 8.91032 18.092C8.90116 17.9731 8.86453 17.9419 8.72256 17.9294C8.61266 17.9169 8.54396 17.9356 8.53023 17.9919V17.9919Z" fill="#BA8B61"/>
<path d="M9.08886 17.9544C9.07054 17.9794 9.0568 18.0795 9.0568 18.1733C9.0568 18.2671 9.03848 18.3672 9.011 18.3859C8.98353 18.4109 8.96521 19.3991 8.96521 21.1441C8.96521 22.9141 8.97895 23.8585 9.011 23.8585C9.03848 23.8585 9.0568 23.3081 9.0568 22.3261V20.7938L9.16671 20.7563C9.22624 20.7375 9.32699 20.7313 9.38194 20.7438L9.49185 20.7626L9.50559 22.3074L9.51475 23.8585L9.62465 23.896C9.68419 23.9147 9.78494 23.921 9.83989 23.9085L9.9498 23.8897L9.97269 22.3261L9.99559 20.7626H10.3619H10.7283L10.7512 22.3261L10.7741 23.8897H11.0031H11.232L11.2458 21.2066C11.2549 18.9738 11.2458 18.4985 11.1908 18.3859C11.1542 18.3109 11.1176 18.1858 11.1084 18.0982L11.0947 17.9481L10.1055 17.9294C9.56512 17.9231 9.10717 17.9356 9.08886 17.9544V17.9544ZM10.8336 18.9363C10.8376 19.2169 10.8446 19.4281 10.8336 19.6425C10.3599 19.6233 10.2235 19.6186 10.0002 19.593C9.91318 19.5742 9.90402 19.5305 9.89028 19.0176C9.88112 18.7112 9.89028 18.4172 9.89944 18.3734C9.91776 18.3046 10.0277 18.2921 10.3711 18.3046L10.8199 18.3234L10.8336 18.9363ZM9.55596 18.4422C9.62007 18.5423 9.61549 19.4179 9.55138 19.5242C9.50101 19.6118 9.32699 19.6305 9.16213 19.568C9.06138 19.5305 9.0568 19.4929 9.0568 19.0114C9.0568 18.5423 9.06596 18.4923 9.16213 18.4297C9.30409 18.3359 9.49643 18.3421 9.55596 18.4422Z" fill="#BA8B61"/>
<path d="M11.2734 18.0106C11.255 18.0669 11.2779 18.1607 11.3191 18.2233C11.3833 18.3171 11.3924 18.6486 11.4016 21.019L11.4153 23.7021L11.5206 23.7208C11.5802 23.7333 11.6626 23.7021 11.7084 23.6458C11.7588 23.5832 11.9007 23.5457 12.1251 23.5332L12.4686 23.5144V20.7313V17.9481L11.8824 17.9293C11.3878 17.9168 11.2962 17.9293 11.2734 18.0106V18.0106Z" fill="#BA8B61"/>
<path d="M19.5301 17.9607C19.5118 17.9794 19.498 19.249 19.498 20.7751V23.5458H19.8598C20.1254 23.5458 20.2353 23.5708 20.2766 23.6396C20.3086 23.6896 20.391 23.7334 20.4643 23.7334H20.5971V21.0378C20.5925 18.6048 20.6017 18.3297 20.6704 18.2233C20.7116 18.1608 20.7345 18.067 20.7208 18.0107C20.6979 17.9356 20.5925 17.9169 20.1254 17.9169C19.814 17.9169 19.5438 17.9356 19.5301 17.9607V17.9607Z" fill="#BA8B61"/>
<path d="M20.9039 17.9606C20.8856 17.9794 20.8719 18.0607 20.8719 18.1358C20.8719 18.2171 20.8398 18.3109 20.8032 18.3547C20.7436 18.4235 20.7345 18.7925 20.7437 21.1628L20.7574 23.8897L20.8902 23.9085C20.9589 23.921 21.0688 23.9147 21.1283 23.896L21.2382 23.8585L21.2474 22.3074L21.2611 20.7626L21.6137 20.7438L21.9709 20.725L21.9801 22.3074L21.9938 23.8897H22.1999H22.406L22.4289 22.3262L22.4518 20.7626L22.6029 20.7438C22.6853 20.7313 22.7159 20.89 22.8227 20.8001C22.8494 20.7776 22.8727 23.8828 22.8924 23.8638C22.9121 23.8448 22.9282 23.8212 22.9407 23.7803C22.9531 23.7394 22.9618 20.5617 22.9666 20.4734C22.9714 20.3852 22.9723 20.2669 22.9693 20.1059C22.9587 19.5491 22.951 19.5117 22.8639 19.5305C22.3785 19.643 22.3831 19.6493 22.3831 18.9738C22.3831 18.461 22.4243 18.3547 22.6121 18.3547C22.7998 18.3547 22.8823 18.5235 22.8594 18.8487C22.8502 18.9989 22.8688 19.5502 22.9031 19.5887C22.9518 19.6063 22.9281 19.1114 22.9326 18.6611C22.9326 18.1107 22.9189 17.9857 22.8594 17.9544C22.7632 17.9043 20.9406 17.9043 20.9039 17.9606V17.9606ZM22.0854 18.9488C22.0854 19.5367 22.0874 19.4497 22.087 19.6108C21.6462 19.6109 21.4342 19.61 21.2657 19.593C21.1787 19.5743 21.1695 19.5305 21.1558 19.0176C21.1466 18.7112 21.1558 18.4172 21.165 18.3734C21.1833 18.3046 21.2932 18.2921 21.6366 18.3046L22.0854 18.3234V18.9488Z" fill="#BA8B61"/>
<path d="M23.1021 17.9544C23.0564 18.0232 23.0609 18.2546 23.1159 18.3296C23.1434 18.3671 23.1663 19.4304 23.1708 21.1378L23.1846 23.8897H23.322H23.4593V20.9189V17.9481L23.2991 17.9293C23.2075 17.9168 23.1205 17.9293 23.1021 17.9544V17.9544Z" fill="#BA8B61"/>
<path d="M30.0583 18.4297C30.0446 18.7174 30.0309 20.0496 30.0354 21.4005C30.04 24.1149 30.0171 23.896 30.3423 24.3651C30.4018 24.4464 30.4613 24.5965 30.4751 24.6903C30.4934 24.8216 30.5254 24.8592 30.5896 24.8467C30.6812 24.8279 30.6811 24.7591 30.6766 21.5068C30.6674 18.4923 30.6766 18.1796 30.7407 18.142C30.7819 18.1233 30.9605 18.1045 31.1345 18.1045C31.3864 18.1045 31.4505 18.0857 31.4505 18.0107C31.4505 17.9294 31.3452 17.9169 30.7682 17.9169H30.0858L30.0583 18.4297V18.4297Z" fill="#BA8B61"/>
<path d="M0.561992 18.3547C0.548254 18.3922 0.594048 18.5298 0.671899 18.6611L0.813863 18.9051L0.823022 21.8634L0.83676 24.8279L0.964985 24.8467L1.08863 24.8654L1.07947 21.5944L1.06573 18.3234L0.827601 18.3046C0.694797 18.2921 0.58031 18.3172 0.561992 18.3547V18.3547Z" fill="#BA8B61"/>
<path d="M30.9055 18.3797C30.8688 18.436 30.8597 19.3491 30.8642 21.6445L30.878 24.8279H31.0154H31.1528L31.1665 21.8634L31.1757 18.9051L31.313 18.6674C31.3909 18.5361 31.4504 18.3985 31.4504 18.3609C31.4504 18.2609 30.9696 18.2734 30.9055 18.3797Z" fill="#BA8B61"/>
<path d="M31.7482 18.586C31.6978 18.5985 31.6108 18.6235 31.5558 18.6423C31.4963 18.6548 31.4505 18.6986 31.4505 18.7361C31.4505 18.7736 31.4184 18.8424 31.3818 18.8924C31.3223 18.9738 31.3131 19.399 31.3131 21.9258C31.3131 24.4901 31.3223 24.8591 31.3818 24.8591C31.4505 24.8591 31.4642 24.1523 31.4734 19.987C31.4734 19.4053 31.4826 19.3303 31.565 19.2677C31.9313 18.9863 32.1008 18.6673 31.9268 18.5797C31.8855 18.561 31.8535 18.5485 31.8489 18.5485C31.8443 18.5547 31.7985 18.5672 31.7482 18.586V18.586Z" fill="#BA8B61"/>
<path d="M0.00324607 18.7112C-0.0288102 18.8175 0.181845 19.1052 0.40166 19.2491C0.506988 19.3241 0.516147 19.3554 0.506988 19.7619C0.497829 20.0058 0.497829 20.281 0.497829 20.3873C0.520726 24.0086 0.539044 24.8279 0.593998 24.8279C0.639792 24.8279 0.65811 24.2525 0.667269 22.076C0.671849 20.5625 0.667269 19.2365 0.653531 19.1302C0.612315 18.8113 0.438296 18.6049 0.218481 18.6049C0.0856765 18.6049 0.0261434 18.6361 0.00324607 18.7112V18.7112Z" fill="#BA8B61"/>
<path d="M14.1813 20.2372C14.1538 20.2559 14.1446 20.9064 14.1492 21.8007C14.1629 23.2955 14.1629 23.3268 14.2591 23.3455C14.3095 23.3581 14.3827 23.3205 14.4148 23.2642C14.4927 23.1392 14.63 23.1454 14.685 23.2768C14.7262 23.3831 14.7308 23.3831 14.8132 23.2768C14.9231 23.1454 15.0285 23.1392 15.1017 23.2642C15.1475 23.3393 15.3078 23.3581 16.0039 23.3581C16.7091 23.3581 16.8511 23.3455 16.8694 23.2642C16.8877 23.2142 16.9473 23.1704 17.0068 23.1704C17.0709 23.1704 17.1304 23.2142 17.1442 23.2642C17.1625 23.3143 17.1991 23.3581 17.2312 23.3581C17.2632 23.3581 17.2999 23.3143 17.3182 23.2642C17.3502 23.1392 17.5014 23.1454 17.5746 23.2642C17.6067 23.3205 17.68 23.3581 17.7303 23.3455C17.8265 23.3268 17.8265 23.2955 17.8402 21.832C17.8448 20.8376 17.8357 20.3122 17.8036 20.2684C17.7532 20.1996 14.2637 20.1684 14.1813 20.2372V20.2372ZM14.6713 20.9564C14.7079 21.1503 14.6071 21.3191 14.4927 21.2566C14.4148 21.2191 14.3827 20.9189 14.4469 20.8376C14.5201 20.7375 14.6438 20.8 14.6713 20.9564ZM15.0373 21.0189C15.0465 21.169 15.0327 21.2253 14.9595 21.2504C14.8495 21.2879 14.7717 21.1878 14.7717 21.0127C14.7717 20.8376 14.8129 20.7813 14.932 20.8063C14.9961 20.8188 15.0281 20.8813 15.0373 21.0189V21.0189ZM17.135 20.8939C17.2083 21.1565 17.1167 21.3379 16.9564 21.2566C16.8877 21.2191 16.8602 20.9126 16.9198 20.8376C16.9747 20.7563 17.1075 20.7938 17.135 20.8939ZM17.5655 20.9877C17.5746 21.0815 17.5472 21.1816 17.5059 21.2316C17.396 21.3567 17.277 21.1753 17.3182 20.9501C17.3594 20.725 17.5472 20.75 17.5655 20.9877V20.9877ZM14.6804 21.8945C14.6942 22.2948 14.6255 22.4699 14.4835 22.3949C14.4331 22.3699 14.4148 22.2636 14.4148 21.9633C14.4148 21.5255 14.4331 21.4693 14.5751 21.4943C14.6529 21.513 14.6667 21.5631 14.6804 21.8945ZM15.0788 21.9508C15.0788 22.3761 15.0742 22.3886 14.9643 22.3886C14.859 22.3886 14.8499 22.3636 14.8361 22.0196C14.8178 21.5631 14.8453 21.4693 14.9735 21.4943C15.0697 21.513 15.0788 21.5443 15.0788 21.9508V21.9508ZM17.1396 21.9508C17.1396 22.3761 17.135 22.3886 17.0251 22.3886C16.9198 22.3886 16.9106 22.3636 16.8969 22.0196C16.8786 21.5631 16.906 21.4693 17.0343 21.4943C17.1304 21.513 17.1396 21.5443 17.1396 21.9508V21.9508ZM17.5517 21.9508C17.5517 22.3761 17.5472 22.3886 17.4373 22.3886C17.3319 22.3886 17.3228 22.3636 17.309 22.0196C17.2907 21.5631 17.3182 21.4693 17.4464 21.4943C17.5426 21.513 17.5517 21.5443 17.5517 21.9508V21.9508ZM14.6758 22.7076C14.7079 22.8327 14.5751 22.9891 14.4789 22.939C14.4148 22.9077 14.3919 22.7201 14.4469 22.6513C14.5018 22.57 14.6484 22.6075 14.6758 22.7076V22.7076ZM15.0926 22.7702C15.1063 22.9077 15.001 22.9891 14.8865 22.939C14.8224 22.9077 14.8086 22.7201 14.859 22.6451C14.9231 22.5575 15.0788 22.6388 15.0926 22.7702ZM17.1442 22.7014C17.1854 22.8389 17.0846 22.9765 16.9793 22.939C16.9198 22.9203 16.8877 22.8515 16.8877 22.7576C16.8877 22.6388 16.9106 22.6075 17.0022 22.6075C17.0663 22.6075 17.1304 22.6513 17.1442 22.7014V22.7014ZM17.5655 22.7702C17.5838 22.939 17.4464 23.0203 17.3548 22.8952C17.2587 22.7702 17.3182 22.595 17.4464 22.62C17.5105 22.6326 17.5563 22.6888 17.5655 22.7702Z" fill="#BA8B61"/>
<path d="M12.6288 23.6395C12.5876 23.7083 12.4731 23.7333 12.1937 23.7333C11.9144 23.7333 11.7999 23.7583 11.7587 23.8271C11.7266 23.8772 11.6625 23.9209 11.6167 23.9209C11.5435 23.9209 11.5297 23.971 11.5297 24.2587C11.5297 24.4776 11.5068 24.6214 11.461 24.6715C11.3694 24.7778 11.3694 25.2343 11.461 25.2343C11.5068 25.2343 11.5297 25.3282 11.5389 25.5908L11.5526 25.9536L11.8686 25.9724C12.125 25.9849 12.1892 25.9724 12.2395 25.8785C12.2991 25.7722 12.4914 25.766 15.9672 25.766C19.3606 25.7722 19.6354 25.7785 19.7178 25.8785C19.7819 25.9598 19.8873 25.9849 20.13 25.9849H20.4597V25.6409C20.4597 25.3907 20.478 25.2844 20.5284 25.2594C20.5742 25.2343 20.5971 25.1343 20.5971 24.9529C20.5971 24.7715 20.5742 24.6715 20.5284 24.6464C20.478 24.6214 20.4597 24.5151 20.4597 24.2649C20.4597 23.971 20.4459 23.9209 20.3727 23.9209C20.3269 23.9209 20.2628 23.8772 20.2307 23.8271C20.1895 23.7583 20.0796 23.7333 19.8231 23.7333C19.5896 23.7271 19.4476 23.702 19.3881 23.6395C19.2507 23.4956 12.7158 23.5019 12.6288 23.6395V23.6395Z" fill="#BA8B61"/>
<path d="M8.53933 24.1462C8.52101 24.1712 8.53475 24.2337 8.56681 24.2837C8.59429 24.3338 8.63092 24.5339 8.64466 24.7278L8.66756 25.078L9.74373 25.0968C11.0443 25.1218 11.2092 25.0968 11.2092 24.8967C11.2092 24.8154 11.2504 24.6778 11.3053 24.584C11.3557 24.4964 11.3923 24.3588 11.3832 24.2837L11.3694 24.1399L9.96813 24.1211C9.19878 24.1149 8.55765 24.1274 8.53933 24.1462V24.1462Z" fill="#BA8B61"/>
<path d="M20.6291 24.1524C20.5788 24.2212 20.5925 24.4214 20.6612 24.5965C20.6978 24.6903 20.739 24.8404 20.7574 24.9405L20.7803 25.1094L22.0534 25.0968L23.3219 25.0781L23.3356 24.7341C23.3448 24.5465 23.3814 24.3463 23.418 24.29C23.4547 24.24 23.4684 24.1712 23.4501 24.1524C23.4135 24.0962 20.6658 24.0962 20.6291 24.1524V24.1524Z" fill="#BA8B61"/>
<path d="M3.74473 24.7403C3.65772 24.7716 3.46081 24.8216 3.30968 24.8466L3.03492 24.8904L3.02118 25.1594C3.01202 25.3282 3.03492 25.4908 3.07613 25.5784C3.14024 25.7097 3.1494 26.0662 3.1494 28.199V30.6757L3.01202 30.9759C2.90211 31.2261 2.87463 31.3511 2.87463 31.6388V31.9953L3.14024 31.9766L3.40127 31.9578L3.41043 29.8313C3.41959 28.1614 3.43791 27.6673 3.48828 27.5172C3.52492 27.4109 3.58903 27.217 3.63941 27.0794C3.77077 26.6966 4.03299 26.3851 4.24847 26.1913C4.52391 25.9323 4.71138 25.9599 5.01325 25.9599C5.60853 26.0102 5.7183 26.0853 6.10316 26.5291C6.3502 26.8475 6.38796 27.0499 6.51073 27.3484C6.68475 27.8112 6.72139 28.3053 6.72139 30.1315C6.72139 32.0704 6.71681 32.0329 6.98242 31.9328C7.10148 31.889 7.11064 31.864 7.12438 31.5263C7.13354 31.2761 7.11522 31.1197 7.06943 31.0134C7.00532 30.8883 6.99616 30.5068 6.99616 28.1865C6.99616 25.8348 7.00532 25.4908 7.06943 25.422C7.11522 25.3658 7.13354 25.2594 7.12438 25.1156L7.11064 24.8904L6.72139 24.8717C6.50615 24.8654 6.2726 24.8279 6.19475 24.7904C6.01157 24.6965 3.95539 24.659 3.74473 24.7403V24.7403Z" fill="#BA8B61"/>
<path d="M25.9551 24.7403C25.8406 24.7716 25.5521 24.8216 25.314 24.8466L24.8789 24.8904L24.8652 25.1156C24.856 25.2594 24.8743 25.3657 24.9201 25.422C24.9842 25.4908 24.9934 25.8348 24.9934 28.1552C24.9934 30.4442 24.9842 30.8258 24.9247 30.9508C24.8697 31.0572 24.856 31.2198 24.8652 31.5262L24.8789 31.9578H25.0621H25.2453L25.2682 29.9877C25.2865 28.6055 25.3094 27.9675 25.3506 27.8424C25.3781 27.7424 25.3567 27.6919 25.4055 27.5235C25.5364 26.8339 26.0526 26.2595 26.3077 26.085C26.4881 26.0001 26.6145 25.9661 26.958 25.9661C27.4571 25.9724 27.6639 26.1107 27.9563 26.4102C28.2731 26.7503 28.4351 27.1639 28.4967 27.611C28.5516 27.7361 28.5608 28.1677 28.5654 29.8751V31.9891H28.8356H29.1012L29.1241 31.6763C29.1515 31.3136 29.1241 31.0509 29.06 31.0509C29.0371 31.0509 28.9775 30.9884 28.9272 30.9071C28.8493 30.7757 28.8447 30.6194 28.8401 28.1989C28.8401 25.9474 28.8493 25.6159 28.9088 25.5471C28.9592 25.4908 28.9775 25.3782 28.9684 25.1781L28.9546 24.8904L28.7028 24.8529C28.5654 24.8279 28.3776 24.7841 28.2906 24.7403C28.0983 24.659 26.2665 24.659 25.9551 24.7403V24.7403Z" fill="#BA8B61"/>
<path d="M30.5254 25.1531C30.4979 25.1968 30.4521 25.2344 30.42 25.2344C30.388 25.2344 30.3513 25.2969 30.333 25.372C30.3193 25.4533 30.3055 26.9418 30.3055 28.6805C30.3055 31.3136 30.3147 31.8639 30.3697 31.9202C30.4109 31.9703 30.6032 31.989 30.9283 31.9765L31.4275 31.9578L31.4504 28.7368C31.4641 26.9668 31.4779 25.5096 31.487 25.5033C31.4916 25.497 31.542 25.4845 31.6015 25.472C31.716 25.4533 31.771 25.1906 31.6702 25.1405C31.6382 25.128 31.3771 25.103 31.0932 25.0968C30.7177 25.0843 30.5574 25.103 30.5254 25.1531V25.1531Z" fill="#BA8B61"/>
<path d="M0.282536 25.2031C0.24132 25.347 0.296274 25.4846 0.401602 25.4846C0.451976 25.4846 0.497771 25.4908 0.50235 25.4971C0.511509 25.5096 0.525248 26.9606 0.538986 28.7306L0.561883 31.9453H1.08852L1.61516 31.939L1.6289 28.6367L1.63806 25.3282L1.53731 25.2219C1.39077 25.0718 0.323751 25.053 0.282536 25.2031V25.2031Z" fill="#BA8B61"/>
<path d="M20.6292 25.272C20.6109 25.297 20.5972 25.5096 20.5972 25.7473V26.1726L22.0305 26.1601L23.4593 26.1413L23.4731 25.8098C23.4868 25.5096 23.4777 25.4784 23.3677 25.4221C23.2991 25.3845 22.7175 25.3595 21.9985 25.3595C21.2154 25.3595 20.7346 25.3345 20.7071 25.297C20.6796 25.2595 20.6475 25.2532 20.6292 25.272V25.272Z" fill="#BA8B61"/>
<path d="M11.1177 25.3532C11.0307 25.3782 10.4628 25.3845 9.85832 25.3719C9.13019 25.3532 8.71804 25.3719 8.63103 25.4157C8.51196 25.4783 8.5028 25.5033 8.51654 25.8097L8.53028 26.1412H9.94991H11.3695L11.3833 25.866C11.4016 25.5658 11.365 25.2906 11.31 25.3031C11.2917 25.3094 11.2047 25.3344 11.1177 25.3532V25.3532Z" fill="#BA8B61"/>
<path d="M12.3861 26.0225C12.3311 26.0975 12.3494 26.2789 12.4227 26.3602C12.528 26.479 12.528 31.3074 12.4181 31.4262C12.3723 31.4825 12.354 31.5888 12.3632 31.7327C12.3769 31.9516 12.3815 31.9578 12.5601 31.9578C12.7387 31.9578 12.7433 31.9516 12.757 31.7327C12.7662 31.5888 12.7479 31.4825 12.7021 31.4262C12.6379 31.3574 12.6288 31.0322 12.6288 28.8932C12.6288 26.7542 12.6379 26.429 12.6975 26.3602C12.7387 26.3164 12.7662 26.2164 12.757 26.1476C12.7479 26.0475 12.7066 26.01 12.583 25.9975C12.4914 25.985 12.4044 25.9975 12.3861 26.0225Z" fill="#BA8B61"/>
<path d="M12.9357 26.0224C12.9174 26.0474 12.9036 26.16 12.9036 26.2663C12.9036 26.3789 12.8716 26.504 12.8349 26.5477C12.7754 26.6165 12.7662 26.9543 12.7662 28.8743V31.1259L12.8945 31.3073C12.9632 31.4136 13.0273 31.5825 13.041 31.7201L13.0639 31.9452H13.6134C14.2225 31.939 14.2775 31.9014 14.2775 31.5137C14.2775 31.4073 14.3095 31.2823 14.3462 31.2385C14.4469 31.1259 14.4515 26.6666 14.3507 26.5477C14.3141 26.5102 14.2775 26.3726 14.2683 26.2475L14.2546 26.0161L13.6089 25.9974C13.2562 25.9911 12.954 26.0036 12.9357 26.0224Z" fill="#BA8B61"/>
<path d="M14.4469 26.0225C14.3919 26.0975 14.4102 26.2789 14.4835 26.3602C14.5888 26.479 14.5888 31.3074 14.4789 31.4262C14.4331 31.4825 14.4148 31.5888 14.424 31.7327C14.4377 31.9516 14.4423 31.9578 14.6209 31.9578C14.7995 31.9578 14.8041 31.9516 14.8178 31.7327C14.827 31.5888 14.8086 31.4825 14.7629 31.4262C14.6987 31.3574 14.6896 31.0322 14.6896 28.8932C14.6896 26.7542 14.6987 26.429 14.7583 26.3602C14.7995 26.3164 14.827 26.2164 14.8178 26.1476C14.8086 26.0475 14.7674 26.01 14.6438 25.9975C14.5522 25.985 14.4652 25.9975 14.4469 26.0225Z" fill="#BA8B61"/>
<path d="M14.9965 26.0224C14.9781 26.0474 14.9644 26.1725 14.9644 26.3038C14.9644 26.4477 14.9415 26.5477 14.8957 26.5728C14.8362 26.604 14.827 26.9167 14.827 28.8806C14.827 30.8319 14.8362 31.1697 14.8957 31.2385C14.9324 31.2823 14.9644 31.4198 14.9644 31.5512C14.9644 31.6825 14.9965 31.8201 15.0331 31.8639C15.0789 31.9139 15.372 31.939 16.0497 31.9452H17.0023L17.016 31.6075C17.0252 31.3948 17.0572 31.251 17.0984 31.2197C17.1946 31.1447 17.1946 26.6603 17.0984 26.5477C17.0618 26.5102 17.0252 26.3726 17.016 26.2475L17.0023 26.0161L16.0131 25.9974C15.4727 25.9911 15.0148 26.0036 14.9965 26.0224Z" fill="#BA8B61"/>
<path d="M17.1946 26.0225C17.1396 26.0975 17.1579 26.2789 17.2312 26.3602C17.3365 26.479 17.3365 31.3074 17.2266 31.4262C17.1808 31.4825 17.1625 31.5888 17.1717 31.7327C17.1854 31.9516 17.19 31.9578 17.3686 31.9578C17.5472 31.9578 17.5517 31.9516 17.5655 31.7327C17.5746 31.5888 17.5563 31.4825 17.5105 31.4262C17.4464 31.3574 17.4373 31.0322 17.4373 28.8932C17.4373 26.7542 17.4464 26.429 17.506 26.3602C17.5472 26.3164 17.5746 26.2164 17.5655 26.1476C17.5563 26.0475 17.5151 26.01 17.3915 25.9975C17.2999 25.985 17.2129 25.9975 17.1946 26.0225Z" fill="#BA8B61"/>
<path d="M17.7441 26.0224C17.7258 26.0474 17.712 26.16 17.712 26.2663C17.712 26.3789 17.68 26.504 17.6433 26.5477C17.5426 26.6603 17.538 31.1196 17.6433 31.2385C17.68 31.276 17.712 31.4511 17.7212 31.6325L17.7349 31.9515H18.3989H19.063L19.0767 31.6325C19.0859 31.4511 19.1179 31.276 19.1546 31.2385C19.2553 31.1259 19.2553 26.6603 19.1591 26.5477C19.1225 26.5102 19.0859 26.3726 19.0767 26.2475L19.063 26.0161L18.4173 25.9974C18.0646 25.9911 17.7624 26.0036 17.7441 26.0224V26.0224Z" fill="#BA8B61"/>
<path d="M19.2553 26.0286C19.2004 26.0974 19.2187 26.2788 19.292 26.3601C19.3973 26.479 19.3973 31.3073 19.2874 31.4261C19.2416 31.4824 19.2233 31.5887 19.2324 31.7326C19.2462 31.9515 19.2553 31.9577 19.4431 31.9765L19.6354 31.9953V31.7513C19.6354 31.6075 19.608 31.4699 19.5667 31.4261C19.5072 31.3573 19.4981 31.0008 19.4981 28.8931C19.4981 26.7854 19.5072 26.4289 19.5667 26.3601C19.6034 26.3163 19.6354 26.2163 19.6354 26.135C19.6354 26.0036 19.6125 25.9849 19.4614 25.9849C19.3652 25.9849 19.2691 26.0036 19.2553 26.0286Z" fill="#BA8B61"/>
<path d="M4.43618 26.3101C4.0467 26.6228 3.79671 27.0393 3.65767 27.5735C3.56608 27.9488 3.5615 28.0613 3.57066 29.9627L3.5844 31.9578H3.7401C4.01945 31.9578 4.01945 31.9703 4.01945 30.0315C4.01945 28.1239 4.03318 28.0051 4.27132 27.5735C4.44534 27.2545 4.54608 27.1607 4.79796 27.0669C5.22843 26.9043 5.66347 27.2045 5.91077 27.8299C6.00693 28.0676 6.01151 28.1802 6.03441 30.0189L6.05731 31.9515L6.23133 31.9578C6.32292 31.964 6.41909 31.939 6.44656 31.8952C6.49694 31.8139 6.51526 28.4929 6.46946 27.9863C6.39748 27.4461 6.15656 26.8226 5.88787 26.5353C5.56731 26.2288 5.4345 26.1725 5.02693 26.1788C4.73842 26.1788 4.58272 26.2163 4.43618 26.3101V26.3101Z" fill="#BA8B61"/>
<path d="M11.5481 26.2413C11.4931 26.3726 11.5206 26.6916 11.5938 26.7479C11.658 26.7979 11.6671 27.0919 11.6671 29.1808C11.6671 31.2322 11.658 31.5575 11.5984 31.5887C11.5572 31.6137 11.5297 31.7076 11.5297 31.8076C11.5297 31.9827 11.5389 31.989 11.7358 31.989C11.9327 31.989 11.9419 31.9827 11.9419 31.8076C11.9419 31.7076 11.9144 31.6137 11.8732 31.5887C11.8137 31.5575 11.8045 31.2322 11.8045 29.1746C11.8045 27.1169 11.8137 26.7917 11.8732 26.7604C11.919 26.7354 11.9419 26.6353 11.9419 26.4477V26.1725H11.7633C11.6625 26.1725 11.5664 26.2038 11.5481 26.2413V26.2413Z" fill="#BA8B61"/>
<path d="M20.0247 26.235C19.9834 26.3288 20.0476 26.7229 20.1208 26.8042C20.217 26.9105 20.2078 31.5449 20.1117 31.595C20.075 31.6137 20.0476 31.7076 20.0476 31.8076C20.0476 31.9827 20.0567 31.989 20.2536 31.989C20.4505 31.989 20.4597 31.9827 20.4597 31.8076C20.4597 31.7076 20.4322 31.6137 20.391 31.5887C20.3315 31.5575 20.3223 31.2322 20.3223 29.1746C20.3223 27.1169 20.3315 26.7917 20.391 26.7604C20.4368 26.7354 20.4597 26.6353 20.4597 26.4477V26.1725H20.2582C20.1437 26.1725 20.0384 26.1975 20.0247 26.235V26.235Z" fill="#BA8B61"/>
<path d="M26.2665 26.3789C25.9139 26.6478 25.6025 27.2357 25.5155 27.7986C25.4972 27.9174 25.4743 28.8931 25.4651 29.9689L25.4468 31.9202L25.6071 31.9577C25.9551 32.0515 25.9276 32.1829 25.9551 29.9876C25.9826 27.7861 25.9734 27.8299 26.3306 27.3608C26.468 27.1732 26.555 27.1106 26.7336 27.0794C27.2053 26.9918 27.535 27.1857 27.7823 27.7048L27.9014 27.955L27.9243 29.9126C27.9517 32.0703 27.938 32.0078 28.2448 31.9765L28.4051 31.9577V29.8938C28.4051 27.8299 28.396 27.6673 28.2403 27.2983C28.2174 27.2482 28.1807 27.1482 28.1578 27.0794C28.0891 26.8542 27.7365 26.4289 27.5213 26.2976C27.3656 26.2038 27.219 26.1725 26.9214 26.1725C26.5642 26.1787 26.5046 26.1975 26.2665 26.3789V26.3789Z" fill="#BA8B61"/>
<path d="M12.1296 26.4602C12.1251 26.5602 12.093 26.7041 12.0564 26.7729C12.0014 26.873 11.9923 27.267 11.9877 29.1933C11.9877 31.3886 11.9923 31.5074 12.0793 31.6575L12.1663 31.8139L12.1937 31.6325C12.2121 31.5387 12.2533 31.3823 12.2899 31.2885C12.3403 31.1572 12.354 30.7069 12.354 28.8681C12.354 26.8605 12.3449 26.604 12.2808 26.5665C12.2395 26.5477 12.1892 26.4727 12.1708 26.3976C12.1342 26.2851 12.1296 26.2913 12.1296 26.4602Z" fill="#BA8B61"/>
<path d="M8.7821 26.5353C8.7821 26.6416 8.80958 26.7355 8.8508 26.7605C8.91033 26.7917 8.91949 27.117 8.91949 29.1746C8.91949 31.2323 8.91033 31.5575 8.8508 31.5888C8.80958 31.6138 8.7821 31.7076 8.7821 31.8077C8.7821 31.9828 8.79126 31.9891 8.98818 31.9891C9.1851 31.9891 9.19426 31.9828 9.19426 31.8077C9.19426 31.7076 9.16678 31.6138 9.12556 31.5888C9.06603 31.5575 9.05687 31.2323 9.05687 29.1809C9.05687 27.0732 9.06603 26.798 9.13014 26.748C9.17136 26.7167 9.19426 26.6354 9.1851 26.5416C9.17594 26.4165 9.14388 26.3915 8.97902 26.3727C8.78668 26.3539 8.7821 26.3602 8.7821 26.5353V26.5353Z" fill="#BA8B61"/>
<path d="M9.49192 26.4102C9.46445 26.4352 9.40033 26.5665 9.34996 26.7041C9.25379 26.9481 9.24921 27.0356 9.24463 29.1871L9.23547 31.4199L9.35454 31.6763C9.41865 31.8139 9.48734 31.9265 9.50566 31.9265C9.52398 31.9265 9.73464 31.9327 9.97277 31.939C10.3941 31.9515 10.4078 31.9453 10.4216 31.8139C10.4307 31.7326 10.4674 31.6513 10.504 31.6325C10.6002 31.5825 10.6002 26.848 10.504 26.7354C10.4674 26.6979 10.4307 26.6041 10.4216 26.529C10.4078 26.3977 10.3803 26.3914 9.97277 26.3789C9.73464 26.3727 9.51482 26.3852 9.49192 26.4102Z" fill="#BA8B61"/>
<path d="M10.6414 26.4102C10.6276 26.4477 10.646 26.5541 10.6826 26.6479C10.7375 26.798 10.7513 27.2233 10.7513 29.2184C10.7513 31.5325 10.7467 31.6201 10.6597 31.7389C10.5086 31.9453 10.5452 31.9953 10.8337 31.9766C11.081 31.9578 11.0947 31.9515 11.1085 31.7889C11.1176 31.6638 11.1039 31.6138 11.0535 31.6138C10.9894 31.6138 10.9803 31.3449 10.9803 29.1746C10.9803 27.0044 10.9894 26.7354 11.0535 26.7354C11.1039 26.7354 11.1176 26.6854 11.1085 26.5603C11.0947 26.404 11.0764 26.3915 10.8795 26.3727C10.765 26.3602 10.6551 26.3789 10.6414 26.4102V26.4102Z" fill="#BA8B61"/>
<path d="M20.8719 26.5415C20.8719 26.6416 20.8994 26.7354 20.9406 26.7604C21.0002 26.7917 21.0093 27.1169 21.0093 29.2058C21.0093 31.3073 21.0002 31.6137 20.9406 31.6137C20.8948 31.6137 20.8719 31.6763 20.8719 31.8014C20.8719 31.9827 20.8811 31.989 21.0734 31.989C21.3207 31.989 21.3574 31.9265 21.2658 31.6638C21.2017 31.5012 21.1925 31.1322 21.1925 29.1683C21.1925 26.9668 21.1971 26.8605 21.2841 26.6541C21.394 26.4039 21.362 26.3601 21.0505 26.3601C20.8857 26.3601 20.8719 26.3726 20.8719 26.5415V26.5415Z" fill="#BA8B61"/>
<path d="M21.5909 26.404C21.5726 26.4228 21.5588 26.4916 21.5588 26.5541C21.5588 26.6166 21.5222 26.6917 21.481 26.7292C21.4031 26.7855 21.3986 26.9731 21.3894 29.0996L21.3802 31.4137L21.4902 31.6826L21.5955 31.9578L22.0351 31.9703L22.4793 31.9766L22.5892 31.7327L22.7037 31.4888V29.1872C22.7037 27.2608 22.6946 26.8668 22.635 26.7605C22.5984 26.6979 22.5663 26.5979 22.5663 26.5416C22.5663 26.4853 22.5343 26.4165 22.4931 26.3977C22.3969 26.3477 21.6275 26.3477 21.5909 26.404Z" fill="#BA8B61"/>
<path d="M22.7723 26.4227C22.754 26.4602 22.7769 26.5728 22.8135 26.6853C22.9189 26.9668 22.9234 31.4449 22.8227 31.7138C22.7311 31.9452 22.7632 31.989 23.0059 31.989C23.1982 31.989 23.2074 31.9827 23.2074 31.8076C23.2074 31.7076 23.1799 31.6137 23.1387 31.5887C23.0791 31.5574 23.07 31.2322 23.07 29.1746C23.07 27.1169 23.0791 26.7917 23.1387 26.7604C23.1799 26.7354 23.2074 26.6416 23.2074 26.5415C23.2074 26.3664 23.1982 26.3601 23.0059 26.3601C22.8914 26.3601 22.7861 26.3914 22.7723 26.4227V26.4227Z" fill="#BA8B61"/>
<path d="M23.3448 26.5165C23.3448 26.604 23.3127 26.6916 23.2761 26.7103C23.2166 26.7416 23.2074 27.0794 23.2074 29.1808C23.2074 31.301 23.2166 31.6137 23.2761 31.6137C23.331 31.6137 23.3448 31.5199 23.3448 31.1259C23.3448 30.7944 23.3677 30.6005 23.4135 30.513C23.5142 30.3316 23.5142 26.3601 23.4135 26.3601C23.3723 26.3601 23.3448 26.4164 23.3448 26.5165V26.5165Z" fill="#BA8B61"/>
<path d="M19.6674 26.529C19.6491 26.5478 19.6354 27.611 19.6354 28.8869C19.6354 30.7382 19.6491 31.2385 19.6995 31.3323C19.7315 31.4011 19.7728 31.5387 19.7911 31.645L19.8277 31.8327L19.9147 31.6013C19.9972 31.3886 20.0017 31.226 19.988 29.1308C19.9788 26.898 19.9788 26.8918 19.8735 26.6854C19.7682 26.4852 19.7224 26.4477 19.6674 26.529Z" fill="#BA8B61"/>
<path d="M11.2551 26.7229C11.2184 26.7417 11.1726 26.7854 11.1543 26.823C11.136 26.8605 11.1177 27.93 11.1177 29.1996V31.5075L11.2276 31.6451L11.3329 31.7826L11.4108 31.5888C11.4795 31.4136 11.484 31.1447 11.4749 29.1308C11.4611 27.2107 11.452 26.8542 11.3924 26.7792C11.3558 26.7292 11.2917 26.7041 11.2551 26.7229V26.7229Z" fill="#BA8B61"/>
<path d="M20.5879 26.7417C20.5101 26.798 20.5055 26.9794 20.5055 29.1434C20.5055 31.3762 20.5101 31.495 20.5971 31.6889C20.6475 31.8015 20.6887 31.864 20.6887 31.8265C20.6887 31.789 20.7299 31.6951 20.7803 31.6138C20.8673 31.4762 20.8719 31.3824 20.8719 29.2122C20.8719 27.2671 20.8627 26.9294 20.7986 26.8105C20.7207 26.6542 20.6978 26.6479 20.5879 26.7417V26.7417Z" fill="#BA8B61"/>
</g>
<defs>
<clipPath id="clip0_139_2">
<rect width="32" height="32" fill="white"/>
</clipPath>
</defs>
</svg>
