<svg width="294" height="208" viewBox="0 0 294 208" fill="none" xmlns="http://www.w3.org/2000/svg">
<g filter="url(#filter0_d_134_4)">
<g clip-path="url(#clip0_134_4)">
<path d="M145.737 0.281235C145.737 0.433571 145.819 0.621061 145.913 0.703088C146.007 0.785114 146.089 0.972604 146.089 1.11322C146.089 1.26556 146.171 1.40618 146.265 1.45305C146.406 1.49992 146.441 1.79287 146.441 2.98812C146.441 4.18337 146.406 4.47632 146.265 4.5232C146.159 4.57007 146.089 4.74584 146.089 4.94505C146.089 5.37862 145.807 5.33175 145.761 4.88646C145.737 4.71069 145.643 4.57007 145.549 4.57007C145.409 4.57007 145.385 4.89818 145.385 6.50356V8.43705H146.969H148.552V6.50356C148.552 4.86302 148.529 4.57007 148.376 4.57007C148.259 4.57007 148.2 4.68725 148.2 4.92161C148.2 5.15598 148.142 5.27316 148.024 5.27316C147.907 5.27316 147.848 5.15598 147.848 4.93333C147.848 4.74584 147.778 4.57007 147.672 4.5232C147.532 4.47632 147.497 4.19509 147.497 3.01156C147.497 1.85146 147.532 1.52336 147.672 1.40618C147.766 1.32415 147.848 1.17181 147.848 1.05463C147.848 0.93745 147.931 0.785114 148.024 0.703088C148.236 0.527316 148.259 0 148.06 0C147.977 0 147.802 0.164054 147.672 0.351544C147.368 0.808551 147.145 0.808551 147.145 0.351544C147.145 0.117181 147.086 0 146.969 0C146.851 0 146.793 0.117181 146.793 0.351544C146.793 0.808551 146.57 0.808551 146.265 0.351544C145.983 -0.0703087 145.737 -0.105463 145.737 0.281235V0.281235Z" fill="#928D8A"/>
<path d="M144.857 9.16087C144.564 9.46554 144.435 9.51241 143.907 9.51241C143.473 9.51241 143.274 9.55929 143.227 9.68819C143.192 9.79365 143.004 9.86396 142.781 9.86396C142.57 9.87568 142.265 9.94598 142.101 10.0397C141.937 10.1335 141.714 10.2038 141.596 10.2155C141.245 10.2155 139.767 11.0123 138.934 11.6217C137.644 12.5826 136.013 14.4692 135.544 15.5707C135.474 15.6996 135.368 15.8519 135.309 15.8988C135.239 15.9339 135.18 16.0863 135.18 16.2152C135.18 16.3558 135.098 16.555 134.993 16.6722C134.711 16.9886 134.864 17.2464 135.344 17.2464C135.708 17.2464 135.778 17.1995 136.025 16.6839C136.271 16.1917 136.342 16.1332 136.729 16.098C137.139 16.0628 137.174 16.0863 137.468 16.6488C137.702 17.1292 137.819 17.2464 138.054 17.2464C138.3 17.2464 138.347 17.1878 138.347 16.8948C138.347 16.5667 138.382 16.5433 138.746 16.5433C138.969 16.5433 139.227 16.4613 139.333 16.3675C139.426 16.2738 139.614 16.1917 139.743 16.1917C140.048 16.1917 140.142 16.016 139.931 15.8402C139.837 15.7582 139.755 15.5941 139.755 15.4769C139.755 15.3598 139.696 15.2309 139.626 15.1957C139.438 15.0668 139.297 14.5981 139.368 14.3286C139.462 13.9653 139.931 14.0122 140.506 14.4575C141.151 14.9731 141.444 15.348 141.514 15.7699C141.561 16.0511 141.643 16.1449 141.866 16.1683C142.03 16.1917 142.206 16.2855 142.253 16.3792C142.312 16.4847 142.558 16.5433 142.981 16.5433C143.579 16.5433 143.614 16.555 143.649 16.8597C143.673 17.1175 143.743 17.1878 143.978 17.1878C144.2 17.1878 144.283 17.1175 144.329 16.8245C144.447 16.2855 144.541 16.1917 144.963 16.1917C145.397 16.1917 145.596 16.3675 145.725 16.848C145.807 17.1643 145.807 17.1643 146.863 17.1643C148.036 17.1643 148.2 17.1175 148.2 16.7308C148.2 16.3675 148.411 16.1917 148.857 16.1917C149.268 16.1917 149.467 16.3675 149.596 16.8597C149.713 17.305 150.206 17.3284 150.312 16.8948C150.37 16.637 150.452 16.6019 150.957 16.5667C151.32 16.5433 151.602 16.4613 151.684 16.3441C151.766 16.2386 151.942 16.1566 152.095 16.1449C152.317 16.1332 152.376 16.0511 152.4 15.723C152.435 15.3012 152.681 15.0199 153.537 14.3637C154.03 14.0005 154.464 14.0239 154.511 14.4223C154.558 14.6918 154.276 15.3598 153.971 15.7465C153.76 15.9925 153.878 16.1917 154.241 16.1917C154.382 16.1917 154.534 16.2738 154.581 16.3675C154.617 16.4847 154.804 16.5433 155.121 16.5433C155.567 16.5433 155.59 16.5667 155.59 16.8948C155.59 17.1878 155.637 17.2464 155.883 17.2464C156.106 17.2464 156.212 17.1409 156.399 16.7191C156.775 15.8636 157.479 15.8402 157.877 16.6839C158.089 17.1292 158.171 17.1878 158.558 17.2229C159.074 17.2698 159.25 17.012 158.945 16.6722C158.839 16.555 158.757 16.3792 158.757 16.2738C158.757 16.1683 158.71 16.0628 158.652 16.0277C158.593 15.9925 158.405 15.6879 158.229 15.348C157.608 14.1411 156.353 12.6529 155.215 11.7857C154.851 11.5045 154.523 11.2701 154.487 11.2701C154.452 11.2701 154.194 11.1061 153.913 10.9186C153.619 10.7194 153.326 10.567 153.244 10.567C153.162 10.567 152.963 10.4967 152.798 10.403C152.329 10.1686 151.344 9.86396 151.039 9.86396C150.898 9.86396 150.746 9.78193 150.71 9.68819C150.664 9.55929 150.464 9.51241 150.03 9.51241C149.502 9.51241 149.373 9.46554 149.08 9.16087L148.74 8.80933H146.969H145.197L144.857 9.16087V9.16087Z" fill="#928D8A"/>
<path d="M139.814 14.3631C139.767 14.4217 139.814 14.574 139.919 14.6912C140.025 14.8084 140.107 14.9841 140.107 15.0896C140.107 15.1951 140.189 15.324 140.294 15.3825C140.588 15.5466 140.47 16.2731 140.142 16.32C140.001 16.3434 139.825 16.4372 139.755 16.5309C139.673 16.6247 139.426 16.695 139.204 16.695C138.957 16.695 138.781 16.7653 138.746 16.8707C138.699 16.9645 138.605 17.0465 138.512 17.0465C138.383 17.0465 138.347 17.2457 138.347 17.8434C138.347 18.5816 138.371 18.6636 138.699 18.9214C139.075 19.2378 139.18 19.7886 138.875 19.9057C138.77 19.9409 138.699 20.1167 138.699 20.3745C138.699 20.7377 138.558 20.9135 137.573 21.8978C136.963 22.5189 136.412 23.0228 136.342 23.0228C136.083 23.0228 136.306 22.7298 137.292 21.7572C138.23 20.8198 138.347 20.6674 138.347 20.2807C138.347 19.9878 138.394 19.8589 138.523 19.8589C138.828 19.8589 138.723 19.3433 138.347 19.0386C138.054 18.7808 138.007 18.6636 137.995 18.1246C137.995 17.5738 137.96 17.4918 137.702 17.3981C137.538 17.3395 137.374 17.1871 137.327 17.0817C137.292 16.9645 137.151 16.7536 137.022 16.6012L136.776 16.3434L136.506 16.6012C136.353 16.7419 136.236 16.9762 136.236 17.1285V17.4098L134.688 17.3746L133.128 17.3395L133.069 16.695L133.01 16.0505L132.565 16.0153C132.307 15.9919 132.084 15.8981 132.048 15.8044C131.966 15.5818 131.826 15.5935 131.544 15.8747C131.356 16.0622 131.309 16.2614 131.309 16.859C131.309 17.3746 131.251 17.6441 131.134 17.7496C131.004 17.8551 130.958 18.2652 130.934 19.6011C130.899 21.0307 130.864 21.3236 130.723 21.3354C129.01 21.5346 127.685 21.9095 126.477 22.5189C126.313 22.6009 126.101 22.6712 126.008 22.6712C125.914 22.6712 125.726 22.8001 125.574 22.9407L125.316 23.222L125.761 23.5149C126.101 23.7493 126.313 23.8079 126.629 23.761C126.876 23.7259 127.098 23.761 127.134 23.8313C127.181 23.9016 127.31 23.9602 127.427 23.9602C127.544 23.9602 127.744 24.0774 127.884 24.2297C128.084 24.4407 128.142 24.6633 128.166 25.4836L128.201 26.4796H131.309H134.418V26.1867C134.418 25.9289 134.359 25.882 133.949 25.8351L133.479 25.7765L133.444 23.4446C133.421 21.183 133.421 21.101 133.679 20.8315C134.031 20.4565 135.04 20.4448 135.544 20.8198L135.896 21.0893L135.861 22.1673C135.837 23.1282 135.849 23.2688 136.06 23.4329C136.295 23.6087 136.283 23.6204 135.919 23.9368C135.708 24.1243 135.532 24.3469 135.532 24.4524C135.532 24.5578 135.45 24.6985 135.356 24.7805C135.262 24.8625 135.18 25.0148 135.18 25.132C135.18 25.2492 135.098 25.4015 135.004 25.4836C134.887 25.5773 134.828 25.8468 134.828 26.257V26.8897L131.521 26.9132L128.201 26.9483L128.166 27.5694C128.142 28.0381 128.178 28.2022 128.307 28.249C128.447 28.3076 128.494 28.4951 128.494 28.999C128.494 29.6669 128.483 29.6904 128.178 29.7255C127.931 29.749 127.837 29.831 127.814 30.0536C127.791 30.206 127.697 30.3935 127.591 30.4638C127.474 30.5575 127.439 30.7802 127.462 31.3426L127.497 32.1043L132.541 32.1277C135.321 32.1512 137.655 32.116 137.737 32.0574C137.843 31.9988 137.937 31.5418 137.995 30.8036C138.113 29.5263 138.289 28.5537 138.535 27.9795C138.629 27.7803 138.699 27.5577 138.699 27.4991C138.699 27.4288 138.793 27.2061 138.899 26.9835C139.004 26.7726 139.168 26.4327 139.262 26.2452C139.532 25.6945 140.33 24.5227 140.74 24.1008C141.245 23.5501 142.394 22.6712 142.605 22.6712C142.699 22.6712 142.84 22.5892 142.922 22.4954C143.004 22.4017 143.145 22.3197 143.239 22.3197C143.332 22.3197 143.52 22.2494 143.661 22.1791C144.212 21.8627 145.28 21.6986 147.004 21.6517C148.482 21.6166 148.834 21.64 149.045 21.7924C149.186 21.8861 149.42 21.9681 149.561 21.9681C149.702 21.9681 149.972 22.0502 150.147 22.1439C150.335 22.2376 150.581 22.3197 150.687 22.3197C150.793 22.3197 150.922 22.3783 150.957 22.4486C151.004 22.5072 151.156 22.6126 151.285 22.6829C152.376 23.1517 154.007 24.8391 154.523 26.0343C154.804 26.4557 154.826 26.8152 155.051 27.2179C155.297 27.7217 155.485 28.3076 155.602 28.9639C155.66 29.3037 155.766 29.7138 155.825 29.8779C155.895 30.0536 155.942 30.6044 155.942 31.1083C155.942 31.9754 155.965 32.0457 156.212 32.1043C156.353 32.1395 158.71 32.1512 161.455 32.1395L166.44 32.1043L166.475 31.3426C166.499 30.7802 166.464 30.5575 166.346 30.4638C166.241 30.3935 166.147 30.206 166.123 30.0536C166.1 29.831 166.006 29.749 165.772 29.7255C165.455 29.6904 165.443 29.6669 165.443 28.999C165.443 28.4951 165.49 28.3076 165.631 28.249C165.76 28.2022 165.795 28.0381 165.772 27.5694L165.736 26.9483L162.429 26.9132L159.109 26.8897V26.5265C159.109 26.3273 159.039 26.0226 158.945 25.8586C158.851 25.6828 158.663 25.3078 158.523 25.0148C158.382 24.7219 158.171 24.3235 158.042 24.136C157.678 23.5618 157.655 23.4681 157.854 23.3509C158.018 23.2688 158.053 23.0462 158.053 22.1791C158.053 21.2416 158.089 21.0893 158.323 20.8432C158.687 20.4448 159.754 20.4448 160.2 20.8315L160.517 21.101V23.3274C160.517 24.8977 160.47 25.6008 160.376 25.6945C160.294 25.7765 160.059 25.8351 159.836 25.8351C159.484 25.8351 159.449 25.8586 159.484 26.1515L159.52 26.4796H162.628H165.736L165.701 25.6242C165.666 24.6164 165.865 24.1243 166.358 24.0071C166.534 23.9602 166.745 23.8782 166.827 23.8079C166.909 23.7493 167.156 23.7259 167.39 23.761C167.73 23.8196 167.883 23.7727 168.211 23.5149L168.598 23.2103L168.352 22.9407C168.211 22.7884 168.024 22.6712 167.93 22.6712C167.836 22.6712 167.625 22.6009 167.461 22.5072C166.464 21.9916 164.305 21.3822 163.437 21.3822C163.25 21.3822 163.062 21.3119 163.039 21.2299C163.015 21.1596 162.968 20.3628 162.945 19.4722C162.921 18.4293 162.863 17.8199 162.769 17.7262C162.687 17.6441 162.628 17.2692 162.628 16.8473C162.628 16.2614 162.581 16.0622 162.393 15.8747C162.112 15.5935 161.971 15.5818 161.877 15.8161C161.842 15.9216 161.666 15.9919 161.408 15.9919C160.915 15.9919 160.869 16.0622 160.822 16.777L160.798 17.3395L159.25 17.3746L157.701 17.4098V17.1285C157.701 16.9762 157.584 16.7419 157.432 16.6012L157.162 16.3434L156.904 16.613C156.763 16.7653 156.646 16.9996 156.646 17.1285C156.646 17.316 156.564 17.3863 156.329 17.4215C156.024 17.4567 156.001 17.4918 155.965 18.0894C155.93 18.6168 155.872 18.7691 155.578 19.0269C155.215 19.3433 155.109 19.8589 155.414 19.8589C155.531 19.8589 155.59 19.9761 155.59 20.2573C155.59 20.6206 155.719 20.7963 156.646 21.7103C157.619 22.6712 157.877 23.0228 157.596 23.0228C157.526 23.0228 156.974 22.5189 156.364 21.8978C155.32 20.8666 155.238 20.7494 155.238 20.3159C155.238 20.0112 155.191 19.8589 155.074 19.8589C154.992 19.8589 154.886 19.7417 154.851 19.6011C154.792 19.4019 154.875 19.2495 155.18 18.98C155.567 18.6402 155.59 18.5816 155.59 17.8316C155.59 17.234 155.555 17.0465 155.426 17.0465C155.332 17.0465 155.238 16.9645 155.191 16.8707C155.156 16.7536 154.968 16.695 154.663 16.695C154.382 16.695 154.183 16.6364 154.147 16.5309C154.112 16.4372 153.96 16.3434 153.807 16.32C153.596 16.2966 153.526 16.2028 153.502 15.863C153.479 15.5935 153.526 15.3943 153.643 15.2888C153.749 15.2068 153.831 15.0427 153.831 14.9255C153.831 14.8084 153.913 14.6677 154.018 14.6092C154.124 14.5506 154.183 14.4451 154.136 14.3631C154.018 14.1756 153.916 14.2172 153.831 14.4099C153.789 14.5037 153.775 14.5441 153.713 14.5857C153.665 14.6184 153.42 14.7615 153.197 14.9724C152.892 15.2654 152.787 15.488 152.752 15.8278C152.728 16.1794 152.658 16.2966 152.482 16.32C152.353 16.3434 152.165 16.4372 152.071 16.5192C151.977 16.613 151.625 16.695 151.309 16.7184C150.769 16.7536 150.722 16.777 150.687 17.07C150.652 17.3863 150.628 17.3981 149.948 17.3981H149.256V16.8707C149.256 16.3669 149.244 16.3434 148.904 16.3434C148.564 16.3434 148.552 16.3669 148.552 16.8707V17.3981H146.969H145.385V16.8707C145.385 16.3669 145.373 16.3434 145.045 16.3434C144.717 16.3434 144.693 16.3786 144.658 16.8356L144.623 17.3395H143.919C143.25 17.3395 143.215 17.3278 143.215 17.0465C143.215 16.777 143.168 16.7536 142.629 16.7184C142.312 16.695 141.96 16.613 141.866 16.5192C141.772 16.4372 141.585 16.3434 141.456 16.32C141.28 16.2966 141.209 16.1794 141.186 15.8513C141.162 15.5232 141.033 15.3122 140.623 14.949C140.341 14.6795 140.107 14.4099 140.107 14.3514C140.107 14.199 139.907 14.199 139.814 14.3631V14.3631Z" fill="#928D8A"/>
<path d="M118.817 21.6283C118.63 21.6869 118.36 21.7104 118.231 21.6752C118.078 21.6518 117.773 21.7689 117.468 21.9681C117.175 22.1674 116.847 22.3197 116.741 22.3197C116.624 22.3197 116.389 22.472 116.213 22.6712C116.049 22.8587 115.814 23.0228 115.697 23.0228C115.216 23.0228 115.111 23.4564 115.146 25.3781L115.181 27.1827H119.169H123.157V25.132C123.157 23.14 123.157 23.0931 122.899 23.0228C122.758 22.9876 122.536 22.8236 122.407 22.6595C122.277 22.4837 122.019 22.308 121.843 22.2611C121.668 22.2259 121.374 22.0736 121.175 21.933C120.964 21.7807 120.624 21.6752 120.342 21.6635C120.084 21.6635 119.72 21.6166 119.521 21.5815C119.333 21.5463 119.017 21.558 118.817 21.6283V21.6283Z" fill="#928D8A"/>
<path d="M174.064 21.6167C173.877 21.6753 173.607 21.6987 173.455 21.6636C173.29 21.6167 173.079 21.6753 172.88 21.8393C172.704 21.9682 172.364 22.144 172.117 22.2026C171.848 22.2729 171.578 22.4487 171.46 22.6245C171.355 22.7885 171.144 22.976 170.991 23.0346L170.721 23.1401L170.745 25.1556L170.78 27.1828H174.768H178.756L178.792 25.3899C178.815 23.9017 178.792 23.5619 178.627 23.3158C178.522 23.1518 178.346 23.0229 178.24 23.0229C178.123 23.0229 177.888 22.8588 177.701 22.6713C177.513 22.4721 177.278 22.3198 177.173 22.3198C177.056 22.3198 176.762 22.1792 176.516 22.0034C176.258 21.8276 175.883 21.687 175.648 21.6753C175.425 21.6636 175.05 21.6167 174.827 21.5815C174.604 21.5464 174.264 21.5581 174.064 21.6167Z" fill="#928D8A"/>
<path d="M145.268 22.1438C145.186 22.2375 144.939 22.3196 144.717 22.3196C144.494 22.3196 144.165 22.3899 144.001 22.4836C143.825 22.5656 143.426 22.7649 143.121 22.9172C142.113 23.4093 141.995 23.4914 141.409 24.0538C140.811 24.6398 139.755 25.9756 139.755 26.1631C139.755 26.2217 139.602 26.5615 139.403 26.9248C139.215 27.288 139.051 27.7099 139.051 27.8622C139.051 28.0146 138.992 28.1903 138.922 28.2607C138.852 28.331 138.758 28.6708 138.699 29.0106C138.641 29.3622 138.535 29.8895 138.465 30.1824C138.394 30.4871 138.347 31.0378 138.371 31.4128L138.406 32.1042L139.403 32.1394C140.119 32.1628 140.423 32.2214 140.494 32.3386C140.541 32.4323 140.693 32.5143 140.822 32.5143C140.94 32.5143 141.151 32.5846 141.28 32.6549C141.655 32.8893 141.772 32.6315 141.831 31.5066C141.866 30.8855 141.948 30.3816 142.054 30.241C142.134 29.8221 142.417 29.4513 142.547 29.1395C142.664 28.8114 143.579 27.7685 143.966 27.5458C145.174 26.831 145.926 26.4903 145.926 26.8067C145.926 26.9942 145.033 27.5927 144.752 27.5927C144.599 27.5927 143.72 28.3192 143.344 28.7411C142.957 29.1864 142.57 29.8543 142.57 30.0887C142.57 30.1824 142.488 30.4168 142.394 30.616C142.265 30.8621 142.218 31.2371 142.242 31.8347L142.277 32.6901H146.969H151.661L151.696 32.0105C151.731 31.3542 151.579 30.7215 151.086 29.5731C150.781 28.8348 149.913 27.9911 149.021 27.5693C148.2 27.1826 147.671 26.7718 148.175 26.7718C148.762 26.7718 150.347 27.7568 150.922 28.5419C151.379 29.1512 151.59 29.4793 151.649 29.6434C151.661 29.702 151.754 29.9481 151.837 30.1707C151.919 30.3933 152.013 30.9441 152.036 31.4011C152.095 32.5378 152.153 32.7487 152.423 32.7487C152.54 32.7487 152.681 32.6901 152.716 32.6315C152.751 32.5612 152.916 32.5143 153.068 32.5143C153.221 32.5143 153.397 32.4323 153.444 32.3386C153.514 32.2214 153.819 32.1628 154.534 32.1394L155.531 32.1042L155.567 31.53C155.59 31.2253 155.543 30.7215 155.473 30.4168C155.402 30.1238 155.297 29.6082 155.238 29.2918C155.144 28.7059 154.992 28.2021 154.71 27.5341C154.617 27.3349 154.464 26.9717 154.358 26.7139C154.253 26.4561 154.112 26.1631 154.054 26.0694C153.995 25.9756 153.913 25.8116 153.866 25.7178C153.467 24.8155 151.954 23.4328 150.722 22.8586C150.464 22.7297 150.112 22.5656 149.936 22.4719C149.772 22.3899 149.491 22.3196 149.326 22.3196C149.15 22.3196 148.986 22.2375 148.951 22.1438C148.892 22.0032 148.576 21.968 147.145 21.968C145.749 21.968 145.385 22.0032 145.268 22.1438V22.1438ZM148.084 26.7256C148.084 26.8663 147.778 26.8896 146.98 26.8896C146.066 26.8896 145.749 26.8076 145.936 26.6084C145.972 26.5732 146.453 26.5381 146.992 26.5381C147.778 26.5381 148.084 26.585 148.084 26.7256V26.7256Z" fill="#928D8A"/>
<path d="M124.037 23.3625L123.626 23.4328L123.591 25.6827L123.568 27.9443H123.286C123.134 27.9443 122.946 27.8623 122.864 27.7685C122.735 27.6162 122.184 27.5928 119.169 27.5928C116.155 27.5928 115.603 27.6162 115.474 27.7685C115.392 27.8623 115.204 27.9443 115.052 27.9443H114.77L114.747 25.6827L114.712 23.4328L114.196 23.3977C113.468 23.3391 113.14 23.4563 113.011 23.7844C112.917 24.0187 112.812 24.0773 112.495 24.0773C111.92 24.0773 111.721 24.1828 111.721 24.4875C111.721 24.6398 111.58 24.921 111.416 25.1203C111.134 25.4601 111.052 25.4835 110.372 25.4835C109.668 25.4835 109.609 25.507 109.469 25.7999C109.351 26.0577 109.222 26.1397 108.87 26.1632C108.53 26.1983 108.436 26.2452 108.436 26.4327C108.436 26.5616 108.354 26.8194 108.26 27.0069C108.108 27.2881 108.108 27.3936 108.225 27.5928C108.343 27.7803 108.343 27.874 108.225 28.0615C108.155 28.1904 108.084 28.4248 108.084 28.5888C108.084 28.7412 108.002 29.0575 107.897 29.2802C107.58 29.9247 107.709 30.0536 108.659 30.0536H109.469L109.41 29.3505L109.34 28.6474H111.979C114.184 28.6474 114.653 28.624 114.77 28.4716C114.853 28.3779 115.087 28.2959 115.298 28.2959C115.509 28.2959 115.744 28.2138 115.826 28.1201C115.943 27.9678 116.436 27.9443 118.817 27.9443C121.198 27.9443 121.691 27.9678 121.808 28.1201C121.89 28.2138 122.125 28.2959 122.336 28.2959C122.547 28.2959 122.782 28.3779 122.864 28.4716C122.993 28.624 123.38 28.6474 125.374 28.624L127.732 28.5888V26.5381V24.4875L127.462 24.4523C127.31 24.4289 127.157 24.3351 127.122 24.2414C127.04 24.0187 126.5 24.0305 126.336 24.2648C126.219 24.4172 126.16 24.3937 125.855 24.0891C125.656 23.8898 125.421 23.7258 125.327 23.7258C125.222 23.7258 125.057 23.6203 124.94 23.4914C124.729 23.2454 124.706 23.2454 124.037 23.3625Z" fill="#928D8A"/>
<path d="M168.962 23.4799C168.892 23.6205 168.751 23.726 168.634 23.726C168.528 23.726 168.282 23.89 168.082 24.0892C167.777 24.3939 167.719 24.4173 167.601 24.265C167.437 24.0306 167.015 24.0189 166.886 24.2416C166.839 24.3353 166.663 24.429 166.499 24.4525L166.206 24.4876V26.5383V28.589L168.387 28.6241C170.229 28.6476 170.593 28.6241 170.722 28.4718C170.815 28.3546 171.073 28.296 171.425 28.296C171.777 28.296 172.035 28.2257 172.129 28.1202C172.246 27.9679 172.739 27.9445 175.12 27.9445C177.501 27.9445 177.994 27.9679 178.111 28.1202C178.193 28.214 178.428 28.296 178.639 28.296C178.85 28.296 179.085 28.378 179.167 28.4718C179.284 28.6124 179.789 28.6476 181.912 28.671L184.504 28.7062L184.539 29.1397C184.563 29.4796 184.527 29.5967 184.328 29.7022C183.906 29.9248 184.199 30.0537 185.161 30.0537C186.217 30.0537 186.381 29.9248 186.041 29.3507C185.935 29.1632 185.853 28.8702 185.853 28.6827C185.853 28.4952 185.771 28.2374 185.677 28.0968C185.525 27.8859 185.525 27.7921 185.642 27.6047C185.747 27.4289 185.747 27.3117 185.642 27.0656C185.56 26.9016 185.501 26.632 185.501 26.4797C185.501 26.2453 185.442 26.1985 185.067 26.1633C184.715 26.1399 184.586 26.0579 184.469 25.8001C184.328 25.5071 184.269 25.4837 183.577 25.4837C182.944 25.4837 182.803 25.4485 182.569 25.1907C182.404 25.0267 182.228 24.722 182.158 24.5111C182.052 24.183 181.982 24.1244 181.536 24.0775C181.149 24.0306 180.997 23.9486 180.891 23.726C180.75 23.4564 180.68 23.433 179.988 23.433H179.226L179.19 25.6829L179.167 27.9445H178.885C178.733 27.9445 178.545 27.8625 178.463 27.7687C178.334 27.6164 177.783 27.5929 174.768 27.5929C171.754 27.5929 171.202 27.6164 171.073 27.7687C170.991 27.8625 170.804 27.9445 170.651 27.9445H170.37V25.7298C170.37 24.4993 170.334 23.4799 170.288 23.4564C170.229 23.4213 169.947 23.3627 169.642 23.3275C169.161 23.2572 169.079 23.2807 168.962 23.4799V23.4799Z" fill="#928D8A"/>
<path d="M116.342 28.4717C116.225 28.5654 115.92 28.6474 115.674 28.6474C115.392 28.6474 115.204 28.706 115.169 28.8232C115.111 28.9638 114.794 28.999 113.351 28.999C111.697 28.999 111.603 29.0107 111.603 29.2216C111.603 29.3622 111.815 29.6083 112.12 29.8193L112.636 30.1942L112.683 31.1786C112.706 31.7176 112.788 32.2215 112.858 32.2918C113.117 32.5496 117.562 32.2215 117.867 31.9168C117.937 31.8582 118.688 31.8113 119.544 31.8113C120.858 31.8113 121.105 31.8348 121.105 31.9871C121.105 32.1394 121.48 32.1629 124.072 32.1394L127.028 32.1043L127.063 31.284C127.087 30.8036 127.169 30.3934 127.263 30.288C127.345 30.1942 127.439 29.9482 127.462 29.7607C127.486 29.5029 127.568 29.3974 127.767 29.374C127.908 29.3505 128.025 29.2568 128.025 29.163C128.025 29.0224 127.591 28.999 125.316 28.999C123.075 28.999 122.582 28.9638 122.442 28.8232C122.336 28.7295 122.113 28.6474 121.926 28.6474C121.75 28.6474 121.445 28.5654 121.269 28.4717C120.776 28.2139 116.682 28.2139 116.342 28.4717V28.4717Z" fill="#928D8A"/>
<path d="M172.598 28.4717C172.504 28.5889 172.235 28.6474 171.812 28.6474C171.367 28.6474 171.167 28.6943 171.12 28.8232C171.062 28.9755 170.651 28.999 168.481 28.999C166.335 28.999 165.912 29.0224 165.912 29.163C165.912 29.2568 166.03 29.3505 166.182 29.374C166.381 29.3974 166.452 29.4911 166.475 29.8193C166.499 30.0419 166.581 30.288 166.675 30.3583C166.78 30.4403 166.851 30.7684 166.874 31.2957L166.909 32.1043L169.701 32.1394C172.117 32.1629 172.481 32.1394 172.481 31.9871C172.481 31.8348 172.751 31.8113 174.24 31.8113C175.754 31.8113 176 31.8348 176 31.9988C176 32.1277 176.094 32.1746 176.328 32.1512C177.161 32.0926 177.759 32.1629 177.759 32.3387C177.759 32.491 178.053 32.5144 179.695 32.5144H181.63V31.284C181.63 30.2645 181.665 30.0536 181.806 30.0536C181.9 30.0536 181.982 29.9833 181.982 29.8896C181.982 29.7958 182.064 29.6904 182.17 29.6552C182.275 29.62 182.334 29.4794 182.311 29.3271C182.275 29.0576 182.24 29.0576 180.575 29.0224C179.226 28.999 178.862 28.9521 178.78 28.8232C178.733 28.7177 178.522 28.6474 178.299 28.6474C178.076 28.6474 177.748 28.5654 177.572 28.4717C177.079 28.2139 172.809 28.2139 172.598 28.4717V28.4717Z" fill="#928D8A"/>
<path d="M109.879 29.1748C109.844 29.2803 109.903 29.456 110.008 29.5732C110.114 29.6904 110.196 29.8662 110.196 29.9833C110.196 30.1005 110.36 30.2529 110.583 30.3466C111.146 30.581 111.24 30.7333 111.275 31.577L111.31 32.3387H111.779H112.249L112.284 31.4715L112.319 30.6161L111.826 30.1943C111.556 29.9599 111.263 29.5966 111.181 29.3857C111.029 29.0342 110.97 28.999 110.489 28.999C110.114 28.999 109.938 29.0576 109.879 29.1748V29.1748Z" fill="#928D8A"/>
<path d="M182.768 29.0692C182.721 29.1161 182.686 29.2802 182.686 29.4208C182.686 29.5848 182.545 29.7958 182.334 29.9598C181.994 30.2059 181.982 30.2411 181.982 31.1785C181.982 32.2917 182.041 32.5144 182.334 32.5144C182.616 32.5144 182.686 32.2917 182.686 31.448C182.686 30.909 182.721 30.7567 182.862 30.7567C182.956 30.7567 183.038 30.6746 183.038 30.5809C183.038 30.4637 183.155 30.4051 183.39 30.4051C183.706 30.4051 183.742 30.37 183.742 30.0536C183.742 29.8075 183.8 29.702 183.929 29.702C184.058 29.702 184.093 29.6083 184.07 29.3739C184.035 29.081 183.988 29.0575 183.448 29.0224C183.12 28.9989 182.815 29.0224 182.768 29.0692V29.0692Z" fill="#928D8A"/>
<path d="M183.742 30.581C183.742 30.6982 183.624 30.7568 183.39 30.7568H183.038V31.6357C183.038 32.3153 183.085 32.538 183.214 32.5848C183.308 32.6317 183.39 32.7841 183.39 32.9364C183.39 33.2176 183.39 33.2176 184.797 33.2176C186.111 33.2176 186.205 33.2059 186.205 32.995C186.205 32.8661 186.604 32.3505 187.085 31.8466C187.648 31.2607 187.964 30.8388 187.964 30.6748V30.4053H185.853C184.058 30.4053 183.742 30.4287 183.742 30.581Z" fill="#928D8A"/>
<path d="M106.09 30.7098C106.09 31.0028 106.29 31.2957 106.9 31.9051C107.205 32.2098 107.557 32.6082 107.662 32.7722C107.862 33.0769 107.897 33.0886 109.128 33.0886H110.407L110.595 32.573C110.712 32.2801 110.782 31.8231 110.759 31.5067C110.7 30.6278 110.466 30.5458 108.061 30.5341C106.348 30.5223 106.09 30.5458 106.09 30.7098V30.7098Z" fill="#928D8A"/>
<path d="M117.937 32.3269C117.937 32.4324 117.703 32.5027 117.163 32.5495C116.694 32.5847 116.342 32.6667 116.284 32.7605C116.225 32.8542 116.19 35.5025 116.213 38.6664L116.237 44.4083H116.882H117.527L117.562 41.6194L117.586 38.8422H118.113H118.641L118.665 41.6194L118.7 44.4083H119.204H119.72L119.732 41.6545L119.756 38.9008H120.753H121.75V41.8303V44.7598L118.817 44.8184L115.885 44.877V45.3457V45.8145L118.993 45.8848C120.706 45.9199 122.242 45.9902 122.407 46.0371C123.04 46.2246 123.509 45.5567 123.04 45.17C122.887 45.0411 122.864 44.1505 122.841 38.7953L122.805 32.573L121.961 32.5378C121.304 32.5144 121.105 32.4675 121.105 32.3386C121.105 32.198 120.835 32.1628 119.521 32.1628C118.266 32.1628 117.937 32.198 117.937 32.3269ZM121.492 33.8151L121.926 33.9323V35.2799C121.926 36.7563 121.932 36.4254 121.917 36.7279C121.176 36.7528 120.444 36.7355 119.943 36.7095C119.779 36.6743 119.756 36.4751 119.756 35.2681V33.862L120.107 33.7917C120.659 33.6745 121.011 33.6745 121.492 33.8151H121.492ZM118.888 34.7057C118.923 35.8775 118.852 36.5571 118.712 36.6509C118.641 36.6978 118.371 36.7212 118.113 36.7095L117.644 36.6743L117.609 35.5025L117.574 34.319L117.961 34.2018C118.172 34.1315 118.465 34.0612 118.618 34.0495C118.852 34.0377 118.876 34.0846 118.888 34.7057V34.7057Z" fill="#928D8A"/>
<path d="M172.481 32.3386C172.481 32.4558 172.305 32.5144 171.812 32.5378L171.132 32.573L171.097 38.7953C171.073 44.1505 171.05 45.0411 170.897 45.17C170.804 45.252 170.721 45.4395 170.721 45.5801C170.721 45.9668 171.003 46.1543 171.449 46.0488C171.66 46.0019 173.232 45.9316 174.944 45.8848L178.053 45.8145L178.088 45.3223L178.123 44.8184L175.155 44.795L172.188 44.7598V41.8303V38.9008H173.126H174.064L174.029 41.6194L173.982 44.338L174.276 44.4083C174.428 44.4552 174.721 44.4669 174.897 44.4434L175.237 44.4083L175.273 41.6194L175.296 38.8305L175.8 38.8656L176.293 38.9008L176.352 41.6545L176.41 44.4083L177.091 44.4434L177.759 44.4786V38.4906V32.5144H176.88C176.176 32.5144 176 32.4792 176 32.3386C176 32.1863 175.73 32.1628 174.24 32.1628C172.786 32.1628 172.481 32.1863 172.481 32.3386ZM174.135 33.8737C174.194 33.9088 174.24 34.5416 174.24 35.2799C174.24 36.2064 174.258 36.2822 174.279 36.7688C173.418 36.7824 172.641 36.9997 172.028 36.7399C171.876 36.3532 171.906 34.0495 172.07 33.9206C172.129 33.8737 172.317 33.8034 172.481 33.7682C172.809 33.6979 173.982 33.7682 174.135 33.8737ZM175.824 34.2018L176.293 34.3659V35.5259V36.6743L175.789 36.7095C175.026 36.7681 174.944 36.6392 174.944 35.4439C174.944 33.944 174.968 33.9088 175.824 34.2018V34.2018Z" fill="#928D8A"/>
<path d="M123.298 32.5848C123.251 32.6317 123.216 35.3737 123.216 38.6665C123.216 43.7756 123.239 44.6896 123.392 44.8185C123.486 44.9005 123.568 45.2169 123.591 45.5568L123.626 46.1661H124.448C125.222 46.1661 125.269 46.1544 125.304 45.8849C125.327 45.7325 125.503 45.4747 125.691 45.3224L126.031 45.0294V39.7211C126.031 35.1979 126.008 34.3894 125.867 34.3074C125.75 34.237 125.679 33.9558 125.656 33.3933L125.62 32.5731L124.506 32.5379C123.884 32.5262 123.345 32.5379 123.298 32.5848V32.5848Z" fill="#928D8A"/>
<path d="M127.814 58.7161C127.852 57.4506 128.071 57.1458 128.107 58.2942C128.118 58.6458 128.131 59.009 128.131 59.0793C128.142 59.1613 128.225 59.2316 128.318 59.2316C128.471 59.2316 128.494 58.6457 128.494 54.6733C128.494 50.736 128.471 50.1032 128.318 50.0446C128.225 50.0095 128.142 49.8454 128.142 49.6814C128.142 49.4939 128.072 49.3884 127.966 49.3884C127.814 49.3884 127.791 49.904 127.791 53.3609C127.791 57.0052 127.732 57.7434 127.497 57.3567M127.497 57.3567C127.462 57.2982 127.427 55.0483 127.427 52.3648C127.439 48.24 127.462 47.4549 127.615 47.244C127.708 47.1034 127.791 46.7753 127.791 46.5175C127.791 46.1308 127.72 45.9667 127.439 45.6972L127.087 45.3574V39.6507C127.087 34.6001 127.11 33.9322 127.274 33.8736C127.403 33.8268 127.439 33.6627 127.415 33.194L127.38 32.5729L126.793 32.5378C126.465 32.5143 126.16 32.5378 126.113 32.5846C125.949 32.7487 126.019 33.8033 126.207 33.8736C126.359 33.9322 126.383 34.6939 126.383 39.6858V45.416L126.043 45.7324C125.855 45.9081 125.679 46.1542 125.656 46.2831C125.632 46.4589 125.503 46.5292 125.151 46.5761L124.682 46.6347L124.647 47.244C124.623 47.5838 124.541 47.9002 124.448 47.9822C124.178 48.2049 124.189 57.6145 124.448 57.8255C124.577 57.9309 124.623 58.2122 124.623 58.845C124.623 59.4309 124.67 59.7238 124.776 59.759C124.846 59.7824 125.562 59.8293 126.348 59.8527L127.779 59.8879L127.814 58.7161" fill="#928D8A"/>
<path d="M127.837 32.655C127.791 32.7253 127.873 32.8777 128.025 33.0066C128.271 33.2058 128.6 33.2175 132.893 33.2175C137.186 33.2175 137.515 33.2058 137.761 33.0066C137.913 32.8777 137.995 32.7253 137.949 32.655C137.831 32.4558 127.955 32.4558 127.837 32.655V32.655Z" fill="#928D8A"/>
<path d="M138.406 32.6551C138.371 32.7372 138.359 35.2565 138.371 38.2564L138.406 43.7053H139.051H139.696L139.72 39.0767C139.731 36.5338 139.743 34.4128 139.755 34.3543C139.755 34.3074 139.837 34.2722 139.931 34.2722C140.083 34.2722 140.107 34.1199 140.083 33.4168L140.048 32.5731L139.251 32.5379C138.687 32.5145 138.441 32.5497 138.406 32.6551Z" fill="#928D8A"/>
<path d="M153.913 32.5846C153.866 32.6315 153.831 33.0065 153.831 33.4049C153.831 33.9322 153.878 34.1666 154.007 34.2369C154.159 34.3189 154.183 35.022 154.206 39.0179L154.241 43.7051H154.886H155.531V38.139V32.5729L154.769 32.5378C154.347 32.5143 153.96 32.5378 153.913 32.5846Z" fill="#928D8A"/>
<path d="M156.024 32.5964C155.895 32.7136 155.93 32.8308 156.13 33.03C156.282 33.1941 156.892 33.2175 160.986 33.2175C165.338 33.2175 165.666 33.2058 165.912 33.0066C166.487 32.5378 166.241 32.5144 161.056 32.5144C158.335 32.5144 156.059 32.5496 156.024 32.5964Z" fill="#928D8A"/>
<path d="M166.546 32.6433C166.405 32.8893 166.487 33.733 166.675 33.8737C166.827 33.9908 166.851 34.776 166.851 39.7093V45.416L166.499 45.7207C166.194 45.9785 166.147 46.0839 166.147 46.6347C166.147 47.0331 166.206 47.3026 166.323 47.3964C166.475 47.5253 166.499 48.2166 166.499 52.3766C166.499 56.5365 166.475 57.2279 166.323 57.3568C166.182 57.474 166.147 57.7786 166.147 58.7044V59.8996L167.531 59.9113C168.293 59.9113 168.986 59.8762 169.068 59.8293C169.15 59.7707 169.232 59.3723 169.267 58.8333C169.302 58.2474 169.384 57.8607 169.49 57.7435C169.748 57.4857 169.748 48.1581 169.502 48.0174C169.396 47.9588 169.314 47.6893 169.29 47.2792L169.255 46.6347L168.763 46.5995C168.317 46.5644 168.258 46.5292 168.258 46.2832C168.258 46.1191 168.118 45.8847 167.906 45.7207L167.554 45.416V39.7444C167.554 34.7642 167.578 34.0494 167.73 33.9205C167.871 33.8033 167.906 33.5924 167.883 33.1706L167.848 32.5729L167.238 32.5378C166.862 32.5144 166.604 32.5495 166.546 32.6433V32.6433Z" fill="#928D8A"/>
<path d="M168.34 32.5848C168.293 32.6317 168.258 32.9949 168.258 33.3933C168.258 33.8972 168.2 34.1667 168.082 34.2722C167.93 34.4011 167.906 35.1511 167.906 39.7211V45.0294L168.247 45.3224C168.434 45.4747 168.61 45.7325 168.634 45.8849C168.669 46.1544 168.716 46.1661 169.49 46.1661H170.311L170.346 45.5333C170.37 45.1466 170.452 44.8419 170.557 44.7716C170.698 44.6662 170.722 43.7756 170.698 38.6079L170.663 32.5731L169.549 32.5379C168.927 32.5262 168.387 32.5379 168.34 32.5848V32.5848Z" fill="#928D8A"/>
<path d="M110.982 32.9362C110.841 33.0768 110.888 33.3112 111.111 33.5221C111.298 33.7096 111.31 34.1783 111.345 39.3694C111.369 44.9121 111.369 45.0176 111.134 45.2285C111.005 45.3457 110.9 45.4863 110.9 45.5449C110.9 45.5918 110.747 45.8613 110.548 46.1308C110.125 46.7167 110.114 46.8105 110.489 47.162L110.771 47.4315V53.5835C110.771 56.9584 110.794 59.759 110.829 59.7824C110.923 59.8762 112.718 59.8644 112.87 59.7707C112.952 59.7238 113.011 59.384 113.011 58.9739C113.011 58.388 113.07 58.1888 113.363 57.7435L113.715 57.2279V52.8219C113.715 49.1775 113.691 48.3807 113.551 48.2283C113.457 48.1229 113.339 47.7245 113.281 47.3378C113.199 46.7284 113.152 46.6347 112.917 46.5995C112.671 46.5644 112.612 46.4238 112.647 45.9316C112.659 45.8027 112.507 45.5332 112.307 45.3457L111.955 45.0059V39.5218C111.955 34.7173 111.979 33.9908 112.143 33.7447C112.237 33.5924 112.307 33.3463 112.284 33.194C112.249 32.9596 112.178 32.9245 111.662 32.8893C111.334 32.8659 111.029 32.8893 110.982 32.9362V32.9362Z" fill="#928D8A"/>
<path d="M112.8 32.9598C112.718 33.0184 112.683 33.1473 112.729 33.2527C112.765 33.3582 112.718 33.6043 112.612 33.8152C112.46 34.1316 112.425 34.905 112.425 39.4751L112.413 44.7599L112.706 45.006C112.905 45.1818 113.011 45.4162 113.034 45.7091L113.07 46.1661L113.949 46.131C114.43 46.1075 114.97 46.0138 115.146 45.92C115.416 45.7794 115.451 45.6974 115.439 45.2169C115.416 44.8302 115.474 44.6428 115.627 44.5373C115.814 44.385 115.826 44.01 115.803 38.6548L115.767 32.9246L114.36 32.8895C113.586 32.8778 112.882 32.9129 112.8 32.9598V32.9598Z" fill="#928D8A"/>
<path d="M140.541 32.9364C140.494 32.9832 140.459 33.2996 140.459 33.6394C140.459 34.073 140.412 34.2722 140.283 34.3191C140.13 34.3777 140.107 34.9753 140.13 39.0415L140.165 43.7053H140.987H141.808V38.4907V33.2762L141.35 33.241C141.092 33.2176 140.822 33.1238 140.752 33.0301C140.682 32.9364 140.588 32.8895 140.541 32.9364Z" fill="#928D8A"/>
<path d="M178.299 32.9597C178.17 33.1706 178.205 44.3263 178.334 44.5724C178.405 44.7013 178.463 45.0177 178.463 45.2755C178.463 45.9551 178.803 46.1543 179.976 46.166H180.868L180.903 45.7208C180.926 45.463 181.055 45.1583 181.231 44.9708L181.513 44.6661V41.6897C181.514 39.807 181.505 37.2463 181.407 35.3736C181.349 35.3151 181.267 34.8698 181.231 34.3893C181.114 32.7488 181.302 32.9246 179.73 32.8894C178.979 32.8777 178.334 32.9011 178.299 32.9597V32.9597Z" fill="#928D8A"/>
<path d="M181.572 33.0886C181.501 33.323 181.665 33.8503 181.841 33.9675C181.9 34.0026 181.959 36.3228 181.97 39.5101L181.994 44.9942L181.642 45.2637C181.36 45.463 181.29 45.627 181.255 46.0137C181.22 46.4356 181.173 46.5176 180.926 46.5762C180.668 46.6348 180.633 46.7168 180.598 47.2793C180.575 47.6191 180.481 48.0175 180.387 48.1464C180.129 48.5097 180.141 57.3803 180.399 57.5912C180.492 57.6732 180.575 57.8021 180.575 57.8842C180.575 57.9662 180.657 58.0951 180.75 58.1771C180.856 58.2591 180.926 58.5873 180.95 59.0911L180.985 59.8762L181.9 59.9114C182.487 59.9348 182.885 59.8997 182.991 59.8059C183.132 59.6888 183.155 58.6693 183.155 53.5602V47.4316L183.448 47.1621C183.613 47.0097 183.742 46.834 183.742 46.7754C183.742 46.6348 182.921 45.3692 182.698 45.1934C182.545 45.0645 182.522 44.6075 182.557 41.7249C182.402 39.7213 182.553 37.5936 182.569 35.7369C182.569 34.2604 182.604 33.8034 182.745 33.6159C182.838 33.4987 182.921 33.2761 182.921 33.1238C182.921 32.8894 182.862 32.866 182.287 32.866C181.759 32.866 181.63 32.9011 181.572 33.0886V33.0886Z" fill="#928D8A"/>
<path d="M153.127 33.0886C153.127 33.1589 152.904 33.2175 152.634 33.241L152.13 33.2761V38.4907V43.7052H152.951H153.772L153.807 39.0414C153.831 34.9752 153.807 34.3776 153.655 34.319C153.526 34.2604 153.479 34.0729 153.479 33.6159C153.479 33.1355 153.432 32.9832 153.303 32.9832C153.209 32.9832 153.127 33.03 153.127 33.0886Z" fill="#928D8A"/>
<path d="M142.289 33.3229C142.253 33.3815 142.3 33.4869 142.394 33.569C142.488 33.651 142.57 33.8268 142.57 33.9674C142.57 34.0963 142.617 34.2721 142.664 34.3424C142.793 34.5533 143.379 34.6119 143.52 34.4361C143.591 34.3424 143.731 34.2721 143.825 34.2721C143.954 34.2721 143.978 34.4713 143.954 35.2915C143.919 36.2993 143.907 36.3227 143.626 36.3227C143.45 36.3227 143.321 36.4048 143.297 36.5337C143.274 36.6626 143.145 36.7329 142.91 36.7329H142.57V35.6665C142.57 34.8697 142.535 34.6119 142.429 34.647C142.312 34.6939 142.277 35.0689 142.277 36.0415V37.3774H146.969H151.661V36.0415C151.661 35.0689 151.625 34.6939 151.52 34.647C151.403 34.6119 151.367 34.8697 151.367 35.6665V36.7329H151.027C150.793 36.7329 150.675 36.6626 150.628 36.4985C150.581 36.3344 150.488 36.2759 150.288 36.2876C150.03 36.3227 150.018 36.2993 149.983 35.2915C149.96 34.4127 149.972 34.2721 150.147 34.2721C150.253 34.2721 150.359 34.3775 150.394 34.5064C150.441 34.6705 150.499 34.7056 150.593 34.6353C150.664 34.5767 150.851 34.5064 151.015 34.483C151.238 34.4595 151.32 34.3658 151.344 34.0963C151.367 33.8971 151.461 33.6627 151.555 33.5573C151.649 33.4518 151.684 33.3346 151.637 33.2995C151.52 33.1823 142.359 33.2057 142.289 33.3229V33.3229ZM144.775 35.5376C144.81 36.6743 144.799 36.7329 144.564 36.7329C144.341 36.7329 144.33 36.6626 144.33 35.4907C144.33 34.3775 144.353 34.2603 144.541 34.2955C144.717 34.3306 144.74 34.4947 144.775 35.5376ZM149.608 35.5025C149.608 36.6274 149.584 36.7329 149.385 36.7329C149.092 36.7329 149.021 36.5102 149.021 35.6196C149.021 34.7642 149.174 34.2721 149.432 34.2721C149.573 34.2721 149.608 34.483 149.608 35.5025Z" fill="#928D8A"/>
<path d="M107.498 33.7448C107.498 33.8737 107.697 33.9206 108.354 33.944L109.199 33.9792L109.257 40.2484C109.316 46.3535 109.328 46.5176 109.539 46.5176C109.703 46.5176 109.797 46.4004 109.867 46.1426C109.926 45.9434 110.172 45.5567 110.43 45.2989L110.9 44.8302V39.393C110.9 34.2721 110.888 33.944 110.688 33.7683C110.384 33.487 107.498 33.4753 107.498 33.7448V33.7448Z" fill="#928D8A"/>
<path d="M127.849 33.7096C127.814 33.7916 127.802 36.311 127.814 39.3108L127.849 44.7598H128.142H128.436L128.471 39.6038C128.494 35.0689 128.518 34.4361 128.682 34.3072C128.788 34.2369 128.846 34.0494 128.823 33.8971C128.799 33.6744 128.705 33.6158 128.342 33.5924C128.06 33.569 127.884 33.6041 127.849 33.7096V33.7096Z" fill="#928D8A"/>
<path d="M129.28 33.6393C129.233 33.6861 129.198 33.8736 129.198 34.0494C129.198 34.2252 129.151 34.4127 129.081 34.4478C129.01 34.4947 128.964 36.3462 128.964 39.6155C128.964 42.9317 128.999 44.7012 129.081 44.7012C129.151 44.7012 129.198 43.67 129.198 41.8302V38.9593L129.48 38.889C129.632 38.8538 129.89 38.8421 130.031 38.8656L130.312 38.9007L130.348 41.7951L130.371 44.7012L130.653 44.7715C130.805 44.8066 131.063 44.8184 131.204 44.7949L131.485 44.7598L131.544 41.8302L131.603 38.9007H132.541H133.479L133.538 41.8302L133.597 44.7598H134.183H134.77L134.805 39.7327C134.828 35.5493 134.805 34.6588 134.664 34.4478C134.57 34.3072 134.476 34.0728 134.453 33.9088L134.418 33.6276L131.884 33.5924C130.5 33.5807 129.327 33.6041 129.28 33.6393V33.6393ZM133.749 35.479C133.759 36.0048 133.777 36.4004 133.749 36.8021C132.536 36.7661 132.186 36.7573 131.614 36.7094C131.392 36.6743 131.368 36.5922 131.333 35.6314C131.31 35.0572 131.333 34.5064 131.356 34.4244C131.403 34.2955 131.685 34.2721 132.565 34.2955L133.714 34.3306L133.749 35.479ZM130.477 34.5533C130.641 34.7408 130.629 36.3813 130.465 36.5805C130.336 36.7446 129.89 36.7797 129.468 36.6626C129.21 36.5922 129.198 36.5219 129.198 35.6196C129.198 34.7408 129.222 34.647 129.468 34.5299C129.832 34.3541 130.324 34.3658 130.477 34.5533Z" fill="#928D8A"/>
<path d="M134.875 33.7449C134.828 33.8503 134.887 34.0261 134.993 34.1433C135.157 34.319 135.18 34.9401 135.204 39.3813L135.239 44.4083L135.509 44.4435C135.661 44.4669 135.872 44.4083 135.99 44.3029C136.119 44.1857 136.482 44.1154 137.057 44.092L137.937 44.0568V38.8422V33.6277L136.435 33.5925C135.169 33.5691 134.934 33.5925 134.875 33.7449V33.7449Z" fill="#928D8A"/>
<path d="M156.024 33.6511C155.977 33.6863 155.942 36.0651 155.942 38.9243V44.1154H156.869C157.549 44.1154 157.83 44.1623 157.936 44.2912C158.018 44.3849 158.229 44.4669 158.417 44.4669H158.757V39.4164C158.745 34.8581 158.769 34.3425 158.945 34.1433C159.05 34.0261 159.109 33.8503 159.074 33.7449C159.015 33.6042 158.745 33.5691 157.549 33.5691C156.751 33.5691 156.059 33.6042 156.024 33.6511V33.6511Z" fill="#928D8A"/>
<path d="M159.543 33.6512C159.496 33.6863 159.461 33.8387 159.461 33.9793C159.461 34.1316 159.379 34.3074 159.285 34.3894C159.133 34.5183 159.109 35.2097 159.133 39.6509L159.168 44.76L159.508 44.7951C159.684 44.8186 159.965 44.8068 160.118 44.7717L160.399 44.7014L160.423 41.7953L160.458 38.9009L161.361 38.8657L162.276 38.8306L162.3 41.7953L162.335 44.76H162.863H163.39L163.449 41.8304L163.508 38.9009L163.895 38.8657C164.106 38.8423 164.184 39.1396 164.458 38.9712C164.526 38.9291 164.586 44.7469 164.636 44.7114C164.687 44.6758 164.728 44.6316 164.76 44.555C164.792 44.4784 164.814 38.5245 164.826 38.3592C164.839 38.1938 164.841 37.9722 164.833 37.6705C164.806 36.6273 164.786 36.5573 164.563 36.5924C163.32 36.8034 163.332 36.8151 163.332 35.5495C163.332 34.5886 163.437 34.3894 163.918 34.3894C164.399 34.3894 164.61 34.7058 164.552 35.3152C164.528 35.5964 164.576 36.6294 164.664 36.7015C164.788 36.7346 164.728 35.8073 164.739 34.9636C164.739 33.9324 164.704 33.6981 164.552 33.6395C164.305 33.5457 159.637 33.5457 159.543 33.6512V33.6512ZM162.569 35.5026C162.569 36.6041 162.574 36.4412 162.573 36.7429C161.444 36.7432 160.901 36.7415 160.47 36.7096C160.247 36.6745 160.223 36.5924 160.188 35.6315C160.165 35.0574 160.188 34.5066 160.212 34.4246C160.259 34.2957 160.54 34.2722 161.42 34.2957L162.569 34.3308V35.5026Z" fill="#928D8A"/>
<path d="M165.173 33.6393C165.056 33.7682 165.068 34.2018 165.208 34.3424C165.279 34.4127 165.338 36.4048 165.349 39.6038L165.384 44.7598H165.736H166.088V39.1937V33.6276L165.678 33.5924C165.443 33.569 165.22 33.5924 165.173 33.6393V33.6393Z" fill="#928D8A"/>
<path d="M182.991 34.53C182.956 35.069 182.921 37.565 182.932 40.0961C182.944 45.1818 182.885 44.7716 183.718 45.6505C183.871 45.8028 184.023 46.0841 184.058 46.2598C184.105 46.5059 184.187 46.5762 184.352 46.5528C184.586 46.5176 184.586 46.3887 184.574 40.2953C184.551 34.6472 184.574 34.0613 184.739 33.9909C184.844 33.9558 185.302 33.9206 185.747 33.9206C186.393 33.9206 186.557 33.8855 186.557 33.7449C186.557 33.5925 186.287 33.5691 184.809 33.5691H183.061L182.991 34.53V34.53Z" fill="#928D8A"/>
<path d="M107.439 34.3894C107.404 34.4597 107.521 34.7175 107.721 34.9636L108.085 35.4206L108.108 40.9633L108.143 46.5176L108.472 46.5528L108.788 46.588L108.765 40.4594L108.73 34.3308L108.12 34.2956C107.78 34.2722 107.486 34.3191 107.439 34.3894V34.3894Z" fill="#928D8A"/>
<path d="M185.161 34.4361C185.067 34.5416 185.044 36.2524 185.055 40.553L185.09 46.5175H185.442H185.794L185.829 40.9631L185.853 35.4204L186.205 34.9752C186.404 34.7291 186.557 34.4713 186.557 34.401C186.557 34.2135 185.325 34.2369 185.161 34.4361Z" fill="#928D8A"/>
<path d="M187.319 34.823C187.19 34.8464 186.967 34.8933 186.827 34.9285C186.674 34.9519 186.557 35.0339 186.557 35.1042C186.557 35.1745 186.475 35.3034 186.381 35.3972C186.228 35.5495 186.205 36.3464 186.205 41.0805C186.205 45.8849 186.228 46.5763 186.381 46.5763C186.557 46.5763 186.592 45.2521 186.615 37.4479C186.615 36.3581 186.639 36.2175 186.85 36.1003C187.788 35.573 188.222 34.9753 187.777 34.8113C187.671 34.7761 187.589 34.7527 187.577 34.7527C187.565 34.7644 187.448 34.7878 187.319 34.823V34.823Z" fill="#928D8A"/>
<path d="M106.008 35.0574C105.926 35.2566 106.466 35.7956 107.029 36.0651C107.299 36.2057 107.322 36.2643 107.299 37.026C107.275 37.483 107.275 37.9986 107.275 38.1978C107.334 44.9826 107.381 46.5177 107.521 46.5177C107.639 46.5177 107.686 45.4396 107.709 41.3617C107.721 38.5259 107.709 36.0417 107.674 35.8425C107.568 35.2449 107.123 34.8582 106.56 34.8582C106.219 34.8582 106.067 34.9167 106.008 35.0574V35.0574Z" fill="#928D8A"/>
<path d="M142.324 37.9165C142.253 37.9516 142.23 39.1703 142.242 40.846C142.277 43.6466 142.277 43.7052 142.523 43.7404C142.652 43.7638 142.84 43.6935 142.922 43.588C143.121 43.3537 143.473 43.3654 143.614 43.6115C143.72 43.8107 143.731 43.8107 143.942 43.6115C144.224 43.3654 144.494 43.3537 144.681 43.588C144.799 43.7286 145.209 43.7638 146.992 43.7638C148.799 43.7638 149.162 43.7404 149.209 43.588C149.256 43.4943 149.408 43.4123 149.561 43.4123C149.725 43.4123 149.878 43.4943 149.913 43.588C149.96 43.6818 150.054 43.7638 150.136 43.7638C150.218 43.7638 150.312 43.6818 150.359 43.588C150.441 43.3537 150.828 43.3654 151.015 43.588C151.098 43.6935 151.285 43.7638 151.414 43.7404C151.661 43.7052 151.661 43.6466 151.696 40.9046C151.708 39.0414 151.684 38.0571 151.602 37.975C151.473 37.8461 142.535 37.7876 142.324 37.9165V37.9165ZM143.579 39.264C143.673 39.6273 143.415 39.9437 143.121 39.8265C142.922 39.7562 142.84 39.1937 143.004 39.0414C143.192 38.8539 143.508 38.9711 143.579 39.264ZM144.516 39.3812C144.54 39.6625 144.505 39.7679 144.317 39.8148C144.035 39.8851 143.836 39.6976 143.836 39.3695C143.836 39.0414 143.942 38.9359 144.247 38.9828C144.411 39.0062 144.493 39.1234 144.516 39.3812V39.3812ZM149.889 39.1469C150.077 39.639 149.842 39.9788 149.432 39.8265C149.256 39.7562 149.186 39.182 149.338 39.0414C149.479 38.8891 149.819 38.9594 149.889 39.1469ZM150.992 39.3226C151.015 39.4984 150.945 39.6859 150.84 39.7796C150.558 40.014 150.253 39.6742 150.359 39.2523C150.464 38.8305 150.945 38.8773 150.992 39.3226V39.3226ZM143.602 41.0218C143.637 41.7717 143.461 42.0998 143.098 41.9592C142.969 41.9123 142.922 41.7131 142.922 41.1507C142.922 40.3304 142.969 40.2249 143.332 40.2718C143.532 40.3069 143.567 40.4007 143.602 41.0218ZM144.623 41.1272C144.623 41.924 144.611 41.9475 144.329 41.9475C144.06 41.9475 144.036 41.9006 144.001 41.2561C143.954 40.4007 144.025 40.2249 144.353 40.2718C144.599 40.3069 144.623 40.3655 144.623 41.1272V41.1272ZM149.901 41.1272C149.901 41.924 149.889 41.9475 149.608 41.9475C149.338 41.9475 149.315 41.9006 149.279 41.2561C149.233 40.4007 149.303 40.2249 149.631 40.2718C149.878 40.3069 149.901 40.3655 149.901 41.1272V41.1272ZM150.957 41.1272C150.957 41.924 150.945 41.9475 150.664 41.9475C150.394 41.9475 150.37 41.9006 150.335 41.2561C150.288 40.4007 150.359 40.2249 150.687 40.2718C150.933 40.3069 150.957 40.3655 150.957 41.1272V41.1272ZM143.591 42.5451C143.673 42.7795 143.332 43.0724 143.086 42.9787C142.922 42.9201 142.863 42.5685 143.004 42.4396C143.145 42.2873 143.52 42.3576 143.591 42.5451V42.5451ZM144.658 42.6623C144.693 42.9201 144.423 43.0724 144.13 42.9787C143.966 42.9201 143.931 42.5685 144.06 42.4279C144.224 42.2639 144.623 42.4162 144.658 42.6623ZM149.913 42.5334C150.018 42.7912 149.76 43.049 149.491 42.9787C149.338 42.9435 149.256 42.8146 149.256 42.6389C149.256 42.4162 149.315 42.3576 149.549 42.3576C149.713 42.3576 149.878 42.4396 149.913 42.5334V42.5334ZM150.992 42.6623C151.039 42.9787 150.687 43.131 150.452 42.8967C150.206 42.6623 150.359 42.3342 150.687 42.3811C150.851 42.4045 150.969 42.51 150.992 42.6623Z" fill="#928D8A"/>
<path d="M138.347 44.291C138.242 44.4199 137.949 44.4668 137.233 44.4668C136.517 44.4668 136.224 44.5137 136.119 44.6426C136.037 44.7363 135.872 44.8183 135.755 44.8183C135.567 44.8183 135.532 44.9121 135.532 45.4511C135.532 45.8613 135.474 46.1308 135.356 46.2245C135.122 46.4237 135.122 47.2792 135.356 47.2792C135.474 47.2792 135.532 47.4549 135.556 47.9471L135.591 48.6267L136.4 48.6619C137.057 48.6853 137.221 48.6619 137.35 48.4861C137.503 48.2869 137.995 48.2752 146.898 48.2752C155.59 48.2869 156.294 48.2986 156.505 48.4861C156.669 48.6385 156.939 48.6853 157.561 48.6853H158.405V48.0408C158.405 47.5721 158.452 47.3729 158.581 47.326C158.699 47.2792 158.757 47.0917 158.757 46.7518C158.757 46.412 158.699 46.2245 158.581 46.1776C158.452 46.1308 158.405 45.9316 158.405 45.4628C158.405 44.9121 158.37 44.8183 158.182 44.8183C158.065 44.8183 157.901 44.7363 157.819 44.6426C157.713 44.5137 157.432 44.4668 156.775 44.4668C156.177 44.4551 155.813 44.4082 155.66 44.291C155.309 44.0215 138.57 44.0332 138.347 44.291V44.291Z" fill="#928D8A"/>
<path d="M127.873 45.2403C127.826 45.2872 127.861 45.4044 127.943 45.4981C128.013 45.5919 128.107 45.9669 128.142 46.3301L128.201 46.9863L130.958 47.0215C134.289 47.0684 134.711 47.0215 134.711 46.6465C134.711 46.4942 134.817 46.2364 134.957 46.0606C135.086 45.8966 135.18 45.6388 135.157 45.4981L135.122 45.2286L131.532 45.1935C129.562 45.1818 127.92 45.2052 127.873 45.2403V45.2403Z" fill="#928D8A"/>
<path d="M158.839 45.2519C158.71 45.3808 158.745 45.7558 158.921 46.0839C159.015 46.2597 159.121 46.5409 159.168 46.7284L159.226 47.0448L162.487 47.0214L165.736 46.9862L165.772 46.3417C165.795 45.9902 165.889 45.6152 165.983 45.5097C166.077 45.416 166.112 45.2871 166.065 45.2519C165.971 45.1465 158.933 45.1465 158.839 45.2519V45.2519Z" fill="#928D8A"/>
<path d="M115.592 46.3534C115.369 46.412 114.864 46.5058 114.477 46.5526L113.773 46.6347L113.738 47.1385C113.715 47.4549 113.773 47.7596 113.879 47.9236C114.043 48.1697 114.067 48.8377 114.067 52.8335V57.4739L113.715 58.0364C113.433 58.5051 113.363 58.7395 113.363 59.2785V59.9464L114.043 59.9113L114.712 59.8761L114.735 55.892C114.759 52.7632 114.806 51.8375 114.935 51.5563C115.029 51.3571 115.193 50.9938 115.322 50.736C115.658 50.0187 116.33 49.435 116.882 49.072C117.587 48.5868 118.068 48.6385 118.841 48.6385C120.365 48.7327 120.647 48.8734 121.632 49.7048C122.265 50.3014 122.362 50.6806 122.676 51.2399C123.122 52.107 123.216 53.0328 123.216 56.4544C123.216 60.0871 123.204 60.0168 123.885 59.8293C124.19 59.7472 124.213 59.7004 124.248 59.0676C124.272 58.5989 124.225 58.3059 124.107 58.1067C123.943 57.8723 123.92 57.1575 123.92 52.8101C123.92 48.4041 123.943 47.7596 124.107 47.6307C124.225 47.5252 124.272 47.326 124.248 47.0565L124.213 46.6347L123.216 46.5995C122.665 46.5878 122.066 46.5175 121.867 46.4472C121.398 46.2714 116.131 46.2011 115.592 46.3534V46.3534Z" fill="#928D8A"/>
<path d="M172.481 46.3535C172.188 46.4121 171.449 46.5058 170.839 46.5527L169.725 46.6347L169.689 47.0566C169.666 47.3261 169.713 47.5253 169.83 47.6308C169.994 47.7597 170.018 48.4042 170.018 52.7516C170.018 57.0404 169.994 57.7552 169.842 57.9896C169.701 58.1888 169.666 58.4935 169.689 59.0677L169.725 59.8762H170.194H170.663L170.722 56.185C170.768 53.5953 170.827 52.4001 170.933 52.1657C171.003 51.9782 170.948 51.8837 171.073 51.5681C171.409 50.2761 172.731 49.2 173.384 48.8729C173.846 48.7138 174.17 48.6503 175.05 48.6503C176.328 48.662 176.858 48.9211 177.607 49.4823C178.418 50.1194 178.833 50.8944 178.991 51.7321C179.132 51.9665 179.155 52.775 179.167 55.9741V59.9348H179.859H180.539L180.598 59.3489C180.668 58.6693 180.598 58.1771 180.434 58.1771C180.375 58.1771 180.223 58.0599 180.094 57.9076C179.894 57.6615 179.882 57.3685 179.871 52.8336C179.871 48.6151 179.894 47.994 180.047 47.8651C180.176 47.7597 180.223 47.5488 180.199 47.1738L180.164 46.6347L179.519 46.5644C179.167 46.5176 178.686 46.4355 178.463 46.3535C177.971 46.2012 173.279 46.2012 172.481 46.3535V46.3535Z" fill="#928D8A"/>
<path d="M184.187 47.1269C184.117 47.2089 184 47.2792 183.918 47.2792C183.835 47.2792 183.742 47.3964 183.695 47.537C183.659 47.6894 183.624 50.4783 183.624 53.7359C183.624 58.6693 183.648 59.7004 183.788 59.8059C183.894 59.8997 184.387 59.9348 185.22 59.9114L186.498 59.8762L186.557 53.8414C186.592 50.5252 186.627 47.7948 186.651 47.7831C186.662 47.7714 186.791 47.748 186.944 47.7245C187.237 47.6894 187.378 47.1972 187.12 47.1035C187.038 47.08 186.369 47.0332 185.642 47.0214C184.68 46.998 184.269 47.0332 184.187 47.1269V47.1269Z" fill="#928D8A"/>
<path d="M106.724 47.2208C106.618 47.4903 106.759 47.7481 107.029 47.7481C107.158 47.7481 107.275 47.7598 107.287 47.7715C107.31 47.795 107.346 50.5136 107.381 53.8298L107.439 59.8529H108.788L110.137 59.8412L110.172 53.654L110.196 47.4551L109.938 47.2559C109.562 46.9747 106.829 46.9395 106.724 47.2208V47.2208Z" fill="#928D8A"/>
<path d="M158.839 47.3495C158.792 47.3964 158.757 47.7948 158.757 48.2401V49.0369L162.429 49.0135L166.088 48.9783L166.123 48.3573C166.159 47.7948 166.135 47.7362 165.854 47.6308C165.678 47.5604 164.188 47.5136 162.346 47.5136C160.341 47.5136 159.109 47.4667 159.039 47.3964C158.968 47.3261 158.886 47.3144 158.839 47.3495V47.3495Z" fill="#928D8A"/>
<path d="M134.476 47.502C134.254 47.5489 132.799 47.5606 131.251 47.5371C129.386 47.502 128.33 47.5371 128.107 47.6192C127.802 47.7363 127.779 47.7832 127.814 48.3574L127.849 48.9785H131.485H135.122L135.157 48.4629C135.204 47.9004 135.11 47.3848 134.969 47.4082C134.922 47.42 134.699 47.4668 134.476 47.502V47.502Z" fill="#928D8A"/>
<path d="M137.726 48.7558C137.585 48.8964 137.632 49.2362 137.819 49.3886C138.089 49.6112 138.089 58.6576 137.808 58.8802C137.69 58.9857 137.644 59.1849 137.667 59.4544C137.702 59.8646 137.714 59.8763 138.171 59.8763C138.629 59.8763 138.641 59.8646 138.676 59.4544C138.699 59.1849 138.652 58.9857 138.535 58.8802C138.371 58.7513 138.347 58.142 138.347 54.1344C138.347 50.1268 138.371 49.5175 138.523 49.3886C138.629 49.3065 138.699 49.119 138.676 48.9901C138.652 48.8026 138.547 48.7323 138.23 48.7089C137.995 48.6855 137.773 48.7089 137.726 48.7558Z" fill="#928D8A"/>
<path d="M139.133 48.7557C139.086 48.8026 139.051 49.0135 139.051 49.2127C139.051 49.4237 138.969 49.658 138.875 49.7401C138.723 49.869 138.699 50.5017 138.699 54.0992V58.3177L139.028 58.6575C139.204 58.8568 139.368 59.1731 139.403 59.4309L139.462 59.8528H140.869C142.429 59.8411 142.57 59.7708 142.57 59.0442C142.57 58.845 142.652 58.6107 142.746 58.5286C143.004 58.3177 143.016 49.9627 142.758 49.7401C142.664 49.6697 142.57 49.4119 142.547 49.1776L142.511 48.744L140.857 48.7089C139.954 48.6971 139.18 48.7206 139.133 48.7557Z" fill="#928D8A"/>
<path d="M143.004 48.7558C142.863 48.8964 142.91 49.2362 143.098 49.3886C143.368 49.6112 143.368 58.6576 143.086 58.8802C142.969 58.9857 142.922 59.1849 142.945 59.4544C142.981 59.8646 142.992 59.8763 143.45 59.8763C143.907 59.8763 143.919 59.8646 143.954 59.4544C143.978 59.1849 143.931 58.9857 143.813 58.8802C143.649 58.7513 143.626 58.142 143.626 54.1344C143.626 50.1268 143.649 49.5175 143.802 49.3886C143.907 49.3065 143.978 49.119 143.954 48.9901C143.931 48.8026 143.825 48.7323 143.508 48.7089C143.274 48.6855 143.051 48.7089 143.004 48.7558Z" fill="#928D8A"/>
<path d="M144.412 48.7557C144.365 48.8026 144.329 49.037 144.329 49.283C144.329 49.5526 144.271 49.7401 144.154 49.7869C144.001 49.8455 143.978 50.4314 143.978 54.1109C143.978 57.767 144.001 58.3997 144.154 58.5286C144.247 58.6107 144.329 58.8685 144.329 59.1146C144.329 59.3606 144.412 59.6184 144.505 59.7005C144.623 59.7942 145.373 59.8411 147.109 59.8528H149.549L149.584 59.22C149.608 58.8216 149.69 58.5521 149.796 58.4935C150.042 58.3529 150.042 49.951 149.796 49.7401C149.702 49.6697 149.608 49.4119 149.584 49.1776L149.549 48.744L147.016 48.7089C145.631 48.6971 144.459 48.7206 144.412 48.7557Z" fill="#928D8A"/>
<path d="M150.042 48.7558C149.901 48.8964 149.948 49.2362 150.136 49.3886C150.406 49.6112 150.406 58.6576 150.124 58.8802C150.007 58.9857 149.96 59.1849 149.983 59.4544C150.018 59.8646 150.03 59.8763 150.488 59.8763C150.945 59.8763 150.957 59.8646 150.992 59.4544C151.015 59.1849 150.969 58.9857 150.851 58.8802C150.687 58.7513 150.664 58.142 150.664 54.1344C150.664 50.1268 150.687 49.5175 150.84 49.3886C150.945 49.3065 151.015 49.119 150.992 48.9901C150.969 48.8026 150.863 48.7323 150.546 48.7089C150.312 48.6855 150.089 48.7089 150.042 48.7558Z" fill="#928D8A"/>
<path d="M151.449 48.7557C151.403 48.8026 151.367 49.0135 151.367 49.2127C151.367 49.4237 151.285 49.658 151.191 49.7401C150.933 49.951 150.922 58.306 151.191 58.5286C151.285 58.599 151.367 58.9271 151.391 59.2669L151.426 59.8645H153.127H154.828L154.863 59.2669C154.886 58.9271 154.968 58.599 155.062 58.5286C155.32 58.3177 155.32 49.951 155.074 49.7401C154.98 49.6697 154.886 49.4119 154.863 49.1776L154.828 48.744L153.174 48.7089C152.271 48.6971 151.496 48.7206 151.449 48.7557V48.7557Z" fill="#928D8A"/>
<path d="M155.32 48.7676C155.18 48.8965 155.226 49.2363 155.414 49.3886C155.684 49.6113 155.684 58.6577 155.402 58.8803C155.285 58.9858 155.238 59.185 155.262 59.4545C155.297 59.8646 155.32 59.8764 155.801 59.9115L156.294 59.9467V59.4897C156.294 59.2201 156.223 58.9623 156.118 58.8803C155.965 58.7514 155.942 58.0835 155.942 54.1345C155.942 50.1855 155.965 49.5175 156.118 49.3886C156.212 49.3066 156.294 49.1191 156.294 48.9668C156.294 48.7207 156.235 48.6855 155.848 48.6855C155.602 48.6855 155.355 48.7207 155.32 48.7676Z" fill="#928D8A"/>
<path d="M117.363 49.2948C116.365 49.8805 115.725 50.6609 115.369 51.6618C115.134 52.3649 115.122 52.5758 115.146 56.1382L115.181 59.8762H115.58C116.295 59.8762 116.295 59.8997 116.295 56.2671C116.295 52.693 116.331 52.4704 116.94 51.6618C117.386 51.0642 117.644 50.8884 118.289 50.7127C119.392 50.408 120.506 50.9705 121.14 52.1423C121.386 52.5876 121.398 52.7985 121.456 56.2436L121.515 59.8645L121.961 59.8762C122.195 59.888 122.442 59.8411 122.512 59.7591C122.641 59.6067 122.688 53.3844 122.571 52.4352C122.386 51.4231 121.769 50.255 121.081 49.7166C120.26 49.1424 119.92 49.037 118.876 49.0487C118.137 49.0487 117.738 49.119 117.363 49.2948V49.2948Z" fill="#928D8A"/>
<path d="M135.579 49.166C135.438 49.4121 135.509 50.0097 135.696 50.1152C135.861 50.2089 135.884 50.7597 135.884 54.6735C135.884 58.5171 135.861 59.1264 135.708 59.185C135.603 59.2319 135.532 59.4077 135.532 59.5951C135.532 59.9232 135.556 59.935 136.06 59.935C136.564 59.935 136.588 59.9232 136.588 59.5951C136.588 59.4077 136.517 59.2319 136.412 59.185C136.259 59.1264 136.236 58.5171 136.236 54.6618C136.236 50.8065 136.259 50.1972 136.412 50.1386C136.529 50.0917 136.588 49.9042 136.588 49.5527V49.0371H136.13C135.872 49.0371 135.626 49.0957 135.579 49.166V49.166Z" fill="#928D8A"/>
<path d="M157.291 49.1543C157.185 49.3301 157.35 50.0683 157.537 50.2206C157.784 50.4198 157.76 59.103 157.514 59.1967C157.42 59.2319 157.35 59.4077 157.35 59.5951C157.35 59.9232 157.373 59.935 157.877 59.935C158.382 59.935 158.405 59.9232 158.405 59.5951C158.405 59.4077 158.335 59.2319 158.229 59.185C158.077 59.1264 158.053 58.5171 158.053 54.6618C158.053 50.8065 158.077 50.1972 158.229 50.1386C158.347 50.0917 158.405 49.9042 158.405 49.5527V49.0371H157.889C157.596 49.0371 157.326 49.084 157.291 49.1543V49.1543Z" fill="#928D8A"/>
<path d="M173.279 49.4238C172.375 49.9277 171.578 51.0292 171.355 52.0838C171.308 52.3065 171.249 54.1345 171.226 56.15L171.179 59.8061L171.589 59.8764C172.481 60.0521 172.411 60.2982 172.481 56.1852C172.551 52.0604 172.528 52.1424 173.443 51.2636C173.795 50.912 174.018 50.7948 174.475 50.7362C175.683 50.5722 176.528 50.9354 177.161 51.908L177.466 52.3768L177.525 56.0446C177.595 60.0873 177.56 59.9701 178.346 59.9115L178.756 59.8764V56.0094C178.756 52.1424 178.733 51.8377 178.334 51.1464C178.275 51.0526 178.182 50.8651 178.123 50.7362C177.947 50.3144 177.044 49.5176 176.493 49.2715C176.094 49.0957 175.718 49.0371 174.956 49.0371C174.041 49.0488 173.889 49.084 173.279 49.4238V49.4238Z" fill="#928D8A"/>
<path d="M137.069 49.576C137.057 49.7634 136.975 50.033 136.881 50.1619C136.74 50.3494 136.717 51.0876 136.705 54.6968C136.705 58.8098 136.717 59.0325 136.94 59.3137L137.163 59.6067L137.233 59.2668C137.28 59.0911 137.385 58.7981 137.479 58.6224C137.608 58.3763 137.644 57.5326 137.644 54.0874C137.644 50.3259 137.62 49.8455 137.456 49.7752C137.35 49.74 137.221 49.5994 137.174 49.4588C137.08 49.2478 137.069 49.2596 137.069 49.576Z" fill="#928D8A"/>
<path d="M128.494 49.7167C128.494 49.9159 128.565 50.0916 128.67 50.1385C128.823 50.1971 128.846 50.8064 128.846 54.6617C128.846 58.517 128.823 59.1263 128.67 59.1849C128.565 59.2318 128.494 59.4075 128.494 59.595C128.494 59.9231 128.518 59.9349 129.022 59.9349C129.527 59.9349 129.55 59.9231 129.55 59.595C129.55 59.4075 129.48 59.2318 129.374 59.1849C129.222 59.1263 129.198 58.517 129.198 54.6734C129.198 50.7244 129.222 50.2088 129.386 50.1151C129.491 50.0565 129.55 49.9041 129.527 49.7284C129.503 49.494 129.421 49.4471 128.999 49.412C128.506 49.3768 128.494 49.3885 128.494 49.7167V49.7167Z" fill="#928D8A"/>
<path d="M130.312 49.4822C130.242 49.5291 130.078 49.7752 129.949 50.033C129.702 50.49 129.691 50.654 129.679 54.6851L129.656 58.8684L129.961 59.3489C130.125 59.6067 130.301 59.8176 130.348 59.8176C130.395 59.8176 130.934 59.8293 131.544 59.8411C132.623 59.8645 132.658 59.8528 132.694 59.6067C132.717 59.4544 132.811 59.302 132.905 59.2669C133.151 59.1731 133.151 50.3025 132.905 50.0916C132.811 50.0213 132.717 49.8455 132.694 49.7049C132.658 49.4588 132.588 49.4471 131.544 49.4236C130.934 49.4119 130.371 49.4354 130.312 49.4822Z" fill="#928D8A"/>
<path d="M133.257 49.4822C133.221 49.5525 133.268 49.7517 133.362 49.9275C133.503 50.2087 133.538 51.0055 133.538 54.7436C133.538 59.0793 133.526 59.2434 133.304 59.466C132.916 59.8527 133.01 59.9465 133.749 59.9113C134.383 59.8762 134.418 59.8645 134.453 59.5598C134.477 59.3254 134.441 59.2317 134.312 59.2317C134.148 59.2317 134.125 58.7278 134.125 54.6616C134.125 50.5954 134.148 50.0915 134.312 50.0915C134.441 50.0915 134.477 49.9978 134.453 49.7634C134.418 49.4705 134.371 49.447 133.867 49.4119C133.573 49.3884 133.292 49.4236 133.257 49.4822V49.4822Z" fill="#928D8A"/>
<path d="M159.461 49.7283C159.461 49.9157 159.531 50.0915 159.637 50.1384C159.789 50.197 159.813 50.8063 159.813 54.7202C159.813 58.6575 159.789 59.2317 159.637 59.2317C159.52 59.2317 159.461 59.3488 159.461 59.5832C159.461 59.923 159.484 59.9347 159.977 59.9347C160.61 59.9347 160.704 59.8176 160.47 59.3254C160.305 59.0207 160.282 58.3294 160.282 54.6499C160.282 50.5251 160.294 50.3259 160.517 49.9392C160.798 49.4705 160.716 49.3884 159.918 49.3884C159.496 49.3884 159.461 49.4119 159.461 49.7283V49.7283Z" fill="#928D8A"/>
<path d="M161.303 49.4705C161.256 49.5057 161.22 49.6346 161.22 49.7518C161.22 49.8689 161.127 50.0096 161.021 50.0799C160.822 50.1853 160.81 50.5369 160.786 54.521L160.763 58.8567L161.044 59.3606L161.314 59.8762L162.44 59.8997L163.578 59.9114L163.86 59.4544L164.153 58.9974V54.6851C164.153 51.0759 164.129 50.3377 163.977 50.1385C163.883 50.0213 163.801 49.8338 163.801 49.7283C163.801 49.6229 163.719 49.494 163.613 49.4588C163.367 49.3651 161.396 49.3651 161.303 49.4705Z" fill="#928D8A"/>
<path d="M164.329 49.5056C164.282 49.5759 164.34 49.7868 164.434 49.9978C164.704 50.5251 164.716 58.9153 164.458 59.4191C164.223 59.8527 164.305 59.9347 164.927 59.9347C165.42 59.9347 165.443 59.923 165.443 59.5949C165.443 59.4074 165.373 59.2317 165.267 59.1848C165.115 59.1262 165.091 58.5168 165.091 54.6616C165.091 50.8063 165.115 50.197 165.267 50.1384C165.373 50.0915 165.443 49.9157 165.443 49.7283C165.443 49.4001 165.42 49.3884 164.927 49.3884C164.634 49.3884 164.364 49.447 164.329 49.5056V49.5056Z" fill="#928D8A"/>
<path d="M165.795 49.6814C165.795 49.8454 165.713 50.0095 165.619 50.0446C165.467 50.1032 165.443 50.736 165.443 54.6733C165.443 58.6457 165.467 59.2317 165.619 59.2317C165.76 59.2317 165.795 59.0559 165.795 58.3176C165.795 57.6966 165.854 57.3333 165.971 57.1693C166.229 56.8294 166.229 49.3884 165.971 49.3884C165.865 49.3884 165.795 49.4939 165.795 49.6814V49.6814Z" fill="#928D8A"/>
<path d="M156.376 49.7048C156.329 49.74 156.294 51.732 156.294 54.1225C156.294 57.5911 156.329 58.5285 156.458 58.7043C156.54 58.8332 156.646 59.091 156.693 59.2902L156.787 59.6418L157.009 59.2082C157.221 58.8098 157.232 58.5051 157.197 54.5795C157.174 50.3962 157.174 50.3845 156.904 49.9978C156.634 49.6228 156.517 49.5525 156.376 49.7048Z" fill="#928D8A"/>
<path d="M134.828 50.0681C134.735 50.1032 134.617 50.1852 134.57 50.2556C134.523 50.3259 134.477 52.3297 134.477 54.7084V59.0324L134.758 59.2902L135.028 59.548L135.227 59.1848C135.403 58.8567 135.415 58.3528 135.391 54.5795C135.356 50.9821 135.333 50.3141 135.18 50.1735C135.086 50.0798 134.922 50.0329 134.828 50.0681V50.0681Z" fill="#928D8A"/>
<path d="M158.734 50.1034C158.534 50.2088 158.523 50.5486 158.523 54.6031C158.523 58.7865 158.534 59.0091 158.757 59.3724C158.886 59.5833 158.992 59.7005 158.992 59.6302C158.992 59.5599 159.097 59.3841 159.226 59.2318C159.449 58.974 159.461 58.7982 159.461 54.732C159.461 51.0877 159.437 50.4549 159.273 50.2323C159.074 49.9393 159.015 49.9276 158.734 50.1034V50.1034Z" fill="#928D8A"/>
</g>
<path d="M59.8567 119.64C59.4301 119.88 58.9234 120.04 58.3367 120.12C57.7767 120.227 57.1901 120.28 56.5767 120.28V91.88C57.4834 91.4 58.5767 91.16 59.8567 91.16V119.64ZM84.1252 115.12C83.9918 115.253 83.8052 115.373 83.5652 115.48C83.3252 115.56 83.0585 115.64 82.7652 115.72C82.4985 115.8 82.2185 115.867 81.9252 115.92C81.6318 115.947 81.3652 115.96 81.1252 115.96L72.4452 95C72.2585 97.08 72.0718 99.2 71.8852 101.36C71.7252 103.493 71.5652 105.613 71.4052 107.72C71.2718 109.8 71.1385 111.853 71.0052 113.88C70.8985 115.88 70.8052 117.8 70.7252 119.64C70.3252 119.88 69.8185 120.04 69.2052 120.12C68.6185 120.227 68.0318 120.28 67.4452 120.28C68.0052 115.64 68.6052 110.933 69.2452 106.16C69.8852 101.387 70.5385 96.64 71.2052 91.92C71.5785 91.7067 72.0718 91.5333 72.6852 91.4C73.2985 91.24 73.8718 91.16 74.4052 91.16L83.1252 112.72C84.4852 109.307 85.8718 105.84 87.2852 102.32C88.7252 98.8 90.1252 95.2933 91.4852 91.8C91.9118 91.5867 92.4052 91.4267 92.9652 91.32C93.5518 91.2133 94.1118 91.16 94.6452 91.16L98.0052 119.68C97.6318 119.893 97.1385 120.04 96.5252 120.12C95.9118 120.227 95.3118 120.28 94.7252 120.28L91.8852 95.56C90.5518 98.8933 89.2185 102.213 87.8852 105.52C86.5785 108.827 85.3252 112.027 84.1252 115.12ZM105.521 92.36C106.721 91.9333 108.094 91.56 109.641 91.24C111.188 90.92 112.881 90.76 114.721 90.76C116.641 90.76 118.254 91 119.561 91.48C120.868 91.9333 121.908 92.5467 122.681 93.32C123.481 94.0933 124.054 94.9733 124.401 95.96C124.748 96.9467 124.921 97.96 124.921 99C124.921 100.627 124.588 102.08 123.921 103.36C123.281 104.64 122.388 105.72 121.241 106.6C120.121 107.48 118.801 108.16 117.281 108.64C115.761 109.093 114.121 109.32 112.361 109.32C111.668 109.32 111.014 109.293 110.401 109.24C109.788 109.187 109.254 109.12 108.801 109.04V119.64C108.374 119.88 107.868 120.04 107.281 120.12C106.721 120.227 106.134 120.28 105.521 120.28V92.36ZM113.601 92.6C112.641 92.6 111.761 92.6533 110.961 92.76C110.161 92.8667 109.441 92.9867 108.801 93.12V106.36C109.388 106.68 110.068 106.947 110.841 107.16C111.641 107.373 112.628 107.48 113.801 107.48C116.121 107.48 117.961 106.867 119.321 105.64C120.681 104.413 121.361 102.64 121.361 100.32C121.361 99.2533 121.214 98.2533 120.921 97.32C120.628 96.3867 120.161 95.5733 119.521 94.88C118.881 94.16 118.068 93.6 117.081 93.2C116.121 92.8 114.961 92.6 113.601 92.6ZM131.38 120.28V92.2C132.287 91.6933 133.38 91.4133 134.66 91.36C135.434 91.3333 136.46 91.32 137.74 91.32C139.047 91.2933 140.42 91.2667 141.86 91.24C143.327 91.2133 144.754 91.2 146.14 91.2C147.554 91.1733 148.74 91.16 149.7 91.16C149.647 91.72 149.487 92.2267 149.22 92.68C148.98 93.1333 148.7 93.4267 148.38 93.56C147.474 93.56 146.447 93.5467 145.3 93.52C144.154 93.4667 142.967 93.4267 141.74 93.4C140.514 93.3467 139.287 93.2933 138.06 93.24C136.834 93.1867 135.7 93.1333 134.66 93.08V104.84L147.34 104.6C147.287 105.08 147.154 105.52 146.94 105.92C146.727 106.32 146.487 106.547 146.22 106.6C144.274 106.573 142.34 106.56 140.42 106.56C138.5 106.533 136.58 106.493 134.66 106.44V118.52C137.007 118.467 139.447 118.387 141.98 118.28C144.514 118.147 147.194 117.987 150.02 117.8C149.94 118.413 149.78 118.947 149.54 119.4C149.3 119.827 149.034 120.12 148.74 120.28H131.38ZM156.498 92.32C157.671 91.8933 159.044 91.5333 160.618 91.24C162.218 90.92 163.831 90.76 165.458 90.76C167.271 90.76 168.804 90.9733 170.058 91.4C171.338 91.8 172.378 92.36 173.178 93.08C173.978 93.7733 174.551 94.5867 174.898 95.52C175.271 96.4533 175.458 97.44 175.458 98.48C175.458 99.76 175.218 100.893 174.738 101.88C174.258 102.84 173.631 103.68 172.858 104.4C172.111 105.093 171.244 105.68 170.258 106.16C169.271 106.613 168.284 106.96 167.298 107.2C167.751 107.493 168.178 107.867 168.578 108.32C168.978 108.747 169.404 109.253 169.858 109.84L173.818 114.96C174.644 116.027 175.404 116.947 176.098 117.72C176.791 118.493 177.378 119.08 177.858 119.48V119.72C177.484 119.907 176.938 120.04 176.218 120.12C175.498 120.227 174.818 120.28 174.178 120.28C173.911 120.173 173.551 119.893 173.098 119.44C172.671 118.96 172.071 118.16 171.298 117.04L166.578 110.36C166.231 109.88 165.898 109.467 165.578 109.12C165.284 108.773 164.951 108.493 164.578 108.28C164.231 108.04 163.818 107.88 163.338 107.8C162.884 107.693 162.324 107.64 161.658 107.64H159.778V119.64C159.351 119.88 158.844 120.04 158.258 120.12C157.698 120.227 157.111 120.28 156.498 120.28V92.32ZM164.018 92.6C163.378 92.6 162.684 92.64 161.938 92.72C161.191 92.8 160.471 92.92 159.778 93.08V105.48C160.231 105.613 160.751 105.72 161.338 105.8C161.951 105.88 162.644 105.92 163.418 105.92C166.031 105.92 168.098 105.387 169.618 104.32C171.138 103.253 171.898 101.613 171.898 99.4C171.898 98.44 171.738 97.5467 171.418 96.72C171.098 95.8667 170.604 95.1467 169.938 94.56C169.298 93.9467 168.484 93.4667 167.498 93.12C166.511 92.7733 165.351 92.6 164.018 92.6ZM186.927 119.64C186.5 119.88 185.994 120.04 185.407 120.12C184.847 120.227 184.26 120.28 183.647 120.28V91.88C184.554 91.4 185.647 91.16 186.927 91.16V119.64ZM192.235 120.28C193.115 118.04 194.049 115.653 195.035 113.12C196.022 110.56 197.009 108.027 197.995 105.52C199.009 102.987 199.982 100.547 200.915 98.2C201.875 95.8267 202.729 93.6933 203.475 91.8C203.929 91.5867 204.422 91.4267 204.955 91.32C205.489 91.2133 206.022 91.16 206.555 91.16L217.155 119.84C216.915 119.973 216.582 120.08 216.155 120.16C215.729 120.267 215.222 120.32 214.635 120.32C214.502 120.32 214.369 120.32 214.235 120.32C214.129 120.32 214.009 120.307 213.875 120.28L210.755 111.8H197.955C197.022 114.653 196.195 117.373 195.475 119.96C195.235 120.093 194.915 120.187 194.515 120.24C194.142 120.32 193.755 120.36 193.355 120.36C193.115 120.36 192.902 120.347 192.715 120.32C192.529 120.32 192.369 120.307 192.235 120.28ZM204.315 94.12C203.382 96.5467 202.422 99.1067 201.435 101.8C200.475 104.467 199.529 107.16 198.595 109.88H210.075L204.315 94.12ZM226.184 118.52C228.344 118.44 230.584 118.333 232.904 118.2C235.224 118.067 237.837 117.907 240.744 117.72C240.691 118.333 240.544 118.88 240.304 119.36C240.064 119.813 239.797 120.12 239.504 120.28H222.904V91.88C223.811 91.4 224.904 91.16 226.184 91.16V118.52ZM111.205 185.64C110.778 185.88 110.272 186.04 109.685 186.12C109.125 186.227 108.538 186.28 107.925 186.28V172.24H91.9652V185.64C91.5385 185.88 91.0318 186.04 90.4452 186.12C89.8852 186.227 89.2985 186.28 88.6852 186.28V157.88C89.5918 157.4 90.6852 157.16 91.9652 157.16V170.36H107.925V157.88C108.832 157.4 109.925 157.16 111.205 157.16V185.64ZM121.893 170.84C121.893 173.107 122.173 175.107 122.733 176.84C123.32 178.573 124.093 180.04 125.053 181.24C126.013 182.413 127.133 183.307 128.413 183.92C129.72 184.533 131.093 184.84 132.533 184.84C135.6 184.84 137.973 183.787 139.653 181.68C141.36 179.573 142.213 176.413 142.213 172.2C142.213 170.147 141.96 168.293 141.453 166.64C140.947 164.96 140.227 163.533 139.293 162.36C138.387 161.16 137.28 160.24 135.973 159.6C134.693 158.96 133.253 158.64 131.653 158.64C130.373 158.64 129.133 158.88 127.933 159.36C126.76 159.84 125.72 160.587 124.813 161.6C123.933 162.587 123.227 163.853 122.693 165.4C122.16 166.92 121.893 168.733 121.893 170.84ZM118.333 172.12C118.333 169.853 118.72 167.787 119.493 165.92C120.293 164.027 121.347 162.4 122.653 161.04C123.987 159.68 125.52 158.627 127.253 157.88C129.013 157.133 130.867 156.76 132.813 156.76C134.92 156.76 136.773 157.12 138.373 157.84C140 158.56 141.36 159.56 142.453 160.84C143.547 162.12 144.373 163.627 144.933 165.36C145.493 167.067 145.773 168.92 145.773 170.92C145.773 173.133 145.453 175.2 144.813 177.12C144.173 179.04 143.24 180.707 142.013 182.12C140.787 183.533 139.28 184.653 137.493 185.48C135.733 186.307 133.733 186.72 131.493 186.72C129.707 186.72 128.013 186.387 126.413 185.72C124.84 185.053 123.453 184.093 122.253 182.84C121.053 181.56 120.093 180.027 119.373 178.24C118.68 176.427 118.333 174.387 118.333 172.12ZM167.602 181.12C167.468 181.253 167.282 181.373 167.042 181.48C166.802 181.56 166.535 181.64 166.242 181.72C165.975 181.8 165.695 181.867 165.402 181.92C165.108 181.947 164.842 181.96 164.602 181.96L155.922 161C155.735 163.08 155.548 165.2 155.362 167.36C155.202 169.493 155.042 171.613 154.882 173.72C154.748 175.8 154.615 177.853 154.482 179.88C154.375 181.88 154.282 183.8 154.202 185.64C153.802 185.88 153.295 186.04 152.682 186.12C152.095 186.227 151.508 186.28 150.922 186.28C151.482 181.64 152.082 176.933 152.722 172.16C153.362 167.387 154.015 162.64 154.682 157.92C155.055 157.707 155.548 157.533 156.162 157.4C156.775 157.24 157.348 157.16 157.882 157.16L166.602 178.72C167.962 175.307 169.348 171.84 170.762 168.32C172.202 164.8 173.602 161.293 174.962 157.8C175.388 157.587 175.882 157.427 176.442 157.32C177.028 157.213 177.588 157.16 178.122 157.16L181.482 185.68C181.108 185.893 180.615 186.04 180.002 186.12C179.388 186.227 178.788 186.28 178.202 186.28L175.362 161.56C174.028 164.893 172.695 168.213 171.362 171.52C170.055 174.827 168.802 178.027 167.602 181.12ZM188.998 186.28V158.2C189.904 157.693 190.998 157.413 192.278 157.36C193.051 157.333 194.078 157.32 195.358 157.32C196.664 157.293 198.038 157.267 199.478 157.24C200.944 157.213 202.371 157.2 203.758 157.2C205.171 157.173 206.358 157.16 207.318 157.16C207.264 157.72 207.104 158.227 206.838 158.68C206.598 159.133 206.318 159.427 205.998 159.56C205.091 159.56 204.064 159.547 202.918 159.52C201.771 159.467 200.584 159.427 199.358 159.4C198.131 159.347 196.904 159.293 195.678 159.24C194.451 159.187 193.318 159.133 192.278 159.08V170.84L204.958 170.6C204.904 171.08 204.771 171.52 204.558 171.92C204.344 172.32 204.104 172.547 203.838 172.6C201.891 172.573 199.958 172.56 198.038 172.56C196.118 172.533 194.198 172.493 192.278 172.44V184.52C194.624 184.467 197.064 184.387 199.598 184.28C202.131 184.147 204.811 183.987 207.638 183.8C207.558 184.413 207.398 184.947 207.158 185.4C206.918 185.827 206.651 186.12 206.358 186.28H188.998Z" fill="white"/>
</g>
<defs>
<filter id="filter0_d_134_4" x="52.5767" y="0" width="192.167" height="194.72" filterUnits="userSpaceOnUse" color-interpolation-filters="sRGB">
<feFlood flood-opacity="0" result="BackgroundImageFix"/>
<feColorMatrix in="SourceAlpha" type="matrix" values="0 0 0 0 0 0 0 0 0 0 0 0 0 0 0 0 0 0 127 0" result="hardAlpha"/>
<feOffset dy="4"/>
<feGaussianBlur stdDeviation="2"/>
<feComposite in2="hardAlpha" operator="out"/>
<feColorMatrix type="matrix" values="0 0 0 0 0 0 0 0 0 0 0 0 0 0 0 0 0 0 0.25 0"/>
<feBlend mode="normal" in2="BackgroundImageFix" result="effect1_dropShadow_134_4"/>
<feBlend mode="normal" in="SourceGraphic" in2="effect1_dropShadow_134_4" result="shape"/>
</filter>
<clipPath id="clip0_134_4">
<rect width="81.9643" height="59.9554" fill="white" transform="translate(106)"/>
</clipPath>
</defs>
</svg>
