<svg width="603" height="441" viewBox="0 0 603 441" fill="none" xmlns="http://www.w3.org/2000/svg">
<g clip-path="url(#clip0_23_1276)">
<path d="M292.21 2.06809C292.21 3.1883 292.814 4.56702 293.504 5.17022C294.194 5.77341 294.798 7.15213 294.798 8.18618C294.798 9.30639 295.402 10.3404 296.092 10.6851C297.127 11.0298 297.385 13.1841 297.385 21.9734C297.385 30.7628 297.127 32.917 296.092 33.2617C295.315 33.6064 294.798 34.899 294.798 36.3639C294.798 39.5522 292.728 39.2075 292.383 35.933C292.21 34.6404 291.52 33.6064 290.83 33.6064C289.795 33.6064 289.622 36.0192 289.622 47.8245V62.0426H301.267H312.912V47.8245C312.912 35.7607 312.739 33.6064 311.618 33.6064C310.755 33.6064 310.324 34.4681 310.324 36.1915C310.324 37.9149 309.893 38.7766 309.03 38.7766C308.167 38.7766 307.736 37.9149 307.736 36.2777C307.736 34.899 307.219 33.6064 306.442 33.2617C305.407 32.917 305.148 30.849 305.148 22.1458C305.148 13.6149 305.407 11.2021 306.442 10.3404C307.132 9.73724 307.736 8.61703 307.736 7.75532C307.736 6.89362 308.34 5.77341 309.03 5.17022C310.583 3.87766 310.755 0 309.289 0C308.685 0 307.391 1.20638 306.442 2.58511C304.2 5.94575 302.561 5.94575 302.561 2.58511C302.561 0.861703 302.13 0 301.267 0C300.404 0 299.973 0.861703 299.973 2.58511C299.973 5.94575 298.334 5.94575 296.092 2.58511C294.021 -0.517022 292.21 -0.775532 292.21 2.06809Z" fill="#917440"/>
<path d="M285.741 67.3661C283.584 69.6065 282.636 69.9512 278.754 69.9512C275.563 69.9512 274.096 70.2959 273.751 71.2438C273.493 72.0193 272.112 72.5363 270.474 72.5363C268.921 72.6225 266.678 73.1395 265.471 73.8289C264.263 74.5182 262.624 75.0353 261.762 75.1214C259.174 75.1214 248.306 80.981 242.182 85.4619C232.693 92.5278 220.704 106.401 217.254 114.501C216.736 115.449 215.96 116.569 215.529 116.914C215.011 117.173 214.58 118.293 214.58 119.241C214.58 120.275 213.976 121.74 213.2 122.601C211.129 124.928 212.251 126.824 215.787 126.824C218.461 126.824 218.979 126.479 220.79 122.687C222.602 119.068 223.119 118.637 225.966 118.379C228.984 118.12 229.243 118.293 231.4 122.429C233.125 125.962 233.987 126.824 235.712 126.824C237.524 126.824 237.869 126.393 237.869 124.238C237.869 121.826 238.128 121.653 240.802 121.653C242.44 121.653 244.338 121.05 245.114 120.361C245.804 119.671 247.184 119.068 248.133 119.068C250.376 119.068 251.066 117.776 249.513 116.483C248.823 115.88 248.22 114.674 248.22 113.812C248.22 112.95 247.788 112.002 247.271 111.744C245.891 110.796 244.856 107.349 245.373 105.367C246.063 102.696 249.513 103.041 253.74 106.315C258.484 110.107 260.64 112.864 261.158 115.966C261.503 118.034 262.107 118.724 263.746 118.896C264.953 119.068 266.247 119.758 266.592 120.447C267.023 121.223 268.835 121.653 271.94 121.653C276.339 121.653 276.598 121.74 276.857 123.98C277.029 125.876 277.547 126.393 279.272 126.393C280.911 126.393 281.514 125.876 281.859 123.721C282.722 119.758 283.412 119.068 286.517 119.068C289.709 119.068 291.175 120.361 292.124 123.894C292.728 126.22 292.728 126.22 300.491 126.22C309.116 126.22 310.324 125.876 310.324 123.032C310.324 120.361 311.876 119.068 315.154 119.068C318.173 119.068 319.639 120.361 320.588 123.98C321.451 127.254 325.074 127.427 325.85 124.238C326.281 122.343 326.885 122.084 330.594 121.826C333.268 121.653 335.338 121.05 335.942 120.188C336.546 119.413 337.839 118.81 338.961 118.724C340.6 118.637 341.031 118.034 341.203 115.621C341.462 112.519 343.274 110.451 349.57 105.626C353.193 102.954 356.385 103.127 356.73 106.057C357.075 108.038 355.004 112.95 352.762 115.794C351.209 117.603 352.072 119.068 354.746 119.068C355.781 119.068 356.902 119.671 357.247 120.361C357.506 121.223 358.886 121.653 361.215 121.653C364.493 121.653 364.665 121.826 364.665 124.238C364.665 126.393 365.01 126.824 366.821 126.824C368.46 126.824 369.237 126.048 370.617 122.946C373.377 116.655 378.552 116.483 381.485 122.687C383.038 125.962 383.641 126.393 386.488 126.651C390.283 126.996 391.577 125.1 389.334 122.601C388.558 121.74 387.954 120.447 387.954 119.671C387.954 118.896 387.609 118.12 387.178 117.862C386.747 117.603 385.367 115.363 384.073 112.864C379.501 103.988 370.272 93.0448 361.905 86.6682C359.231 84.6002 356.816 82.8768 356.557 82.8768C356.298 82.8768 354.401 81.6704 352.33 80.2917C350.174 78.8268 348.018 77.7065 347.414 77.7065C346.81 77.7065 345.344 77.1895 344.136 76.5002C340.686 74.7768 333.44 72.5363 331.198 72.5363C330.163 72.5363 329.041 71.9331 328.783 71.2438C328.438 70.2959 326.971 69.9512 323.78 69.9512C319.898 69.9512 318.949 69.6065 316.793 67.3661L314.292 64.781H301.267H288.242L285.741 67.3661Z" fill="#917440"/>
<path d="M248.651 105.62C248.306 106.051 248.651 107.171 249.427 108.033C250.203 108.894 250.807 110.187 250.807 110.963C250.807 111.738 251.411 112.686 252.187 113.117C254.344 114.323 253.481 119.666 251.066 120.01C250.031 120.183 248.737 120.872 248.22 121.561C247.616 122.251 245.804 122.768 244.166 122.768C242.354 122.768 241.06 123.285 240.802 124.06C240.456 124.75 239.766 125.353 239.076 125.353C238.128 125.353 237.869 126.818 237.869 131.213C237.869 136.641 238.041 137.244 240.457 139.14C243.217 141.467 243.993 145.517 241.75 146.378C240.974 146.637 240.457 147.93 240.457 149.825C240.457 152.497 239.421 153.789 232.176 161.027C227.691 165.594 223.637 169.3 223.119 169.3C221.221 169.3 222.86 167.146 230.106 159.993C237.006 153.1 237.869 151.98 237.869 149.136C237.869 146.982 238.214 146.034 239.163 146.034C241.405 146.034 240.629 142.242 237.869 140.002C235.712 138.106 235.367 137.244 235.281 133.281C235.281 129.231 235.022 128.627 233.125 127.938C231.917 127.507 230.71 126.387 230.365 125.611C230.106 124.75 229.071 123.199 228.122 122.078L226.311 120.183L224.327 122.078C223.205 123.113 222.343 124.836 222.343 125.956V128.024L210.957 127.766L199.485 127.507L199.054 122.768L198.622 118.028L195.345 117.77C193.447 117.598 191.808 116.908 191.549 116.219C190.946 114.582 189.911 114.668 187.84 116.736C186.46 118.115 186.115 119.58 186.115 123.974C186.115 127.766 185.684 129.748 184.821 130.523C183.873 131.299 183.528 134.315 183.355 144.138C183.096 154.651 182.838 156.805 181.802 156.891C169.209 158.356 159.462 161.114 150.578 165.594C149.37 166.198 147.818 166.715 147.128 166.715C146.438 166.715 145.057 167.663 143.936 168.697L142.038 170.765L145.316 172.919C147.818 174.642 149.37 175.073 151.699 174.729C153.51 174.47 155.149 174.729 155.408 175.246C155.753 175.763 156.702 176.193 157.565 176.193C158.427 176.193 159.893 177.055 160.929 178.175C162.395 179.726 162.826 181.364 162.999 187.396L163.257 194.72H186.115H208.973V192.566C208.973 190.67 208.542 190.325 205.523 189.981L202.073 189.55L201.814 172.402C201.641 155.771 201.641 155.168 203.539 153.186C206.127 150.428 213.545 150.342 217.254 153.1L219.841 155.082L219.583 163.009C219.41 170.075 219.496 171.109 221.049 172.316C222.774 173.608 222.688 173.694 220.014 176.021C218.461 177.4 217.167 179.037 217.167 179.813C217.167 180.588 216.564 181.622 215.874 182.225C215.184 182.829 214.58 183.949 214.58 184.81C214.58 185.672 213.976 186.792 213.286 187.396C212.423 188.085 211.992 190.067 211.992 193.083V197.736L187.668 197.908L163.257 198.167L162.999 202.734C162.826 206.181 163.085 207.387 164.034 207.732C165.069 208.163 165.414 209.541 165.414 213.247C165.414 218.158 165.328 218.331 163.085 218.589C161.274 218.762 160.583 219.365 160.411 221.002C160.238 222.122 159.548 223.501 158.772 224.018C157.91 224.707 157.651 226.345 157.823 230.481L158.082 236.082L195.172 236.254C215.615 236.426 232.78 236.168 233.384 235.737C234.16 235.306 234.85 231.946 235.281 226.517C236.144 217.124 237.438 209.972 239.249 205.75C239.939 204.285 240.457 202.648 240.457 202.217C240.457 201.7 241.147 200.063 241.923 198.425C242.699 196.874 243.907 194.375 244.597 192.997C246.581 188.947 252.446 180.33 255.465 177.227C259.174 173.177 267.627 166.715 269.18 166.715C269.87 166.715 270.905 166.111 271.509 165.422C272.112 164.733 273.148 164.13 273.838 164.13C274.528 164.13 275.908 163.613 276.943 163.096C280.997 160.769 288.846 159.563 301.526 159.218C312.394 158.959 314.982 159.132 316.534 160.252C317.569 160.941 319.294 161.544 320.33 161.544C321.365 161.544 323.348 162.148 324.642 162.837C326.022 163.526 327.834 164.13 328.61 164.13C329.386 164.13 330.335 164.56 330.594 165.077C330.939 165.508 332.06 166.284 333.009 166.801C341.031 170.248 353.021 182.656 356.816 191.446C358.884 194.545 359.05 197.188 360.697 200.149C362.509 203.854 363.889 208.163 364.751 212.988C365.183 215.487 365.959 218.503 366.39 219.709C366.908 221.002 367.253 225.052 367.253 228.757C367.253 235.134 367.425 235.651 369.237 236.082C370.272 236.34 387.609 236.426 407.793 236.34L444.452 236.082L444.711 230.481C444.883 226.345 444.624 224.707 443.762 224.018C442.986 223.501 442.295 222.122 442.123 221.002C441.95 219.365 441.26 218.762 439.535 218.589C437.206 218.331 437.12 218.158 437.12 213.247C437.12 209.541 437.465 208.163 438.5 207.732C439.449 207.387 439.708 206.181 439.535 202.734L439.276 198.167L414.952 197.908L390.542 197.736V195.065C390.542 193.6 390.024 191.359 389.334 190.153C388.644 188.86 387.264 186.103 386.229 183.949C385.194 181.794 383.641 178.865 382.693 177.486C380.019 173.264 379.846 172.574 381.313 171.713C382.52 171.109 382.779 169.472 382.779 163.096C382.779 156.202 383.038 155.082 384.763 153.272C387.437 150.342 395.286 150.342 398.564 153.186L400.893 155.168V171.54C400.893 183.087 400.548 188.257 399.858 188.947C399.254 189.55 397.529 189.981 395.89 189.981C393.302 189.981 393.043 190.153 393.302 192.307L393.561 194.72H416.419H439.276L439.018 188.43C438.759 181.019 440.225 177.4 443.848 176.538C445.142 176.193 446.694 175.59 447.298 175.073C447.902 174.642 449.713 174.47 451.439 174.729C453.94 175.159 455.061 174.815 457.476 172.919L460.323 170.679L458.512 168.697C457.477 167.576 456.096 166.715 455.406 166.715C454.716 166.715 453.164 166.198 451.956 165.508C444.624 161.717 428.753 157.236 422.37 157.236C420.99 157.236 419.61 156.719 419.438 156.116C419.265 155.599 418.92 149.739 418.748 143.19C418.575 135.521 418.144 131.04 417.454 130.351C416.85 129.748 416.419 126.99 416.419 123.888C416.419 119.58 416.074 118.115 414.694 116.736C412.623 114.668 411.588 114.582 410.898 116.305C410.64 117.081 409.346 117.598 407.448 117.598C403.825 117.598 403.48 118.115 403.135 123.371L402.963 127.507L391.577 127.766L380.191 128.024V125.956C380.191 124.836 379.329 123.113 378.207 122.078L376.223 120.183L374.326 122.165C373.291 123.285 372.428 125.008 372.428 125.956C372.428 127.335 371.824 127.852 370.099 128.11C367.857 128.369 367.684 128.627 367.425 133.022C367.167 136.9 366.735 138.02 364.579 139.916C361.905 142.242 361.129 146.034 363.371 146.034C364.234 146.034 364.665 146.896 364.665 148.964C364.665 151.635 365.614 152.927 372.428 159.649C379.587 166.715 381.485 169.3 379.415 169.3C378.897 169.3 374.843 165.594 370.358 161.027C362.681 153.444 362.077 152.583 362.077 149.394C362.077 147.154 361.732 146.034 360.87 146.034C360.266 146.034 359.49 145.172 359.231 144.138C358.8 142.673 359.403 141.553 361.646 139.571C364.493 137.072 364.665 136.641 364.665 131.126C364.665 126.732 364.406 125.353 363.458 125.353C362.767 125.353 362.077 124.75 361.732 124.06C361.474 123.199 360.094 122.768 357.851 122.768C355.781 122.768 354.314 122.337 354.056 121.561C353.797 120.872 352.676 120.183 351.554 120.01C350.002 119.838 349.484 119.149 349.312 116.65C349.139 114.668 349.484 113.203 350.347 112.427C351.123 111.824 351.727 110.618 351.727 109.756C351.727 108.894 352.331 107.86 353.107 107.43C353.883 106.999 354.314 106.223 353.969 105.62C353.107 104.241 352.357 104.547 351.727 105.965C351.42 106.654 351.32 106.951 350.864 107.257C350.506 107.498 348.708 108.55 347.069 110.101C344.826 112.255 344.05 113.892 343.791 116.391C343.619 118.976 343.101 119.838 341.807 120.01C340.858 120.183 339.478 120.872 338.788 121.475C338.098 122.165 335.511 122.768 333.182 122.94C329.214 123.199 328.869 123.371 328.61 125.525C328.351 127.852 328.179 127.938 323.176 127.938H318.087V124.06C318.087 120.355 318.001 120.183 315.499 120.183C312.998 120.183 312.912 120.355 312.912 124.06V127.938H301.267H289.622V124.06C289.622 120.355 289.536 120.183 287.121 120.183C284.706 120.183 284.533 120.441 284.275 123.802L284.016 127.507H278.84C273.924 127.507 273.665 127.421 273.665 125.353C273.665 123.371 273.32 123.199 269.352 122.94C267.023 122.768 264.436 122.165 263.746 121.475C263.056 120.872 261.675 120.183 260.727 120.01C259.433 119.838 258.915 118.976 258.743 116.564C258.57 114.151 257.621 112.6 254.602 109.928C252.532 107.947 250.807 105.965 250.807 105.534C250.807 104.414 249.341 104.414 248.651 105.62Z" fill="#917440"/>
<path d="M94.2527 159.046C92.8726 159.477 90.8887 159.649 89.9399 159.39C88.8185 159.218 86.5759 160.08 84.3332 161.545C82.1768 163.009 79.7617 164.13 78.9854 164.13C78.1228 164.13 76.3977 165.25 75.1038 166.715C73.8962 168.094 72.1711 169.3 71.3086 169.3C67.7721 169.3 66.9958 172.488 67.2545 186.62L67.5133 199.89H96.8403H126.167V184.811C126.167 170.162 126.167 169.817 124.27 169.3C123.235 169.041 121.596 167.835 120.647 166.629C119.698 165.336 117.801 164.044 116.507 163.699C115.213 163.44 113.056 162.32 111.59 161.286C110.037 160.166 107.536 159.39 105.466 159.304C103.568 159.304 100.894 158.959 99.428 158.701C98.0479 158.442 95.719 158.529 94.2527 159.046Z" fill="#917440"/>
<path d="M500.518 158.959C499.138 159.39 497.154 159.563 496.033 159.304C494.825 158.959 493.273 159.39 491.806 160.597C490.513 161.544 488.011 162.837 486.2 163.268C484.216 163.785 482.232 165.077 481.369 166.37C480.593 167.576 479.04 168.955 477.919 169.386L475.935 170.161L476.108 184.983L476.367 199.89H505.694H535.021L535.279 186.706C535.452 175.763 535.279 173.264 534.072 171.454C533.295 170.248 532.002 169.3 531.225 169.3C530.363 169.3 528.638 168.093 527.258 166.715C525.877 165.25 524.152 164.13 523.376 164.13C522.513 164.13 520.357 163.096 518.546 161.803C516.648 160.51 513.888 159.476 512.163 159.39C510.524 159.304 507.764 158.959 506.125 158.701C504.486 158.442 501.985 158.528 500.518 158.959Z" fill="#917440"/>
<path d="M288.76 162.837C288.156 163.526 286.345 164.13 284.706 164.13C283.067 164.13 280.652 164.647 279.444 165.336C278.15 165.939 275.218 167.404 272.975 168.524C265.557 172.143 264.694 172.747 260.382 176.883C255.983 181.191 248.22 191.015 248.22 192.393C248.22 192.824 247.098 195.323 245.632 197.994C244.252 200.666 243.044 203.768 243.044 204.888C243.044 206.008 242.613 207.301 242.095 207.818C241.578 208.335 240.888 210.834 240.456 213.333C240.025 215.918 239.249 219.796 238.731 221.95C238.214 224.19 237.869 228.24 238.041 230.998L238.3 236.082L245.632 236.34C250.893 236.513 253.136 236.943 253.654 237.805C253.999 238.494 255.12 239.098 256.069 239.098C256.931 239.098 258.484 239.615 259.433 240.132C262.193 241.855 263.056 239.959 263.487 231.687C263.746 227.12 264.349 223.415 265.126 222.381C265.715 219.3 267.798 216.574 268.748 214.281C269.611 211.868 276.339 204.199 279.185 202.561C288.07 197.305 293.598 194.799 293.598 197.126C293.598 198.505 287.035 202.906 284.965 202.906C283.843 202.906 277.374 208.249 274.614 211.351C271.767 214.625 268.921 219.537 268.921 221.26C268.921 221.95 268.317 223.673 267.627 225.138C266.678 226.948 266.333 229.705 266.506 234.1L266.765 240.39H301.267H335.769L336.028 235.392C336.287 230.567 335.166 225.914 331.543 217.469C329.3 212.04 322.917 205.836 316.362 202.734C310.324 199.89 306.43 196.869 310.139 196.869C314.452 196.869 326.109 204.113 330.335 209.886C333.699 214.367 335.252 216.78 335.683 217.986C335.769 218.417 336.459 220.226 337.063 221.864C337.667 223.501 338.357 227.551 338.53 230.911C338.961 239.27 339.392 240.821 341.376 240.821C342.239 240.821 343.274 240.39 343.532 239.959C343.791 239.442 344.999 239.098 346.12 239.098C347.241 239.098 348.535 238.494 348.88 237.805C349.398 236.943 351.64 236.513 356.902 236.34L364.234 236.082L364.493 231.859C364.665 229.619 364.32 225.914 363.803 223.673C363.285 221.519 362.509 217.727 362.077 215.401C361.387 211.092 360.266 207.387 358.196 202.475C357.506 201.01 356.385 198.339 355.608 196.443C354.832 194.548 353.797 192.393 353.366 191.704C352.934 191.015 352.33 189.808 351.985 189.119C349.053 182.484 337.926 172.316 328.869 168.093C326.971 167.146 324.384 165.939 323.09 165.25C321.882 164.647 319.812 164.13 318.604 164.13C317.311 164.13 316.103 163.526 315.844 162.837C315.413 161.803 313.084 161.544 302.561 161.544C292.296 161.544 289.622 161.803 288.76 162.837ZM309.466 196.53C309.466 197.564 307.219 197.736 301.353 197.736C294.625 197.736 292.296 197.133 293.676 195.668C293.935 195.409 297.472 195.151 301.439 195.151C307.219 195.151 309.466 195.496 309.466 196.53Z" fill="#917440"/>
<path d="M132.637 171.799L129.618 172.316L129.359 188.861L129.186 205.491H127.116C125.995 205.491 124.615 204.888 124.011 204.199C123.062 203.079 119.008 202.906 96.8403 202.906C74.6725 202.906 70.6185 203.079 69.6697 204.199C69.0659 204.888 67.6858 205.491 66.5645 205.491H64.4943L64.3218 188.861L64.063 172.316L60.2678 172.057C54.9199 171.626 52.5047 172.488 51.5559 174.901C50.8659 176.624 50.0896 177.055 47.7607 177.055C43.5341 177.055 42.0678 177.831 42.0678 180.071C42.0678 181.191 41.0327 183.259 39.8251 184.724C37.755 187.223 37.1512 187.396 32.1483 187.396C26.973 187.396 26.5417 187.568 25.5066 189.722C24.6441 191.618 23.6952 192.221 21.1076 192.393C18.6061 192.652 17.9161 192.997 17.9161 194.375C17.9161 195.323 17.3123 197.219 16.6223 198.598C15.5009 200.666 15.5009 201.441 16.3635 202.906C17.226 204.285 17.226 204.974 16.3635 206.353C15.8459 207.301 15.3284 209.024 15.3284 210.231C15.3284 211.351 14.7246 213.678 13.9483 215.315C11.6194 220.054 12.5682 221.002 19.555 221.002H25.5066L25.0753 215.832L24.5578 210.662H43.9654C60.1815 210.662 63.6317 210.489 64.4943 209.369C65.0981 208.68 66.8232 208.076 68.3758 208.076C69.9284 208.076 71.6536 207.473 72.2573 206.784C73.1199 205.664 76.7427 205.491 94.2526 205.491C111.763 205.491 115.385 205.664 116.248 206.784C116.852 207.473 118.577 208.076 120.129 208.076C121.682 208.076 123.407 208.68 124.011 209.369C124.96 210.489 127.806 210.662 142.47 210.489L159.807 210.231V195.151V180.071L157.823 179.813C156.702 179.64 155.581 178.951 155.322 178.262C154.718 176.624 150.75 176.71 149.543 178.434C148.68 179.554 148.249 179.382 146.006 177.141C144.54 175.676 142.815 174.47 142.125 174.47C141.348 174.47 140.141 173.695 139.278 172.747C137.726 170.937 137.553 170.937 132.637 171.799Z" fill="#917440"/>
<path d="M462.997 172.661C462.479 173.695 461.444 174.47 460.582 174.47C459.805 174.47 457.994 175.677 456.528 177.141C454.285 179.382 453.854 179.554 452.991 178.434C451.784 176.711 448.678 176.624 447.73 178.262C447.385 178.951 446.091 179.64 444.883 179.813L442.727 180.071V195.151V210.231L458.77 210.489C472.313 210.662 474.986 210.489 475.935 209.369C476.625 208.507 478.523 208.077 481.111 208.077C483.698 208.077 485.596 207.56 486.286 206.784C487.149 205.664 490.771 205.491 508.281 205.491C525.791 205.491 529.414 205.664 530.277 206.784C530.88 207.473 532.605 208.077 534.158 208.077C535.711 208.077 537.436 208.68 538.04 209.369C538.902 210.403 542.611 210.662 558.224 210.834L577.286 211.093L577.545 214.281C577.717 216.78 577.459 217.641 575.992 218.417C572.887 220.054 575.043 221.002 582.116 221.002C589.879 221.002 591.087 220.054 588.586 215.832C587.809 214.453 587.205 212.299 587.205 210.92C587.205 209.541 586.602 207.646 585.912 206.612C584.79 205.061 584.79 204.371 585.653 202.993C586.429 201.7 586.429 200.838 585.653 199.029C585.049 197.822 584.618 195.84 584.618 194.72C584.618 192.997 584.187 192.652 581.426 192.394C578.839 192.221 577.89 191.618 577.027 189.722C575.992 187.568 575.561 187.396 570.472 187.396C565.814 187.396 564.779 187.137 563.054 185.241C561.846 184.035 560.552 181.795 560.035 180.244C559.259 177.831 558.741 177.4 555.463 177.055C552.617 176.711 551.496 176.107 550.719 174.47C549.684 172.488 549.167 172.316 544.078 172.316H538.471L538.212 188.861L538.04 205.491H535.969C534.848 205.491 533.468 204.888 532.864 204.199C531.915 203.079 527.861 202.906 505.694 202.906C483.526 202.906 479.472 203.079 478.523 204.199C477.919 204.888 476.539 205.491 475.418 205.491H473.348V189.205C473.348 180.157 473.089 172.661 472.744 172.488C472.313 172.23 470.242 171.799 468 171.54C464.463 171.023 463.859 171.196 462.997 172.661Z" fill="#917440"/>
<path d="M76.0526 209.369C75.1901 210.058 72.9474 210.662 71.1361 210.662C69.0659 210.662 67.6858 211.092 67.427 211.954C66.9958 212.988 64.6669 213.247 54.0574 213.247C41.8953 213.247 41.2052 213.333 41.2052 214.884C41.2052 215.918 42.7578 217.728 45.0005 219.279L48.7958 222.036L49.1408 229.274C49.3133 233.238 49.9171 236.944 50.4346 237.461C52.3322 239.356 85.0233 236.944 87.2659 234.703C87.7834 234.272 93.3038 233.928 99.6005 233.928C109.261 233.928 111.073 234.1 111.073 235.22C111.073 236.34 113.833 236.513 132.895 236.34L154.632 236.082L154.891 230.05C155.063 226.517 155.667 223.501 156.357 222.725C156.961 222.036 157.651 220.227 157.823 218.848C157.996 216.952 158.6 216.177 160.066 216.004C161.101 215.832 161.964 215.142 161.964 214.453C161.964 213.419 158.772 213.247 142.038 213.247C125.564 213.247 121.941 212.988 120.906 211.954C120.129 211.265 118.491 210.662 117.11 210.662C115.817 210.662 113.574 210.058 112.28 209.369C108.657 207.473 78.5541 207.473 76.0526 209.369Z" fill="#917440"/>
<path d="M489.736 209.369C489.046 210.231 487.062 210.662 483.957 210.662C480.679 210.662 479.213 211.006 478.868 211.954C478.437 213.074 475.418 213.247 459.46 213.247C443.676 213.247 440.57 213.419 440.57 214.453C440.57 215.142 441.433 215.832 442.554 216.004C444.021 216.177 444.538 216.866 444.711 219.279C444.883 220.916 445.487 222.725 446.177 223.242C446.953 223.846 447.471 226.258 447.643 230.136L447.902 236.082L468.431 236.34C486.2 236.513 488.874 236.34 488.874 235.22C488.874 234.1 490.858 233.928 501.812 233.928C512.939 233.928 514.75 234.1 514.75 235.306C514.75 236.254 515.441 236.599 517.166 236.427C523.29 235.996 527.689 236.513 527.689 237.805C527.689 238.925 529.845 239.098 541.921 239.098H556.153V230.05C556.153 222.553 556.412 221.002 557.447 221.002C558.137 221.002 558.741 220.485 558.741 219.796C558.741 219.106 559.345 218.331 560.121 218.072C560.897 217.814 561.329 216.78 561.156 215.66C560.897 213.678 560.639 213.678 548.39 213.419C538.471 213.247 535.797 212.902 535.193 211.954C534.848 211.179 533.295 210.662 531.657 210.662C530.018 210.662 527.603 210.058 526.309 209.369C522.686 207.473 491.289 207.473 489.736 209.369Z" fill="#917440"/>
<path d="M28.5256 214.539C28.2668 215.315 28.6981 216.607 29.4744 217.469C30.2507 218.331 30.8545 219.623 30.8545 220.485C30.8545 221.347 32.0621 222.467 33.701 223.156C37.8413 224.88 38.5313 226 38.7901 232.204L39.0488 237.805H42.4991H45.9493L46.2081 231.429L46.4668 225.138L42.8441 222.036C40.8602 220.313 38.7038 217.641 38.1 216.09C36.9787 213.505 36.5474 213.247 33.0109 213.247C30.2507 213.247 28.9569 213.677 28.5256 214.539Z" fill="#917440"/>
<path d="M564.52 213.764C564.175 214.108 563.916 215.315 563.916 216.349C563.916 217.555 562.881 219.106 561.329 220.313C558.827 222.122 558.741 222.381 558.741 229.274C558.741 237.46 559.172 239.098 561.329 239.098C563.399 239.098 563.916 237.46 563.916 231.256C563.916 227.292 564.175 226.172 565.21 226.172C565.9 226.172 566.504 225.569 566.504 224.88C566.504 224.018 567.367 223.587 569.092 223.587C571.421 223.587 571.679 223.328 571.679 221.002C571.679 219.192 572.111 218.417 573.059 218.417C574.008 218.417 574.267 217.727 574.095 216.004C573.836 213.85 573.491 213.677 569.523 213.419C567.108 213.247 564.865 213.419 564.52 213.764Z" fill="#917440"/>
<path d="M571.679 224.88C571.679 225.741 570.817 226.172 569.092 226.172H566.504V232.635C566.504 237.633 566.849 239.27 567.798 239.615C568.488 239.96 569.092 241.08 569.092 242.2C569.092 244.268 569.092 244.268 579.442 244.268C589.103 244.268 589.793 244.182 589.793 242.631C589.793 241.683 592.726 237.891 596.262 234.186C600.403 229.878 602.731 226.775 602.731 225.569V223.587H587.205C574.008 223.587 571.679 223.759 571.679 224.88Z" fill="#917440"/>
<path d="M0.664917 225.828C0.664917 227.982 2.13127 230.136 6.61658 234.617C8.85923 236.857 11.4469 239.787 12.2232 240.994C13.6896 243.234 13.9483 243.32 23.0052 243.32H32.4071L33.7872 239.529C34.6498 237.374 35.1673 234.014 34.9948 231.687C34.5635 225.224 32.8384 224.621 15.1559 224.535C2.56255 224.449 0.664917 224.621 0.664917 225.828Z" fill="#917440"/>
<path d="M87.7835 237.719C87.7835 238.495 86.0583 239.012 82.0906 239.356C78.6403 239.615 76.0526 240.218 75.6214 240.907C75.1901 241.597 74.9313 261.071 75.1038 284.337L75.2763 326.561H80.0204H84.7645L85.0233 306.052L85.1958 285.63H89.0773H92.9588L93.1313 306.052L93.3901 326.561H97.0991H100.894L100.981 306.311L101.153 286.061H108.485H115.817V307.603V329.146L94.2527 329.577L72.6887 330.007V333.454V336.901L95.5465 337.418C108.14 337.677 119.439 338.194 120.647 338.538C125.305 339.917 128.755 335.005 125.305 332.162C124.183 331.214 124.011 324.665 123.838 285.285L123.58 239.529L117.369 239.27C112.539 239.098 111.073 238.753 111.073 237.805C111.073 236.771 109.089 236.513 99.428 236.513C90.1986 236.513 87.7835 236.771 87.7835 237.719ZM113.919 248.663L117.11 249.524V259.434C117.11 270.291 117.157 267.858 117.05 270.083C111.598 270.266 106.212 270.138 102.533 269.947C101.326 269.688 101.153 268.223 101.153 259.348V249.007L103.741 248.49C107.795 247.629 110.383 247.629 113.919 248.663H113.919ZM94.7702 255.212C95.029 263.829 94.5114 268.827 93.4763 269.516C92.9588 269.861 90.9749 270.033 89.0773 269.947L85.6271 269.688L85.3683 261.071L85.1095 252.368L87.956 251.506C89.5086 250.989 91.665 250.472 92.7863 250.386C94.5114 250.3 94.6839 250.645 94.7702 255.212Z" fill="#917440"/>
<path d="M488.874 237.805C488.874 238.667 487.58 239.098 483.957 239.27L478.954 239.529L478.695 285.285C478.523 324.665 478.35 331.214 477.229 332.162C476.539 332.765 475.935 334.144 475.935 335.178C475.935 338.021 478.005 339.4 481.283 338.624C482.836 338.28 494.394 337.763 506.987 337.418L529.845 336.901L530.104 333.282L530.363 329.577L508.54 329.404L486.717 329.146V307.603V286.061H493.618H500.518L500.259 306.052L499.914 326.044L502.071 326.561C503.192 326.905 505.349 326.991 506.642 326.819L509.144 326.561L509.403 306.052L509.575 285.544L513.284 285.802L516.907 286.061L517.338 306.311L517.769 326.561L522.772 326.819L527.689 327.078V283.045V239.098H521.22C516.044 239.098 514.75 238.839 514.75 237.805C514.75 236.685 512.767 236.513 501.812 236.513C491.116 236.513 488.874 236.685 488.874 237.805ZM501.036 249.094C501.467 249.352 501.812 254.005 501.812 259.434C501.812 266.247 501.944 266.805 502.097 270.383C495.761 270.483 490.051 272.081 485.546 270.171C484.425 267.327 484.647 250.386 485.855 249.438C486.286 249.094 487.666 248.577 488.874 248.318C491.289 247.801 499.914 248.318 501.036 249.094ZM513.457 251.506L516.907 252.713V261.244V269.688L513.198 269.947C507.591 270.378 506.987 269.43 506.987 260.64C506.987 249.611 507.16 249.352 513.457 251.506Z" fill="#917440"/>
<path d="M127.202 239.615C126.857 239.959 126.599 260.123 126.599 284.337C126.599 321.907 126.771 328.629 127.892 329.577C128.583 330.18 129.186 332.506 129.359 335.005L129.618 339.486H135.656C141.348 339.486 141.693 339.4 141.952 337.418C142.125 336.298 143.419 334.402 144.799 333.282L147.3 331.128V292.092C147.3 258.831 147.128 252.885 146.092 252.282C145.23 251.765 144.712 249.697 144.54 245.561L144.281 239.529L136.087 239.27C131.515 239.184 127.547 239.27 127.202 239.615Z" fill="#917440"/>
<path d="M160.411 431.774C160.69 422.469 162.303 420.228 162.567 428.672C162.648 431.258 162.74 433.929 162.74 434.446C162.826 435.049 163.43 435.566 164.12 435.566C165.241 435.566 165.414 431.257 165.414 402.046C165.414 373.092 165.241 368.439 164.12 368.008C163.43 367.75 162.826 366.543 162.826 365.337C162.826 363.958 162.309 363.183 161.532 363.183C160.411 363.183 160.238 366.974 160.238 392.395C160.238 419.194 159.807 424.622 158.082 421.779M158.082 421.779C157.823 421.348 157.565 404.803 157.565 385.07C157.651 354.738 157.823 348.965 158.945 347.414C159.635 346.38 160.238 343.967 160.238 342.071C160.238 339.228 159.721 338.021 157.651 336.039L155.063 333.54V291.575C155.063 254.436 155.236 249.524 156.443 249.093C157.392 248.749 157.651 247.542 157.478 244.096L157.22 239.529L152.907 239.27C150.492 239.098 148.249 239.27 147.904 239.615C146.696 240.821 147.214 248.576 148.594 249.093C149.715 249.524 149.888 255.125 149.888 291.834V333.971L147.386 336.298C146.006 337.59 144.712 339.4 144.54 340.348C144.367 341.64 143.419 342.157 140.831 342.502L137.381 342.933L137.122 347.414C136.949 349.913 136.346 352.239 135.656 352.842C133.672 354.48 133.758 423.674 135.656 425.225C136.604 426.001 136.949 428.069 136.949 432.722C136.949 437.031 137.294 439.185 138.071 439.444C138.588 439.616 143.85 439.961 149.629 440.133L160.152 440.391L160.411 431.774" fill="#917440"/>
<path d="M160.583 240.132C160.238 240.649 160.842 241.769 161.964 242.717C163.775 244.182 166.19 244.268 197.76 244.268C229.329 244.268 231.745 244.182 233.556 242.717C234.677 241.769 235.281 240.649 234.936 240.132C234.074 238.667 161.446 238.667 160.583 240.132Z" fill="#917440"/>
<path d="M238.3 240.132C238.041 240.735 237.955 259.262 238.041 281.321L238.3 321.39H243.044H247.788L247.961 287.353C248.047 268.654 248.133 253.057 248.22 252.626C248.22 252.282 248.823 252.023 249.513 252.023C250.635 252.023 250.807 250.903 250.635 245.733L250.376 239.529L244.511 239.27C240.37 239.098 238.559 239.356 238.3 240.132Z" fill="#917440"/>
<path d="M352.331 239.615C351.985 239.959 351.727 242.717 351.727 245.647C351.727 249.524 352.072 251.248 353.021 251.765C354.142 252.368 354.314 257.538 354.487 286.922L354.746 321.39H359.49H364.234V280.459V239.529L358.627 239.27C355.522 239.098 352.676 239.27 352.331 239.615Z" fill="#917440"/>
<path d="M367.857 239.701C366.908 240.563 367.166 241.424 368.633 242.889C369.754 244.096 374.239 244.268 404.343 244.268C436.344 244.268 438.759 244.182 440.57 242.717C444.797 239.27 442.985 239.098 404.86 239.098C384.849 239.098 368.115 239.356 367.857 239.701Z" fill="#917440"/>
<path d="M445.228 240.045C444.193 241.855 444.797 248.059 446.177 249.093C447.298 249.955 447.471 255.728 447.471 292.006V333.971L444.883 336.212C442.64 338.107 442.295 338.883 442.295 342.933C442.295 345.863 442.727 347.844 443.589 348.534C444.711 349.482 444.883 354.566 444.883 385.156C444.883 415.747 444.711 420.831 443.589 421.779C442.554 422.64 442.295 424.881 442.295 431.688V440.478L452.474 440.564C458.08 440.564 463.169 440.305 463.773 439.96C464.377 439.53 464.981 436.6 465.239 432.636C465.498 428.328 466.102 425.484 466.878 424.622C468.776 422.726 468.776 354.135 466.965 353.101C466.188 352.67 465.585 350.688 465.412 347.672L465.153 342.933L461.53 342.674C458.253 342.416 457.821 342.157 457.821 340.348C457.821 339.141 456.786 337.418 455.234 336.212L452.646 333.971V292.265C452.646 255.642 452.819 250.386 453.94 249.438C454.975 248.576 455.234 247.025 455.061 243.923L454.803 239.528L450.317 239.27C447.557 239.098 445.659 239.356 445.228 240.045Z" fill="#917440"/>
<path d="M458.425 239.615C458.08 239.959 457.822 242.631 457.822 245.561C457.822 249.266 457.39 251.248 456.528 252.023C455.406 252.971 455.234 258.486 455.234 292.092V331.128L457.735 333.282C459.115 334.402 460.409 336.298 460.582 337.418C460.84 339.4 461.185 339.486 466.878 339.486H472.916L473.175 334.833C473.348 331.989 473.951 329.749 474.728 329.232C475.763 328.456 475.935 321.907 475.763 283.906L475.504 239.529L467.31 239.27C462.738 239.184 458.77 239.27 458.425 239.615Z" fill="#917440"/>
<path d="M36.6337 242.2C35.5986 243.234 35.9436 244.957 37.5825 246.508C38.9626 247.887 39.0489 251.334 39.3076 289.507C39.4801 330.266 39.4801 331.041 37.755 332.592C36.8062 333.454 36.0299 334.488 36.0299 334.919C36.0299 335.264 34.9086 337.246 33.4422 339.228C30.337 343.536 30.2507 344.225 33.0109 346.811L35.0811 348.793V394.032C35.0811 418.849 35.2536 439.444 35.5124 439.616C36.2024 440.305 49.3996 440.219 50.5209 439.53C51.1247 439.185 51.556 436.686 51.556 433.67C51.556 429.362 51.9872 427.897 54.1436 424.622L56.7313 420.831V388.431C56.7313 361.632 56.5588 355.772 55.5237 354.652C54.8337 353.877 53.9711 350.947 53.5399 348.103C52.9361 343.622 52.591 342.933 50.8659 342.674C49.0545 342.416 48.6233 341.382 48.882 337.763C48.9683 336.815 47.847 334.833 46.3806 333.454L43.7929 330.955V290.628C43.7929 255.298 43.9654 249.955 45.173 248.146C45.8631 247.025 46.3806 245.216 46.2081 244.096C45.9493 242.372 45.4318 242.114 41.6365 241.855C39.2214 241.683 36.9787 241.855 36.6337 242.2Z" fill="#917440"/>
<path d="M50.0033 242.372C49.3995 242.803 49.1408 243.751 49.4858 244.526C49.7446 245.302 49.3995 247.111 48.6232 248.663C47.5019 250.989 47.2431 256.676 47.2431 290.283L47.1569 329.146L49.3133 330.955C50.7796 332.248 51.5559 333.971 51.7285 336.125L51.9872 339.486L58.4564 339.227C61.9929 339.055 65.9607 338.366 67.2545 337.676C69.2384 336.642 69.4972 336.039 69.4109 332.506C69.2384 329.663 69.6697 328.284 70.791 327.508C72.1711 326.388 72.2574 323.631 72.0849 284.251L71.8261 242.114L61.4754 241.855C55.7825 241.769 50.6071 242.027 50.0033 242.372Z" fill="#917440"/>
<path d="M253.999 242.2C253.654 242.545 253.395 244.871 253.395 247.37C253.395 250.558 253.05 252.023 252.101 252.368C250.98 252.799 250.807 257.194 250.98 287.095L251.239 321.39H257.276H263.314V283.045V244.699L259.95 244.44C258.053 244.268 256.069 243.579 255.551 242.889C255.034 242.2 254.344 241.855 253.999 242.2Z" fill="#917440"/>
<path d="M531.657 242.372C530.708 243.923 530.967 325.957 531.915 327.767C532.433 328.715 532.864 331.041 532.864 332.937C532.864 337.935 535.366 339.4 543.991 339.486H550.547L550.805 336.212C550.978 334.316 551.927 332.076 553.221 330.697L555.291 328.456V306.569C555.298 292.724 555.235 273.894 554.514 260.123C554.083 259.693 553.479 256.418 553.221 252.885C552.358 240.821 553.738 242.114 542.18 241.855C536.659 241.769 531.915 241.941 531.657 242.372Z" fill="#917440"/>
<path d="M555.722 243.32C555.205 245.043 556.412 248.921 557.706 249.783C558.137 250.041 558.569 267.103 558.655 290.541L558.827 330.869L556.24 332.851C554.169 334.316 553.652 335.522 553.393 338.366C553.134 341.468 552.789 342.071 550.978 342.502C549.08 342.933 548.822 343.536 548.563 347.672C548.39 350.171 547.7 353.101 547.01 354.049C545.113 356.72 545.199 421.951 547.096 423.502C547.787 424.105 548.39 425.053 548.39 425.656C548.39 426.26 548.994 427.207 549.684 427.811C550.46 428.414 550.978 430.827 551.151 434.532L551.409 440.305L558.137 440.564C562.45 440.736 565.383 440.478 566.159 439.788C567.194 438.927 567.367 431.43 567.367 393.86V348.793L569.523 346.811C570.731 345.69 571.679 344.398 571.679 343.967C571.679 342.933 565.641 333.627 564.003 332.334C562.881 331.386 562.709 328.025 562.968 306.828C561.826 292.094 562.938 276.448 563.054 262.795C563.054 251.937 563.313 248.576 564.348 247.198C565.038 246.336 565.641 244.699 565.641 243.579C565.641 241.855 565.21 241.683 560.984 241.683C557.102 241.683 556.153 241.941 555.722 243.32Z" fill="#917440"/>
<path d="M346.551 243.32C346.551 243.837 344.912 244.268 342.929 244.44L339.22 244.699V283.044V321.39H345.257H351.295L351.554 287.094C351.727 257.193 351.554 252.799 350.433 252.368C349.484 251.937 349.139 250.558 349.139 247.198C349.139 243.665 348.794 242.544 347.845 242.544C347.155 242.544 346.551 242.889 346.551 243.32Z" fill="#917440"/>
<path d="M266.851 245.044C266.592 245.474 266.937 246.25 267.627 246.853C268.317 247.456 268.921 248.749 268.921 249.783C268.921 250.731 269.266 252.023 269.611 252.54C270.56 254.091 274.873 254.522 275.908 253.23C276.425 252.54 277.46 252.023 278.15 252.023C279.099 252.023 279.272 253.488 279.099 259.52C278.84 266.931 278.754 267.103 276.684 267.103C275.39 267.103 274.441 267.706 274.269 268.654C274.096 269.602 273.148 270.119 271.422 270.119H268.921V262.278C268.921 256.418 268.662 254.522 267.886 254.781C267.023 255.125 266.765 257.883 266.765 265.035V274.858H301.267H335.769V265.035C335.769 257.883 335.511 255.125 334.734 254.781C333.872 254.522 333.613 256.418 333.613 262.278V270.119H331.112C329.386 270.119 328.524 269.602 328.179 268.396C327.834 267.189 327.144 266.758 325.677 266.845C323.78 267.103 323.694 266.931 323.435 259.52C323.262 253.057 323.349 252.023 324.642 252.023C325.419 252.023 326.195 252.799 326.454 253.747C326.799 254.953 327.23 255.212 327.92 254.695C328.438 254.264 329.818 253.747 331.025 253.574C332.664 253.402 333.268 252.713 333.44 250.731C333.613 249.266 334.303 247.542 334.993 246.767C335.683 245.991 335.942 245.13 335.597 244.871C334.734 244.01 267.368 244.182 266.851 245.044ZM285.137 261.33C285.396 269.688 285.31 270.119 283.584 270.119C281.946 270.119 281.859 269.602 281.859 260.985C281.859 252.799 282.032 251.937 283.412 252.196C284.706 252.454 284.878 253.661 285.137 261.33ZM320.675 261.071C320.675 269.344 320.502 270.119 319.036 270.119C316.879 270.119 316.362 268.482 316.362 261.933C316.362 255.642 317.483 252.023 319.381 252.023C320.416 252.023 320.675 253.574 320.675 261.071Z" fill="#917440"/>
<path d="M11.0156 248.146C11.0156 249.093 12.482 249.438 17.3123 249.61L23.5227 249.869L23.954 295.97C24.3853 340.865 24.4716 342.071 26.0242 342.071C27.2317 342.071 27.9218 341.209 28.4393 339.314C28.8706 337.849 30.682 335.005 32.5796 333.109L36.0299 329.663V289.68C36.0299 252.023 35.9436 249.61 34.4772 248.318C32.2346 246.25 11.0156 246.164 11.0156 248.146Z" fill="#917440"/>
<path d="M160.67 247.887C160.411 248.49 160.325 267.017 160.411 289.076L160.67 329.146H162.826H164.983L165.241 291.231C165.414 257.883 165.586 253.23 166.794 252.282C167.57 251.765 168.001 250.386 167.829 249.266C167.656 247.629 166.966 247.198 164.292 247.025C162.222 246.853 160.928 247.112 160.67 247.887Z" fill="#917440"/>
<path d="M171.193 247.37C170.848 247.715 170.589 249.093 170.589 250.386C170.589 251.679 170.244 253.057 169.727 253.316C169.209 253.66 168.864 267.275 168.864 291.317C168.864 315.703 169.123 328.715 169.727 328.715C170.244 328.715 170.589 321.132 170.589 307.603V286.491L172.659 285.974C173.781 285.716 175.678 285.63 176.713 285.802L178.783 286.06L179.042 307.345L179.215 328.715L181.285 329.232C182.406 329.49 184.304 329.576 185.339 329.404L187.409 329.146L187.84 307.603L188.272 286.06H195.172H202.073L202.504 307.603L202.935 329.146H207.248H211.561L211.82 292.179C211.992 261.416 211.82 254.867 210.784 253.316C210.094 252.282 209.404 250.558 209.232 249.352L208.973 247.284L190.342 247.025C180.164 246.939 171.538 247.112 171.193 247.37ZM204.056 260.899C204.131 264.765 204.263 267.674 204.056 270.628C195.134 270.363 192.564 270.299 188.358 269.947C186.719 269.688 186.547 269.085 186.288 262.019C186.116 257.797 186.288 253.747 186.461 253.143C186.806 252.196 188.876 252.023 195.345 252.196L203.798 252.454L204.056 260.899ZM179.991 254.091C181.199 255.47 181.112 267.534 179.905 268.999C178.956 270.205 175.678 270.464 172.573 269.602C170.675 269.085 170.589 268.568 170.589 261.933C170.589 255.47 170.762 254.781 172.573 253.919C175.247 252.626 178.87 252.713 179.991 254.091Z" fill="#917440"/>
<path d="M212.337 248.146C211.992 248.921 212.423 250.214 213.2 251.075C214.407 252.368 214.58 256.935 214.752 289.594L215.011 326.561L216.995 326.819C218.116 326.991 219.669 326.561 220.531 325.785C221.48 324.923 224.154 324.406 228.381 324.234L234.85 323.975V285.63V247.284L223.809 247.025C214.493 246.853 212.768 247.025 212.337 248.146Z" fill="#917440"/>
<path d="M367.857 247.456C367.511 247.715 367.253 265.207 367.253 286.233V324.406H374.067C379.07 324.406 381.14 324.751 381.916 325.699C382.52 326.388 384.073 326.991 385.453 326.991H387.954V289.852C387.868 256.332 388.04 252.54 389.334 251.075C390.111 250.214 390.542 248.921 390.283 248.146C389.852 247.112 387.868 246.853 379.07 246.853C373.204 246.853 368.115 247.112 367.857 247.456Z" fill="#917440"/>
<path d="M393.733 247.456C393.388 247.715 393.13 248.835 393.13 249.869C393.13 250.989 392.526 252.282 391.836 252.885C390.714 253.833 390.542 258.917 390.714 291.575L390.973 329.146L393.475 329.404C394.768 329.576 396.839 329.49 397.96 329.232L400.03 328.715L400.203 307.345L400.461 286.06L407.103 285.802L413.831 285.543L414.004 307.345L414.262 329.146H418.144H422.025L422.457 307.603L422.888 286.06L425.734 285.802C427.287 285.63 427.863 287.816 429.875 286.577C430.377 286.268 430.816 329.05 431.187 328.788C431.558 328.527 431.862 328.202 432.096 327.638C432.329 327.075 432.493 283.293 432.584 282.077C432.675 280.861 432.693 279.231 432.635 277.013C432.435 269.342 432.29 268.826 430.651 269.085C421.508 270.636 421.594 270.722 421.594 261.416C421.594 254.35 422.37 252.885 425.907 252.885C429.443 252.885 430.996 255.211 430.565 259.692C430.392 261.76 430.743 269.357 431.389 269.887C432.305 270.13 431.858 263.311 431.945 257.107C431.945 249.524 431.686 247.801 430.565 247.37C428.753 246.681 394.423 246.681 393.733 247.456ZM415.987 261.071C415.987 269.171 416.024 267.972 416.016 270.192C407.714 270.193 403.722 270.181 400.548 269.947C398.909 269.688 398.736 269.085 398.477 262.019C398.305 257.797 398.477 253.747 398.65 253.143C398.995 252.196 401.065 252.023 407.534 252.196L415.987 252.454V261.071Z" fill="#917440"/>
<path d="M435.136 247.37C434.274 248.318 434.36 251.506 435.395 252.54C435.913 253.057 436.344 267.706 436.43 291.231L436.689 329.146H439.277H441.864V288.215V247.284L438.845 247.025C437.12 246.853 435.481 247.025 435.136 247.37Z" fill="#917440"/>
<path d="M566.159 253.919C565.9 257.883 565.641 276.237 565.728 294.85C565.814 332.248 565.383 329.232 571.507 335.695C572.628 336.815 573.75 338.883 574.008 340.175C574.353 341.985 574.957 342.502 576.165 342.33C577.89 342.071 577.89 341.123 577.804 296.315C577.631 254.781 577.804 250.472 579.011 249.955C579.787 249.697 583.151 249.438 586.429 249.438C591.173 249.438 592.381 249.18 592.381 248.146C592.381 247.025 590.397 246.853 579.529 246.853H566.677L566.159 253.919Z" fill="#917440"/>
<path d="M10.5844 252.885C10.3256 253.402 11.1882 255.298 12.6545 257.107L15.3285 260.468L15.501 301.227L15.7597 342.071L18.1749 342.33L20.5038 342.588L20.3313 297.521L20.0725 252.454L15.5872 252.196C13.0858 252.023 10.9294 252.368 10.5844 252.885Z" fill="#917440"/>
<path d="M582.116 253.23C581.426 254.005 581.254 266.586 581.34 298.21L581.599 342.071H584.187H586.774L587.033 301.226L587.205 260.468L589.793 257.193C591.26 255.384 592.381 253.488 592.381 252.971C592.381 251.592 583.324 251.765 582.116 253.23Z" fill="#917440"/>
<path d="M597.987 256.073C597.039 256.246 595.4 256.59 594.365 256.849C593.243 257.021 592.381 257.624 592.381 258.141C592.381 258.658 591.777 259.606 591.087 260.296C589.966 261.416 589.793 267.275 589.793 302.088C589.793 337.418 589.966 342.502 591.087 342.502C592.381 342.502 592.64 332.765 592.812 275.375C592.812 267.361 592.985 266.327 594.537 265.466C601.438 261.588 604.629 257.193 601.351 255.987C600.575 255.728 599.971 255.556 599.885 255.556C599.799 255.642 598.936 255.815 597.987 256.073Z" fill="#917440"/>
<path d="M0.061141 257.797C-0.542651 259.262 3.42512 263.225 7.56541 265.207C9.5493 266.241 9.72181 266.672 9.5493 272.273C9.37678 275.634 9.37678 279.425 9.37678 280.89C9.80806 330.783 10.1531 342.071 11.1882 342.071C12.0507 342.071 12.3957 334.144 12.5683 304.156C12.6545 283.303 12.5683 265.035 12.3095 263.57C11.5332 259.175 8.25546 256.332 4.11517 256.332C1.61375 256.332 0.492421 256.763 0.061141 257.797Z" fill="#917440"/>
<path d="M267.11 278.822C266.592 279.081 266.42 288.043 266.506 300.365C266.765 320.96 266.765 321.39 268.576 321.649C269.525 321.821 270.905 321.304 271.509 320.529C272.975 318.805 275.563 318.891 276.598 320.701C277.374 322.166 277.46 322.166 279.013 320.701C281.083 318.891 283.067 318.805 284.447 320.529C285.31 321.563 288.329 321.821 301.439 321.821C314.723 321.821 317.397 321.649 317.742 320.529C318.087 319.839 319.208 319.236 320.33 319.236C321.537 319.236 322.658 319.839 322.917 320.529C323.262 321.218 323.952 321.821 324.556 321.821C325.16 321.821 325.85 321.218 326.195 320.529C326.799 318.805 329.645 318.891 331.025 320.529C331.629 321.304 333.009 321.821 333.958 321.649C335.769 321.39 335.769 320.96 336.028 300.796C336.114 287.095 335.942 279.856 335.338 279.253C334.389 278.305 268.662 277.874 267.11 278.822ZM276.339 288.732C277.029 291.403 275.131 293.73 272.975 292.868C271.509 292.351 270.905 288.215 272.112 287.095C273.493 285.716 275.821 286.578 276.339 288.732ZM283.234 289.594C283.406 291.662 283.147 292.437 281.767 292.782C279.697 293.299 278.231 291.92 278.231 289.507C278.231 287.095 279.007 286.319 281.25 286.664C282.457 286.836 283.061 287.698 283.234 289.594ZM322.745 287.87C324.125 291.489 322.4 293.988 319.381 292.868C318.087 292.351 317.569 288.129 318.691 287.095C319.726 285.974 322.227 286.491 322.745 287.87ZM330.853 289.163C331.025 290.455 330.508 291.834 329.731 292.523C327.661 294.247 325.419 291.748 326.195 288.646C326.971 285.544 330.508 285.888 330.853 289.163ZM276.511 301.657C276.77 307.172 275.476 309.585 272.802 308.551C271.854 308.206 271.509 306.741 271.509 302.605C271.509 296.573 271.854 295.798 274.528 296.143C275.994 296.401 276.253 297.09 276.511 301.657ZM284.016 302.433C284.016 308.293 283.929 308.465 281.859 308.465C279.875 308.465 279.703 308.12 279.444 303.381C279.099 297.09 279.617 295.798 282.032 296.143C283.843 296.401 284.016 296.832 284.016 302.433ZM322.831 302.433C322.831 308.293 322.745 308.465 320.675 308.465C318.691 308.465 318.518 308.12 318.259 303.381C317.914 297.09 318.432 295.798 320.847 296.143C322.658 296.401 322.831 296.832 322.831 302.433ZM330.594 302.433C330.594 308.293 330.508 308.465 328.438 308.465C326.454 308.465 326.281 308.12 326.022 303.381C325.677 297.09 326.195 295.798 328.61 296.143C330.421 296.401 330.594 296.832 330.594 302.433ZM276.425 312.86C277.029 314.583 274.528 316.737 272.716 316.048C271.509 315.617 271.077 313.032 272.112 312.084C273.148 310.964 275.908 311.481 276.425 312.86ZM284.275 313.721C284.533 315.617 282.549 316.737 280.393 316.048C279.185 315.617 278.927 313.032 279.875 311.998C281.083 310.791 284.016 311.912 284.275 313.721ZM322.917 312.773C323.694 314.669 321.796 316.565 319.812 316.048C318.691 315.789 318.087 314.841 318.087 313.549C318.087 311.912 318.518 311.481 320.243 311.481C321.451 311.481 322.658 312.084 322.917 312.773ZM330.853 313.721C331.198 316.048 328.61 317.168 326.885 315.445C325.074 313.721 326.195 311.308 328.61 311.653C329.818 311.826 330.68 312.601 330.853 313.721Z" fill="#917440"/>
<path d="M237.869 325.699C237.093 326.647 234.936 326.991 229.675 326.991C224.413 326.991 222.256 327.336 221.48 328.284C220.876 328.973 219.669 329.577 218.806 329.577C217.426 329.577 217.167 330.266 217.167 334.23C217.167 337.246 216.736 339.228 215.874 339.917C214.148 341.382 214.148 347.672 215.874 347.672C216.736 347.672 217.167 348.965 217.34 352.584L217.599 357.582L223.55 357.84C228.381 358.013 229.588 357.84 230.537 356.548C231.658 355.083 235.281 354.997 300.749 354.997C364.665 355.083 369.84 355.169 371.393 356.548C372.601 357.668 374.585 358.013 379.156 358.013H385.367V353.273C385.367 349.827 385.712 348.362 386.66 348.017C387.523 347.672 387.954 346.294 387.954 343.795C387.954 341.296 387.523 339.917 386.66 339.572C385.712 339.228 385.367 337.763 385.367 334.316C385.367 330.266 385.108 329.577 383.728 329.577C382.865 329.577 381.658 328.973 381.054 328.284C380.277 327.336 378.207 326.991 373.377 326.991C368.978 326.905 366.304 326.561 365.183 325.699C362.595 323.717 239.508 323.803 237.869 325.699Z" fill="#917440"/>
<path d="M160.842 332.679C160.497 333.023 160.756 333.885 161.36 334.574C161.877 335.264 162.567 338.021 162.826 340.692L163.257 345.518L183.528 345.777C208.024 346.121 211.129 345.776 211.129 343.019C211.129 341.899 211.906 340.003 212.941 338.711C213.89 337.504 214.58 335.608 214.407 334.574L214.148 332.592L187.754 332.334C173.263 332.248 161.187 332.42 160.842 332.679Z" fill="#917440"/>
<path d="M388.558 332.765C387.609 333.713 387.868 336.47 389.162 338.883C389.852 340.175 390.628 342.243 390.973 343.622L391.404 345.949L415.384 345.776L439.277 345.518L439.535 340.779C439.708 338.193 440.398 335.436 441.088 334.66C441.778 333.971 442.037 333.023 441.692 332.765C441.002 331.989 389.248 331.989 388.558 332.765Z" fill="#917440"/>
<path d="M70.5322 340.865C68.8934 341.296 65.1844 341.985 62.3379 342.33L57.1626 342.933L56.9038 346.638C56.7313 348.965 57.1626 351.205 57.9389 352.412C59.1465 354.221 59.319 359.133 59.319 388.517V422.64L56.7313 426.777C54.6612 430.223 54.1436 431.947 54.1436 435.911V440.822L59.1465 440.564L64.0631 440.305L64.2356 411.007C64.4081 388 64.7531 381.193 65.7019 379.124C66.392 377.66 67.5995 374.988 68.5484 373.093C71.0227 367.818 75.9617 363.526 80.0204 360.856C85.2083 357.288 88.7393 357.668 94.4251 357.668C105.637 358.361 107.705 359.396 114.954 365.51C119.607 369.897 120.318 372.685 122.631 376.798C125.909 383.174 126.599 389.982 126.599 415.144C126.599 441.856 126.512 441.339 131.515 439.961C133.758 439.357 133.93 439.013 134.189 434.36C134.362 430.913 134.017 428.758 133.154 427.294C131.946 425.57 131.774 420.314 131.774 388.345C131.774 355.945 131.946 351.205 133.154 350.257C134.017 349.482 134.362 348.017 134.189 346.035L133.93 342.933L126.599 342.674C122.545 342.588 118.146 342.071 116.679 341.554C113.229 340.262 74.5 339.745 70.5322 340.865Z" fill="#917440"/>
<path d="M488.874 340.865C486.717 341.296 481.283 341.985 476.798 342.33L468.604 342.933L468.345 346.035C468.172 348.017 468.517 349.482 469.38 350.257C470.587 351.205 470.76 355.945 470.76 387.914C470.76 419.452 470.587 424.708 469.466 426.432C468.431 427.897 468.172 430.137 468.345 434.36L468.604 440.305H472.054H475.504L475.935 413.162C476.28 394.118 476.712 385.329 477.488 383.605C478.005 382.227 477.603 381.531 478.523 379.211C480.987 369.71 490.711 361.796 495.515 359.391C498.914 358.221 501.295 357.754 507.764 357.754C517.166 357.84 521.061 359.746 526.568 363.872C532.535 368.558 535.585 374.257 536.746 380.417C537.781 382.14 537.953 388.086 538.04 411.611V440.736H543.129H548.132L548.563 436.428C549.08 431.43 548.563 427.811 547.355 427.811C546.924 427.811 545.803 426.949 544.854 425.829C543.387 424.019 543.301 421.865 543.215 388.517C543.215 357.496 543.387 352.929 544.509 351.981C545.458 351.205 545.803 349.654 545.63 346.897L545.371 342.933L540.627 342.416C538.04 342.071 534.503 341.468 532.864 340.865C529.241 339.745 494.739 339.745 488.874 340.865Z" fill="#917440"/>
<path d="M574.957 346.552C574.44 347.155 573.577 347.672 572.973 347.672C572.369 347.672 571.679 348.534 571.334 349.568C571.076 350.688 570.817 371.197 570.817 395.152C570.817 431.43 570.989 439.013 572.024 439.788C572.801 440.478 576.423 440.736 582.548 440.564L591.95 440.305L592.381 395.928C592.64 371.541 592.898 351.464 593.071 351.378C593.157 351.291 594.106 351.119 595.227 350.947C597.384 350.688 598.419 347.069 596.521 346.38C595.917 346.207 591.001 345.863 585.653 345.777C578.58 345.604 575.561 345.863 574.957 346.552Z" fill="#917440"/>
<path d="M5.32276 347.241C4.54646 349.223 5.58153 351.119 7.56542 351.119C8.51424 351.119 9.37679 351.205 9.46305 351.291C9.63556 351.464 9.89433 371.455 10.1531 395.841L10.5844 440.133H20.5038L30.4232 440.047L30.682 394.549L30.8545 348.965L28.9569 347.5C26.1967 345.432 6.09907 345.173 5.32276 347.241Z" fill="#917440"/>
<path d="M388.558 348.189C388.213 348.534 387.954 351.464 387.954 354.738V360.598L414.952 360.425L441.864 360.167L442.123 355.6C442.382 351.464 442.209 351.033 440.139 350.257C438.845 349.74 427.891 349.396 414.348 349.396C399.599 349.396 390.542 349.051 390.024 348.534C389.507 348.017 388.903 347.931 388.558 348.189Z" fill="#917440"/>
<path d="M209.404 349.31C207.765 349.654 197.07 349.74 185.684 349.568C171.969 349.31 164.206 349.568 162.567 350.171C160.325 351.033 160.152 351.378 160.411 355.6L160.67 360.167H187.409H214.148L214.407 356.375C214.752 352.239 214.062 348.448 213.027 348.62C212.682 348.706 211.043 349.051 209.404 349.31Z" fill="#917440"/>
<path d="M233.297 358.53C232.262 359.564 232.607 362.063 233.987 363.183C235.971 364.82 235.971 431.344 233.901 432.981C233.038 433.756 232.693 435.221 232.866 437.203C233.125 440.219 233.211 440.305 236.575 440.305C239.939 440.305 240.025 440.219 240.284 437.203C240.457 435.221 240.111 433.756 239.249 432.981C238.041 432.033 237.869 427.552 237.869 398.082C237.869 368.612 238.041 364.131 239.163 363.183C239.939 362.58 240.457 361.201 240.284 360.253C240.112 358.874 239.335 358.357 237.006 358.185C235.281 358.013 233.642 358.185 233.297 358.53Z" fill="#917440"/>
<path d="M243.648 358.53C243.303 358.874 243.044 360.425 243.044 361.89C243.044 363.441 242.44 365.165 241.75 365.768C240.629 366.716 240.456 371.369 240.456 397.823V428.845L242.872 431.344C244.166 432.808 245.373 435.135 245.632 437.031L246.063 440.133H256.414C267.886 440.047 268.921 439.53 268.921 434.187C268.921 432.722 269.525 430.999 270.215 430.396C272.112 428.845 272.199 367.405 270.301 365.768C269.611 365.251 268.921 363.355 268.748 361.632L268.49 358.444L256.328 358.185C249.686 358.099 243.993 358.271 243.648 358.53Z" fill="#917440"/>
<path d="M272.112 358.53C271.077 359.564 271.422 362.063 272.802 363.183C274.786 364.82 274.786 431.344 272.716 432.981C271.854 433.756 271.509 435.221 271.681 437.203C271.94 440.219 272.026 440.305 275.39 440.305C278.754 440.305 278.84 440.219 279.099 437.203C279.272 435.221 278.927 433.756 278.064 432.981C276.857 432.033 276.684 427.552 276.684 398.082C276.684 368.612 276.857 364.131 277.978 363.183C278.754 362.58 279.272 361.201 279.099 360.253C278.927 358.874 278.15 358.357 275.821 358.185C274.096 358.013 272.457 358.185 272.112 358.53Z" fill="#917440"/>
<path d="M282.463 358.53C282.118 358.874 281.859 360.598 281.859 362.407C281.859 364.389 281.428 365.768 280.566 366.113C279.444 366.544 279.272 370.852 279.272 397.91C279.272 424.795 279.444 429.448 280.566 430.396C281.256 430.999 281.859 432.895 281.859 434.704C281.859 436.514 282.463 438.41 283.153 439.013C284.016 439.702 289.536 440.047 302.302 440.133H320.243L320.502 435.48C320.675 432.55 321.278 430.568 322.055 430.137C323.866 429.103 323.866 367.319 322.055 365.768C321.365 365.251 320.675 363.355 320.502 361.632L320.243 358.444L301.612 358.185C291.434 358.099 282.808 358.271 282.463 358.53Z" fill="#917440"/>
<path d="M323.866 358.53C322.831 359.564 323.176 362.063 324.556 363.183C326.54 364.82 326.54 431.344 324.47 432.981C323.607 433.756 323.262 435.221 323.435 437.203C323.694 440.219 323.78 440.305 327.144 440.305C330.508 440.305 330.594 440.219 330.853 437.203C331.025 435.221 330.68 433.756 329.818 432.981C328.61 432.033 328.438 427.552 328.438 398.082C328.438 368.612 328.61 364.131 329.731 363.183C330.508 362.58 331.025 361.201 330.853 360.253C330.68 358.874 329.904 358.357 327.575 358.185C325.85 358.013 324.211 358.185 323.866 358.53Z" fill="#917440"/>
<path d="M334.217 358.53C333.872 358.874 333.613 360.425 333.613 361.89C333.613 363.441 333.009 365.165 332.319 365.768C330.421 367.319 330.335 428.758 332.319 430.396C333.009 430.913 333.613 433.325 333.785 435.824L334.044 440.219H346.551H359.058L359.317 435.824C359.49 433.325 360.094 430.913 360.784 430.396C362.681 428.845 362.681 367.319 360.87 365.768C360.18 365.251 359.49 363.355 359.317 361.632L359.058 358.444L346.896 358.185C340.255 358.099 334.562 358.271 334.217 358.53Z" fill="#917440"/>
<path d="M362.681 358.616C361.646 359.564 361.991 362.063 363.371 363.183C365.355 364.82 365.355 431.344 363.285 432.981C362.422 433.756 362.077 435.221 362.25 437.203C362.509 440.219 362.681 440.305 366.218 440.564L369.84 440.822V437.462C369.84 435.48 369.323 433.584 368.547 432.981C367.425 432.033 367.253 427.121 367.253 398.082C367.253 369.042 367.425 364.131 368.547 363.183C369.237 362.58 369.84 361.201 369.84 360.081C369.84 358.271 369.409 358.013 366.563 358.013C364.751 358.013 362.94 358.271 362.681 358.616Z" fill="#917440"/>
<path d="M83.5569 362.493C76.221 366.801 71.5123 372.54 68.8934 379.9C67.1683 385.07 67.082 386.621 67.2545 412.817L67.5133 440.305H70.446C75.7076 440.305 75.7076 440.478 75.7076 413.765C75.7076 387.483 75.9664 385.846 80.4517 379.9C83.7294 375.505 85.627 374.213 90.3711 372.92C98.4792 370.68 106.673 374.816 111.331 383.433C113.143 386.707 113.229 388.258 113.66 413.592L114.091 440.219L117.369 440.305C119.094 440.391 120.906 440.047 121.423 439.444C122.372 438.323 122.717 392.567 121.855 385.587C120.499 378.144 115.961 369.555 110.9 365.596C104.862 361.373 102.361 360.598 94.6839 360.684C89.2498 360.684 86.3171 361.201 83.5569 362.493Z" fill="#917440"/>
<path d="M217.512 361.546C216.477 363.355 216.995 367.75 218.375 368.525C219.583 369.215 219.755 373.265 219.755 402.046C219.755 430.309 219.583 434.79 218.461 435.221C217.685 435.566 217.167 436.858 217.167 438.237C217.167 440.65 217.34 440.736 221.049 440.736C224.758 440.736 224.93 440.65 224.93 438.237C224.93 436.858 224.413 435.566 223.637 435.221C222.515 434.79 222.343 430.309 222.343 401.959C222.343 373.609 222.515 369.129 223.637 368.698C224.499 368.353 224.93 366.974 224.93 364.389V360.598H221.566C219.669 360.598 217.857 361.029 217.512 361.546Z" fill="#917440"/>
<path d="M377.172 361.459C376.396 362.752 377.603 368.181 378.984 369.301C380.795 370.766 380.622 434.618 378.811 435.307C378.121 435.566 377.603 436.858 377.603 438.237C377.603 440.65 377.776 440.736 381.485 440.736C385.194 440.736 385.366 440.65 385.366 438.237C385.366 436.858 384.849 435.566 384.073 435.221C382.951 434.79 382.779 430.309 382.779 401.959C382.779 373.609 382.951 369.129 384.073 368.698C384.935 368.353 385.366 366.974 385.366 364.389V360.598H381.571C379.415 360.598 377.431 360.942 377.172 361.459Z" fill="#917440"/>
<path d="M494.739 363.441C488.097 367.147 482.232 375.247 480.593 383.002C480.248 384.639 479.817 398.082 479.644 412.903L479.299 439.788L482.318 440.305C488.874 441.598 488.356 443.407 488.874 413.162C489.391 382.83 489.219 383.433 495.947 376.97C498.534 374.385 500.173 373.523 503.537 373.092C512.422 371.886 518.632 374.557 523.29 381.709L525.532 385.156L525.964 412.127C526.481 441.856 526.223 440.995 532.002 440.564L535.021 440.305V411.869C535.021 383.433 534.848 381.192 531.915 376.108C531.484 375.419 530.794 374.04 530.363 373.092C529.069 369.99 522.427 364.131 518.373 362.321C515.441 361.029 512.68 360.598 507.074 360.598C500.346 360.684 499.224 360.942 494.739 363.441Z" fill="#917440"/>
<path d="M228.467 364.562C228.381 365.94 227.777 367.922 227.087 368.87C226.052 370.249 225.879 375.678 225.793 402.218C225.793 432.464 225.879 434.101 227.518 436.169L229.157 438.323L229.674 435.824C230.02 434.532 230.796 432.378 231.486 431.085C232.435 429.275 232.693 423.071 232.693 397.737C232.693 370.077 232.521 366.544 231.313 366.027C230.537 365.768 229.588 364.734 229.243 363.7C228.553 362.149 228.467 362.235 228.467 364.562Z" fill="#917440"/>
<path d="M165.414 365.596C165.414 367.061 165.931 368.353 166.708 368.698C167.829 369.129 168.001 373.609 168.001 401.959C168.001 430.309 167.829 434.79 166.708 435.221C165.931 435.566 165.414 436.858 165.414 438.237C165.414 440.65 165.586 440.736 169.295 440.736C173.004 440.736 173.177 440.65 173.177 438.237C173.177 436.858 172.659 435.566 171.883 435.221C170.762 434.79 170.589 430.309 170.589 402.046C170.589 373.006 170.762 369.215 171.969 368.525C172.746 368.095 173.177 366.974 173.004 365.682C172.832 363.958 172.228 363.614 169.123 363.355C165.5 363.097 165.414 363.183 165.414 365.596Z" fill="#917440"/>
<path d="M178.784 363.872C178.266 364.217 177.058 366.026 176.11 367.922C174.298 371.283 174.212 372.489 174.126 402.132L173.953 432.895L176.196 436.428C177.403 438.323 178.697 439.874 179.042 439.874C179.387 439.874 183.355 439.961 187.84 440.047C195.776 440.219 196.035 440.133 196.293 438.323C196.466 437.203 197.156 436.083 197.846 435.824C199.657 435.135 199.657 369.904 197.846 368.353C197.156 367.836 196.466 366.544 196.293 365.509C196.035 363.7 195.517 363.614 187.84 363.441C183.355 363.355 179.215 363.528 178.784 363.872Z" fill="#917440"/>
<path d="M200.434 363.872C200.175 364.389 200.52 365.854 201.21 367.147C202.245 369.215 202.504 375.074 202.504 402.563C202.504 434.446 202.418 435.652 200.779 437.289C197.932 440.133 198.622 440.822 204.056 440.564C208.714 440.305 208.973 440.219 209.232 437.979C209.404 436.255 209.146 435.566 208.197 435.566C206.989 435.566 206.817 431.861 206.817 401.96C206.817 372.058 206.989 368.353 208.197 368.353C209.146 368.353 209.404 367.664 209.232 365.94C208.973 363.786 208.628 363.614 204.919 363.355C202.763 363.183 200.692 363.441 200.434 363.872Z" fill="#917440"/>
<path d="M393.13 365.682C393.13 367.061 393.647 368.353 394.423 368.698C395.545 369.129 395.717 373.609 395.717 402.39C395.717 431.344 395.545 435.566 394.423 435.566C393.561 435.566 393.13 436.428 393.13 438.151C393.13 440.65 393.302 440.736 396.925 440.736C401.583 440.736 402.273 439.874 400.548 436.255C399.34 434.015 399.167 428.931 399.167 401.873C399.167 371.541 399.254 370.076 400.893 367.233C402.963 363.786 402.359 363.183 396.493 363.183C393.388 363.183 393.13 363.355 393.13 365.682Z" fill="#917440"/>
<path d="M406.672 363.786C406.327 364.045 406.068 364.992 406.068 365.854C406.068 366.716 405.378 367.75 404.602 368.267C403.135 369.042 403.049 371.628 402.877 400.925L402.704 432.808L404.774 436.514L406.758 440.305L415.039 440.478L423.405 440.564L425.476 437.203L427.632 433.842V402.132C427.632 375.591 427.459 370.163 426.338 368.698C425.648 367.836 425.044 366.457 425.044 365.682C425.044 364.906 424.441 363.958 423.664 363.7C421.853 363.01 407.362 363.01 406.672 363.786Z" fill="#917440"/>
<path d="M428.926 364.045C428.581 364.562 429.012 366.113 429.702 367.664C431.686 371.541 431.772 433.239 429.875 436.945C428.149 440.133 428.753 440.736 433.325 440.736C436.948 440.736 437.12 440.65 437.12 438.237C437.12 436.858 436.603 435.566 435.826 435.221C434.705 434.79 434.532 430.309 434.532 401.959C434.532 373.609 434.705 369.129 435.826 368.698C436.603 368.353 437.12 367.061 437.12 365.682C437.12 363.269 436.948 363.183 433.325 363.183C431.168 363.183 429.185 363.614 428.926 364.045Z" fill="#917440"/>
<path d="M439.708 365.337C439.708 366.544 439.104 367.75 438.414 368.008C437.293 368.439 437.12 373.092 437.12 402.046C437.12 431.257 437.293 435.566 438.414 435.566C439.449 435.566 439.708 434.273 439.708 428.845C439.708 424.278 440.139 421.606 441.002 420.4C442.899 417.901 442.899 363.183 441.002 363.183C440.225 363.183 439.708 363.958 439.708 365.337Z" fill="#917440"/>
<path d="M370.444 365.51C370.099 365.768 369.84 380.417 369.84 397.996C369.84 423.502 370.099 430.396 371.048 431.688C371.652 432.636 372.428 434.532 372.773 435.997L373.463 438.582L375.102 435.394C376.655 432.464 376.741 430.223 376.482 401.356C376.31 370.594 376.31 370.507 374.326 367.664C372.342 364.906 371.479 364.389 370.444 365.51Z" fill="#917440"/>
<path d="M211.992 368.181C211.302 368.439 210.439 369.042 210.094 369.56C209.749 370.077 209.404 384.812 209.404 402.304V434.101L211.475 435.997L213.458 437.893L214.925 435.221C216.219 432.808 216.305 429.103 216.132 401.356C215.874 374.902 215.701 369.99 214.58 368.956C213.89 368.267 212.682 367.922 211.992 368.181Z" fill="#917440"/>
<path d="M387.782 368.439C386.315 369.215 386.229 371.714 386.229 401.529C386.229 432.291 386.315 433.929 387.954 436.6C388.903 438.151 389.679 439.013 389.679 438.496C389.679 437.979 390.456 436.686 391.404 435.566C393.043 433.67 393.13 432.378 393.13 402.477C393.13 375.678 392.957 371.024 391.749 369.387C390.283 367.233 389.852 367.147 387.782 368.439Z" fill="#917440"/>
</g>
<defs>
<clipPath id="clip0_23_1276">
<rect width="602.732" height="440.887" fill="white"/>
</clipPath>
</defs>
</svg>
