<?xml version="1.0" encoding="UTF-8" standalone="no"?>
<svg
   xmlns:dc="http://purl.org/dc/elements/1.1/"
   xmlns:cc="http://creativecommons.org/ns#"
   xmlns:rdf="http://www.w3.org/1999/02/22-rdf-syntax-ns#"
   xmlns:svg="http://www.w3.org/2000/svg"
   xmlns="http://www.w3.org/2000/svg"
   xmlns:sodipodi="http://sodipodi.sourceforge.net/DTD/sodipodi-0.dtd"
   xmlns:inkscape="http://www.inkscape.org/namespaces/inkscape"
   version="1.0"
   width="873.46362"
   height="639.55792"
   viewBox="0 0 698.7709 511.64634"
   preserveAspectRatio="xMidYMid meet"
   id="svg2"
   inkscape:version="0.48.5 r10040"
   sodipodi:docname="fNhzX7F01D.svg">
  <defs
     id="defs164" />
  <sodipodi:namedview
     pagecolor="#ffffff"
     bordercolor="#666666"
     borderopacity="1"
     objecttolerance="10"
     gridtolerance="10"
     guidetolerance="10"
     inkscape:pageopacity="0"
     inkscape:pageshadow="2"
     inkscape:window-width="1280"
     inkscape:window-height="961"
     id="namedview162"
     showgrid="false"
     inkscape:zoom="0.99442653"
     inkscape:cx="408.77945"
     inkscape:cy="300.05494"
     inkscape:window-x="1358"
     inkscape:window-y="-8"
     inkscape:window-maximized="1"
     inkscape:current-layer="svg2"
     fit-margin-top="0"
     fit-margin-left="0"
     fit-margin-right="0"
     fit-margin-bottom="0" />
  <metadata
     id="metadata4">
Created by potrace 1.10, written by Peter Selinger 2001-2011
<rdf:RDF>
  <cc:Work
     rdf:about="">
    <dc:format>image/svg+xml</dc:format>
    <dc:type
       rdf:resource="http://purl.org/dc/dcmitype/StillImage" />
  </cc:Work>
</rdf:RDF>
</metadata>
  <path
     style="fill:#000000;stroke:none"
     id="path8"
     d="m 338.77088,2.4 c 0,1.3 0.7,2.9 1.5,3.6 0.8,0.7 1.5,2.3 1.5,3.5 0,1.3 0.7,2.5 1.5,2.9 1.2,0.4 1.5,2.9 1.5,13.1 0,10.2 -0.3,12.7 -1.5,13.1 -0.9,0.4 -1.5,1.9 -1.5,3.6 0,3.7 -2.4,3.3 -2.8,-0.5 -0.2,-1.5 -1,-2.7 -1.8,-2.7 -1.2,0 -1.4,2.8 -1.4,16.5 l 0,16.5 13.5,0 13.5,0 0,-16.5 c 0,-14 -0.2,-16.5 -1.5,-16.5 -1,0 -1.5,1 -1.5,3 0,2 -0.5,3 -1.5,3 -1,0 -1.5,-1 -1.5,-2.9 0,-1.6 -0.6,-3.1 -1.5,-3.5 -1.2,-0.4 -1.5,-2.8 -1.5,-12.9 0,-9.9 0.3,-12.7 1.5,-13.7 0.8,-0.7 1.5,-2 1.5,-3 0,-1 0.7,-2.3 1.5,-3 1.8,-1.5 2,-6 0.3,-6 -0.7,0 -2.2,1.4 -3.3,3 -2.6,3.9 -4.5,3.9 -4.5,0 0,-2 -0.5,-3 -1.5,-3 -1,0 -1.5,1 -1.5,3 0,3.9 -1.9,3.9 -4.5,0 -2.4,-3.6 -4.5,-3.9 -4.5,-0.6 z"
     inkscape:connector-curvature="0" />
  <path
     style="fill:#000000;stroke:none"
     id="path10"
     d="m 331.27088,78.177862 c -2.5,2.6 -3.6,3 -8.1,3 -3.7,0 -5.4,0.4 -5.8,1.5 -0.3,0.9 -1.9,1.5 -3.8,1.5 -1.8,0.1 -4.4,0.7 -5.8,1.5 -1.4,0.8 -3.3,1.4 -4.3,1.5 -3,0 -15.6,6.8 -22.7,12 -11,8.199998 -24.9,24.299998 -28.9,33.699998 -0.6,1.1 -1.5,2.4 -2,2.8 -0.6,0.3 -1.1,1.6 -1.1,2.7 0,1.2 -0.7,2.9 -1.6,3.9 -2.4,2.7 -1.1,4.9 3,4.9 3.1,0 3.7,-0.4 5.8,-4.8 2.1,-4.2 2.7,-4.7 6,-5 3.5,-0.3 3.8,-0.1 6.3,4.7 2,4.1 3,5.1 5,5.1 2.1,0 2.5,-0.5 2.5,-3 0,-2.8 0.3,-3 3.4,-3 1.9,0 4.1,-0.7 5,-1.5 0.8,-0.8 2.4,-1.5 3.5,-1.5 2.6,0 3.4,-1.5 1.6,-3 -0.8,-0.7 -1.5,-2.1 -1.5,-3.1 0,-1 -0.5,-2.1 -1.1,-2.4 -1.6,-1.1 -2.8,-5.1 -2.2,-7.4 0.8,-3.1 4.8,-2.7 9.7,1.1 5.5,4.4 8,7.6 8.6,11.2 0.4,2.4 1.1,3.2 3,3.4 1.4,0.2 2.9,1 3.3,1.8 0.5,0.9 2.6,1.4 6.2,1.4 5.1,0 5.4,0.1 5.7,2.7 0.2,2.2 0.8,2.8 2.8,2.8 1.9,0 2.6,-0.6 3,-3.1 1,-4.6 1.8,-5.4 5.4,-5.4 3.7,0 5.4,1.5 6.5,5.6 0.7,2.7 0.7,2.7 9.7,2.7 10,0 11.4,-0.4 11.4,-3.7 0,-3.1 1.8,-4.6 5.6,-4.6 3.5,0 5.2,1.5 6.3,5.7 1,3.8 5.2,4 6.1,0.3 0.5,-2.2 1.2,-2.5 5.5,-2.8 3.1,-0.2 5.5,-0.9 6.2,-1.9 0.7,-0.9 2.2,-1.6 3.5,-1.7 1.9,-0.1 2.4,-0.8 2.6,-3.6 0.3,-3.6 2.4,-6 9.7,-11.6 4.2,-3.1 7.9,-2.9 8.3,0.5 0.4,2.3 -2,8 -4.6,11.3 -1.8,2.1 -0.8,3.8 2.3,3.8 1.2,0 2.5,0.7 2.9,1.5 0.3,1 1.9,1.5 4.6,1.5 3.8,0 4,0.2 4,3 0,2.5 0.4,3 2.5,3 1.9,0 2.8,-0.9 4.4,-4.5 3.2,-7.3 9.2,-7.5 12.6,-0.3 1.8,3.8 2.5,4.3 5.8,4.6 4.4,0.4 5.9,-1.8 3.3,-4.7 -0.9,-1 -1.6,-2.5 -1.6,-3.4 0,-0.9 -0.4,-1.8 -0.9,-2.1 -0.5,-0.3 -2.1,-2.9 -3.6,-5.8 -5.3,-10.3 -16,-23 -25.7,-30.4 -3.1,-2.399998 -5.9,-4.399998 -6.2,-4.399998 -0.3,0 -2.5,-1.4 -4.9,-3 -2.5,-1.7 -5,-3 -5.7,-3 -0.7,0 -2.4,-0.6 -3.8,-1.4 -4,-2 -12.4,-4.6 -15,-4.6 -1.2,0 -2.5,-0.7 -2.8,-1.5 -0.4,-1.1 -2.1,-1.5 -5.8,-1.5 -4.5,0 -5.6,-0.4 -8.1,-3 l -2.9,-3 -15.1,0 -15.1,0 -2.9,3 z"
     inkscape:connector-curvature="0" />
  <path
     style="fill:#000000;stroke:none"
     id="path12"
     d="m 288.27088,122.57129 c -0.4,0.5 0,1.8 0.9,2.8 0.9,1 1.6,2.5 1.6,3.4 0,0.9 0.7,2 1.6,2.5 2.5,1.4 1.5,7.6 -1.3,8 -1.2,0.2 -2.7,1 -3.3,1.8 -0.7,0.8 -2.8,1.4 -4.7,1.4 -2.1,0 -3.6,0.6 -3.9,1.5 -0.4,0.8 -1.2,1.5 -2,1.5 -1.1,0 -1.4,1.7 -1.4,6.8 0,6.3 0.2,7 3,9.2 3.2,2.7 4.1,7.4 1.5,8.4 -0.9,0.3 -1.5,1.8 -1.5,4 0,3.1 -1.2,4.6 -9.6,13 -5.2,5.3 -9.9,9.6 -10.5,9.6 -2.2,0 -0.3,-2.5 8.1,-10.8 8,-8 9,-9.3 9,-12.6 0,-2.5 0.4,-3.6 1.5,-3.6 2.6,0 1.7,-4.4 -1.5,-7 -2.5,-2.2 -2.9,-3.2 -3,-7.8 0,-4.7 -0.3,-5.4 -2.5,-6.2 -1.4,-0.5 -2.8,-1.8 -3.2,-2.7 -0.3,-1 -1.5,-2.8 -2.6,-4.1 l -2.1,-2.2 -2.3,2.2 c -1.3,1.2 -2.3,3.2 -2.3,4.5 l 0,2.4 -13.2,-0.3 -13.3,-0.3 -0.5,-5.5 -0.5,-5.5 -3.8,-0.3 c -2.2,-0.2 -4.1,-1 -4.4,-1.8 -0.7,-1.9 -1.9,-1.8 -4.3,0.6 -1.6,1.6 -2,3.3 -2,8.4 0,4.4 -0.5,6.7 -1.5,7.6 -1.1,0.9 -1.5,4.4 -1.7,15.8 -0.3,12.2 -0.6,14.7 -1.8,14.8 -14.6,1.7 -25.9,4.9 -36.2,10.1 -1.4,0.7 -3.2,1.3 -4,1.3 -0.8,0 -2.4,1.1 -3.7,2.3 l -2.2,2.4 3.8,2.5 c 2.9,2 4.7,2.5 7.4,2.1 2.1,-0.3 4,0 4.3,0.6 0.4,0.6 1.5,1.1 2.5,1.1 1,0 2.7,1 3.9,2.3 1.7,1.8 2.2,3.7 2.4,10.7 l 0.3,8.5 26.5,0 26.5,0 0,-2.5 c 0,-2.2 -0.5,-2.6 -4,-3 l -4,-0.5 -0.3,-19.9 c -0.2,-19.3 -0.2,-20 2,-22.3 3,-3.2 11.6,-3.3 15.9,-0.1 l 3,2.3 -0.3,9.2 c -0.2,8.2 -0.1,9.4 1.7,10.8 2,1.5 1.9,1.6 -1.2,4.3 -1.8,1.6 -3.3,3.5 -3.3,4.4 0,0.9 -0.7,2.1 -1.5,2.8 -0.8,0.7 -1.5,2 -1.5,3 0,1 -0.7,2.3 -1.5,3 -1,0.8 -1.5,3.1 -1.5,6.6 l 0,5.4 -28.2,0.2 -28.3,0.3 -0.3,5.3 c -0.2,4 0.1,5.4 1.2,5.8 1.2,0.5 1.6,2.1 1.6,6.4 0,5.7 -0.1,5.9 -2.7,6.2 -2.1,0.2 -2.9,0.9 -3.1,2.8 -0.2,1.3 -1,2.9 -1.9,3.5 -1,0.8 -1.3,2.7 -1.1,7.5 l 0.3,6.5 43,0.2 c 23.7,0.2 43.6,-0.1 44.3,-0.6 0.9,-0.5 1.7,-4.4 2.2,-10.7 1,-10.9 2.5,-19.2 4.6,-24.1 0.8,-1.7 1.4,-3.6 1.4,-4.1 0,-0.6 0.8,-2.5 1.7,-4.4 0.9,-1.8 2.3,-4.7 3.1,-6.3 2.3,-4.7 9.1,-14.7 12.6,-18.3 4.3,-4.7 14.1,-12.2 15.9,-12.2 0.8,0 2,-0.7 2.7,-1.5 0.7,-0.8 1.9,-1.5 2.7,-1.5 0.8,0 2.4,-0.6 3.6,-1.2 4.7,-2.7 13.8,-4.1 28.5,-4.5 12.6,-0.3 15.6,-0.1 17.4,1.2 1.2,0.8 3.2,1.5 4.4,1.5 1.2,0 3.5,0.7 5,1.5 1.6,0.8 3.7,1.5 4.6,1.5 0.9,0 2,0.5 2.3,1.1 0.4,0.5 1.7,1.4 2.8,2 9.3,4 23.2,18.4 27.6,28.6 2.39789,3.59635 2.58995,6.66382 4.5,10.1 2.1,4.3 3.7,9.3 4.7,14.9 0.5,2.9 1.4,6.4 1.9,7.8 0.6,1.5 1,6.2 1,10.5 0,7.4 0.2,8 2.3,8.5 1.2,0.3 21.3,0.4 44.7,0.3 l 42.5,-0.3 0.3,-6.5 c 0.2,-4.8 -0.1,-6.7 -1.1,-7.5 -0.9,-0.6 -1.7,-2.2 -1.9,-3.5 -0.2,-1.9 -1,-2.6 -3,-2.8 -2.7,-0.3 -2.8,-0.5 -2.8,-6.2 0,-4.3 0.4,-5.9 1.6,-6.4 1.1,-0.4 1.4,-1.8 1.2,-5.8 l -0.3,-5.3 -28.2,-0.3 -28.3,-0.2 0,-3.1 c 0,-1.7 -0.6,-4.3 -1.4,-5.7 -0.8,-1.5 -2.4,-4.7 -3.6,-7.2 -1.2,-2.5 -3,-5.9 -4.1,-7.5 -3.1,-4.9 -3.3,-5.7 -1.6,-6.7 1.4,-0.7 1.7,-2.6 1.7,-10 0,-8 0.3,-9.3 2.3,-11.4 3.1,-3.4 12.2,-3.4 16,-0.1 l 2.7,2.3 0,19 c 0,13.4 -0.4,19.4 -1.2,20.2 -0.7,0.7 -2.7,1.2 -4.6,1.2 -3,0 -3.3,0.2 -3,2.7 l 0.3,2.8 26.5,0 26.5,0 -0.3,-7.3 c -0.3,-8.6 1.4,-12.8 5.6,-13.8 1.5,-0.4 3.3,-1.1 4,-1.7 0.7,-0.5 2.8,-0.7 4.8,-0.4 2.9,0.5 4.2,0.1 7,-2.1 l 3.3,-2.6 -2.1,-2.3 c -1.2,-1.3 -2.8,-2.3 -3.6,-2.3 -0.8,0 -2.6,-0.6 -4,-1.4 -8.5,-4.4 -26.9,-9.6 -34.3,-9.6 -1.6,0 -3.2,-0.6 -3.4,-1.3 -0.2,-0.6 -0.6,-7.4 -0.8,-15 -0.2,-8.9 -0.7,-14.1 -1.5,-14.9 -0.7,-0.7 -1.2,-3.9 -1.2,-7.5 0,-5 -0.4,-6.7 -2,-8.3 -2.4,-2.4 -3.6,-2.5 -4.4,-0.5 -0.3,0.9 -1.8,1.5 -4,1.5 -4.2,0 -4.6,0.6 -5,6.7 l -0.2,4.8 -13.2,0.3 -13.2,0.3 0,-2.4 c 0,-1.3 -1,-3.3 -2.3,-4.5 l -2.3,-2.2 -2.2,2.3 c -1.2,1.3 -2.2,3.3 -2.2,4.4 0,1.6 -0.7,2.2 -2.7,2.5 -2.6,0.3 -2.8,0.6 -3.1,5.7 -0.3,4.5 -0.8,5.8 -3.3,8 -3.1,2.7 -4,7.1 -1.4,7.1 1,0 1.5,1 1.5,3.4 0,3.1 1.1,4.6 9,12.4 8.3,8.2 10.5,11.2 8.1,11.2 -0.6,0 -5.3,-4.3 -10.5,-9.6 -8.9,-8.8 -9.6,-9.8 -9.6,-13.5 0,-2.6 -0.4,-3.9 -1.4,-3.9 -0.7,0 -1.6,-1 -1.9,-2.2 -0.5,-1.7 0.2,-3 2.8,-5.3 3.3,-2.9 3.5,-3.4 3.5,-9.8 0,-5.1 -0.3,-6.7 -1.4,-6.7 -0.8,0 -1.6,-0.7 -2,-1.5 -0.3,-1 -1.9,-1.5 -4.5,-1.5 -2.4,0 -4.1,-0.5 -4.4,-1.4 -0.3,-0.8 -1.6,-1.6 -2.9,-1.8 -1.8,-0.2 -2.4,-1 -2.6,-3.9 -0.2,-2.3 0.2,-4 1.2,-4.9 0.9,-0.7 1.6,-2.1 1.6,-3.1 0,-1 0.7,-2.2 1.6,-2.7 0.9,-0.5 1.4,-1.4 1,-2.1 -1,-1.6 -1.86899,-1.24488 -2.6,0.4 -0.35553,0.8 -0.47111,1.14447 -1,1.5 -0.41496,0.27894 -2.5,1.5 -4.4,3.3 -2.6,2.5 -3.5,4.4 -3.8,7.3 -0.2,3 -0.8,4 -2.3,4.2 -1.1,0.2 -2.7,1 -3.5,1.7 -0.8,0.8 -3.8,1.5 -6.5,1.7 -4.6,0.3 -5,0.5 -5.3,3 -0.3,2.7 -0.5,2.8 -6.3,2.8 l -5.9,0 0,-4.5 c 0,-4.3 -0.1,-4.5 -3,-4.5 -2.9,0 -3,0.2 -3,4.5 l 0,4.5 -13.5,0 -13.5,0 0,-4.5 c 0,-4.3 -0.1,-4.5 -2.9,-4.5 -2.8,0 -3,0.3 -3.3,4.2 l -0.3,4.3 -6,0 c -5.7,0 -6,-0.1 -6,-2.5 0,-2.3 -0.4,-2.5 -5,-2.8 -2.7,-0.2 -5.7,-0.9 -6.5,-1.7 -0.8,-0.7 -2.4,-1.5 -3.5,-1.7 -1.5,-0.2 -2.1,-1.2 -2.3,-4 -0.2,-2.8 -1.3,-4.6 -4.8,-7.7 -2.4,-2.3 -4.4,-4.6 -4.4,-5.1 0,-1.3 -1.7,-1.3 -2.5,0.1 z"
     inkscape:connector-curvature="0"
     sodipodi:nodetypes="csscccscssccscscsscccccccscccccccssccccscccccscccccscccccccccssscscccccscccccccccscccssscccscsccccccscccccccscccccscsccscccssscccccccccccscsccssscsccccscccscccsscscssccsscsccccsscssccccccscssscccssccsscccscsc" />
  <path
     style="fill:#000000;stroke:none"
     id="path14"
     d="m 109.27088,184.57129 c -1.6,0.5 -3.9,0.7 -5,0.4 -1.3,-0.2 -3.9,0.8 -6.499997,2.5 -2.5,1.7 -5.3,3 -6.2,3 -1,0 -3,1.3 -4.5,3 -1.4,1.6 -3.4,3 -4.4,3 -4.1,0 -5,3.7 -4.7,20.1 l 0.3,15.4 33.999997,0 34,0 0,-17.5 c 0,-17 0,-17.4 -2.2,-18 -1.2,-0.3 -3.1,-1.7 -4.2,-3.1 -1.1,-1.5 -3.3,-3 -4.8,-3.4 -1.5,-0.3 -4,-1.6 -5.7,-2.8 -1.8,-1.3 -4.7,-2.2 -7.1,-2.3 -2.2,0 -5.3,-0.4 -7,-0.7 -1.6,-0.3 -4.3,-0.2 -6,0.4 z"
     inkscape:connector-curvature="0" />
  <path
     style="fill:#000000;stroke:none"
     id="path16"
     d="m 580.27088,184.47129 c -1.6,0.5 -3.9,0.7 -5.2,0.4 -1.4,-0.4 -3.2,0.1 -4.9,1.5 -1.5,1.1 -4.4,2.6 -6.5,3.1 -2.3,0.6 -4.6,2.1 -5.6,3.6 -0.9,1.4 -2.7,3 -4,3.5 l -2.3,0.9 0.2,17.2 0.3,17.3 34,0 34,0 0.3,-15.3 c 0.2,-12.7 0,-15.6 -1.4,-17.7 -0.9,-1.4 -2.4,-2.5 -3.3,-2.5 -1,0 -3,-1.4 -4.6,-3 -1.6,-1.7 -3.6,-3 -4.5,-3 -1,0 -3.5,-1.2 -5.6,-2.7 -2.2,-1.5 -5.4,-2.7 -7.4,-2.8 -1.9,-0.1 -5.1,-0.5 -7,-0.8 -1.9,-0.3 -4.8,-0.2 -6.5,0.3 z"
     inkscape:connector-curvature="0" />
  <path
     style="fill:#000000;stroke:none"
     id="path18"
     d="m 334.77088,188.97129 c -0.7,0.8 -2.8,1.5 -4.7,1.5 -1.9,0 -4.7,0.6 -6.1,1.4 -1.5,0.7 -4.9,2.4 -7.5,3.7 -8.6,4.2 -9.6,4.9 -14.6,9.7 -5.1,5 -14.1,16.4 -14.1,18 0,0.5 -1.3,3.4 -3,6.5 -1.6,3.1 -3,6.7 -3,8 0,1.3 -0.5,2.8 -1.1,3.4 -0.6,0.6 -1.4,3.5 -1.9,6.4 -0.5,3 -1.4,7.5 -2,10 -0.6,2.6 -1,7.3 -0.8,10.5 l 0.3,5.9 8.5,0.3 c 6.1,0.2 8.7,0.7 9.3,1.7 0.4,0.8 1.7,1.5 2.8,1.5 1,0 2.8,0.6 3.9,1.2 3.2,2 4.2,-0.2 4.7,-9.8 0.3,-5.3 1,-9.6 1.9,-10.8 0.6831,-3.57456 3.09858,-6.73886 4.2,-9.4 1,-2.8 8.8,-11.7 12.1,-13.6 10.3,-6.1 16.70897,-9.00785 16.70897,-6.30785 0,1.6 -7.60897,6.70785 -10.00897,6.70785 -1.3,0 -8.8,6.2 -12,9.8 -3.3,3.8 -6.6,9.5 -6.6,11.5 0,0.8 -0.7,2.8 -1.5,4.5 -1.1,2.1 -1.5,5.3 -1.3,10.4 l 0.3,7.3 40,0 40,0 0.3,-5.8 c 0.3,-5.6 -1,-11 -5.2,-20.8 -2.6,-6.3 -10,-13.5 -17.6,-17.1 -7,-3.3 -11.51401,-6.8056 -7.21401,-6.8056 5,0 18.51401,8.4056 23.41401,15.1056 3.9,5.2 5.7,8 6.2,9.4 0.1,0.5 0.9,2.6 1.6,4.5 0.7,1.9 1.5,6.6 1.7,10.5 0.5,9.7 1,11.5 3.3,11.5 1,0 2.2,-0.5 2.5,-1 0.3,-0.6 1.7,-1 3,-1 1.3,0 2.8,-0.7 3.2,-1.5 0.6,-1 3.2,-1.5 9.3,-1.7 l 8.5,-0.3 0.3,-4.9 c 0.2,-2.6 -0.2,-6.9 -0.8,-9.5 -0.6,-2.5 -1.5,-6.9 -2,-9.6 -0.8,-5 -2.1,-9.3 -4.5,-15 -0.8,-1.7 -2.1,-4.8 -3,-7 -0.9,-2.2 -2.1,-4.7 -2.6,-5.5 -0.5,-0.8 -1.2,-2.2 -1.6,-3 -3.4,-7.7 -16.3,-19.5 -26.8,-24.4 -2.2,-1.1 -5.2,-2.5 -6.7,-3.3 -1.4,-0.7 -3.8,-1.3 -5.2,-1.3 -1.5,0 -2.9,-0.7 -3.2,-1.5 -0.5,-1.2 -3.2,-1.5 -15.4,-1.5 -11.9,0 -15,0.3 -16,1.5 z m 24.0056,39.10056 c 0,1.2 -2.6056,1.39944 -9.4056,1.39944 -7.8,0 -10.5,-0.7 -8.9,-2.4 0.3,-0.3 4.4,-0.6 9,-0.6 6.7,0 9.3056,0.40056 9.3056,1.60056 z"
     inkscape:connector-curvature="0"
     sodipodi:nodetypes="cscccscssccccccscccccsscsccccccccsccscscscccccccsscccscscsscss" />
  <path
     style="fill:#000000;stroke:none"
     id="path20"
     d="m 153.77088,199.37129 -3.5,0.6 -0.3,19.2 -0.2,19.3 -2.4,0 c -1.3,0 -2.9,-0.7 -3.6,-1.5 -1.1,-1.3 -5.8,-1.5 -31.5,-1.5 -25.699997,0 -30.399997,0.2 -31.499997,1.5 -0.7,0.8 -2.3,1.5 -3.6,1.5 l -2.4,0 -0.2,-19.3 -0.3,-19.2 -4.4,-0.3 c -6.2,-0.5 -9,0.5 -10.1,3.3 -0.8,2 -1.7,2.5 -4.4,2.5 -4.9,0 -6.6,0.9 -6.6,3.5 0,1.3 -1.2,3.7 -2.6,5.4 -2.4,2.9 -3.1,3.1 -8.9,3.1 -6,0 -6.5,0.2 -7.7,2.7 -1,2.2 -2.1,2.9 -5.1,3.1 -2.9,0.3 -3.7,0.7 -3.7,2.3 0,1.1 -0.7,3.3 -1.5,4.9 -1.3,2.4 -1.3,3.3 -0.3,5 1,1.6 1,2.4 0,4 -0.6,1.1 -1.2,3.1 -1.2,4.5 0,1.3 -0.7,4 -1.6,5.9 -2.7,5.5 -1.6,6.6 6.5,6.6 l 6.9,0 -0.5,-6 -0.6,-6 22.5,0 c 18.8,0 22.8,-0.2 23.8,-1.5 0.7,-0.8 2.7,-1.5 4.5,-1.5 1.8,0 3.8,-0.7 4.5,-1.5 1,-1.3 5.2,-1.5 25.499997,-1.5 20.3,0 24.5,0.2 25.5,1.5 0.7,0.8 2.7,1.5 4.5,1.5 1.8,0 3.8,0.7 4.5,1.5 1.1,1.3 4.4,1.5 21.4,1.3 l 20.1,-0.3 0,-17.5 0,-17.5 -2.3,-0.3 c -1.3,-0.2 -2.6,-1 -2.9,-1.8 -0.7,-1.9 -5.3,-1.8 -6.7,0.2 -1,1.3 -1.5,1.1 -4.1,-1.5 -1.7,-1.7 -3.7,-3.1 -4.5,-3.1 -0.9,0 -2.3,-0.9 -3.3,-2 -1.8,-2.1 -2,-2.1 -7.7,-1.1 z"
     inkscape:connector-curvature="0" />
  <path
     style="fill:#000000;stroke:none"
     id="path22"
     d="m 536.77088,200.37129 c -0.6,1.2 -1.8,2.1 -2.8,2.1 -0.9,0 -3,1.4 -4.7,3.1 -2.6,2.6 -3.1,2.8 -4.1,1.5 -1.4,-2 -5,-2.1 -6.1,-0.2 -0.4,0.8 -1.9,1.6 -3.3,1.8 l -2.5,0.3 0,17.5 0,17.5 18.6,0.3 c 15.7,0.2 18.8,0 19.9,-1.3 0.8,-1 3,-1.5 6,-1.5 3,0 5.2,-0.6 6,-1.5 1,-1.3 5.2,-1.5 25.5,-1.5 20.3,0 24.5,0.2 25.5,1.5 0.7,0.8 2.7,1.5 4.5,1.5 1.8,0 3.8,0.7 4.5,1.5 1,1.2 5.3,1.5 23.4,1.7 l 22.1,0.3 0.3,3.7 c 0.2,2.9 -0.1,3.9 -1.8,4.8 -3.6,1.9 -1.1,3 7.1,3 9,0 10.4,-1.1 7.5,-6 -0.9,-1.6 -1.6,-4.1 -1.6,-5.7 0,-1.6 -0.7,-3.8 -1.5,-5 -1.3,-1.8 -1.3,-2.6 -0.3,-4.2 0.9,-1.5 0.9,-2.5 0,-4.6 -0.7,-1.4 -1.2,-3.7 -1.2,-5 0,-2 -0.5,-2.4 -3.7,-2.7 -3,-0.2 -4.1,-0.9 -5.1,-3.1 -1.2,-2.5 -1.7,-2.7 -7.6,-2.7 -5.4,0 -6.6,-0.3 -8.6,-2.5 -1.4,-1.4 -2.9,-4 -3.5,-5.8 -0.9,-2.8 -1.5,-3.3 -5.3,-3.7 -3.3,-0.4 -4.6,-1.1 -5.5,-3 -1.2,-2.3 -1.8,-2.5 -7.7,-2.5 l -6.5,0 -0.3,19.2 -0.2,19.3 -2.4,0 c -1.3,0 -2.9,-0.7 -3.6,-1.5 -1.1,-1.3 -5.8,-1.5 -31.5,-1.5 -25.7,0 -30.4,0.2 -31.5,1.5 -0.7,0.8 -2.3,1.5 -3.6,1.5 l -2.4,0 0,-18.9 c 0,-10.5 -0.3,-19.2 -0.7,-19.4 -0.5,-0.3 -2.9,-0.8 -5.5,-1.1 -4.1,-0.6 -4.8,-0.4 -5.8,1.3 z"
     inkscape:connector-curvature="0" />
  <path
     style="fill:#000000;stroke:none"
     id="path24"
     d="m 88.170883,242.97129 c -1,0.8 -3.6,1.5 -5.7,1.5 -2.4,0 -4,0.5 -4.3,1.5 -0.5,1.2 -3.2,1.5 -15.5,1.5 -14.1,0 -14.9,0.1 -14.9,1.9 0,1.2 1.8,3.3 4.4,5.1 l 4.4,3.2 0.4,8.4 c 0.2,4.6 0.9,8.9 1.5,9.5 2.2,2.2 40.1,-0.6 42.699997,-3.2 0.6,-0.5 7,-0.9 14.3,-0.9 11.2,0 13.3,0.2 13.3,1.5 0,1.3 3.2,1.5 25.3,1.3 l 25.2,-0.3 0.3,-7 c 0.2,-4.1 0.9,-7.6 1.7,-8.5 0.7,-0.8 1.5,-2.9 1.7,-4.5 0.2,-2.2 0.9,-3.1 2.6,-3.3 1.2,-0.2 2.2,-1 2.2,-1.8 0,-1.2 -3.7,-1.4 -23.1,-1.4 -19.1,0 -23.3,-0.3 -24.5,-1.5 -0.9,-0.8 -2.8,-1.5 -4.4,-1.5 -1.5,0 -4.1,-0.7 -5.6,-1.5 -4.2,-2.2 -39.099997,-2.2 -41.999997,0 z"
     inkscape:connector-curvature="0" />
  <path
     style="fill:#000000;stroke:none"
     id="path26"
     d="m 567.77088,242.97129 c -0.8,1 -3.1,1.5 -6.7,1.5 -3.8,0 -5.5,0.4 -5.9,1.5 -0.5,1.3 -4,1.5 -22.5,1.5 -18.3,0 -21.9,0.2 -21.9,1.4 0,0.8 1,1.6 2.3,1.8 1.7,0.2 2.3,1 2.5,3.8 0.2,1.9 0.9,4 1.7,4.6 0.9,0.7 1.5,3.5 1.7,8 l 0.3,6.9 23.8,0.3 c 20.6,0.2 23.7,0 23.7,-1.3 0,-1.3 2.3,-1.5 15,-1.5 12.9,0 15,0.2 15,1.6 0,1.1 0.8,1.5 2.8,1.3 7.1,-0.5 12.2,0.1 12.2,1.6 0,1.3 2.5,1.5 16.5,1.5 l 16.5,0 0,-10.5 c 0,-8.7 0.3,-10.5 1.5,-10.5 0.8,0 1.5,-0.6 1.5,-1.4 0,-0.8 0.7,-1.7 1.6,-2 0.9,-0.3 1.4,-1.5 1.2,-2.8 -0.3,-2.3 -0.6,-2.3 -14.8,-2.6 -11.5,-0.2 -14.6,-0.6 -15.3,-1.7 -0.4,-0.9 -2.2,-1.5 -4.1,-1.5 -1.9,0 -4.7,-0.7 -6.2,-1.5 -4.2,-2.2 -40.6,-2.2 -42.4,0 z"
     inkscape:connector-curvature="0" />
  <path
     style="fill:#000000;stroke:none"
     id="path28"
     d="m 33.070883,248.97129 c -0.3,0.9 0.2,2.4 1.1,3.4 0.9,1 1.6,2.5 1.6,3.5 0,1 1.4,2.3 3.3,3.1 4.8,2 5.6,3.3 5.9,10.5 l 0.3,6.5 4,0 4,0 0.3,-7.4 0.3,-7.3 -4.2,-3.6 c -2.3,-2 -4.8,-5.1 -5.5,-6.9 -1.3,-3 -1.8,-3.3 -5.9,-3.3 -3.2,0 -4.7,0.5 -5.2,1.5 z"
     inkscape:connector-curvature="0" />
  <path
     style="fill:#000000;stroke:none"
     id="path30"
     d="m 654.47088,248.07129 c -0.4,0.4 -0.7,1.8 -0.7,3 0,1.4 -1.2,3.2 -3,4.6 -2.9,2.1 -3,2.4 -3,10.4 0,9.5 0.5,11.4 3,11.4 2.4,0 3,-1.9 3,-9.1 0,-4.6 0.3,-5.9 1.5,-5.9 0.8,0 1.5,-0.7 1.5,-1.5 0,-1 1,-1.5 3,-1.5 2.7,0 3,-0.3 3,-3 0,-2.1 0.5,-3 1.6,-3 1.1,0 1.4,-0.8 1.2,-2.8 -0.3,-2.5 -0.7,-2.7 -5.3,-3 -2.8,-0.2 -5.4,0 -5.8,0.4 z"
     inkscape:connector-curvature="0" />
  <path
     style="fill:#000000;stroke:none"
     id="path32"
     d="m 662.77088,260.97129 c 0,1 -1,1.5 -3,1.5 l -3,0 0,7.5 c 0,5.8 0.4,7.7 1.5,8.1 0.8,0.4 1.5,1.7 1.5,3 0,2.4 0,2.4 12,2.4 11.2,0 12,-0.1 12,-1.9 0,-1.1 3.4,-5.5 7.5,-9.8 4.8,-5 7.5,-8.6 7.5,-10 l 0,-2.3 -18,0 c -15.3,0 -18,0.2 -18,1.5 z"
     inkscape:connector-curvature="0" />
  <path
     style="fill:#000000;stroke:none"
     id="path34"
     d="m 0.77088318,262.07129 c 0,2.5 1.70000002,5 6.90000002,10.2 2.5999998,2.6 5.5999998,6 6.4999998,7.4 1.7,2.6 2,2.7 12.5,2.7 l 10.9,0 1.6,-4.4 c 1,-2.5 1.6,-6.4 1.4,-9.1 -0.5,-7.5 -2.5,-8.2 -23,-8.3 -14.5999998,-0.1 -16.79999982,0.1 -16.79999982,1.5 z"
     inkscape:connector-curvature="0" />
  <path
     style="fill:#000000;stroke:none"
     id="path36"
     d="m 101.77088,275.87129 c 0,0.9 -1.999997,1.5 -6.599997,1.9 -4,0.3 -7,1 -7.5,1.8 -0.5,0.8 -0.8,23.4 -0.6,50.4 l 0.2,49 5.5,0 5.5,0 0.3,-23.8 0.2,-23.7 4.499997,0 4.5,0 0.2,23.7 0.3,23.8 4.3,0 4.4,0 0.1,-23.5 0.2,-23.5 8.5,0 8.5,0 0,25 0,25 -25,0.5 -24.999997,0.5 0,4 0,4 26.499997,0.6 c 14.6,0.3 27.7,0.9 29.1,1.3 5.4,1.6 9.4,-4.1 5.4,-7.4 -1.3,-1.1 -1.5,-8.7 -1.7,-54.4 l -0.3,-53.1 -7.2,-0.3 c -5.6,-0.2 -7.3,-0.6 -7.3,-1.7 0,-1.2 -2.3,-1.5 -13.5,-1.5 -10.7,0 -13.5,0.3 -13.5,1.4 z m 30.3,12.7 3.7,1 0,11.5 c 0,12.6 0.0542,9.7759 -0.0697,12.35757 -6.32064,0.21244 -12.5654,0.0644 -16.83027,-0.15757 -1.4,-0.3 -1.6,-2 -1.6,-12.3 l 0,-12 3,-0.6 c 4.7,-1 7.7,-1 11.8,0.2 z m -22.2,7.6 c 0.3,10 -0.3,15.8 -1.5,16.6 -0.6,0.4 -2.9,0.6 -5.1,0.5 l -3.999997,-0.3 -0.3,-10 -0.3,-10.1 3.299997,-1 c 1.8,-0.6 4.3,-1.2 5.6,-1.3 2,-0.1 2.2,0.3 2.3,5.6 z"
     inkscape:connector-curvature="0"
     sodipodi:nodetypes="scsccccccccccccccccccccccccccccsssccsccsccccsccccccc" />
  <path
     style="fill:#000000;stroke:none"
     id="path38"
     d="m 566.77088,275.97129 c 0,1 -1.5,1.5 -5.7,1.7 l -5.8,0.3 -0.3,53.1 c -0.2,45.7 -0.4,53.3 -1.7,54.4 -0.8,0.7 -1.5,2.3 -1.5,3.5 0,3.3 2.4,4.9 6.2,4 1.8,-0.4 15.2,-1 29.8,-1.4 l 26.5,-0.6 0.3,-4.2 0.3,-4.3 -25.3,-0.2 -25.3,-0.3 0,-25 0,-25 8,0 8,0 -0.3,23.2 -0.4,23.2 2.5,0.6 c 1.3,0.4 3.8,0.5 5.3,0.3 l 2.9,-0.3 0.3,-23.8 0.2,-23.8 4.3,0.3 4.2,0.3 0.5,23.5 0.5,23.5 5.8,0.3 5.7,0.3 0,-51.1 0,-51 -7.5,0 c -6,0 -7.5,-0.3 -7.5,-1.5 0,-1.3 -2.3,-1.5 -15,-1.5 -12.4,0 -15,0.2 -15,1.5 z m 14.1,13.1 c 0.5,0.3 0.9,5.7 0.9,12 0,7.90694 0.15328,8.55365 0.33077,12.70657 -7.34639,0.11573 -13.96565,1.96977 -19.18856,-0.24672 -1.3,-3.3 -1.04221,-22.95985 0.35779,-24.05985 0.5,-0.4 2.1,-1 3.5,-1.3 2.8,-0.6 12.8,0 14.1,0.9 z m 14.4,2.8 4,1.4 0,9.9 0,9.8 -4.3,0.3 c -6.5,0.5 -7.2,-0.6 -7.2,-10.8 0,-12.8 0.2,-13.1 7.5,-10.6 z"
     inkscape:connector-curvature="0"
     sodipodi:nodetypes="sccccsccccccccccccccccccccccccccsssscscccsccccccsc" />
  <path
     style="fill:#000000;stroke:none"
     id="path40"
     d="m 147.47088,278.07129 c -0.4,0.4 -0.7,23.8 -0.7,51.9 0,43.6 0.2,51.4 1.5,52.5 0.8,0.7 1.5,3.4 1.7,6.3 l 0.3,5.2 7,0 c 6.6,0 7,-0.1 7.3,-2.4 0.2,-1.3 1.7,-3.5 3.3,-4.8 l 2.9,-2.5 0,-45.3 c 0,-38.6 -0.2,-45.5 -1.4,-46.2 -1,-0.6 -1.6,-3 -1.8,-7.8 l -0.3,-7 -9.5,-0.3 c -5.3,-0.1 -9.9,0 -10.3,0.4 z"
     inkscape:connector-curvature="0" />
  <path
     style="fill:#000000;stroke:none"
     id="path42"
     d="m 185.97088,501.07129 c 0.32398,-10.79931 2.19376,-13.39981 2.5,-3.6 0.0938,3.0002 0.2,6.1 0.2,6.7 0.1,0.7 0.8,1.3 1.6,1.3 1.3,0 1.5,-5 1.5,-38.9 0,-33.6 -0.2,-39 -1.5,-39.5 -0.8,-0.3 -1.5,-1.7 -1.5,-3.1 0,-1.6 -0.6,-2.5 -1.5,-2.5 -1.3,0 -1.5,4.4 -1.5,33.9 0,31.1 -0.5,37.4 -2.5,34.1 m 0,0 c -0.3,-0.5 -0.6,-19.7 -0.6,-42.6 0.1,-35.2 0.3,-41.9 1.6,-43.7 0.8,-1.2 1.5,-4 1.5,-6.2 0,-3.3 -0.6,-4.7 -3,-7 l -3,-2.9 0,-48.7 c 0,-43.1 0.2,-48.8 1.6,-49.3 1.1,-0.4 1.4,-1.8 1.2,-5.8 l -0.3,-5.3 -5,-0.3 c -2.8,-0.2 -5.4,0 -5.8,0.4 -1.4,1.4 -0.8,10.4 0.8,11 1.3,0.5 1.5,7 1.5,49.6 l 0,48.9 -2.9,2.7 c -1.6,1.5 -3.1,3.6 -3.3,4.7 -0.2,1.5 -1.3,2.1 -4.3,2.5 l -4,0.5 -0.3,5.2 c -0.2,2.9 -0.9,5.6 -1.7,6.3 -2.3,1.9 -2.2,82.2 0,84 1.1,0.9 1.5,3.3 1.5,8.7 0,5 0.4,7.5 1.3,7.8 0.6,0.2 6.7,0.6 13.4,0.8 l 12.2,0.3 0.3,-10"
     inkscape:connector-curvature="0"
     sodipodi:nodetypes="cscsscsssccccsccsccccscscccccccsssccc" />
  <path
     style="fill:#000000;stroke:none"
     id="path44"
     d="m 186.17088,278.67129 c -0.4,0.6 0.3,1.9 1.6,3 2.1,1.7 4.9,1.8 41.5,1.8 36.6,0 39.4,-0.1 41.5,-1.8 1.3,-1.1 2,-2.4 1.6,-3 -1,-1.7 -85.2,-1.7 -86.2,0 z"
     inkscape:connector-curvature="0" />
  <path
     style="fill:#000000;stroke:none"
     id="path46"
     d="m 276.27088,278.67129 c -0.3,0.7 -0.4,22.2 -0.3,47.8 l 0.3,46.5 5.5,0 5.5,0 0.2,-39.5 c 0.1,-21.7 0.2,-39.8 0.3,-40.3 0,-0.4 0.7,-0.7 1.5,-0.7 1.3,0 1.5,-1.3 1.3,-7.3 l -0.3,-7.2 -6.8,-0.3 c -4.8,-0.2 -6.9,0.1 -7.2,1 z"
     inkscape:connector-curvature="0" />
  <path
     style="fill:#000000;stroke:none"
     id="path48"
     d="m 408.47088,278.07129 c -0.4,0.4 -0.7,3.6 -0.7,7 0,4.5 0.4,6.5 1.5,7.1 1.3,0.7 1.5,6.7 1.7,40.8 l 0.3,40 5.5,0 5.5,0 0,-47.5 0,-47.5 -6.5,-0.3 c -3.6,-0.2 -6.9,0 -7.3,0.4 z"
     inkscape:connector-curvature="0" />
  <path
     style="fill:#000000;stroke:none"
     id="path50"
     d="m 426.47088,278.17129 c -1.1,1 -0.8,2 0.9,3.7 1.3,1.4 6.5,1.6 41.4,1.6 37.1,0 39.9,-0.1 42,-1.8 4.9,-4 2.8,-4.2 -41.4,-4.2 -23.2,0 -42.6,0.3 -42.9,0.7 z"
     inkscape:connector-curvature="0" />
  <path
     style="fill:#000000;stroke:none"
     id="path52"
     d="m 516.17088,278.57129 c -1.2,2.1 -0.5,9.3 1.1,10.5 1.3,1 1.5,7.7 1.5,49.8 l 0,48.7 -3,2.6 c -2.6,2.2 -3,3.1 -3,7.8 0,3.4 0.5,5.7 1.5,6.5 1.3,1.1 1.5,7 1.5,42.5 0,35.5 -0.2,41.4 -1.5,42.5 -1.2,1 -1.5,3.6 -1.5,11.5 l 0,10.2 11.8,0.1 c 6.5,0 12.4,-0.3 13.1,-0.7 0.7,-0.5 1.4,-3.9 1.7,-8.5 0.3,-5 1,-8.3 1.9,-9.3 2.2,-2.2 2.2,-81.8 0.1,-83 -0.9,-0.5 -1.6,-2.8 -1.8,-6.3 l -0.3,-5.5 -4.2,-0.3 c -3.8,-0.3 -4.3,-0.6 -4.3,-2.7 0,-1.4 -1.2,-3.4 -3,-4.8 l -3,-2.6 0,-48.4 c 0,-42.5 0.2,-48.6 1.5,-49.7 1.2,-1 1.5,-2.8 1.3,-6.4 l -0.3,-5.1 -5.2,-0.3 c -3.2,-0.2 -5.4,0.1 -5.9,0.9 z"
     inkscape:connector-curvature="0" />
  <path
     style="fill:#000000;stroke:none"
     id="path54"
     d="m 531.47088,278.07129 c -0.4,0.4 -0.7,3.5 -0.7,6.9 0,4.3 -0.5,6.6 -1.5,7.5 -1.3,1.1 -1.5,7.5 -1.5,46.5 l 0,45.3 2.9,2.5 c 1.6,1.3 3.1,3.5 3.3,4.8 0.3,2.3 0.7,2.4 7.3,2.4 l 7,0 0.3,-5.4 c 0.2,-3.3 0.9,-5.9 1.8,-6.5 1.2,-0.9 1.4,-8.5 1.2,-52.6 l -0.3,-51.5 -9.5,-0.3 c -5.3,-0.1 -9.9,0 -10.3,0.4 z"
     inkscape:connector-curvature="0" />
  <path
     style="fill:#000000;stroke:none"
     id="path56"
     d="m 42.470883,281.07129 c -1.2,1.2 -0.8,3.2 1.1,5 1.6,1.6 1.7,5.6 2,49.9 0.2,47.3 0.2,48.2 -1.8,50 -1.1,1 -2,2.2 -2,2.7 0,0.4 -1.3,2.7 -3,5 -3.6,5 -3.7,5.8 -0.5,8.8 l 2.4,2.3 0,52.5 c 0,28.8 0.2,52.7 0.5,52.9 0.8,0.8 16.1,0.7 17.4,-0.1 0.7,-0.4 1.2,-3.3 1.2,-6.8 0,-5 0.5,-6.7 3,-10.5 l 3,-4.4 0,-37.6 c 0,-31.1 -0.2,-37.9 -1.4,-39.2 -0.8,-0.9 -1.8,-4.3 -2.3,-7.6 -0.7,-5.2 -1.1,-6 -3.1,-6.3 -2.1,-0.3 -2.6,-1.5 -2.3,-5.7 0.1,-1.1 -1.2,-3.4 -2.9,-5 l -3,-2.9 0,-46.8 c 0,-41 0.2,-47.2 1.6,-49.3 0.8,-1.3 1.4,-3.4 1.2,-4.7 -0.3,-2 -0.9,-2.3 -5.3,-2.6 -2.8,-0.2 -5.4,0 -5.8,0.4 z"
     inkscape:connector-curvature="0" />
  <path
     style="fill:#000000;stroke:none"
     id="path58"
     d="m 57.970883,281.27129 c -0.7,0.5 -1,1.6 -0.6,2.5 0.3,0.9 -0.1,3 -1,4.8 -1.3,2.7 -1.6,9.3 -1.6,48.3 l -0.1,45.1 2.5,2.1 c 1.7,1.5 2.6,3.5 2.8,6 l 0.3,3.9 7.5,-0.3 c 4.1,-0.2 8.7,-1 10.2,-1.8 2.3,-1.2 2.6,-1.9 2.5,-6 -0.2,-3.3 0.3,-4.9 1.6,-5.8 1.6,-1.3 1.7,-4.5 1.5,-50.2 l -0.3,-48.9 -12,-0.3 c -6.6,-0.1 -12.6,0.2 -13.3,0.6 z"
     inkscape:connector-curvature="0" />
  <path
     style="fill:#000000;stroke:none"
     id="path60"
     d="m 294.47088,281.07129 c -0.4,0.4 -0.7,3.1 -0.7,6 0,3.7 -0.4,5.4 -1.5,5.8 -1.3,0.5 -1.5,5.6 -1.3,40.3 l 0.3,39.8 7,0 7,0 0,-44.5 0,-44.5 -3.9,-0.3 c -2.2,-0.2 -4.5,-1 -5.1,-1.8 -0.6,-0.8 -1.4,-1.2 -1.8,-0.8 z"
     inkscape:connector-curvature="0" />
  <path
     style="fill:#000000;stroke:none"
     id="path62"
     d="m 616.37088,281.27129 c -1.1,1.8 -0.8,97 0.3,99.1 0.6,1.1 1.1,3.8 1.1,6 0,5.8 2.9,7.5 12.9,7.6 l 7.6,0 0.3,-3.8 c 0.2,-2.2 1.3,-4.8 2.8,-6.4 l 2.4,-2.6 0,-25.4 c 0.008,-16.06663 -0.0645,-37.91936 -0.9,-53.9 -0.5,-0.5 -1.2,-4.3 -1.5,-8.4 -1,-14 0.6,-12.5 -12.8,-12.8 -6.4,-0.1 -11.9,0.1 -12.2,0.6 z"
     inkscape:connector-curvature="0"
     sodipodi:nodetypes="ccscccccccccc" />
  <path
     style="fill:#000000;stroke:none"
     id="path64"
     d="m 644.27088,282.37129 c -0.6,2 0.8,6.5 2.3,7.5 0.5,0.3 1,20.1 1.1,47.3 l 0.2,46.8 -3,2.3 c -2.4,1.7 -3,3.1 -3.3,6.4 -0.3,3.6 -0.7,4.3 -2.8,4.8 -2.2,0.5 -2.5,1.2 -2.8,6 -0.2,2.9 -1,6.3 -1.8,7.4 -2.2,3.1 -2.1,78.8 0.1,80.6 0.8,0.7 1.5,1.8 1.5,2.5 0,0.7 0.7,1.8 1.5,2.5 0.9,0.7 1.5,3.5 1.7,7.8 l 0.3,6.7 7.8,0.3 c 5,0.2 8.4,-0.1 9.3,-0.9 1.2,-1 1.4,-9.7 1.4,-53.3 l 0,-52.3 2.5,-2.3 c 1.4,-1.3 2.5,-2.8 2.5,-3.3 0,-1.2 -7,-12 -8.9,-13.5 -1.3,-1.1 -1.5,-5 -1.2,-29.6 -1.32346,-17.09831 -0.0346,-35.25509 0.1,-51.1 0,-12.6 0.3,-16.5 1.5,-18.1 0.8,-1 1.5,-2.9 1.5,-4.2 0,-2 -0.5,-2.2 -5.4,-2.2 -4.5,0 -5.6,0.3 -6.1,1.9 z"
     inkscape:connector-curvature="0"
     sodipodi:nodetypes="ccccccccccscccccsccsccccssc" />
  <path
     style="fill:#000000;stroke:none"
     id="path66"
     d="m 401.77088,282.37129 c 0,0.6 -1.9,1.1 -4.2,1.3 l -4.3,0.3 0,44.5 0,44.5 7,0 7,0 0.3,-39.8 c 0.2,-34.7 0,-39.8 -1.3,-40.3 -1.1,-0.5 -1.5,-2.1 -1.5,-6 0,-4.1 -0.4,-5.4 -1.5,-5.4 -0.8,0 -1.5,0.4 -1.5,0.9 z"
     inkscape:connector-curvature="0" />
  <path
     style="fill:#000000;stroke:none"
     id="path68"
     d="m 309.37088,284.37129 c -0.3,0.5 0.1,1.4 0.9,2.1 0.8,0.7 1.5,2.2 1.5,3.4 0,1.1 0.4,2.6 0.8,3.2 1.1,1.8 6.1,2.3 7.3,0.8 0.6,-0.8 1.8,-1.4 2.6,-1.4 1.1,0 1.3,1.7 1.1,8.7 -0.3,8.6 -0.4,8.8 -2.8,8.8 -1.5,0 -2.6,0.7 -2.8,1.8 -0.2,1.1 -1.3,1.7 -3.3,1.7 l -2.9,0 0,-9.1 c 0,-6.8 -0.3,-9 -1.2,-8.7 -1,0.4 -1.3,3.6 -1.3,11.9 l 0,11.4 40,0 40,0 0,-11.4 c 0,-8.3 -0.3,-11.5 -1.2,-11.9 -1,-0.3 -1.3,1.9 -1.3,8.7 l 0,9.1 -2.9,0 c -2,0 -3,-0.6 -3.4,-2 -0.4,-1.4 -1.2,-1.9 -2.9,-1.8 -2.2,0.3 -2.3,0.1 -2.6,-8.5 -0.2,-7.5 -0.1,-8.7 1.4,-8.7 0.9,0 1.8,0.9 2.1,2 0.4,1.4 0.9,1.7 1.7,1.1 0.6,-0.5 2.2,-1.1 3.6,-1.3 1.9,-0.2 2.6,-1 2.8,-3.3 0.2,-1.7 1,-3.7 1.8,-4.6 0.8,-0.9 1.1,-1.9 0.7,-2.2 -1,-1 -79.1,-0.8 -79.7,0.2 z m 21.2,18.9 c 0.3,9.7 0.2,10.2 -1.8,10.2 -1.9,0 -2,-0.6 -2,-10.6 0,-9.5 0.2,-10.5 1.8,-10.2 1.5,0.3 1.7,1.7 2,10.6 z m 41.2,-0.3 c 0,9.6 -0.2,10.5 -1.9,10.5 -2.5,0 -3.1,-1.9 -3.1,-9.5 0,-7.3 1.3,-11.5 3.5,-11.5 1.2,0 1.5,1.8 1.5,10.5 z"
     inkscape:connector-curvature="0" />
  <path
     style="fill:#000000;stroke:none"
     id="path70"
     d="m 12.770883,287.97129 c 0,1.1 1.7,1.5 7.3,1.7 l 7.2,0.3 0.5,53.5 c 0.5,52.1 0.6,53.5 2.4,53.5 1.4,0 2.2,-1 2.8,-3.2 0.5,-1.7 2.6,-5 4.8,-7.2 l 4,-4 0,-46.4 c 0,-43.7 -0.1,-46.5 -1.8,-48 -2.6,-2.4 -27.2,-2.5 -27.2,-0.2 z"
     inkscape:connector-curvature="0" />
  <path
     style="fill:#000000;stroke:none"
     id="path72"
     d="m 186.27088,287.67129 c -0.3,0.7 -0.4,22.2 -0.3,47.8 l 0.3,46.5 2.5,0 2.5,0 0.3,-44 c 0.2,-38.7 0.4,-44.1 1.8,-45.2 0.9,-0.6 1.4,-2.2 1.2,-3.5 -0.2,-1.9 -1,-2.4 -4.1,-2.6 -2.4,-0.2 -3.9,0.1 -4.2,1 z"
     inkscape:connector-curvature="0" />
  <path
     style="fill:#000000;stroke:none"
     id="path74"
     d="m 198.47088,287.07129 c -0.4,0.4 -0.7,2 -0.7,3.5 0,1.5 -0.4,3.1 -1,3.4 -0.6,0.4 -1,16.2 -1,44.1 0,28.3 0.3,43.4 1,43.4 0.6,0 1,-8.8 1,-24.5 l 0,-24.5 2.4,-0.6 c 1.3,-0.3 3.5,-0.4 4.7,-0.2 l 2.4,0.3 0.3,24.7 0.2,24.8 2.4,0.6 c 1.3,0.3 3.5,0.4 4.7,0.2 l 2.4,-0.3 0.5,-25 0.5,-25 8,0 8,0 0.5,25 0.5,25 5,0 5,0 0.3,-42.9 c 0.2,-35.7 0,-43.3 -1.2,-45.1 -0.8,-1.2 -1.6,-3.2 -1.8,-4.6 l -0.3,-2.4 -21.6,-0.3 c -11.8,-0.1 -21.8,0.1 -22.2,0.4 z m 38.1,15.7 c 0.0867,4.48705 0.23996,7.86247 0,11.291 -10.34377,-0.30733 -13.32419,-0.38263 -18.19963,-0.791 -1.9,-0.3 -2.1,-1 -2.4,-9.2 -0.2,-4.9 0,-9.6 0.2,-10.3 0.4,-1.1 2.8,-1.3 10.3,-1.1 l 9.8,0.3 z m -27.9,-7.9 c 1.4,1.6 1.3,15.6 -0.1,17.3 -1.1,1.4 -4.9,1.7 -8.5,0.7 -2.2,-0.6 -2.3,-1.2 -2.3,-8.9 0,-7.5 0.2,-8.3 2.3,-9.3 3.1,-1.5 7.3,-1.4 8.6,0.2 z"
     inkscape:connector-curvature="0"
     sodipodi:nodetypes="cscsssccccccccccccccccccscccccccccccccccscc" />
  <path
     style="fill:#000000;stroke:none"
     id="path76"
     d="m 246.17088,287.97129 c -0.4,0.9 0.1,2.4 1,3.4 1.4,1.5 1.6,6.8 1.8,44.7 l 0.3,42.9 2.3,0.3 c 1.3,0.2 3.1,-0.3 4.1,-1.2 1.1,-1 4.2,-1.6 9.1,-1.8 l 7.5,-0.3 0,-44.5 0,-44.5 -12.8,-0.3 c -10.8,-0.2 -12.8,0 -13.3,1.3 z"
     inkscape:connector-curvature="0" />
  <path
     style="fill:#000000;stroke:none"
     id="path78"
     d="m 426.47088,287.17129 c -0.4,0.3 -0.7,20.6 -0.7,45 l 0,44.3 7.9,0 c 5.8,0 8.2,0.4 9.1,1.5 0.7,0.8 2.5,1.5 4.1,1.5 l 2.9,0 0,-43.1 c -0.1,-38.9 0.1,-43.3 1.6,-45 0.9,-1 1.4,-2.5 1.1,-3.4 -0.5,-1.2 -2.8,-1.5 -13,-1.5 -6.8,0 -12.7,0.3 -13,0.7 z"
     inkscape:connector-curvature="0" />
  <path
     style="fill:#000000;stroke:none"
     id="path80"
     d="m 456.47088,287.17129 c -0.4,0.3 -0.7,1.6 -0.7,2.8 0,1.3 -0.7,2.8 -1.5,3.5 -1.3,1.1 -1.5,7 -1.3,44.9 l 0.3,43.6 2.9,0.3 c 1.5,0.2 3.9,0.1 5.2,-0.2 l 2.4,-0.6 0.2,-24.8 0.3,-24.7 7.7,-0.3 7.8,-0.3 0.2,25.3 0.3,25.3 4.5,0 4.5,0 0.5,-25 0.5,-25 3.3,-0.3 c 1.8,-0.2 2.46812,2.33735 4.8,0.9 0.58297,-0.35934 1.09122,49.28889 1.52148,48.98546 0.43026,-0.30344 0.78253,-0.68054 1.05355,-1.33455 0.27102,-0.65401 0.46078,-51.46293 0.56603,-52.874 0.10525,-1.41108 0.12599,-3.3023 0.0589,-5.87691 -0.23182,-8.90204 -0.4,-9.5 -2.3,-9.2 -10.6,1.8 -10.5,1.9 -10.5,-8.9 0,-8.2 0.9,-9.9 5,-9.9 4.1,0 5.9,2.7 5.4,7.9 -0.2,2.4 0.20666,11.2152 0.95554,11.83077 1.06223,0.28227 0.5445,-7.63077 0.6445,-14.83077 0,-8.8 -0.3,-10.8 -1.6,-11.3 -2.1,-0.8 -41.9,-0.8 -42.7,0.1 z m 25.8,15.8 c 0,9.4 0.0422,8.009 0.0332,10.58443 -9.62505,0.002 -14.25288,-0.0126 -17.93321,-0.28443 -1.9,-0.3 -2.1,-1 -2.4,-9.2 -0.2,-4.9 0,-9.6 0.2,-10.3 0.4,-1.1 2.8,-1.3 10.3,-1.1 l 9.8,0.3 z"
     inkscape:connector-curvature="0"
     sodipodi:nodetypes="csccccccccccccccccccsssscsscccccsccccccs" />
  <path
     style="fill:#000000;stroke:none"
     id="path82"
     d="m 504.47088,287.07129 c -1,1.1 -0.9,4.8 0.3,6 0.6,0.6 1.1,17.6 1.2,44.9 l 0.3,44 3,0 3,0 0,-47.5 0,-47.5 -3.5,-0.3 c -2,-0.2 -3.9,0 -4.3,0.4 z"
     inkscape:connector-curvature="0" />
  <path
     style="fill:#000000;stroke:none"
     id="path84"
     d="m 656.37088,294.67129 c -0.3,4.6 -0.6,25.9 -0.5,47.5 0.1,43.4 -0.4,39.9 6.7,47.4 1.3,1.3 2.6,3.7 2.9,5.2 0.4,2.1 1.1,2.7 2.5,2.5 2,-0.3 2,-1.4 1.9,-53.4 -0.2,-48.2 0,-53.2 1.4,-53.8 0.9,-0.3 4.8,-0.6 8.6,-0.6 5.5,0 6.9,-0.3 6.9,-1.5 0,-1.3 -2.3,-1.5 -14.9,-1.5 l -14.9,0 -0.6,8.2 z"
     inkscape:connector-curvature="0" />
  <path
     style="fill:#000000;stroke:none"
     id="path86"
     d="m 12.270883,293.47129 c -0.3,0.6 0.7,2.8 2.4,4.9 l 3.1,3.9 0.2,47.3 0.3,47.4 2.8,0.3 2.7,0.3 -0.2,-52.3 -0.3,-52.3 -5.2,-0.3 c -2.9,-0.2 -5.4,0.2 -5.8,0.8 z"
     inkscape:connector-curvature="0" />
  <path
     style="fill:#000000;stroke:none"
     id="path88"
     d="m 674.87088,293.87129 c -0.8,0.9 -1,15.5 -0.9,52.2 l 0.3,50.9 3,0 3,0 0.3,-47.4 0.2,-47.3 3,-3.8 c 1.7,-2.1 3,-4.3 3,-4.9 0,-1.6 -10.5,-1.4 -11.9,0.3 z"
     inkscape:connector-curvature="0" />
  <path
     style="fill:#000000;stroke:none"
     id="path90"
     d="m 693.27088,297.17129 c -1.1,0.2 -3,0.6 -4.2,0.9 -1.3,0.2 -2.3,0.9 -2.3,1.5 0,0.6 -0.7,1.7 -1.5,2.5 -1.3,1.3 -1.5,8.1 -1.5,48.5 0,41 0.2,46.9 1.5,46.9 1.5,0 1.8,-11.3 2,-77.9 0,-9.3 0.2,-10.5 2,-11.5 8,-4.5 11.7,-9.6 7.9,-11 -0.9,-0.3 -1.6,-0.5 -1.7,-0.5 -0.1,0.1 -1.1,0.3 -2.2,0.6 z"
     inkscape:connector-curvature="0" />
  <path
     style="fill:#000000;stroke:none"
     id="path92"
     d="m 0.07088318,299.17129 c -0.7,1.7 3.90000002,6.3 8.70000002,8.6 2.2999998,1.2 2.4999998,1.7 2.2999998,8.2 -0.2,3.9 -0.2,8.3 -0.2,10 0.5,57.9 0.9,71 2.1,71 1,0 1.4,-9.2 1.6,-44 0.1,-24.2 0,-45.4 -0.3,-47.1 -0.9,-5.1 -4.6999998,-8.4 -9.4999998,-8.4 -2.9,0 -4.20000002,0.5 -4.70000002,1.7 z"
     inkscape:connector-curvature="0" />
  <path
     style="fill:#000000;stroke:none"
     sodipodi:nodetypes="cccccccscscsccccsccccccssccccccccscccsccsscsssscsssscssccccccccccsscccsc"
     inkscape:connector-curvature="0"
     id="path94"
     d="m 309.67088,323.57129 c -0.6,0.3 -0.8,10.7 -0.7,25 0.3,23.9 0.3,24.4 2.4,24.7 1.1,0.2 2.7,-0.4 3.4,-1.3 1.7,-2 4.7,-1.9 5.9,0.2 0.9,1.7 1,1.7 2.8,0 2.4,-2.1 4.7,-2.2 6.3,-0.2 1,1.2 4.5,1.5 19.7,1.5 15.4,0 18.5,-0.2 18.9,-1.5 0.4,-0.8 1.7,-1.5 3,-1.5 1.4,0 2.7,0.7 3,1.5 0.4,0.8 1.2,1.5 1.9,1.5 0.7,0 1.5,-0.7 1.9,-1.5 0.7,-2 4,-1.9 5.6,0 0.7,0.9 2.3,1.5 3.4,1.3 2.1,-0.3 2.1,-0.8 2.4,-24.2 0.1,-15.9 -0.1,-24.3 -0.8,-25 -1.1,-1.1 -77.3,-1.6 -79.1,-0.5 z m 10.7,11.5 c 0.8,3.1 -1.4,5.8 -3.9,4.8 -1.7,-0.6 -2.4,-5.4 -1,-6.7 1.6,-1.6 4.3,-0.6 4.9,1.9 z m 7.99327,1 c 0.2,2.4 -0.1,3.3 -1.7,3.7 -2.4,0.6 -4.1,-1 -4.1,-3.8 0,-2.8 0.9,-3.7 3.5,-3.3 1.4,0.2 2.1,1.2 2.3,3.4 z m 45.80673,-2 c 1.6,4.2 -0.4,7.1 -3.9,5.8 -1.5,-0.6 -2.1,-5.5 -0.8,-6.7 1.2,-1.3 4.1,-0.7 4.7,0.9 z m 9.4,1.5 c 0.2,1.5 -0.4,3.1 -1.3,3.9 -2.4,2 -5,-0.9 -4.1,-4.5 0.9,-3.6 5,-3.2 5.4,0.6 z m -63,14.5 c 0.3,6.4 -1.2,9.2 -4.3,8 -1.1,-0.4 -1.5,-2.1 -1.5,-6.9 0,-7 0.4,-7.9 3.5,-7.5 1.7,0.3 2,1.1 2.3,6.4 z m 8.7,0.9 c 0,6.8 -0.1,7 -2.5,7 -2.3,0 -2.5,-0.4 -2.8,-5.9 -0.4,-7.3 0.2,-8.8 3,-8.4 2.1,0.3 2.3,0.8 2.3,7.3 z m 45,0 c 0,6.8 -0.1,7 -2.5,7 -2.3,0 -2.5,-0.4 -2.8,-5.9 -0.4,-7.3 0.2,-8.8 3,-8.4 2.1,0.3 2.3,0.8 2.3,7.3 z m 9,0 c 0,6.8 -0.1,7 -2.5,7 -2.3,0 -2.5,-0.4 -2.8,-5.9 -0.4,-7.3 0.2,-8.8 3,-8.4 2.1,0.3 2.3,0.8 2.3,7.3 z m -62.8,12.1 c 0.7,2 -2.2,4.5 -4.3,3.7 -1.4,-0.5 -1.9,-3.5 -0.7,-4.6 1.2,-1.3 4.4,-0.7 5,0.9 z m 9.1,1 c 0.3,2.2 -2,3.5 -4.5,2.7 -1.4,-0.5 -1.7,-3.5 -0.6,-4.7 1.4,-1.4 4.8,-0.1 5.1,2 z m 44.8,-1.1 c 0.9,2.2 -1.3,4.4 -3.6,3.8 -1.3,-0.3 -2,-1.4 -2,-2.9 0,-1.9 0.5,-2.4 2.5,-2.4 1.4,0 2.8,0.7 3.1,1.5 z m 9.2,1.1 c 0.4,2.7 -2.6,4 -4.6,2 -2.1,-2 -0.8,-4.8 2,-4.4 1.4,0.2 2.4,1.1 2.6,2.4 z" />
  <path
     style="fill:#000000;stroke:none"
     id="path100"
     d="m 275.77088,377.97129 c -0.9,1.1 -3.4,1.5 -9.5,1.5 -6.1,0 -8.6,0.4 -9.5,1.5 -0.7,0.8 -2.1,1.5 -3.1,1.5 -1.6,0 -1.9,0.8 -1.9,5.4 0,3.5 -0.5,5.8 -1.5,6.6 -2,1.7 -2,9 0,9 1,0 1.5,1.5 1.7,5.7 l 0.3,5.8 6.9,0.3 c 5.6,0.2 7,0 8.1,-1.5 1.3,-1.7 5.5,-1.8 81.4,-1.8 74.1,0.1 80.1,0.2 81.9,1.8 1.4,1.3 3.7,1.7 9,1.7 l 7.2,0 0,-5.5 c 0,-4 0.4,-5.7 1.5,-6.1 1,-0.4 1.5,-2 1.5,-4.9 0,-2.9 -0.5,-4.5 -1.5,-4.9 -1.1,-0.4 -1.5,-2.1 -1.5,-6.1 0,-4.7 -0.3,-5.5 -1.9,-5.5 -1,0 -2.4,-0.7 -3.1,-1.5 -0.9,-1.1 -3.3,-1.5 -8.9,-1.5 -5.1,-0.1 -8.2,-0.5 -9.5,-1.5 -3,-2.3 -145.7,-2.2 -147.6,0 z"
     inkscape:connector-curvature="0" />
  <path
     style="fill:#000000;stroke:none"
     id="path102"
     d="m 186.47088,386.07129 c -0.4,0.4 -0.1,1.4 0.6,2.2 0.6,0.8 1.4,4 1.7,7.1 l 0.5,5.6 23.5,0.3 c 28.4,0.4 32,0 32,-3.2 0,-1.3 0.9,-3.5 2.1,-5 1.1,-1.4 1.9,-3.6 1.7,-4.8 l -0.3,-2.3 -30.6,-0.3 c -16.8,-0.1 -30.8,0.1 -31.2,0.4 z"
     inkscape:connector-curvature="0" />
  <path
     style="fill:#000000;stroke:none"
     id="path104"
     d="m 450.47088,386.17129 c -1.1,1.1 -0.8,4.3 0.7,7.1 0.8,1.5 1.7,3.9 2.1,5.5 l 0.5,2.7 27.8,-0.2 27.7,-0.3 0.3,-5.5 c 0.2,-3 1,-6.2 1.8,-7.1 0.8,-0.8 1.1,-1.9 0.7,-2.2 -0.8,-0.9 -60.8,-0.9 -61.6,0 z"
     inkscape:connector-curvature="0" />
  <path
     style="fill:#000000;stroke:none"
     id="path106"
     d="m 81.770883,395.57129 c -1.9,0.5 -6.2,1.3 -9.5,1.7 l -6,0.7 -0.3,4.3 c -0.2,2.7 0.3,5.3 1.2,6.7 1.4,2.1 1.6,7.8 1.6,41.9 l 0,39.6 -3,4.8 c -2.4,4 -3,6 -3,10.6 l 0,5.7 5.8,-0.3 5.7,-0.3 0.2,-34 c 0.2,-26.7 0.6,-34.6 1.7,-37 0.8,-1.7 2.2,-4.8 3.3,-7 2.868556,-6.12121 8.59453,-11.1024 13.3,-14.2 6.01458,-4.14107 10.108197,-3.7 16.699997,-3.7 12.99888,0.80448 15.39608,2.00504 23.8,9.1 5.39448,5.09147 6.21896,8.3272 8.9,13.1 3.8,7.4 4.6,15.3 4.6,44.5 0,31 -0.1,30.4 5.7,28.8 2.6,-0.7 2.8,-1.1 3.1,-6.5 0.2,-4 -0.2,-6.5 -1.2,-8.2 -1.4,-2 -1.6,-8.1 -1.6,-45.2 0,-37.6 0.2,-43.1 1.6,-44.2 1,-0.9 1.4,-2.6 1.2,-4.9 l -0.3,-3.6 -8.5,-0.3 c -4.7,-0.1 -9.8,-0.7 -11.5,-1.3 -4,-1.5 -48.899997,-2.1 -53.499997,-0.8 z"
     inkscape:connector-curvature="0"
     sodipodi:nodetypes="cccccsccsccccccccccscccscccccc" />
  <path
     style="fill:#000000;stroke:none"
     id="path108"
     d="m 566.77088,395.57129 c -2.5,0.5 -8.8,1.3 -14,1.7 l -9.5,0.7 -0.3,3.6 c -0.2,2.3 0.2,4 1.2,4.9 1.4,1.1 1.6,6.6 1.6,43.7 0,36.6 -0.2,42.7 -1.5,44.7 -1.2,1.7 -1.5,4.3 -1.3,9.2 l 0.3,6.9 4,0 4,0 0.5,-31.5 c 0.4,-22.1 0.9,-32.3 1.8,-34.3 0.6,-1.6 0.1334,-2.40675 1.2,-5.1 2.85683,-11.02534 14.12994,-20.20907 19.7,-23 3.93996,-1.35779 6.7,-1.9 14.2,-1.9 10.9,0.1 15.41557,2.31107 21.8,7.1 6.91841,5.43768 10.45453,12.05122 11.8,19.2 1.2,2 1.4,8.9 1.5,36.2 l 0,33.8 5.9,0 5.8,0 0.5,-5 c 0.6,-5.8 0,-10 -1.4,-10 -0.5,0 -1.8,-1 -2.9,-2.3 -1.7,-2.1 -1.8,-4.6 -1.9,-43.3 0,-36 0.2,-41.3 1.5,-42.4 1.1,-0.9 1.5,-2.7 1.3,-5.9 l -0.3,-4.6 -5.5,-0.6 c -3,-0.4 -7.1,-1.1 -9,-1.8 -4.2,-1.3 -44.2,-1.3 -51,0 z"
     inkscape:connector-curvature="0"
     sodipodi:nodetypes="cccccscccccccccccccccccscccccccc" />
  <path
     style="fill:#000000;stroke:none"
     id="path110"
     d="m 666.57088,402.17129 c -0.6,0.7 -1.6,1.3 -2.3,1.3 -0.7,0 -1.5,1 -1.9,2.2 -0.3,1.3 -0.6,25.1 -0.6,52.9 0,42.1 0.2,50.9 1.4,51.8 0.9,0.8 5.1,1.1 12.2,0.9 l 10.9,-0.3 0.5,-51.5 c 0.3,-28.3 0.6,-51.6 0.8,-51.7 0.1,-0.1 1.2,-0.3 2.5,-0.5 2.5,-0.3 3.7,-4.5 1.5,-5.3 -0.7,-0.2 -6.4,-0.6 -12.6,-0.7 -8.2,-0.2 -11.7,0.1 -12.4,0.9 z"
     inkscape:connector-curvature="0" />
  <path
     style="fill:#000000;stroke:none"
     id="path112"
     d="m 6.1708832,402.97129 c -0.9,2.3 0.3,4.5 2.6,4.5 1.1,0 2.0999998,0.1 2.1999998,0.2 0.2,0.2 0.5,23.4 0.8,51.7 l 0.5,51.4 11.5,0 11.5,-0.1 0.3,-52.8 0.2,-52.9 -2.2,-1.7 c -3.2,-2.4 -26.4999998,-2.7 -27.3999998,-0.3 z"
     inkscape:connector-curvature="0" />
  <path
     style="fill:#000000;stroke:none"
     id="path114"
     d="m 450.47088,404.07129 c -0.4,0.4 -0.7,3.8 -0.7,7.6 l 0,6.8 31.3,-0.2 31.2,-0.3 0.3,-5.3 c 0.3,-4.8 0.1,-5.3 -2.3,-6.2 -1.5,-0.6 -14.2,-1 -29.9,-1 -17.1,0 -27.6,-0.4 -28.2,-1 -0.6,-0.6 -1.3,-0.7 -1.7,-0.4 z"
     inkscape:connector-curvature="0" />
  <path
     style="fill:#000000;stroke:none"
     id="path116"
     d="m 242.77088,405.37129 c -1.9,0.4 -14.3,0.5 -27.5,0.3 -15.9,-0.3 -24.9,0 -26.8,0.7 -2.6,1 -2.8,1.4 -2.5,6.3 l 0.3,5.3 31,0 31,0 0.3,-4.4 c 0.4,-4.8 -0.4,-9.2 -1.6,-9 -0.4,0.1 -2.3,0.5 -4.2,0.8 z"
     inkscape:connector-curvature="0" />
  <path
     style="fill:#000000;stroke:none"
     id="path118"
     d="m 270.47088,416.07129 c -1.2,1.2 -0.8,4.1 0.8,5.4 2.3,1.9 2.3,79.1 -0.1,81 -1,0.9 -1.4,2.6 -1.2,4.9 0.3,3.5 0.4,3.6 4.3,3.6 3.9,0 4,-0.1 4.3,-3.6 0.2,-2.3 -0.2,-4 -1.2,-4.9 -1.4,-1.1 -1.6,-6.3 -1.6,-40.5 0,-34.2 0.2,-39.4 1.5,-40.5 0.9,-0.7 1.5,-2.3 1.3,-3.4 -0.2,-1.6 -1.1,-2.2 -3.8,-2.4 -2,-0.2 -3.9,0 -4.3,0.4 z"
     inkscape:connector-curvature="0" />
  <path
     style="fill:#000000;stroke:none"
     id="path120"
     d="m 282.47088,416.07129 c -0.4,0.4 -0.7,2.2 -0.7,3.9 0,1.8 -0.7,3.8 -1.5,4.5 -1.3,1.1 -1.5,6.5 -1.5,37.2 l 0,36 2.8,2.9 c 1.5,1.7 2.9,4.4 3.2,6.6 l 0.5,3.6 12,0 c 13.3,-0.1 14.5,-0.7 14.5,-6.9 0,-1.7 0.7,-3.7 1.5,-4.4 2.2,-1.8 2.3,-73.1 0.1,-75 -0.8,-0.6 -1.6,-2.8 -1.8,-4.8 l -0.3,-3.7 -14.1,-0.3 c -7.7,-0.1 -14.3,0.1 -14.7,0.4 z"
     inkscape:connector-curvature="0" />
  <path
     style="fill:#000000;stroke:none"
     id="path122"
     d="m 315.47088,416.07129 c -1.2,1.2 -0.8,4.1 0.8,5.4 2.3,1.9 2.3,79.1 -0.1,81 -1,0.9 -1.4,2.6 -1.2,4.9 0.3,3.5 0.4,3.6 4.3,3.6 3.9,0 4,-0.1 4.3,-3.6 0.2,-2.3 -0.2,-4 -1.2,-4.9 -1.4,-1.1 -1.6,-6.3 -1.6,-40.5 0,-34.2 0.2,-39.4 1.5,-40.5 0.9,-0.7 1.5,-2.3 1.3,-3.4 -0.2,-1.6 -1.1,-2.2 -3.8,-2.4 -2,-0.2 -3.9,0 -4.3,0.4 z"
     inkscape:connector-curvature="0" />
  <path
     style="fill:#000000;stroke:none"
     id="path124"
     d="m 327.47088,416.07129 c -0.4,0.4 -0.7,2.4 -0.7,4.5 0,2.3 -0.5,3.9 -1.5,4.3 -1.3,0.5 -1.5,5.5 -1.5,36.9 0,31.2 0.2,36.6 1.5,37.7 0.8,0.7 1.5,2.9 1.5,5 0,2.1 0.7,4.3 1.5,5 1,0.8 7.4,1.2 22.2,1.3 l 20.8,0 0.3,-5.4 c 0.2,-3.4 0.9,-5.7 1.8,-6.2 2.1,-1.2 2.1,-72.9 0,-74.7 -0.8,-0.6 -1.6,-2.8 -1.8,-4.8 l -0.3,-3.7 -21.6,-0.3 c -11.8,-0.1 -21.8,0.1 -22.2,0.4 z"
     inkscape:connector-curvature="0" />
  <path
     style="fill:#000000;stroke:none"
     id="path126"
     d="m 375.47088,416.07129 c -1.2,1.2 -0.8,4.1 0.8,5.4 2.3,1.9 2.3,79.1 -0.1,81 -1,0.9 -1.4,2.6 -1.2,4.9 0.3,3.5 0.4,3.6 4.3,3.6 3.9,0 4,-0.1 4.3,-3.6 0.2,-2.3 -0.2,-4 -1.2,-4.9 -1.4,-1.1 -1.6,-6.3 -1.6,-40.5 0,-34.2 0.2,-39.4 1.5,-40.5 0.9,-0.7 1.5,-2.3 1.3,-3.4 -0.2,-1.6 -1.1,-2.2 -3.8,-2.4 -2,-0.2 -3.9,0 -4.3,0.4 z"
     inkscape:connector-curvature="0" />
  <path
     style="fill:#000000;stroke:none"
     id="path128"
     d="m 387.47088,416.07129 c -0.4,0.4 -0.7,2.2 -0.7,3.9 0,1.8 -0.7,3.8 -1.5,4.5 -2.2,1.8 -2.3,73.1 0,75 0.8,0.6 1.5,3.4 1.7,6.3 l 0.3,5.1 14.5,0 14.5,0 0.3,-5.1 c 0.2,-2.9 0.9,-5.7 1.7,-6.3 2.2,-1.8 2.2,-73.2 0.1,-75 -0.8,-0.6 -1.6,-2.8 -1.8,-4.8 l -0.3,-3.7 -14.1,-0.3 c -7.7,-0.1 -14.3,0.1 -14.7,0.4 z"
     inkscape:connector-curvature="0" />
  <path
     style="fill:#000000;stroke:none"
     id="path130"
     d="m 420.47088,416.17129 c -1.2,1.1 -0.8,4 0.8,5.3 2.3,1.9 2.3,79.1 -0.1,81 -1,0.9 -1.4,2.6 -1.2,4.9 0.3,3.5 0.5,3.6 4.6,3.9 l 4.2,0.3 0,-3.9 c 0,-2.3 -0.6,-4.5 -1.5,-5.2 -1.3,-1.1 -1.5,-6.8 -1.5,-40.5 0,-33.7 0.2,-39.4 1.5,-40.5 0.8,-0.7 1.5,-2.3 1.5,-3.6 0,-2.1 -0.5,-2.4 -3.8,-2.4 -2.1,0 -4.2,0.3 -4.5,0.7 z"
     inkscape:connector-curvature="0" />
  <path
     style="fill:#000000;stroke:none"
     id="path132"
     d="m 96.870883,420.67129 c -8.50476,4.99849 -13.963758,11.65837 -17,20.2 -2,6 -2.1,7.8 -1.9,38.2 l 0.3,31.9 3.4,0 c 6.1,0 6.1,0.2 6.1,-30.8 0,-30.5 0.3,-32.4 5.5,-39.3 3.8,-5.1 6,-6.6 11.499997,-8.1 9.4,-2.6 18.9,2.2 24.3,12.2 2.1,3.8 2.2,5.6 2.7,35 l 0.5,30.9 3.8,0.1 c 2,0.1 4.1,-0.3 4.7,-1 1.1,-1.3 1.5,-54.4 0.5,-62.5 -1.57183,-8.63712 -6.8328,-18.60574 -12.7,-23.2 -7,-4.9 -9.9,-5.8 -18.8,-5.7 -6.3,0 -9.7,0.6 -12.899997,2.1 z"
     inkscape:connector-curvature="0"
     sodipodi:nodetypes="ccccssccccccccccc" />
  <path
     style="fill:#000000;stroke:none"
     id="path134"
     d="m 252.17088,419.57129 c -1.2,2.1 -0.6,7.2 1,8.1 1.4,0.8 1.6,5.5 1.6,38.9 0,32.8 -0.2,38 -1.5,38.5 -0.9,0.4 -1.5,1.9 -1.5,3.5 0,2.8 0.2,2.9 4.5,2.9 4.3,0 4.5,-0.1 4.5,-2.9 0,-1.6 -0.6,-3.1 -1.5,-3.5 -1.3,-0.5 -1.5,-5.7 -1.5,-38.6 0,-32.9 0.2,-38.1 1.5,-38.6 1,-0.4 1.5,-2 1.5,-5 l 0,-4.4 -3.9,0 c -2.2,0 -4.3,0.5 -4.7,1.1 z"
     inkscape:connector-curvature="0" />
  <path
     style="fill:#000000;stroke:none"
     id="path136"
     d="m 437.27088,419.47129 c -0.9,1.5 0.5,7.8 2.1,9.1 2.1,1.7 1.9,75.8 -0.2,76.6 -0.8,0.3 -1.4,1.8 -1.4,3.4 0,2.8 0.2,2.9 4.5,2.9 4.3,0 4.5,-0.1 4.5,-2.9 0,-1.6 -0.6,-3.1 -1.5,-3.5 -1.3,-0.5 -1.5,-5.7 -1.5,-38.6 0,-32.9 0.2,-38.1 1.5,-38.6 1,-0.4 1.5,-2 1.5,-5 l 0,-4.4 -4.4,0 c -2.5,0 -4.8,0.4 -5.1,1 z"
     inkscape:connector-curvature="0" />
  <path
     style="fill:#000000;stroke:none"
     id="path138"
     d="m 573.57088,421.77129 c -7.7,4.3 -14.5,13.7 -16.4,22.7 -0.4,1.9 -0.9,17.5 -1.1,34.7 l -0.4,31.2 3.5,0.6 c 7.6,1.5 7,3.6 7.6,-31.5 0.6,-35.2 0.4,-34.5 8.2,-42 3,-3 4.9,-4 8.8,-4.5 10.3,-1.4 17.5,1.7 22.9,10 l 2.6,4 0.5,31.3 c 0.6,34.5 0.3,33.5 7,33 l 3.5,-0.3 0,-33 c 0,-33 -0.2,-35.6 -3.6,-41.5 -0.5,-0.8 -1.3,-2.4 -1.8,-3.5 -1.5,-3.6 -9.2,-10.4 -13.9,-12.5 -3.4,-1.5 -6.6,-2 -13.1,-2 -7.8,0.1 -9.1,0.4 -14.3,3.3 z"
     inkscape:connector-curvature="0" />
  <path
     style="fill:#000000;stroke:none"
     id="path140"
     d="m 264.87088,423.07129 c -0.1,1.6 -0.8,3.9 -1.6,5 -1.2,1.6 -1.4,7.9 -1.5,38.7 0,35.1 0.1,37 2,39.4 l 1.9,2.5 0.6,-2.9 c 0.4,-1.5 1.3,-4 2.1,-5.5 1.1,-2.1 1.4,-9.3 1.4,-38.7 0,-32.1 -0.2,-36.2 -1.6,-36.8 -0.9,-0.3 -2,-1.5 -2.4,-2.7 -0.8,-1.8 -0.9,-1.7 -0.9,1 z"
     inkscape:connector-curvature="0" />
  <path
     style="fill:#000000;stroke:none"
     id="path142"
     d="m 191.77088,424.27129 c 0,1.7 0.6,3.2 1.5,3.6 1.3,0.5 1.5,5.7 1.5,38.6 0,32.9 -0.2,38.1 -1.5,38.6 -0.9,0.4 -1.5,1.9 -1.5,3.5 0,2.8 0.2,2.9 4.5,2.9 4.3,0 4.5,-0.1 4.5,-2.9 0,-1.6 -0.6,-3.1 -1.5,-3.5 -1.3,-0.5 -1.5,-5.7 -1.5,-38.5 0,-33.7 0.2,-38.1 1.6,-38.9 0.9,-0.5 1.4,-1.8 1.2,-3.3 -0.2,-2 -0.9,-2.4 -4.5,-2.7 -4.2,-0.3 -4.3,-0.2 -4.3,2.6 z"
     inkscape:connector-curvature="0" />
  <path
     style="fill:#000000;stroke:none"
     id="path144"
     d="m 207.27088,422.27129 c -0.6,0.4 -2,2.5 -3.1,4.7 -2.1,3.9 -2.2,5.3 -2.3,39.7 l -0.2,35.7 2.6,4.1 c 1.4,2.2 2.9,4 3.3,4 0.4,0 5,0.1 10.2,0.2 9.2,0.2 9.5,0.1 9.8,-2 0.2,-1.3 1,-2.6 1.8,-2.9 2.1,-0.8 2.1,-76.5 0,-78.3 -0.8,-0.6 -1.6,-2.1 -1.8,-3.3 -0.3,-2.1 -0.9,-2.2 -9.8,-2.4 -5.2,-0.1 -10,0.1 -10.5,0.5 z"
     inkscape:connector-curvature="0" />
  <path
     style="fill:#000000;stroke:none"
     id="path146"
     d="m 232.37088,422.27129 c -0.3,0.6 0.1,2.3 0.9,3.8 1.2,2.4 1.5,9.2 1.5,41.1 0,37 -0.1,38.4 -2,40.3 -3.3,3.3 -2.5,4.1 3.8,3.8 5.4,-0.3 5.7,-0.4 6,-3 0.2,-2 -0.1,-2.8 -1.2,-2.8 -1.4,0 -1.6,-4.3 -1.6,-39 0,-34.7 0.2,-39 1.6,-39 1.1,0 1.4,-0.8 1.2,-2.8 -0.3,-2.5 -0.7,-2.7 -5,-3 -2.5,-0.2 -4.9,0.1 -5.2,0.6 z"
     inkscape:connector-curvature="0" />
  <path
     style="fill:#000000;stroke:none"
     id="path148"
     d="m 455.77088,424.37129 c 0,1.6 0.6,3.1 1.5,3.5 1.3,0.5 1.5,5.7 1.5,39.1 0,33.6 -0.2,38.5 -1.5,38.5 -1,0 -1.5,1 -1.5,3 0,2.9 0.2,3 4.4,3 5.4,0 6.2,-1 4.2,-5.2 -1.4,-2.6 -1.6,-8.5 -1.6,-39.9 0,-35.2 0.1,-36.9 2,-40.2 2.4,-4 1.7,-4.7 -5.1,-4.7 -3.6,0 -3.9,0.2 -3.9,2.9 z"
     inkscape:connector-curvature="0" />
  <path
     style="fill:#000000;stroke:none"
     id="path150"
     d="m 471.47088,422.17129 c -0.4,0.3 -0.7,1.4 -0.7,2.4 0,1 -0.8,2.2 -1.7,2.8 -1.7,0.9 -1.8,3.9 -2,37.9 l -0.2,37 2.4,4.3 2.3,4.4 9.6,0.2 9.7,0.1 2.4,-3.9 2.5,-3.9 0,-36.8 c 0,-30.8 -0.2,-37.1 -1.5,-38.8 -0.8,-1 -1.5,-2.6 -1.5,-3.5 0,-0.9 -0.7,-2 -1.6,-2.3 -2.1,-0.8 -18.9,-0.8 -19.7,0.1 z"
     inkscape:connector-curvature="0" />
  <path
     style="fill:#000000;stroke:none"
     id="path152"
     d="m 497.27088,422.47129 c -0.4,0.6 0.1,2.4 0.9,4.2 2.3,4.5 2.4,76.1 0.2,80.4 -2,3.7 -1.3,4.4 4,4.4 4.2,0 4.4,-0.1 4.4,-2.9 0,-1.6 -0.6,-3.1 -1.5,-3.5 -1.3,-0.5 -1.5,-5.7 -1.5,-38.6 0,-32.9 0.2,-38.1 1.5,-38.6 0.9,-0.4 1.5,-1.9 1.5,-3.5 0,-2.8 -0.2,-2.9 -4.4,-2.9 -2.5,0 -4.8,0.5 -5.1,1 z"
     inkscape:connector-curvature="0" />
  <path
     style="fill:#000000;stroke:none"
     id="path154"
     d="m 509.77088,423.97129 c 0,1.4 -0.7,2.8 -1.5,3.1 -1.3,0.5 -1.5,5.9 -1.5,39.5 0,33.9 0.2,38.9 1.5,38.9 1.2,0 1.5,-1.5 1.5,-7.8 0,-5.3 0.5,-8.4 1.5,-9.8 2.2,-2.9 2.2,-66.4 0,-66.4 -0.9,0 -1.5,0.9 -1.5,2.5 z"
     inkscape:connector-curvature="0" />
  <path
     style="fill:#000000;stroke:none"
     id="path156"
     d="m 429.47088,424.17129 c -0.4,0.3 -0.7,17.3 -0.7,37.7 0,29.6 0.3,37.6 1.4,39.1 0.7,1.1 1.6,3.3 2,5 l 0.8,3 1.9,-3.7 c 1.8,-3.4 1.9,-6 1.6,-39.5 -0.2,-35.7 -0.2,-35.8 -2.5,-39.1 -2.3,-3.2 -3.3,-3.8 -4.5,-2.5 z"
     inkscape:connector-curvature="0" />
  <path
     style="fill:#000000;stroke:none"
     id="path158"
     d="m 245.77088,427.27129 c -0.8,0.3 -1.8,1 -2.2,1.6 -0.4,0.6 -0.8,17.7 -0.8,38 l 0,36.9 2.4,2.2 2.3,2.2 1.7,-3.1 c 1.5,-2.8 1.6,-7.1 1.4,-39.3 -0.3,-30.7 -0.5,-36.4 -1.8,-37.6 -0.8,-0.8 -2.2,-1.2 -3,-0.9 z"
     inkscape:connector-curvature="0" />
  <path
     style="fill:#000000;stroke:none"
     id="path160"
     d="m 449.57088,427.57129 c -1.7,0.9 -1.8,3.8 -1.8,38.4 0,35.7 0.1,37.6 2,40.7 1.1,1.8 2,2.8 2,2.2 0,-0.6 0.9,-2.1 2,-3.4 1.9,-2.2 2,-3.7 2,-38.4 0,-31.1 -0.2,-36.5 -1.6,-38.4 -1.7,-2.5 -2.2,-2.6 -4.6,-1.1 z"
     inkscape:connector-curvature="0" />
</svg>
