<svg width="44" height="28" viewBox="0 0 44 28" fill="none" xmlns="http://www.w3.org/2000/svg">
<g clip-path="url(#clip0_23_360)">
<path d="M21.3316 0.131341C21.3316 0.202484 21.3757 0.290044 21.4261 0.328352C21.4764 0.36666 21.5205 0.45422 21.5205 0.51989C21.5205 0.591033 21.5646 0.656704 21.615 0.678594C21.6905 0.700484 21.7094 0.837297 21.7094 1.3955C21.7094 1.95369 21.6905 2.09051 21.615 2.1124C21.5583 2.13429 21.5205 2.21638 21.5205 2.30941C21.5205 2.51189 21.3694 2.49 21.3442 2.28205C21.3316 2.19996 21.2812 2.13429 21.2309 2.13429C21.1553 2.13429 21.1427 2.28752 21.1427 3.03725V3.94022H21.9928H22.8428V3.03725C22.8428 2.2711 22.8302 2.13429 22.7484 2.13429C22.6854 2.13429 22.6539 2.18901 22.6539 2.29846C22.6539 2.40791 22.6224 2.46264 22.5595 2.46264C22.4965 2.46264 22.465 2.40791 22.465 2.30394C22.465 2.21637 22.4272 2.13429 22.3706 2.1124C22.295 2.09051 22.2761 1.95917 22.2761 1.40644C22.2761 0.86466 22.295 0.711429 22.3706 0.656704C22.4209 0.618396 22.465 0.547253 22.465 0.492528C22.465 0.437802 22.5091 0.36666 22.5595 0.328352C22.6728 0.246264 22.6854 0 22.5784 0C22.5343 0 22.4398 0.0766154 22.3706 0.164176C22.2069 0.377605 22.0872 0.377605 22.0872 0.164176C22.0872 0.0547253 22.0557 0 21.9928 0C21.9298 0 21.8983 0.0547253 21.8983 0.164176C21.8983 0.377605 21.7787 0.377605 21.615 0.164176C21.4638 -0.0328352 21.3316 -0.0492528 21.3316 0.131341Z" fill="#BA8B61"/>
<path d="M20.8593 4.27831C20.7019 4.4206 20.6326 4.44249 20.3493 4.44249C20.1163 4.44249 20.0093 4.46438 19.9841 4.52458C19.9652 4.57383 19.8644 4.60666 19.7448 4.60666C19.6315 4.61214 19.4677 4.64497 19.3796 4.68875C19.2914 4.73253 19.1718 4.76537 19.1088 4.77084C18.9199 4.77084 18.1265 5.14297 17.6795 5.42754C16.9868 5.87629 16.1116 6.75737 15.8597 7.27178C15.8219 7.33198 15.7652 7.40313 15.7337 7.42502C15.696 7.44143 15.6645 7.51258 15.6645 7.57277C15.6645 7.63844 15.6204 7.73148 15.5637 7.7862C15.4126 7.93396 15.4945 8.05436 15.7526 8.05436C15.9478 8.05436 15.9856 8.03247 16.1179 7.79168C16.2501 7.56183 16.2879 7.53447 16.4957 7.51805C16.716 7.50163 16.7349 7.51258 16.8924 7.77526C17.0183 7.99963 17.0813 8.05436 17.2072 8.05436C17.3394 8.05436 17.3646 8.02699 17.3646 7.89018C17.3646 7.73695 17.3835 7.726 17.5787 7.726C17.6983 7.726 17.8369 7.6877 17.8935 7.64392C17.9439 7.60014 18.0447 7.56183 18.1139 7.56183C18.2776 7.56183 18.328 7.47974 18.2147 7.39765C18.1643 7.35935 18.1202 7.28273 18.1202 7.22801C18.1202 7.17328 18.0887 7.11308 18.051 7.09666C17.9502 7.03647 17.8747 6.81757 17.9124 6.6917C17.9628 6.52205 18.2147 6.54394 18.5232 6.75189C18.8695 6.99269 19.027 7.16781 19.0647 7.36482C19.0899 7.49616 19.134 7.53994 19.2536 7.55088C19.3418 7.56183 19.4363 7.60561 19.4614 7.64939C19.4929 7.69864 19.6252 7.726 19.8518 7.726C20.173 7.726 20.1919 7.73148 20.2108 7.87376C20.2233 7.99416 20.2611 8.02699 20.3871 8.02699C20.5067 8.02699 20.5508 7.99416 20.576 7.85735C20.6389 7.60561 20.6893 7.56183 20.916 7.56183C21.149 7.56183 21.256 7.64392 21.3253 7.86829C21.3694 8.01605 21.3694 8.01605 21.9361 8.01605C22.5657 8.01605 22.6539 7.99416 22.6539 7.81357C22.6539 7.64392 22.7672 7.56183 23.0065 7.56183C23.2269 7.56183 23.3339 7.64392 23.4032 7.87376C23.4662 8.08172 23.7306 8.09266 23.7873 7.89018C23.8188 7.76979 23.8629 7.75337 24.1336 7.73695C24.3288 7.726 24.48 7.6877 24.524 7.63297C24.5681 7.58372 24.6626 7.54541 24.7444 7.53994C24.8641 7.53447 24.8955 7.49616 24.9081 7.34293C24.927 7.14592 25.0593 7.01458 25.5189 6.70811C25.7834 6.53847 26.0164 6.54941 26.0416 6.73548C26.0667 6.86135 25.9156 7.17328 25.7519 7.35387C25.6386 7.4688 25.7015 7.56183 25.8967 7.56183C25.9723 7.56183 26.0542 7.60014 26.0793 7.64392C26.0982 7.69864 26.199 7.726 26.369 7.726C26.6083 7.726 26.6209 7.73695 26.6209 7.89018C26.6209 8.02699 26.6461 8.05436 26.7783 8.05436C26.8979 8.05436 26.9546 8.0051 27.0553 7.80809C27.2568 7.4086 27.6346 7.39765 27.8487 7.79168C27.9621 7.99963 28.0062 8.02699 28.2139 8.04341C28.491 8.0653 28.5855 7.94491 28.4217 7.7862C28.3651 7.73148 28.321 7.64939 28.321 7.60014C28.321 7.55088 28.2958 7.50163 28.2643 7.48521C28.2328 7.4688 28.1321 7.32651 28.0376 7.16781C27.7039 6.60414 27.0302 5.90913 26.4194 5.50416C26.2242 5.37282 26.0479 5.26337 26.029 5.26337C26.0101 5.26337 25.8715 5.18675 25.7204 5.09919C25.563 5.00616 25.4056 4.93502 25.3615 4.93502C25.3174 4.93502 25.2104 4.90218 25.1222 4.8584C24.8704 4.74895 24.3414 4.60666 24.1777 4.60666C24.1022 4.60666 24.0203 4.56836 24.0014 4.52458C23.9762 4.46438 23.8692 4.44249 23.6362 4.44249C23.3528 4.44249 23.2836 4.4206 23.1262 4.27831L22.9436 4.11414H21.9927H21.0419L20.8593 4.27831Z" fill="#BA8B61"/>
<path d="M18.1517 6.7077C18.1265 6.73506 18.1517 6.80621 18.2084 6.86093C18.265 6.91566 18.3091 6.99774 18.3091 7.047C18.3091 7.09625 18.3532 7.15645 18.4099 7.18381C18.5673 7.26043 18.5043 7.59972 18.328 7.62161C18.2525 7.63256 18.158 7.67634 18.1202 7.72012C18.0761 7.7639 17.9439 7.79673 17.8243 7.79673C17.692 7.79673 17.5976 7.82957 17.5787 7.87882C17.5535 7.9226 17.5031 7.96091 17.4528 7.96091C17.3835 7.96091 17.3646 8.05394 17.3646 8.33304C17.3646 8.67781 17.3772 8.71612 17.5535 8.83651C17.755 8.98427 17.8117 9.24148 17.648 9.29621C17.5913 9.31263 17.5535 9.39471 17.5535 9.51511C17.5535 9.68476 17.478 9.76684 16.949 10.2265C16.6216 10.5166 16.3256 10.7519 16.2879 10.7519C16.1493 10.7519 16.269 10.6151 16.7979 10.1609C17.3016 9.72306 17.3646 9.65192 17.3646 9.47133C17.3646 9.33452 17.3898 9.27432 17.4591 9.27432C17.6228 9.27432 17.5661 9.03353 17.3646 8.89124C17.2072 8.77084 17.182 8.71612 17.1757 8.46438C17.1757 8.20717 17.1568 8.16887 17.0183 8.12509C16.9301 8.09772 16.842 8.02658 16.8168 7.97733C16.7979 7.9226 16.7223 7.8241 16.6531 7.75295L16.5208 7.63256L16.376 7.75295C16.2942 7.81862 16.2312 7.92808 16.2312 7.99922V8.13056L15.4 8.11414L14.5625 8.09772L14.5311 7.79673L14.4996 7.49574L14.2603 7.47933C14.1218 7.46838 14.0021 7.4246 13.9832 7.38082C13.9392 7.27684 13.8636 7.28232 13.7125 7.41366C13.6117 7.50122 13.5865 7.59425 13.5865 7.87335C13.5865 8.11414 13.5551 8.24001 13.4921 8.28926C13.4228 8.33851 13.3976 8.53005 13.385 9.15392C13.3662 9.82157 13.3473 9.95838 13.2717 9.96386C12.3524 10.0569 11.6408 10.232 10.9923 10.5166C10.9041 10.5549 10.7908 10.5877 10.7404 10.5877C10.69 10.5877 10.5893 10.6479 10.5074 10.7136L10.3689 10.8449L10.6082 10.9817C10.7908 11.0912 10.9041 11.1186 11.0741 11.0967C11.2064 11.0803 11.326 11.0967 11.3449 11.1295C11.3701 11.1623 11.4393 11.1897 11.5023 11.1897C11.5653 11.1897 11.6723 11.2444 11.7479 11.3156C11.8549 11.4141 11.8864 11.5181 11.899 11.9011L11.9179 12.3663H13.5865H15.2552V12.2295C15.2552 12.1091 15.2237 12.0872 15.0033 12.0653L14.7514 12.0379L14.7326 10.9489C14.72 9.89271 14.72 9.85441 14.8585 9.72854C15.0474 9.55342 15.5889 9.54794 15.8597 9.72307L16.0486 9.84893L16.0297 10.3524C16.0171 10.8012 16.0234 10.8668 16.1367 10.9434C16.2627 11.0255 16.2564 11.031 16.0612 11.1788C15.9478 11.2663 15.8534 11.3703 15.8534 11.4195C15.8534 11.4688 15.8093 11.5345 15.7589 11.5728C15.7086 11.6111 15.6645 11.6822 15.6645 11.737C15.6645 11.7917 15.6204 11.8628 15.57 11.9011C15.5071 11.9449 15.4756 12.0708 15.4756 12.2623V12.5578L13.6999 12.5688L11.9179 12.5852L11.899 12.8752C11.8864 13.0941 11.9053 13.1708 11.9746 13.1926C12.0501 13.22 12.0753 13.3076 12.0753 13.5429C12.0753 13.8548 12.069 13.8658 11.9053 13.8822C11.7731 13.8931 11.7227 13.9314 11.7101 14.0354C11.6975 14.1066 11.6471 14.1941 11.5905 14.227C11.5275 14.2707 11.5086 14.3747 11.5212 14.6374L11.5401 14.9931L14.2477 15.0041C15.74 15.015 16.9931 14.9986 17.0372 14.9712C17.0938 14.9439 17.1442 14.7304 17.1757 14.3857C17.2387 13.7892 17.3331 13.3349 17.4654 13.0668C17.5157 12.9737 17.5535 12.8698 17.5535 12.8424C17.5535 12.8096 17.6039 12.7056 17.6606 12.6016C17.7172 12.5031 17.8054 12.3444 17.8558 12.2568C18.0006 11.9996 18.4288 11.4524 18.6491 11.2554C18.9199 10.9982 19.537 10.5877 19.6503 10.5877C19.7007 10.5877 19.7763 10.5494 19.8203 10.5056C19.8644 10.4619 19.94 10.4235 19.9904 10.4235C20.0407 10.4235 20.1415 10.3907 20.217 10.3579C20.513 10.2101 21.086 10.1335 22.0116 10.1116C22.805 10.0952 22.9939 10.1061 23.1073 10.1773C23.1828 10.2211 23.3088 10.2594 23.3843 10.2594C23.4599 10.2594 23.6047 10.2977 23.6992 10.3415C23.7999 10.3852 23.9321 10.4235 23.9888 10.4235C24.0455 10.4235 24.1147 10.4509 24.1336 10.4837C24.1588 10.5111 24.2407 10.5604 24.3099 10.5932C24.8955 10.8121 25.7708 11.6001 26.0479 12.1583C26.1988 12.3552 26.2109 12.523 26.3312 12.7111C26.4634 12.9464 26.5642 13.22 26.6272 13.5265C26.6586 13.6852 26.7153 13.8767 26.7468 13.9533C26.7846 14.0354 26.8098 14.2926 26.8098 14.5279C26.8098 14.9329 26.8224 14.9657 26.9546 14.9931C27.0302 15.0095 28.2958 15.015 29.7692 15.0095L32.4454 14.9931L32.4643 14.6374C32.4769 14.3747 32.458 14.2707 32.395 14.227C32.3383 14.1941 32.288 14.1066 32.2754 14.0354C32.2628 13.9314 32.2124 13.8931 32.0865 13.8822C31.9164 13.8658 31.9101 13.8548 31.9101 13.5429C31.9101 13.3076 31.9353 13.22 32.0109 13.1926C32.0802 13.1708 32.0991 13.0941 32.0865 12.8752L32.0676 12.5852L30.2919 12.5688L28.5099 12.5578V12.3882C28.5099 12.2952 28.4721 12.1529 28.4217 12.0763C28.3714 11.9942 28.2706 11.819 28.1951 11.6822C28.1195 11.5454 28.0062 11.3594 27.9369 11.2718C27.7417 11.0036 27.7291 10.9599 27.8361 10.9051C27.9243 10.8668 27.9432 10.7628 27.9432 10.3579C27.9432 9.92008 27.9621 9.84893 28.088 9.73401C28.2832 9.54794 28.8562 9.54794 29.0955 9.72854L29.2655 9.85441V10.8942C29.2655 11.6275 29.2403 11.9559 29.1899 11.9996C29.1459 12.0379 29.0199 12.0653 28.9003 12.0653C28.7114 12.0653 28.6925 12.0763 28.7114 12.2131L28.7303 12.3663H30.3989H32.0676L32.0487 11.9668C32.0298 11.4962 32.1368 11.2663 32.4013 11.2116C32.4957 11.1897 32.6091 11.1514 32.6532 11.1186C32.6972 11.0912 32.8295 11.0803 32.9554 11.0967C33.138 11.124 33.2199 11.1021 33.3962 10.9817L33.604 10.8395L33.4717 10.7136C33.3962 10.6424 33.2954 10.5877 33.2451 10.5877C33.1947 10.5877 33.0813 10.5549 32.9932 10.5111C32.458 10.2703 31.2994 9.98575 30.8334 9.98575C30.7327 9.98575 30.6319 9.95291 30.6193 9.9146C30.6067 9.88177 30.5815 9.50964 30.5689 9.09372C30.5563 8.60667 30.5249 8.3221 30.4745 8.27832C30.4304 8.24001 30.3989 8.06489 30.3989 7.86788C30.3989 7.59425 30.3737 7.50122 30.273 7.41366C30.1219 7.28232 30.0463 7.27684 29.9959 7.38629C29.977 7.43555 29.8826 7.46838 29.7441 7.46838C29.4796 7.46838 29.4544 7.50122 29.4292 7.83504L29.4166 8.09772L28.5855 8.11414L27.7543 8.13056V7.99922C27.7543 7.92808 27.6913 7.81862 27.6095 7.75295L27.4646 7.63256L27.3261 7.75843C27.2505 7.82957 27.1876 7.93902 27.1876 7.99922C27.1876 8.08678 27.1435 8.11961 27.0176 8.13603C26.8538 8.15245 26.8412 8.16887 26.8224 8.44797C26.8035 8.69423 26.772 8.76537 26.6146 8.88577C26.4194 9.03353 26.3627 9.27432 26.5264 9.27432C26.5894 9.27432 26.6209 9.32904 26.6209 9.46038C26.6209 9.63003 26.6901 9.71212 27.1876 10.139C27.7102 10.5877 27.8487 10.7519 27.6976 10.7519C27.6598 10.7519 27.3639 10.5166 27.0364 10.2265C26.476 9.74495 26.432 9.69023 26.432 9.48775C26.432 9.34546 26.4068 9.27432 26.3438 9.27432C26.2997 9.27432 26.2431 9.21959 26.2242 9.15392C26.1927 9.06089 26.2368 8.98975 26.4005 8.86388C26.6083 8.70517 26.6209 8.67781 26.6209 8.32757C26.6209 8.04847 26.602 7.96091 26.5327 7.96091C26.4823 7.96091 26.432 7.9226 26.4068 7.87882C26.3879 7.8241 26.2871 7.79673 26.1234 7.79673C25.9723 7.79673 25.8653 7.76937 25.8464 7.72012C25.8275 7.67634 25.7456 7.63256 25.6638 7.62161C25.5504 7.61067 25.5126 7.56689 25.5 7.40818C25.4874 7.28232 25.5126 7.18928 25.5756 7.14003C25.6323 7.10172 25.6763 7.02511 25.6763 6.97038C25.6763 6.91566 25.7204 6.84999 25.7771 6.82262C25.8338 6.79526 25.8652 6.74601 25.8401 6.7077C25.7771 6.62014 25.7224 6.63957 25.6763 6.72959C25.654 6.77337 25.6467 6.79222 25.6134 6.81168C25.5872 6.82694 25.456 6.89377 25.3363 6.99227C25.1726 7.12909 25.1159 7.23306 25.097 7.39177C25.0845 7.55594 25.0467 7.61067 24.9522 7.62161C24.883 7.63256 24.7822 7.67634 24.7318 7.71465C24.6815 7.75843 24.4926 7.79673 24.3225 7.80768C24.0329 7.8241 24.0077 7.83504 23.9888 7.97186C23.9699 8.11961 23.9573 8.12509 23.5921 8.12509H23.2206V7.87882C23.2206 7.6435 23.2143 7.63256 23.0317 7.63256C22.8491 7.63256 22.8428 7.6435 22.8428 7.87882V8.12509H21.9927H21.1427V7.87882C21.1427 7.6435 21.1364 7.63256 20.9601 7.63256C20.7838 7.63256 20.7712 7.64898 20.7523 7.8624L20.7334 8.09772H20.3556C19.9967 8.09772 19.9778 8.09225 19.9778 7.96091C19.9778 7.83504 19.9526 7.8241 19.6629 7.80768C19.4929 7.79673 19.304 7.75843 19.2536 7.71465C19.2033 7.67634 19.1025 7.63256 19.0333 7.62161C18.9388 7.61067 18.901 7.55594 18.8884 7.40271C18.8758 7.24948 18.8066 7.15098 18.5862 6.98133C18.4351 6.85546 18.3091 6.72959 18.3091 6.70223C18.3091 6.63109 18.2021 6.63109 18.1517 6.7077Z" fill="#BA8B61"/>
<path d="M6.88059 10.1007C6.77984 10.128 6.63501 10.139 6.56575 10.1226C6.48389 10.1116 6.32018 10.1663 6.15646 10.2594C5.99904 10.3524 5.82273 10.4236 5.76606 10.4236C5.70309 10.4236 5.57716 10.4947 5.48271 10.5877C5.39455 10.6753 5.26862 10.7519 5.20565 10.7519C4.94748 10.7519 4.89081 10.9544 4.9097 11.8519L4.92859 12.6947H7.06949H9.21039V11.737C9.21039 10.8066 9.21039 10.7847 9.07187 10.7519C8.9963 10.7355 8.87667 10.6589 8.8074 10.5823C8.73814 10.5002 8.59961 10.4181 8.50516 10.3962C8.4107 10.3798 8.25329 10.3086 8.14624 10.243C8.0329 10.1718 7.85029 10.1226 7.69917 10.1171C7.56064 10.1171 7.36544 10.0952 7.2584 10.0788C7.15765 10.0624 6.98763 10.0678 6.88059 10.1007Z" fill="#BA8B61"/>
<path d="M36.5384 10.0952C36.4376 10.1226 36.2928 10.1335 36.2109 10.1171C36.1228 10.0952 36.0094 10.1226 35.9024 10.1992C35.8079 10.2594 35.6253 10.3415 35.4931 10.3689C35.3483 10.4017 35.2034 10.4838 35.1405 10.5659C35.0838 10.6425 34.9705 10.73 34.8886 10.7574L34.7438 10.8067L34.7564 11.7479L34.7753 12.6947H36.9162H39.0571L39.076 11.8574C39.0885 11.1624 39.076 11.0037 38.9878 10.8887C38.9311 10.8121 38.8367 10.7519 38.78 10.7519C38.717 10.7519 38.5911 10.6753 38.4904 10.5878C38.3896 10.4947 38.2637 10.4236 38.207 10.4236C38.144 10.4236 37.9866 10.3579 37.8544 10.2758C37.7159 10.1937 37.5144 10.1281 37.3884 10.1226C37.2688 10.1171 37.0673 10.0952 36.9476 10.0788C36.828 10.0624 36.6454 10.0679 36.5384 10.0952Z" fill="#BA8B61"/>
<path d="M21.0798 10.3415C21.0357 10.3853 20.9035 10.4236 20.7839 10.4236C20.6642 10.4236 20.4879 10.4564 20.3997 10.5002C20.3053 10.5385 20.0912 10.6315 19.9275 10.7027C19.386 10.9325 19.323 10.9708 19.0082 11.2335C18.687 11.5071 18.1203 12.131 18.1203 12.2186C18.1203 12.2459 18.0385 12.4046 17.9314 12.5743C17.8307 12.7439 17.7425 12.9409 17.7425 13.0121C17.7425 13.0832 17.711 13.1653 17.6732 13.1981C17.6355 13.231 17.5851 13.3897 17.5536 13.5484C17.5221 13.7126 17.4655 13.9588 17.4277 14.0956C17.3899 14.2379 17.3647 14.4951 17.3773 14.6703L17.3962 14.9931L17.9314 15.0096C18.3155 15.0205 18.4792 15.0479 18.517 15.1026C18.5422 15.1464 18.6241 15.1847 18.6933 15.1847C18.7563 15.1847 18.8696 15.2175 18.9389 15.2503C19.1404 15.3598 19.2034 15.2394 19.2348 14.714C19.2537 14.424 19.2978 14.1887 19.3545 14.123C19.3975 13.9274 19.5496 13.7542 19.619 13.6086C19.6819 13.4554 20.1731 12.9683 20.3809 12.8643C21.0294 12.5305 21.433 12.3714 21.433 12.5191C21.433 12.6067 20.9539 12.8862 20.8027 12.8862C20.7209 12.8862 20.2486 13.2255 20.0471 13.4225C19.8393 13.6305 19.6315 13.9424 19.6315 14.0519C19.6315 14.0956 19.5875 14.2051 19.5371 14.2981C19.4678 14.4131 19.4426 14.5882 19.4552 14.8673L19.4741 15.2668H21.9928H24.5115L24.5304 14.9494C24.5493 14.6429 24.4675 14.3474 24.203 13.8111C24.0393 13.4663 23.5733 13.0723 23.0948 12.8753C22.654 12.6947 22.3698 12.5028 22.6405 12.5028C22.9554 12.5028 23.8063 12.9628 24.1148 13.3295C24.3604 13.6141 24.4738 13.7673 24.5052 13.8439C24.5115 13.8713 24.5619 13.9862 24.606 14.0902C24.6501 14.1941 24.7004 14.4514 24.713 14.6648C24.7445 15.1956 24.776 15.2941 24.9208 15.2941C24.9838 15.2941 25.0594 15.2668 25.0782 15.2394C25.0971 15.2066 25.1853 15.1847 25.2672 15.1847C25.349 15.1847 25.4435 15.1464 25.4686 15.1026C25.5064 15.0479 25.6701 15.0205 26.0542 15.0096L26.5895 14.9931L26.6084 14.725C26.621 14.5827 26.5958 14.3474 26.558 14.2051C26.5202 14.0683 26.4635 13.8275 26.4321 13.6797C26.3817 13.4061 26.2998 13.1708 26.1487 12.8589C26.0983 12.7658 26.0165 12.5962 25.9598 12.4758C25.9031 12.3554 25.8276 12.2186 25.7961 12.1748C25.7646 12.131 25.7205 12.0544 25.6953 12.0106C25.4812 11.5892 24.669 10.9435 24.0078 10.6753C23.8693 10.6151 23.6804 10.5385 23.5859 10.4947C23.4978 10.4564 23.3466 10.4236 23.2585 10.4236C23.164 10.4236 23.0759 10.3853 23.057 10.3415C23.0255 10.2758 22.8555 10.2594 22.0873 10.2594C21.338 10.2594 21.1428 10.2758 21.0798 10.3415ZM22.5914 12.4813C22.5914 12.5469 22.4273 12.5579 21.9991 12.5579C21.508 12.5579 21.338 12.5196 21.4387 12.4265C21.4576 12.4101 21.7158 12.3937 22.0054 12.3937C22.4273 12.3937 22.5914 12.4156 22.5914 12.4813Z" fill="#BA8B61"/>
<path d="M9.68255 10.9107L9.46217 10.9435L9.44328 11.9942L9.43068 13.0504H9.27956C9.1977 13.0504 9.09695 13.0121 9.05288 12.9684C8.98361 12.8972 8.68766 12.8863 7.06939 12.8863C5.45112 12.8863 5.15518 12.8972 5.08591 12.9684C5.04183 13.0121 4.94109 13.0504 4.85923 13.0504H4.7081L4.69551 11.9942L4.67662 10.9435L4.39956 10.9271C4.00916 10.8997 3.83285 10.9545 3.76359 11.1077C3.71321 11.2171 3.65654 11.2445 3.48653 11.2445C3.17799 11.2445 3.07094 11.2938 3.07094 11.4361C3.07094 11.5072 2.99538 11.6385 2.90723 11.7316C2.75611 11.8903 2.71203 11.9012 2.34682 11.9012C1.96901 11.9012 1.93753 11.9122 1.86196 12.049C1.799 12.1694 1.72973 12.2077 1.54083 12.2186C1.35822 12.235 1.30785 12.2569 1.30785 12.3445C1.30785 12.4047 1.26377 12.5251 1.2134 12.6126C1.13154 12.744 1.13154 12.7932 1.19451 12.8863C1.25747 12.9738 1.25747 13.0176 1.19451 13.1052C1.15673 13.1654 1.11895 13.2748 1.11895 13.3514C1.11895 13.4226 1.07487 13.5703 1.0182 13.6743C0.848184 13.9753 0.917449 14.0355 1.42749 14.0355H1.86196L1.83048 13.7072L1.7927 13.3788H3.20947C4.39327 13.3788 4.64514 13.3679 4.7081 13.2967C4.75218 13.2529 4.87812 13.2146 4.99146 13.2146C5.1048 13.2146 5.23074 13.1763 5.27481 13.1325C5.33778 13.0614 5.60225 13.0504 6.88049 13.0504C8.15874 13.0504 8.4232 13.0614 8.48617 13.1325C8.53024 13.1763 8.65618 13.2146 8.76952 13.2146C8.88286 13.2146 9.0088 13.2529 9.05288 13.2967C9.12214 13.3679 9.32994 13.3788 10.4004 13.3679L11.666 13.3514V12.3937V11.4361L11.5212 11.4196C11.4394 11.4087 11.3575 11.3649 11.3386 11.3211C11.2945 11.2171 11.0049 11.2226 10.9167 11.3321C10.8538 11.4032 10.8223 11.3923 10.6586 11.25C10.5515 11.157 10.4256 11.0803 10.3752 11.0803C10.3185 11.0803 10.2304 11.0311 10.1674 10.9709C10.0541 10.856 10.0415 10.856 9.68255 10.9107Z" fill="#BA8B61"/>
<path d="M33.7992 10.9654C33.7614 11.0311 33.6859 11.0803 33.6229 11.0803C33.5662 11.0803 33.434 11.157 33.3269 11.25C33.1632 11.3923 33.1317 11.4032 33.0688 11.3321C32.9806 11.2226 32.7539 11.2171 32.6847 11.3211C32.6595 11.3649 32.565 11.4087 32.4769 11.4196L32.3195 11.436V12.3937V13.3514L33.4907 13.3679C34.4792 13.3788 34.6745 13.3679 34.7437 13.2967C34.7941 13.242 34.9326 13.2146 35.1215 13.2146C35.3104 13.2146 35.449 13.1818 35.4993 13.1325C35.5623 13.0614 35.8268 13.0504 37.105 13.0504C38.3832 13.0504 38.6477 13.0614 38.7107 13.1325C38.7548 13.1763 38.8807 13.2146 38.994 13.2146C39.1074 13.2146 39.2333 13.2529 39.2774 13.2967C39.3404 13.3624 39.6111 13.3788 40.7508 13.3897L42.1424 13.4062L42.1613 13.6086C42.1739 13.7673 42.155 13.8221 42.048 13.8713C41.8213 13.9753 41.9787 14.0355 42.495 14.0355C43.0617 14.0355 43.1499 13.9753 42.9673 13.7071C42.9106 13.6196 42.8665 13.4828 42.8665 13.3952C42.8665 13.3077 42.8225 13.1873 42.7721 13.1216C42.6902 13.0231 42.6902 12.9793 42.7532 12.8917C42.8099 12.8097 42.8099 12.7549 42.7532 12.64C42.7091 12.5634 42.6776 12.4375 42.6776 12.3664C42.6776 12.2569 42.6462 12.235 42.4447 12.2186C42.2558 12.2077 42.1865 12.1694 42.1235 12.049C42.048 11.9122 42.0165 11.9012 41.645 11.9012C41.3049 11.9012 41.2294 11.8848 41.1035 11.7644C41.0153 11.6878 40.9208 11.5455 40.8831 11.447C40.8264 11.2938 40.7886 11.2664 40.5493 11.2445C40.3415 11.2226 40.2597 11.1843 40.203 11.0803C40.1275 10.9545 40.0897 10.9435 39.7182 10.9435H39.3089L39.29 11.9942L39.2774 13.0504H39.1263C39.0444 13.0504 38.9437 13.0121 38.8996 12.9684C38.8303 12.8972 38.5344 12.8863 36.9161 12.8863C35.2978 12.8863 35.0019 12.8972 34.9326 12.9684C34.8885 13.0121 34.7878 13.0504 34.7059 13.0504H34.5548V12.0161C34.5548 11.4415 34.5359 10.9654 34.5107 10.9545C34.4792 10.938 34.3281 10.9107 34.1644 10.8943C33.9062 10.8614 33.8622 10.8724 33.7992 10.9654Z" fill="#BA8B61"/>
<path d="M5.55195 13.2967C5.48898 13.3405 5.32527 13.3788 5.19304 13.3788C5.04191 13.3788 4.94117 13.4062 4.92227 13.4609C4.89079 13.5266 4.72078 13.543 3.94628 13.543C3.05843 13.543 3.00806 13.5485 3.00806 13.647C3.00806 13.7126 3.1214 13.8276 3.28511 13.9261L3.56217 14.1012L3.58736 14.5609C3.59995 14.8126 3.64403 15.0479 3.68181 15.0808C3.82034 15.2012 6.20682 15.0479 6.37053 14.9056C6.40831 14.8783 6.81131 14.8564 7.27097 14.8564C7.97621 14.8564 8.10844 14.8673 8.10844 14.9385C8.10844 15.0096 8.30994 15.0206 9.70152 15.0096L11.2883 14.9932L11.3072 14.6101C11.3198 14.3858 11.3639 14.1942 11.4142 14.145C11.4583 14.1012 11.5087 13.9863 11.5213 13.8987C11.5339 13.7783 11.578 13.729 11.685 13.7181C11.7606 13.7072 11.8235 13.6634 11.8235 13.6196C11.8235 13.5539 11.5906 13.543 10.369 13.543C9.1663 13.543 8.90183 13.5266 8.82627 13.4609C8.7696 13.4171 8.64996 13.3788 8.54921 13.3788C8.45476 13.3788 8.29105 13.3405 8.1966 13.2967C7.93213 13.1763 5.73456 13.1763 5.55195 13.2967Z" fill="#BA8B61"/>
<path d="M35.7513 13.2967C35.7009 13.3514 35.5561 13.3788 35.3294 13.3788C35.0901 13.3788 34.9831 13.4007 34.9579 13.4609C34.9264 13.532 34.706 13.543 33.5411 13.543C32.3888 13.543 32.1621 13.5539 32.1621 13.6196C32.1621 13.6634 32.2251 13.7072 32.3069 13.7181C32.414 13.729 32.4518 13.7728 32.4644 13.9261C32.4769 14.03 32.521 14.145 32.5714 14.1778C32.6281 14.2161 32.6659 14.3693 32.6784 14.6156L32.6973 14.9932L34.196 15.0096C35.4931 15.0206 35.6883 15.0096 35.6883 14.9385C35.6883 14.8673 35.8331 14.8564 36.6328 14.8564C37.4451 14.8564 37.5773 14.8673 37.5773 14.9439C37.5773 15.0041 37.6277 15.026 37.7536 15.0151C38.2007 14.9877 38.5218 15.0206 38.5218 15.1027C38.5218 15.1738 38.6793 15.1847 39.5608 15.1847H40.5998V14.6101C40.5998 14.134 40.6187 14.0355 40.6942 14.0355C40.7446 14.0355 40.7887 14.0027 40.7887 13.9589C40.7887 13.9151 40.8328 13.8659 40.8894 13.8494C40.9461 13.833 40.9776 13.7674 40.965 13.6962C40.9461 13.5703 40.9272 13.5703 40.0331 13.5539C39.3089 13.543 39.1137 13.5211 39.0697 13.4609C39.0445 13.4116 38.9311 13.3788 38.8115 13.3788C38.6919 13.3788 38.5156 13.3405 38.4211 13.2967C38.1566 13.1763 35.8646 13.1763 35.7513 13.2967Z" fill="#BA8B61"/>
<path d="M2.0824 13.6251C2.06351 13.6743 2.09499 13.7564 2.15166 13.8111C2.20833 13.8658 2.25241 13.9479 2.25241 14.0027C2.25241 14.0574 2.34056 14.1285 2.4602 14.1723C2.76245 14.2818 2.81282 14.3529 2.83171 14.7469L2.8506 15.1026H3.10247H3.35434L3.37323 14.6977L3.39212 14.2982L3.12766 14.1012C2.98283 13.9917 2.82541 13.8221 2.78134 13.7236C2.69948 13.5594 2.668 13.543 2.40983 13.543C2.20833 13.543 2.11388 13.5703 2.0824 13.6251Z" fill="#BA8B61"/>
<path d="M41.2106 13.5757C41.1854 13.5976 41.1665 13.6742 41.1665 13.7399C41.1665 13.8165 41.0909 13.915 40.9776 13.9917C40.795 14.1066 40.7887 14.123 40.7887 14.5608C40.7887 15.0807 40.8202 15.1847 40.9776 15.1847C41.1287 15.1847 41.1665 15.0807 41.1665 14.6867C41.1665 14.4349 41.1854 14.3638 41.261 14.3638C41.3113 14.3638 41.3554 14.3255 41.3554 14.2817C41.3554 14.227 41.4184 14.1996 41.5443 14.1996C41.7143 14.1996 41.7332 14.1832 41.7332 14.0354C41.7332 13.9205 41.7647 13.8713 41.834 13.8713C41.9032 13.8713 41.9221 13.8275 41.9095 13.718C41.8906 13.5812 41.8654 13.5703 41.5758 13.5539C41.3995 13.5429 41.2358 13.5539 41.2106 13.5757Z" fill="#BA8B61"/>
<path d="M41.7332 14.2817C41.7332 14.3364 41.6702 14.3638 41.5442 14.3638H41.3553V14.7742C41.3553 15.0916 41.3805 15.1956 41.4498 15.2175C41.5002 15.2394 41.5442 15.3105 41.5442 15.3817C41.5442 15.513 41.5442 15.513 42.2999 15.513C43.0051 15.513 43.0555 15.5075 43.0555 15.409C43.0555 15.3488 43.2696 15.108 43.5277 14.8727C43.83 14.5991 44 14.4021 44 14.3255V14.1996H42.8666C41.9032 14.1996 41.7332 14.2105 41.7332 14.2817Z" fill="#BA8B61"/>
<path d="M0.048584 14.342C0.048584 14.4788 0.155629 14.6156 0.483061 14.9002C0.646777 15.0424 0.83568 15.2285 0.892351 15.3051C0.999396 15.4474 1.01829 15.4529 1.67945 15.4529H2.3658L2.46654 15.2121C2.52951 15.0753 2.56729 14.8618 2.5547 14.7141C2.52321 14.3036 2.39728 14.2653 1.10644 14.2599C0.187113 14.2544 0.048584 14.2653 0.048584 14.342Z" fill="#BA8B61"/>
<path d="M6.40833 15.0971C6.40833 15.1464 6.2824 15.1792 5.99274 15.2011C5.74087 15.2175 5.55197 15.2558 5.52049 15.2996C5.489 15.3434 5.47011 16.5802 5.48271 18.0578L5.4953 20.7393H5.84162H6.18794L6.20683 19.4368L6.21943 18.1399H6.50278H6.78614L6.79873 19.4368L6.81762 20.7393H7.08838H7.36544L7.37174 19.4533L7.38433 18.1672H7.91956H8.45478V19.5353V20.9035L6.88059 20.9308L5.3064 20.9582V21.1771V21.396L6.97504 21.4288C7.89437 21.4453 8.71925 21.4781 8.8074 21.5C9.14743 21.5875 9.3993 21.2756 9.14743 21.095C9.06557 21.0348 9.05297 20.6189 9.04038 18.118L9.02149 15.212L8.56812 15.1956C8.2155 15.1847 8.10846 15.1628 8.10846 15.1026C8.10846 15.0369 7.96363 15.0205 7.2584 15.0205C6.58464 15.0205 6.40833 15.0369 6.40833 15.0971ZM8.31625 15.7921L8.54923 15.8469V16.4762C8.54923 17.1657 8.55265 17.0112 8.54485 17.1525C8.14685 17.1641 7.75363 17.156 7.48508 17.1439C7.39693 17.1274 7.38433 17.0344 7.38433 16.4707V15.814L7.57324 15.7812C7.86918 15.7265 8.05809 15.7265 8.31625 15.7921H8.31625ZM6.91837 16.208C6.93726 16.7553 6.89948 17.0727 6.82392 17.1165C6.78614 17.1384 6.64131 17.1493 6.50278 17.1439L6.25091 17.1274L6.23202 16.5802L6.21313 16.0275L6.42092 15.9727C6.53427 15.9399 6.69169 15.9071 6.77354 15.9016C6.89948 15.8961 6.91207 15.918 6.91837 16.208Z" fill="#BA8B61"/>
<path d="M35.6883 15.1026C35.6883 15.1573 35.5938 15.1847 35.3294 15.1956L34.9642 15.212L34.9453 18.118C34.9327 20.6189 34.9201 21.0348 34.8382 21.095C34.7879 21.1333 34.7438 21.2209 34.7438 21.2866C34.7438 21.4671 34.8949 21.5547 35.1342 21.5055C35.2475 21.4836 36.0913 21.4507 37.0106 21.4288L38.6793 21.396L38.6981 21.1662L38.717 20.9308L37.124 20.9199L35.5309 20.9035V19.5353V18.1672H36.0346H36.5384L36.5195 19.4368L36.4943 20.7065L36.6517 20.7393C36.7336 20.7612 36.891 20.7667 36.9854 20.7557L37.168 20.7393L37.1869 19.4368L37.1995 18.1344L37.4703 18.1508L37.7347 18.1672L37.7662 19.4533L37.7977 20.7393L38.1629 20.7557L38.5218 20.7721V17.9757V15.1847H38.0496C37.6718 15.1847 37.5773 15.1683 37.5773 15.1026C37.5773 15.0315 37.4325 15.0205 36.6328 15.0205C35.852 15.0205 35.6883 15.0315 35.6883 15.1026ZM36.5761 15.8195C36.6076 15.8359 36.6328 16.1314 36.6328 16.4762C36.6328 16.9089 36.6425 16.9443 36.6536 17.1716C36.191 17.1779 35.7742 17.2794 35.4454 17.1581C35.3635 16.9775 35.3797 15.9016 35.4679 15.8414C35.4994 15.8195 35.6001 15.7867 35.6883 15.7702C35.8646 15.7374 36.4943 15.7702 36.5761 15.8195ZM37.4829 15.9727L37.7347 16.0493V16.5911V17.1274L37.464 17.1439C37.0547 17.1712 37.0106 17.111 37.0106 16.5528C37.0106 15.8523 37.0232 15.8359 37.4829 15.9727Z" fill="#BA8B61"/>
<path d="M9.2859 15.2176C9.26071 15.2395 9.24182 16.5201 9.24182 18.0578C9.24182 20.4439 9.25441 20.8707 9.33627 20.9309C9.38665 20.9692 9.43073 21.117 9.44332 21.2757L9.46221 21.5603H9.90298C10.3186 21.5603 10.3438 21.5548 10.3626 21.4289C10.3752 21.3578 10.4697 21.2374 10.5704 21.1662L10.753 21.0294V18.5504C10.753 16.438 10.7405 16.0604 10.6649 16.0221C10.6019 15.9892 10.5641 15.8579 10.5515 15.5952L10.5327 15.2121L9.93447 15.1957C9.60074 15.1902 9.31109 15.1957 9.2859 15.2176Z" fill="#BA8B61"/>
<path d="M11.7102 27.4213C11.7306 26.8303 11.8483 26.688 11.8676 27.2243C11.8735 27.3885 11.8802 27.5581 11.8802 27.591C11.8865 27.6293 11.9306 27.6621 11.981 27.6621C12.0628 27.6621 12.0754 27.3885 12.0754 25.5333C12.0754 23.6945 12.0628 23.399 11.981 23.3717C11.9306 23.3552 11.8865 23.2786 11.8865 23.202C11.8865 23.1145 11.8487 23.0652 11.7921 23.0652C11.7102 23.0652 11.6976 23.306 11.6976 24.9204C11.6976 26.6223 11.6661 26.9671 11.5402 26.7865M11.5402 26.7865C11.5213 26.7592 11.5024 25.7084 11.5024 24.4552C11.5087 22.5289 11.5213 22.1622 11.6032 22.0637C11.6535 21.9981 11.6976 21.8448 11.6976 21.7244C11.6976 21.5438 11.6598 21.4672 11.5087 21.3414L11.3198 21.1826V18.5175C11.3198 16.1589 11.3324 15.8469 11.4205 15.8196C11.4898 15.7977 11.5087 15.7211 11.4961 15.5022L11.4772 15.2121L11.1624 15.1957C10.9861 15.1848 10.8224 15.1957 10.7972 15.2176C10.709 15.2942 10.7468 15.7867 10.8475 15.8196C10.9294 15.8469 10.942 16.2026 10.942 18.5339V21.21L10.7594 21.3578C10.6586 21.4399 10.5642 21.5548 10.5516 21.615C10.539 21.6971 10.4697 21.7299 10.2808 21.7518L10.029 21.7792L10.0101 22.0637C9.99748 22.2224 9.9534 22.3702 9.90302 22.4085C9.7582 22.5125 9.7645 26.9069 9.90302 27.0054C9.97229 27.0547 9.99748 27.186 9.99748 27.4815C9.99748 27.7552 10.0227 27.892 10.0793 27.9084C10.1171 27.9193 10.5012 27.9412 10.9231 27.9522L11.6913 27.9686L11.7102 27.4213" fill="#BA8B61"/>
<path d="M11.7228 15.2503C11.6976 15.2832 11.7417 15.3543 11.8235 15.4145C11.9557 15.5075 12.1321 15.513 14.4367 15.513C16.7413 15.513 16.9176 15.5075 17.0498 15.4145C17.1317 15.3543 17.1758 15.2832 17.1506 15.2503C17.0876 15.1573 11.7857 15.1573 11.7228 15.2503Z" fill="#BA8B61"/>
<path d="M17.3961 15.2503C17.3772 15.2887 17.3709 16.4652 17.3772 17.8662L17.3961 20.4109H17.7425H18.0888L18.1014 18.2493C18.1077 17.0618 18.114 16.0712 18.1203 16.0439C18.1203 16.022 18.1643 16.0056 18.2147 16.0056C18.2966 16.0056 18.3092 15.9344 18.2966 15.6061L18.2777 15.212L17.8495 15.1956C17.5473 15.1847 17.415 15.2011 17.3961 15.2503Z" fill="#BA8B61"/>
<path d="M25.7205 15.2176C25.6953 15.2395 25.6764 15.4146 25.6764 15.6007C25.6764 15.8469 25.7016 15.9564 25.7708 15.9892C25.8527 16.0275 25.8653 16.3559 25.8779 18.222L25.8968 20.411H26.2431H26.5894V17.8116V15.2121L26.1801 15.1957C25.9534 15.1848 25.7457 15.1957 25.7205 15.2176Z" fill="#BA8B61"/>
<path d="M26.8539 15.223C26.7847 15.2777 26.8036 15.3325 26.9106 15.4255C26.9925 15.5021 27.3199 15.513 29.5175 15.513C31.8536 15.513 32.0299 15.5076 32.1621 15.4145C32.4706 15.1956 32.3384 15.1847 29.5552 15.1847C28.0944 15.1847 26.8728 15.2011 26.8539 15.223Z" fill="#BA8B61"/>
<path d="M32.5021 15.2449C32.4265 15.3598 32.4706 15.7539 32.5713 15.8195C32.6532 15.8743 32.6658 16.2409 32.6658 18.5449V21.21L32.4769 21.3523C32.3132 21.4727 32.288 21.5219 32.288 21.7791C32.288 21.9652 32.3194 22.0911 32.3824 22.1348C32.4643 22.195 32.4769 22.5179 32.4769 24.4607C32.4769 26.4034 32.4643 26.7263 32.3824 26.7865C32.3069 26.8412 32.288 26.9835 32.288 27.4158V27.974L33.031 27.9795C33.4403 27.9795 33.8118 27.9631 33.8559 27.9412C33.8999 27.9138 33.944 27.7278 33.9629 27.476C33.9818 27.2024 34.0259 27.0218 34.0825 26.9671C34.2211 26.8467 34.2211 22.4905 34.0888 22.4249C34.0322 22.3975 33.9881 22.2716 33.9755 22.0801L33.9566 21.7791L33.6921 21.7627C33.4529 21.7463 33.4214 21.7299 33.4214 21.6149C33.4214 21.5383 33.3458 21.4289 33.2325 21.3523L33.0436 21.21V18.5613C33.0436 16.2354 33.0562 15.9016 33.138 15.8414C33.2136 15.7867 33.2325 15.6882 33.2199 15.4912L33.201 15.2121L32.8736 15.1957C32.6721 15.1847 32.5335 15.2011 32.5021 15.2449Z" fill="#BA8B61"/>
<path d="M33.4655 15.2176C33.4403 15.2395 33.4214 15.4091 33.4214 15.5952C33.4214 15.8305 33.39 15.9564 33.327 16.0056C33.2451 16.0658 33.2325 16.4161 33.2325 18.5504V21.0294L33.4152 21.1662C33.5159 21.2374 33.6104 21.3578 33.6229 21.4289C33.6418 21.5548 33.667 21.5603 34.0826 21.5603H34.5234L34.5423 21.2647C34.5549 21.0841 34.5989 20.9419 34.6556 20.909C34.7312 20.8598 34.7438 20.4439 34.7312 18.0305L34.7123 15.2121L34.1141 15.1957C33.7804 15.1902 33.4907 15.1957 33.4655 15.2176Z" fill="#BA8B61"/>
<path d="M2.67425 15.3817C2.59869 15.4473 2.62388 15.5568 2.74352 15.6553C2.84426 15.7428 2.85056 15.9617 2.86945 18.3861C2.88204 20.9746 2.88204 21.0238 2.75611 21.1223C2.68684 21.1771 2.63017 21.2427 2.63017 21.2701C2.63017 21.292 2.54832 21.4179 2.44127 21.5437C2.21459 21.8173 2.20829 21.8611 2.40979 22.0253L2.56091 22.1512V25.0243C2.56091 26.6003 2.5735 27.9083 2.59239 27.9192C2.64277 27.963 3.60617 27.9575 3.68803 27.9137C3.73211 27.8919 3.76359 27.7332 3.76359 27.5416C3.76359 27.268 3.79508 27.175 3.9525 26.967L4.1414 26.7262V24.6685C4.1414 22.9666 4.12881 22.5944 4.05324 22.5233C4.00287 22.4741 3.9399 22.288 3.90842 22.1074C3.86434 21.8228 3.83915 21.779 3.71322 21.7626C3.58099 21.7462 3.5495 21.6805 3.56839 21.4507C3.57469 21.3905 3.49283 21.2646 3.38579 21.1771L3.19688 21.0184V18.4572C3.19688 16.2135 3.20948 15.8742 3.29763 15.7593C3.34801 15.6881 3.38579 15.5732 3.37319 15.502C3.3543 15.3926 3.31652 15.3762 3.03946 15.3598C2.86315 15.3488 2.69944 15.3598 2.67425 15.3817Z" fill="#BA8B61"/>
<path d="M3.6503 15.3927C3.60622 15.42 3.58733 15.4802 3.61252 15.5295C3.63141 15.5787 3.60622 15.6936 3.54955 15.7922C3.46769 15.9399 3.4488 16.3011 3.4488 18.4354L3.4425 20.9035L3.59992 21.0184C3.70697 21.1005 3.76364 21.21 3.77623 21.3468L3.79512 21.5602L4.26738 21.5438C4.52555 21.5328 4.8152 21.4891 4.90965 21.4453C5.05448 21.3796 5.07337 21.3413 5.06707 21.1169C5.05448 20.9363 5.08596 20.8488 5.16782 20.7995C5.26857 20.7284 5.27487 20.5533 5.26227 18.0523L5.24338 15.3762L4.48777 15.3598C4.07218 15.3544 3.69438 15.3708 3.6503 15.3927Z" fill="#BA8B61"/>
<path d="M18.5422 15.3818C18.517 15.4036 18.4981 15.5514 18.4981 15.7101C18.4981 15.9126 18.4729 16.0056 18.4037 16.0275C18.3218 16.0549 18.3092 16.334 18.3218 18.2329L18.3407 20.411H18.7815H19.2223V17.9757V15.5405L18.9767 15.524C18.8382 15.5131 18.6933 15.4693 18.6555 15.4255C18.6178 15.3818 18.5674 15.3599 18.5422 15.3818Z" fill="#BA8B61"/>
<path d="M38.8114 15.3926C38.7421 15.4911 38.761 20.701 38.8303 20.8159C38.8681 20.8761 38.8996 21.0238 38.8996 21.1442C38.8996 21.4616 39.0822 21.5547 39.7118 21.5601H40.1904L40.2093 21.3522C40.2219 21.2318 40.2911 21.0895 40.3856 21.0019L40.5367 20.8597V19.4696C40.5372 18.5904 40.5327 17.3945 40.48 16.5199C40.4486 16.4926 40.4045 16.2846 40.3856 16.0602C40.3226 15.2941 40.4234 15.3762 39.5796 15.3598C39.1766 15.3543 38.8303 15.3652 38.8114 15.3926Z" fill="#BA8B61"/>
<path d="M40.5683 15.4529C40.5305 15.5623 40.6187 15.8086 40.7131 15.8633C40.7446 15.8797 40.7761 16.9633 40.7824 18.4518L40.795 21.0129L40.6061 21.1388C40.455 21.2318 40.4172 21.3085 40.3983 21.4891C40.3794 21.6861 40.3542 21.7244 40.222 21.7517C40.0835 21.7791 40.0646 21.8174 40.0457 22.0801C40.0331 22.2388 39.9827 22.4249 39.9323 22.4851C39.7938 22.6547 39.8001 26.7974 39.9386 26.8959C39.989 26.9342 40.0331 26.9944 40.0331 27.0327C40.0331 27.071 40.0772 27.1312 40.1275 27.1695C40.1842 27.2078 40.222 27.3611 40.2346 27.5964L40.2535 27.9631L40.7446 27.9795C41.0595 27.9904 41.2736 27.974 41.3302 27.9302C41.4058 27.8755 41.4184 27.3994 41.4184 25.0134V22.1512L41.5758 22.0254C41.664 21.9542 41.7332 21.8721 41.7332 21.8448C41.7332 21.7791 41.2924 21.1881 41.1728 21.106C41.0909 21.0458 41.0784 20.8324 41.0972 19.4861C41.0139 18.5504 41.0951 17.5568 41.1035 16.6896C41.1035 16.0001 41.1224 15.7867 41.198 15.6991C41.2484 15.6444 41.2924 15.5404 41.2924 15.4693C41.2924 15.3598 41.261 15.3489 40.9524 15.3489C40.6691 15.3489 40.5998 15.3653 40.5683 15.4529Z" fill="#BA8B61"/>
<path d="M25.2985 15.4528C25.2985 15.4857 25.1789 15.513 25.0341 15.524L24.7633 15.5404V17.9757V20.4109H25.2041H25.6449L25.6637 18.2329C25.6763 16.3339 25.6637 16.0548 25.5819 16.0274C25.5126 16.0001 25.4874 15.9125 25.4874 15.6991C25.4874 15.4747 25.4622 15.4036 25.393 15.4036C25.3426 15.4036 25.2985 15.4255 25.2985 15.4528Z" fill="#BA8B61"/>
<path d="M19.4804 15.5623C19.4615 15.5897 19.4867 15.6389 19.5371 15.6772C19.5875 15.7155 19.6315 15.7976 19.6315 15.8633C19.6315 15.9235 19.6567 16.0056 19.6819 16.0384C19.7512 16.1369 20.066 16.1643 20.1416 16.0822C20.1794 16.0384 20.2549 16.0056 20.3053 16.0056C20.3746 16.0056 20.3872 16.0986 20.3746 16.4817C20.3557 16.9523 20.3494 16.9633 20.1982 16.9633C20.1038 16.9633 20.0345 17.0016 20.0219 17.0618C20.0093 17.122 19.9401 17.1548 19.8141 17.1548H19.6315V16.6568C19.6315 16.2847 19.6127 16.1643 19.556 16.1807C19.493 16.2026 19.4741 16.3777 19.4741 16.8319V17.4558H21.9928H24.5115V16.8319C24.5115 16.3777 24.4926 16.2026 24.436 16.1807C24.373 16.1643 24.3541 16.2847 24.3541 16.6568V17.1548H24.1715C24.0456 17.1548 23.9826 17.122 23.9574 17.0454C23.9322 16.9687 23.8819 16.9414 23.7748 16.9469C23.6363 16.9633 23.63 16.9523 23.6111 16.4817C23.5985 16.0713 23.6048 16.0056 23.6993 16.0056C23.7559 16.0056 23.8126 16.0548 23.8315 16.115C23.8567 16.1916 23.8882 16.2081 23.9385 16.1752C23.9763 16.1479 24.0771 16.115 24.1652 16.1041C24.2849 16.0931 24.3289 16.0494 24.3415 15.9235C24.3541 15.8305 24.4045 15.721 24.4549 15.6718C24.5052 15.6225 24.5241 15.5678 24.4989 15.5514C24.436 15.4966 19.5182 15.5076 19.4804 15.5623ZM20.8153 16.5966C20.8342 17.1274 20.8279 17.1548 20.702 17.1548C20.5824 17.1548 20.5761 17.122 20.5761 16.5747C20.5761 16.0548 20.5887 16.0001 20.6894 16.0165C20.7839 16.0329 20.7964 16.1096 20.8153 16.5966ZM23.4096 16.5802C23.4096 17.1056 23.397 17.1548 23.29 17.1548C23.1325 17.1548 23.0948 17.0508 23.0948 16.6349C23.0948 16.2354 23.1766 16.0056 23.3152 16.0056C23.3907 16.0056 23.4096 16.1041 23.4096 16.5802Z" fill="#BA8B61"/>
<path d="M0.804199 15.7593C0.804199 15.8195 0.911244 15.8414 1.26386 15.8523L1.71723 15.8687L1.74871 18.7965C1.7802 21.6477 1.7865 21.7244 1.89984 21.7244C1.98799 21.7244 2.03837 21.6696 2.07615 21.5492C2.10763 21.4562 2.23986 21.2756 2.37839 21.1552L2.63026 20.9363V18.3971C2.63026 16.0056 2.62397 15.8523 2.51692 15.7702C2.3532 15.6389 0.804199 15.6334 0.804199 15.7593Z" fill="#BA8B61"/>
<path d="M11.729 15.7429C11.7101 15.7812 11.7038 16.9578 11.7101 18.3588L11.729 20.9035H11.8864H12.0439L12.0627 18.4956C12.0753 16.3777 12.0879 16.0822 12.1761 16.022C12.2328 15.9892 12.2642 15.9016 12.2516 15.8305C12.2391 15.7265 12.1887 15.6991 11.9935 15.6882C11.8424 15.6772 11.7479 15.6937 11.729 15.7429Z" fill="#BA8B61"/>
<path d="M12.4973 15.7101C12.4721 15.732 12.4532 15.8195 12.4532 15.9016C12.4532 15.9837 12.428 16.0713 12.3902 16.0877C12.3525 16.1096 12.3273 16.9742 12.3273 18.5011C12.3273 20.0498 12.3462 20.8761 12.3902 20.8761C12.428 20.8761 12.4532 20.3946 12.4532 19.5354V18.1946L12.6043 18.1618C12.6862 18.1454 12.8247 18.1399 12.9003 18.1508L13.0514 18.1672L13.0703 19.519L13.0829 20.8761L13.234 20.909C13.3159 20.9254 13.4544 20.9309 13.53 20.9199L13.6811 20.9035L13.7126 19.5354L13.744 18.1672H14.2478H14.7515L14.783 19.5354L14.8145 20.9035H15.1293H15.4442L15.4631 18.5558C15.4757 16.6021 15.4631 16.1862 15.3875 16.0877C15.3371 16.022 15.2868 15.9126 15.2742 15.8359L15.2553 15.7046L13.8952 15.6882C13.1521 15.6827 12.5225 15.6937 12.4973 15.7101ZM14.8964 16.5693C14.9018 16.8148 14.9115 16.9995 14.8964 17.1872C14.245 17.1704 14.0574 17.1662 13.7504 17.1439C13.6307 17.1275 13.6181 17.0892 13.5992 16.6404C13.5866 16.3723 13.5992 16.115 13.6118 16.0767C13.637 16.0165 13.7881 16.0056 14.2604 16.0165L14.8775 16.033L14.8964 16.5693ZM13.1396 16.1369C13.2277 16.2245 13.2214 16.9907 13.1333 17.0837C13.064 17.1603 12.8247 17.1767 12.598 17.122C12.4595 17.0892 12.4532 17.0563 12.4532 16.6349C12.4532 16.2245 12.4658 16.1807 12.598 16.126C12.7932 16.0439 13.0577 16.0494 13.1396 16.1369Z" fill="#BA8B61"/>
<path d="M15.5008 15.7594C15.4757 15.8086 15.5071 15.8907 15.5638 15.9454C15.652 16.0275 15.6646 16.3176 15.6772 18.3916L15.696 20.7394L15.8409 20.7558C15.9227 20.7667 16.0361 20.7394 16.099 20.6901C16.1683 20.6354 16.3635 20.6025 16.672 20.5916L17.1443 20.5752V18.1399V15.7046L16.3383 15.6882C15.6583 15.6773 15.5323 15.6882 15.5008 15.7594Z" fill="#BA8B61"/>
<path d="M26.8539 15.7156C26.8287 15.732 26.8098 16.8429 26.8098 18.1782V20.6025H27.3073C27.6725 20.6025 27.8236 20.6244 27.8803 20.6846C27.9243 20.7284 28.0377 20.7667 28.1384 20.7667H28.321V18.408C28.3147 16.2792 28.3273 16.0384 28.4218 15.9454C28.4785 15.8907 28.5099 15.8086 28.4911 15.7593C28.4596 15.6937 28.3147 15.6772 27.6725 15.6772C27.2443 15.6772 26.8728 15.6937 26.8539 15.7156Z" fill="#BA8B61"/>
<path d="M28.7429 15.7155C28.7177 15.7319 28.6988 15.8031 28.6988 15.8687C28.6988 15.9399 28.6547 16.022 28.6044 16.0603C28.5225 16.1205 28.5099 16.4434 28.5225 18.5174L28.5414 20.9035L28.724 20.9199C28.8185 20.9308 28.9696 20.9254 29.0514 20.9089L29.2026 20.8761L29.2151 19.5189L29.234 18.1672L29.7189 18.1508L30.21 18.1344L30.2226 19.5189L30.2415 20.9035H30.5249H30.8082L30.8397 19.5353L30.8712 18.1672L31.079 18.1508C31.1923 18.1398 31.2344 18.2787 31.3812 18.2C31.4179 18.1804 31.4499 20.8974 31.477 20.8808C31.5041 20.8642 31.5263 20.8435 31.5434 20.8077C31.5604 20.772 31.5724 17.9914 31.579 17.9142C31.5856 17.837 31.587 17.7335 31.5827 17.5926C31.5681 17.1054 31.5575 17.0727 31.4379 17.0891C30.7704 17.1876 30.7767 17.1931 30.7767 16.6021C30.7767 16.1533 30.8334 16.0603 31.0916 16.0603C31.3498 16.0603 31.4631 16.208 31.4316 16.4926C31.419 16.6239 31.4446 17.1064 31.4918 17.1401C31.5587 17.1555 31.5261 16.7225 31.5324 16.3284C31.5324 15.8469 31.5135 15.7374 31.4316 15.71C31.2994 15.6663 28.7933 15.6663 28.7429 15.7155ZM30.3675 16.5802C30.3675 17.0946 30.3701 17.0185 30.3695 17.1594C29.7635 17.1595 29.4721 17.1587 29.2403 17.1438C29.1207 17.1274 29.1081 17.0891 29.0892 16.6404C29.0766 16.3722 29.0892 16.115 29.1018 16.0767C29.127 16.0165 29.2781 16.0056 29.7504 16.0165L30.3675 16.0329V16.5802Z" fill="#BA8B61"/>
<path d="M31.7653 15.71C31.7024 15.7702 31.7087 15.9727 31.7842 16.0384C31.822 16.0712 31.8535 17.0015 31.8598 18.4955L31.8787 20.9035H32.0676H32.2565V18.304V15.7045L32.0361 15.6881C31.9102 15.6772 31.7905 15.6881 31.7653 15.71Z" fill="#BA8B61"/>
<path d="M41.3302 16.126C41.3113 16.3777 41.2924 17.5434 41.2987 18.7254C41.305 21.1005 41.2735 20.909 41.7206 21.3194C41.8025 21.3906 41.8843 21.5219 41.9032 21.604C41.9284 21.7189 41.9725 21.7518 42.0606 21.7408C42.1866 21.7244 42.1866 21.6642 42.1803 18.8185C42.1677 16.1807 42.1803 15.9071 42.2684 15.8743C42.3251 15.8578 42.5707 15.8414 42.8099 15.8414C43.1563 15.8414 43.2444 15.825 43.2444 15.7593C43.2444 15.6882 43.0996 15.6772 42.3062 15.6772H41.368L41.3302 16.126Z" fill="#BA8B61"/>
<path d="M0.772617 16.0603C0.753727 16.0931 0.816695 16.2135 0.92374 16.3285L1.11894 16.5419L1.13153 19.1304L1.15042 21.7244L1.32673 21.7408L1.49675 21.7572L1.48415 18.8951L1.46526 16.0329L1.13783 16.0165C0.955223 16.0056 0.797804 16.0275 0.772617 16.0603Z" fill="#BA8B61"/>
<path d="M42.4951 16.0822C42.4447 16.1314 42.4321 16.9304 42.4384 18.9388L42.4573 21.7244H42.6462H42.8351L42.854 19.1304L42.8666 16.5419L43.0555 16.3339C43.1625 16.219 43.2444 16.0986 43.2444 16.0658C43.2444 15.9782 42.5832 15.9891 42.4951 16.0822Z" fill="#BA8B61"/>
<path d="M43.6537 16.2628C43.5845 16.2738 43.4648 16.2957 43.3893 16.3121C43.3074 16.323 43.2444 16.3613 43.2444 16.3942C43.2444 16.427 43.2004 16.4872 43.15 16.531C43.0681 16.6021 43.0555 16.9742 43.0555 19.1851C43.0555 21.4289 43.0681 21.7518 43.15 21.7518C43.2444 21.7518 43.2633 21.1334 43.2759 17.4887C43.2759 16.9797 43.2885 16.914 43.4019 16.8593C43.9056 16.6131 44.1386 16.334 43.8993 16.2573C43.8426 16.2409 43.7986 16.23 43.7923 16.23C43.786 16.2355 43.723 16.2464 43.6537 16.2628Z" fill="#BA8B61"/>
<path d="M0.00446335 16.3722C-0.039614 16.4652 0.250037 16.717 0.552282 16.8428C0.697108 16.9085 0.709702 16.9359 0.697108 17.2916C0.684514 17.505 0.684514 17.7458 0.684514 17.8388C0.715998 21.0074 0.741185 21.7243 0.816747 21.7243C0.879714 21.7243 0.904901 21.2209 0.917495 19.3164C0.923792 17.9921 0.917495 16.8319 0.898605 16.7389C0.841934 16.4598 0.602656 16.2792 0.300412 16.2792C0.117805 16.2792 0.0359472 16.3065 0.00446335 16.3722Z" fill="#BA8B61"/>
<path d="M19.4992 17.7076C19.4615 17.724 19.4489 18.2931 19.4552 19.0757C19.474 20.3836 19.474 20.411 19.6063 20.4274C19.6755 20.4383 19.7763 20.4055 19.8204 20.3563C19.9274 20.2468 20.1163 20.2523 20.1919 20.3672C20.2486 20.4602 20.2548 20.4602 20.3682 20.3672C20.5193 20.2523 20.6641 20.2468 20.7649 20.3563C20.8279 20.4219 21.0482 20.4383 22.0054 20.4383C22.9751 20.4383 23.1703 20.4274 23.1954 20.3563C23.2206 20.3125 23.3025 20.2742 23.3843 20.2742C23.4725 20.2742 23.5544 20.3125 23.5732 20.3563C23.5984 20.4 23.6488 20.4383 23.6929 20.4383C23.737 20.4383 23.7873 20.4 23.8125 20.3563C23.8566 20.2468 24.0644 20.2523 24.1651 20.3563C24.2092 20.4055 24.31 20.4383 24.3792 20.4274C24.5115 20.411 24.5115 20.3836 24.5304 19.103C24.5367 18.2329 24.5241 17.7732 24.48 17.7349C24.4107 17.6747 19.6126 17.6474 19.4992 17.7076ZM20.173 18.3369C20.2234 18.5065 20.0848 18.6543 19.9274 18.5996C19.8204 18.5667 19.7763 18.3041 19.8644 18.2329C19.9652 18.1454 20.1352 18.2001 20.173 18.3369ZM20.6763 18.3916C20.6889 18.523 20.67 18.5722 20.5693 18.5941C20.4181 18.6269 20.3111 18.5394 20.3111 18.3861C20.3111 18.2329 20.3678 18.1837 20.5315 18.2056C20.6196 18.2165 20.6637 18.2712 20.6763 18.3916ZM23.5607 18.2822C23.6614 18.512 23.5355 18.6707 23.3151 18.5996C23.2206 18.5667 23.1828 18.2986 23.2647 18.2329C23.3403 18.1618 23.5229 18.1946 23.5607 18.2822ZM24.1526 18.3643C24.1651 18.4463 24.1274 18.5339 24.0707 18.5777C23.9196 18.6871 23.7559 18.5284 23.8125 18.3314C23.8692 18.1344 24.1274 18.1563 24.1526 18.3643ZM20.1856 19.1578C20.2045 19.508 20.11 19.6612 19.9148 19.5956C19.8456 19.5737 19.8204 19.4807 19.8204 19.218C19.8204 18.8349 19.8456 18.7856 20.0408 18.8075C20.1478 18.8239 20.1667 18.8677 20.1856 19.1578ZM20.7334 19.207C20.7334 19.5792 20.7271 19.5901 20.576 19.5901C20.4312 19.5901 20.4186 19.5682 20.3997 19.2672C20.3745 18.8677 20.4123 18.7856 20.5886 18.8075C20.7208 18.8239 20.7334 18.8513 20.7334 19.207ZM23.5669 19.207C23.5669 19.5792 23.5607 19.5901 23.4095 19.5901C23.2647 19.5901 23.2521 19.5682 23.2332 19.2672C23.208 18.8677 23.2458 18.7856 23.4221 18.8075C23.5544 18.8239 23.5669 18.8513 23.5669 19.207ZM24.1337 19.207C24.1337 19.5792 24.1274 19.5901 23.9762 19.5901C23.8314 19.5901 23.8188 19.5682 23.7999 19.2672C23.7747 18.8677 23.8125 18.7856 23.9888 18.8075C24.1211 18.8239 24.1337 18.8513 24.1337 19.207ZM20.1793 19.8692C20.2234 19.9787 20.0408 20.1155 19.9085 20.0717C19.8204 20.0443 19.7889 19.8801 19.8644 19.8199C19.94 19.7488 20.1415 19.7816 20.1793 19.8692ZM20.7523 19.9239C20.7712 20.0443 20.6264 20.1155 20.4689 20.0717C20.3808 20.0443 20.3619 19.8801 20.4312 19.8145C20.5193 19.7379 20.7334 19.809 20.7523 19.9239ZM23.5732 19.8637C23.6299 19.9841 23.4914 20.1045 23.3466 20.0717C23.2647 20.0553 23.2206 19.9951 23.2206 19.913C23.2206 19.809 23.2521 19.7816 23.378 19.7816C23.4662 19.7816 23.5544 19.8199 23.5732 19.8637ZM24.1526 19.9239C24.1777 20.0717 23.9888 20.1428 23.8629 20.0334C23.7307 19.9239 23.8125 19.7707 23.9888 19.7926C24.077 19.8035 24.14 19.8528 24.1526 19.9239Z" fill="#BA8B61"/>
<path d="M17.3647 20.6846C17.308 20.7448 17.1506 20.7667 16.7665 20.7667C16.3824 20.7667 16.225 20.7886 16.1683 20.8488C16.1242 20.8926 16.0361 20.9309 15.9731 20.9309C15.8723 20.9309 15.8535 20.9747 15.8535 21.2264C15.8535 21.418 15.822 21.5438 15.759 21.5876C15.6331 21.6806 15.6331 22.0801 15.759 22.0801C15.822 22.0801 15.8535 22.1622 15.866 22.3921L15.8849 22.7095L16.3194 22.7259C16.672 22.7368 16.7602 22.7259 16.8295 22.6438C16.9113 22.5508 17.1758 22.5453 21.955 22.5453C26.6209 22.5508 26.9987 22.5563 27.1121 22.6438C27.2002 22.715 27.3451 22.7368 27.6788 22.7368H28.1322V22.4359C28.1322 22.217 28.1573 22.1239 28.2266 22.102C28.2896 22.0801 28.3211 21.9926 28.3211 21.8339C28.3211 21.6752 28.2896 21.5876 28.2266 21.5657C28.1573 21.5438 28.1322 21.4508 28.1322 21.2319C28.1322 20.9747 28.1133 20.9309 28.0125 20.9309C27.9496 20.9309 27.8614 20.8926 27.8173 20.8488C27.7606 20.7886 27.6095 20.7667 27.2569 20.7667C26.9358 20.7613 26.7406 20.7394 26.6587 20.6846C26.4698 20.5588 17.4843 20.5642 17.3647 20.6846Z" fill="#BA8B61"/>
<path d="M11.7416 21.1278C11.7164 21.1497 11.7353 21.2044 11.7794 21.2482C11.8172 21.292 11.8676 21.4671 11.8865 21.6368L11.9179 21.9432L13.3977 21.9596C15.186 21.9815 15.4126 21.9596 15.4126 21.7845C15.4126 21.7134 15.4693 21.593 15.5449 21.5109C15.6141 21.4343 15.6645 21.3139 15.6519 21.2482L15.633 21.1223L13.7062 21.1059C12.6484 21.1004 11.7668 21.1114 11.7416 21.1278Z" fill="#BA8B61"/>
<path d="M28.3651 21.1334C28.2958 21.1936 28.3147 21.3687 28.4092 21.5219C28.4596 21.604 28.5162 21.7354 28.5414 21.8229L28.5729 21.9707L30.3234 21.9597L32.0676 21.9433L32.0865 21.6423C32.0991 21.4781 32.1495 21.303 32.1998 21.2538C32.2502 21.21 32.2691 21.1498 32.2439 21.1334C32.1935 21.0841 28.4155 21.0841 28.3651 21.1334Z" fill="#BA8B61"/>
<path d="M5.1489 21.6477C5.02926 21.6751 4.7585 21.7188 4.55071 21.7407L4.1729 21.779L4.15401 22.0144C4.14142 22.1621 4.1729 22.3044 4.22957 22.381C4.31773 22.4959 4.33032 22.8079 4.33032 24.674V26.8411L4.14142 27.1038C3.9903 27.3227 3.95251 27.4322 3.95251 27.6839V27.9958L4.31773 27.9794L4.67664 27.963L4.68924 26.1023C4.70183 24.6412 4.72702 24.2088 4.79628 24.0775C4.84666 23.9845 4.93481 23.8148 5.00408 23.6944C5.1847 23.3594 5.54525 23.0869 5.84155 22.9173C6.22027 22.6907 6.47804 22.7148 6.89311 22.7148C7.71162 22.7589 7.86256 22.8246 8.39174 23.2128C8.73142 23.4915 8.78333 23.6686 8.95215 23.9298C9.19143 24.3347 9.2418 24.767 9.2418 26.365C9.2418 28.0615 9.23551 28.0287 9.60072 27.9411C9.76443 27.9028 9.77703 27.8809 9.79592 27.5854C9.80851 27.3665 9.78332 27.2297 9.72036 27.1367C9.6322 27.0272 9.61961 26.6934 9.61961 24.6631C9.61961 22.6054 9.6322 22.3044 9.72036 22.2442C9.78332 22.195 9.80851 22.1019 9.79592 21.9761L9.77703 21.779L9.2418 21.7626C8.94585 21.7572 8.62472 21.7243 8.51767 21.6915C8.2658 21.6094 5.43855 21.5766 5.1489 21.6477Z" fill="#BA8B61"/>
<path d="M35.6883 21.6477C35.5308 21.6751 35.1341 21.7189 34.8067 21.7408L34.2085 21.7791L34.1896 21.9761C34.177 22.1019 34.2022 22.195 34.2652 22.2442C34.3533 22.3044 34.3659 22.6054 34.3659 24.6357C34.3659 26.6387 34.3533 26.9725 34.2715 27.0819C34.1959 27.175 34.177 27.3173 34.1896 27.5854L34.2085 27.963H34.4604H34.7123L34.7437 26.2392C34.7689 25.0297 34.8004 24.4715 34.8571 24.3621C34.8949 24.2745 34.8655 24.2304 34.9327 24.083C35.1125 23.4796 35.8224 22.977 36.1731 22.8243C36.4212 22.75 36.595 22.7203 37.0673 22.7203C37.7536 22.7258 38.0379 22.8468 38.44 23.1089C38.8756 23.4065 39.0983 23.7684 39.183 24.1596C39.2585 24.2691 39.2711 24.6467 39.2774 26.1407V27.9904H39.6489H40.0141L40.0456 27.7168C40.0834 27.3993 40.0456 27.1695 39.9575 27.1695C39.926 27.1695 39.8441 27.1148 39.7749 27.0436C39.6678 26.9287 39.6615 26.7919 39.6552 24.674C39.6552 22.7039 39.6678 22.4139 39.7497 22.3537C39.8189 22.3044 39.8441 22.2059 39.8315 22.0308L39.8126 21.7791L39.4663 21.7462C39.2774 21.7243 39.0193 21.686 38.8996 21.6477C38.6352 21.5766 36.1164 21.5766 35.6883 21.6477Z" fill="#BA8B61"/>
<path d="M41.9724 22.009C41.9346 22.0473 41.8717 22.0801 41.8276 22.0801C41.7835 22.0801 41.7331 22.1348 41.7079 22.2005C41.6891 22.2716 41.6702 23.5741 41.6702 25.0955C41.6702 27.3994 41.6828 27.881 41.7583 27.9302C41.815 27.974 42.0795 27.9904 42.5265 27.9795L43.2129 27.9631L43.2444 25.1447C43.2632 23.596 43.2821 22.3209 43.2947 22.3154C43.301 22.3099 43.3703 22.299 43.4522 22.2881C43.6096 22.2716 43.6851 22.0418 43.5466 21.998C43.5025 21.9871 43.1436 21.9652 42.7532 21.9597C42.2369 21.9488 42.0165 21.9652 41.9724 22.009Z" fill="#BA8B61"/>
<path d="M0.388517 22.0527C0.331846 22.1786 0.407407 22.299 0.552233 22.299C0.621498 22.299 0.684465 22.3045 0.690762 22.3099C0.703356 22.3209 0.722246 23.5905 0.741136 25.1392L0.77262 27.9521H1.49675L2.22088 27.9466L2.23977 25.0571L2.25236 22.1622L2.11383 22.0691C1.91234 21.9378 0.445188 21.9214 0.388517 22.0527Z" fill="#BA8B61"/>
<path d="M28.3651 22.113C28.3399 22.1349 28.321 22.3209 28.321 22.5289V22.901L30.2919 22.8901L32.2565 22.8737L32.2754 22.5836C32.2943 22.3209 32.2817 22.2936 32.1306 22.2443C32.0361 22.2115 31.2365 22.1896 30.2479 22.1896C29.1711 22.1896 28.5099 22.1677 28.4722 22.1349C28.4344 22.102 28.3903 22.0966 28.3651 22.113Z" fill="#BA8B61"/>
<path d="M15.2867 22.184C15.167 22.2059 14.3862 22.2114 13.5551 22.2005C12.5539 22.184 11.9872 22.2004 11.8675 22.2388C11.7038 22.2935 11.6912 22.3154 11.7101 22.5835L11.729 22.8736H13.681H15.633L15.6519 22.6328C15.6771 22.3701 15.6267 22.1293 15.5512 22.1403C15.526 22.1457 15.4063 22.1676 15.2867 22.184Z" fill="#BA8B61"/>
<path d="M17.0309 22.7696C16.9553 22.8353 16.9805 22.994 17.0812 23.0651C17.2261 23.1691 17.2261 27.3939 17.0749 27.4979C17.012 27.5471 16.9868 27.6401 16.9994 27.766C17.0183 27.9576 17.0246 27.963 17.2701 27.963C17.5157 27.963 17.522 27.9576 17.5409 27.766C17.5535 27.6401 17.5283 27.5471 17.4654 27.4979C17.3772 27.4377 17.3646 27.1531 17.3646 25.2815C17.3646 23.4099 17.3772 23.1253 17.4591 23.0651C17.5157 23.0268 17.5535 22.9392 17.5409 22.879C17.5283 22.7915 17.4716 22.7586 17.3016 22.7477C17.1757 22.7368 17.0561 22.7477 17.0309 22.7696Z" fill="#BA8B61"/>
<path d="M17.7866 22.7697C17.7614 22.7915 17.7425 22.89 17.7425 22.9831C17.7425 23.0816 17.6984 23.191 17.648 23.2293C17.5662 23.2895 17.5536 23.5851 17.5536 25.2651V27.2352L17.7299 27.3939C17.8244 27.487 17.9125 27.6347 17.9314 27.7551L17.9629 27.9521H18.7185C19.556 27.9467 19.6315 27.9138 19.6315 27.5745C19.6315 27.4815 19.6756 27.372 19.726 27.3337C19.8645 27.2352 19.8708 23.3333 19.7323 23.2293C19.6819 23.1965 19.6315 23.0761 19.6189 22.9667L19.6 22.7642L18.7122 22.7478C18.2273 22.7423 17.8118 22.7532 17.7866 22.7697Z" fill="#BA8B61"/>
<path d="M19.8645 22.7696C19.7889 22.8353 19.8141 22.994 19.9149 23.0651C20.0597 23.1691 20.0597 27.3939 19.9086 27.4979C19.8456 27.5471 19.8204 27.6401 19.833 27.766C19.8519 27.9576 19.8582 27.963 20.1038 27.963C20.3493 27.963 20.3556 27.9576 20.3745 27.766C20.3871 27.6401 20.3619 27.5471 20.299 27.4979C20.2108 27.4377 20.1982 27.1531 20.1982 25.2815C20.1982 23.4099 20.2108 23.1253 20.2927 23.0651C20.3493 23.0268 20.3871 22.9392 20.3745 22.879C20.3619 22.7915 20.3053 22.7586 20.1353 22.7477C20.0093 22.7368 19.8897 22.7477 19.8645 22.7696Z" fill="#BA8B61"/>
<path d="M20.6201 22.7697C20.5949 22.7915 20.576 22.901 20.576 23.0159C20.576 23.1418 20.5445 23.2293 20.4815 23.2512C20.3997 23.2786 20.3871 23.5522 20.3871 25.2706C20.3871 26.978 20.3997 27.2735 20.4815 27.3337C20.5319 27.372 20.576 27.4924 20.576 27.6074C20.576 27.7223 20.6201 27.8427 20.6704 27.881C20.7334 27.9248 21.1364 27.9467 22.0683 27.9521H23.3781L23.3969 27.6566C23.4095 27.4706 23.4536 27.3447 23.5103 27.3173C23.6425 27.2517 23.6425 23.3278 23.5103 23.2293C23.4599 23.1965 23.4095 23.0761 23.3969 22.9667L23.3781 22.7642L22.0179 22.7478C21.2749 22.7423 20.6453 22.7532 20.6201 22.7697Z" fill="#BA8B61"/>
<path d="M23.6426 22.7696C23.567 22.8353 23.5922 22.994 23.6929 23.0651C23.8378 23.1691 23.8378 27.3939 23.6866 27.4979C23.6237 27.5471 23.5985 27.6401 23.6111 27.766C23.63 27.9576 23.6363 27.963 23.8818 27.963C24.1274 27.963 24.1337 27.9576 24.1526 27.766C24.1652 27.6401 24.14 27.5471 24.077 27.4979C23.9889 27.4377 23.9763 27.1531 23.9763 25.2815C23.9763 23.4099 23.9889 23.1253 24.0707 23.0651C24.1274 23.0268 24.1652 22.9392 24.1526 22.879C24.14 22.7915 24.0833 22.7586 23.9133 22.7477C23.7874 22.7368 23.6678 22.7477 23.6426 22.7696Z" fill="#BA8B61"/>
<path d="M24.3981 22.7697C24.3729 22.7915 24.354 22.89 24.354 22.9831C24.354 23.0816 24.31 23.191 24.2596 23.2293C24.1211 23.3278 24.1148 27.2298 24.2596 27.3337C24.31 27.3666 24.354 27.5198 24.3666 27.6785L24.3855 27.9576H25.2986H26.2116L26.2305 27.6785C26.2431 27.5198 26.2872 27.3666 26.3375 27.3337C26.4761 27.2352 26.4761 23.3278 26.3438 23.2293C26.2934 23.1965 26.2431 23.0761 26.2305 22.9667L26.2116 22.7642L25.3237 22.7478C24.8389 22.7423 24.4233 22.7532 24.3981 22.7697Z" fill="#BA8B61"/>
<path d="M26.4761 22.7751C26.4005 22.8353 26.4257 22.994 26.5264 23.0652C26.6713 23.1691 26.6713 27.3939 26.5201 27.4979C26.4572 27.5472 26.432 27.6402 26.4446 27.7661C26.4635 27.9576 26.4761 27.9631 26.7342 27.9795L26.9987 27.9959V27.7825C26.9987 27.6566 26.9609 27.5362 26.9042 27.4979C26.8224 27.4377 26.8098 27.1258 26.8098 25.2815C26.8098 23.4373 26.8224 23.1254 26.9042 23.0652C26.9546 23.0269 26.9987 22.9393 26.9987 22.8682C26.9987 22.7532 26.9672 22.7368 26.7594 22.7368C26.6272 22.7368 26.495 22.7532 26.4761 22.7751Z" fill="#BA8B61"/>
<path d="M6.09974 23.0213C5.56422 23.2949 5.22048 23.6593 5.02929 24.1268C4.90336 24.4551 4.89706 24.5536 4.90965 26.2173L4.92854 27.963H5.14263C5.52674 27.963 5.52674 27.974 5.52674 26.2775C5.52674 24.6084 5.54563 24.5044 5.87306 24.1268C6.11234 23.8477 6.25087 23.7656 6.59719 23.6835C7.18908 23.5412 7.78728 23.8039 8.1273 24.3511C8.25954 24.5591 8.26583 24.6576 8.29732 26.2665L8.3288 27.9575L8.56808 27.963C8.69401 27.9685 8.82624 27.9466 8.86403 27.9083C8.93329 27.8371 8.95848 24.9312 8.89551 24.488C8.79653 24.0153 8.46526 23.4698 8.09582 23.2183C7.65505 22.9502 7.47244 22.9009 6.91203 22.9064C6.51533 22.9064 6.30124 22.9392 6.09974 23.0213Z" fill="#BA8B61"/>
<path d="M15.8786 22.9612C15.8031 23.0761 15.8409 23.3552 15.9416 23.4045C16.0298 23.4483 16.0424 23.7055 16.0424 25.5333C16.0424 27.3283 16.0298 27.6129 15.9479 27.6402C15.8912 27.6621 15.8534 27.7442 15.8534 27.8318C15.8534 27.985 15.866 27.9905 16.1368 27.9905C16.4076 27.9905 16.4202 27.985 16.4202 27.8318C16.4202 27.7442 16.3824 27.6621 16.3257 27.6402C16.2438 27.6129 16.2313 27.3283 16.2313 25.5278C16.2313 23.7274 16.2438 23.4428 16.3257 23.4154C16.3887 23.3935 16.4202 23.306 16.4202 23.1418V22.901H16.1746C16.0361 22.901 15.9038 22.9284 15.8786 22.9612Z" fill="#BA8B61"/>
<path d="M27.5339 22.9557C27.4772 23.0378 27.5654 23.3826 27.6661 23.4537C27.7984 23.5468 27.7858 27.6019 27.6535 27.6457C27.6032 27.6621 27.5654 27.7442 27.5654 27.8318C27.5654 27.985 27.578 27.9905 27.8487 27.9905C28.1195 27.9905 28.1321 27.985 28.1321 27.8318C28.1321 27.7442 28.0943 27.6621 28.0376 27.6402C27.9558 27.6129 27.9432 27.3283 27.9432 25.5278C27.9432 23.7274 27.9558 23.4428 28.0376 23.4154C28.1006 23.3935 28.1321 23.306 28.1321 23.1418V22.901H27.855C27.6976 22.901 27.5528 22.9229 27.5339 22.9557Z" fill="#BA8B61"/>
<path d="M36.1165 23.0816C35.6316 23.3169 35.2035 23.8313 35.0838 24.3239C35.0586 24.4278 35.0272 25.2816 35.0146 26.2228L34.9894 27.9303L35.2098 27.9631C35.6883 28.0452 35.6505 28.1601 35.6883 26.2392C35.7261 24.3129 35.7135 24.3512 36.2047 23.9408C36.3936 23.7766 36.5132 23.7219 36.7588 23.6945C37.4073 23.6179 37.8607 23.7876 38.2007 24.2418L38.3644 24.4607L38.3959 26.1736C38.4337 28.0616 38.4148 28.0069 38.8367 27.9795L39.0571 27.9631V26.1572C39.0571 24.3512 39.0445 24.2089 38.8304 23.8861C38.7989 23.8423 38.7485 23.7547 38.7171 23.6945C38.6226 23.4975 38.1378 23.1254 37.8418 23.0105C37.6277 22.9284 37.4262 22.901 37.0169 22.901C36.5258 22.9065 36.4439 22.9229 36.1165 23.0816Z" fill="#BA8B61"/>
<path d="M16.6784 23.1527C16.6721 23.2403 16.628 23.3661 16.5776 23.4263C16.502 23.5139 16.4895 23.8587 16.4832 25.5442C16.4832 27.4651 16.4895 27.569 16.6091 27.7004L16.7287 27.8372L16.7665 27.6785C16.7917 27.5964 16.8484 27.4596 16.8987 27.3775C16.968 27.2626 16.9869 26.8686 16.9869 25.2596C16.9869 23.503 16.9743 23.2786 16.8861 23.2457C16.8295 23.2293 16.7602 23.1637 16.735 23.098C16.6847 22.9995 16.6784 23.005 16.6784 23.1527Z" fill="#BA8B61"/>
<path d="M12.0753 23.2184C12.0753 23.3115 12.1131 23.3936 12.1698 23.4154C12.2516 23.4428 12.2642 23.7274 12.2642 25.5278C12.2642 27.3283 12.2516 27.6129 12.1698 27.6402C12.1131 27.6621 12.0753 27.7442 12.0753 27.8318C12.0753 27.985 12.0879 27.9905 12.3587 27.9905C12.6294 27.9905 12.642 27.985 12.642 27.8318C12.642 27.7442 12.6042 27.6621 12.5476 27.6402C12.4657 27.6129 12.4531 27.3283 12.4531 25.5333C12.4531 23.6891 12.4657 23.4483 12.5539 23.4045C12.6105 23.3771 12.642 23.306 12.6294 23.2239C12.6168 23.1145 12.5728 23.0926 12.3461 23.0761C12.0816 23.0597 12.0753 23.0652 12.0753 23.2184Z" fill="#BA8B61"/>
<path d="M13.0513 23.109C13.0136 23.1308 12.9254 23.2458 12.8561 23.3662C12.7239 23.5796 12.7176 23.6562 12.7113 25.5388L12.6987 27.4925L12.8624 27.7168C12.9506 27.8372 13.0451 27.9357 13.0702 27.9357C13.0954 27.9357 13.3851 27.9412 13.7125 27.9467C14.2918 27.9576 14.3107 27.9521 14.3296 27.8372C14.3422 27.7661 14.3926 27.6949 14.4429 27.6785C14.5752 27.6347 14.5752 23.492 14.4429 23.3935C14.3926 23.3607 14.3422 23.2786 14.3296 23.2129C14.3107 23.098 14.2729 23.0925 13.7125 23.0816C13.3851 23.0761 13.0828 23.0871 13.0513 23.109Z" fill="#BA8B61"/>
<path d="M14.6319 23.1089C14.613 23.1417 14.6382 23.2348 14.6886 23.3169C14.7641 23.4482 14.783 23.8203 14.783 25.5661C14.783 27.5909 14.7767 27.6675 14.6571 27.7715C14.4493 27.9521 14.4997 27.9959 14.8964 27.9794C15.2364 27.963 15.2553 27.9576 15.2742 27.8153C15.2868 27.7058 15.2679 27.662 15.1986 27.662C15.1104 27.662 15.0979 27.4267 15.0979 25.5278C15.0979 23.6288 15.1104 23.3935 15.1986 23.3935C15.2679 23.3935 15.2868 23.3497 15.2742 23.2402C15.2553 23.1034 15.2301 23.0925 14.9593 23.0761C14.8019 23.0651 14.6508 23.0815 14.6319 23.1089Z" fill="#BA8B61"/>
<path d="M28.6989 23.2239C28.6989 23.3114 28.7366 23.3935 28.7933 23.4154C28.8752 23.4428 28.8878 23.7274 28.8878 25.5552C28.8878 27.394 28.8752 27.6621 28.7933 27.6621C28.7303 27.6621 28.6989 27.7168 28.6989 27.8263C28.6989 27.985 28.7114 27.9905 28.9759 27.9905C29.3159 27.9905 29.3663 27.9357 29.2404 27.7059C29.1522 27.5636 29.1396 27.2407 29.1396 25.5224C29.1396 23.596 29.1459 23.503 29.2656 23.3224C29.4167 23.1035 29.3726 23.0652 28.9444 23.0652C28.7177 23.0652 28.6989 23.0761 28.6989 23.2239Z" fill="#BA8B61"/>
<path d="M29.6875 23.1034C29.6623 23.1199 29.6434 23.1801 29.6434 23.2348C29.6434 23.2895 29.593 23.3552 29.5364 23.388C29.4293 23.4373 29.423 23.6015 29.4104 25.4621L29.3978 27.4869L29.5489 27.7223L29.6938 27.9631L30.2983 27.974L30.9091 27.9795L31.0602 27.766L31.2176 27.5526V25.5387C31.2176 23.8532 31.205 23.5084 31.1231 23.4154C31.0728 23.3607 31.0287 23.2731 31.0287 23.2238C31.0287 23.1746 30.9846 23.1144 30.9279 23.098C30.7957 23.0542 29.7379 23.0542 29.6875 23.1034Z" fill="#BA8B61"/>
<path d="M31.312 23.1199C31.2868 23.1527 31.3183 23.2513 31.3686 23.3498C31.5135 23.596 31.5198 27.5144 31.3812 27.7497C31.2553 27.9522 31.2994 27.9905 31.6331 27.9905C31.8976 27.9905 31.9102 27.985 31.9102 27.8318C31.9102 27.7442 31.8724 27.6621 31.8157 27.6402C31.7338 27.6129 31.7213 27.3283 31.7213 25.5278C31.7213 23.7274 31.7338 23.4428 31.8157 23.4154C31.8724 23.3935 31.9102 23.3114 31.9102 23.2239C31.9102 23.0707 31.8976 23.0652 31.6331 23.0652C31.4757 23.0652 31.3309 23.0925 31.312 23.1199Z" fill="#BA8B61"/>
<path d="M32.0991 23.202C32.0991 23.2786 32.055 23.3552 32.0046 23.3716C31.9227 23.399 31.9102 23.6945 31.9102 25.5333C31.9102 27.3885 31.9227 27.6621 32.0046 27.6621C32.0802 27.6621 32.0991 27.58 32.0991 27.2353C32.0991 26.9452 32.1305 26.7756 32.1935 26.6989C32.332 26.5402 32.332 23.0652 32.1935 23.0652C32.1368 23.0652 32.0991 23.1144 32.0991 23.202Z" fill="#BA8B61"/>
<path d="M27.0427 23.213C27.0175 23.2294 26.9987 24.1597 26.9987 25.2761C26.9987 26.896 27.0175 27.3338 27.0868 27.4159C27.1309 27.4761 27.1876 27.5965 27.2127 27.6895L27.2631 27.8537L27.3828 27.6512C27.4961 27.4651 27.5024 27.3228 27.4835 25.4895C27.4709 23.5358 27.4709 23.5304 27.3261 23.3498C27.1813 23.1747 27.1183 23.1418 27.0427 23.213Z" fill="#BA8B61"/>
<path d="M15.4756 23.3825C15.4253 23.3989 15.3623 23.4373 15.3371 23.4701C15.3119 23.5029 15.2867 24.4387 15.2867 25.5496V27.569L15.4379 27.6894L15.5827 27.8098L15.6897 27.6402C15.7842 27.4869 15.7905 27.2516 15.7779 25.4895C15.759 23.8094 15.7464 23.4974 15.6645 23.4318C15.6142 23.388 15.526 23.3661 15.4756 23.3825Z" fill="#BA8B61"/>
<path d="M28.3084 23.3989C28.2014 23.4482 28.1951 23.6069 28.1951 25.5004C28.1951 27.4541 28.2014 27.5581 28.321 27.7277C28.3903 27.8262 28.4469 27.8809 28.4469 27.8481C28.4469 27.8153 28.5036 27.7332 28.5729 27.662C28.6925 27.5417 28.6988 27.4596 28.6988 25.5606C28.6988 23.8586 28.6862 23.5631 28.5981 23.4591C28.491 23.3223 28.4595 23.3169 28.3084 23.3989Z" fill="#BA8B61"/>
</g>
<defs>
<clipPath id="clip0_23_360">
<rect width="44" height="28" fill="white"/>
</clipPath>
</defs>
</svg>
