<svg width="44" height="28" viewBox="0 0 44 28" fill="none" xmlns="http://www.w3.org/2000/svg">
<g clip-path="url(#clip0_23_830)">
<path d="M21.3316 0.131341C21.3316 0.202484 21.3757 0.290044 21.4261 0.328352C21.4765 0.36666 21.5205 0.45422 21.5205 0.51989C21.5205 0.591033 21.5646 0.656704 21.615 0.678594C21.6905 0.700484 21.7094 0.837297 21.7094 1.3955C21.7094 1.95369 21.6905 2.09051 21.615 2.1124C21.5583 2.13429 21.5205 2.21638 21.5205 2.30941C21.5205 2.51189 21.3694 2.49 21.3442 2.28205C21.3316 2.19996 21.2813 2.13429 21.2309 2.13429C21.1553 2.13429 21.1427 2.28752 21.1427 3.03725V3.94022H21.9928H22.8429V3.03725C22.8429 2.2711 22.8303 2.13429 22.7484 2.13429C22.6854 2.13429 22.6539 2.18901 22.6539 2.29846C22.6539 2.40791 22.6225 2.46264 22.5595 2.46264C22.4965 2.46264 22.465 2.40791 22.465 2.30394C22.465 2.21637 22.4273 2.13429 22.3706 2.1124C22.295 2.09051 22.2761 1.95917 22.2761 1.40644C22.2761 0.86466 22.295 0.711429 22.3706 0.656704C22.421 0.618396 22.465 0.547253 22.465 0.492528C22.465 0.437802 22.5091 0.36666 22.5595 0.328352C22.6728 0.246264 22.6854 0 22.5784 0C22.5343 0 22.4399 0.0766154 22.3706 0.164176C22.2069 0.377605 22.0872 0.377605 22.0872 0.164176C22.0872 0.0547253 22.0558 0 21.9928 0C21.9298 0 21.8983 0.0547253 21.8983 0.164176C21.8983 0.377605 21.7787 0.377605 21.615 0.164176C21.4639 -0.0328352 21.3316 -0.0492528 21.3316 0.131341Z" fill="#928D8A"/>
<path d="M20.8594 4.27831C20.7019 4.4206 20.6327 4.44249 20.3493 4.44249C20.1163 4.44249 20.0093 4.46438 19.9841 4.52458C19.9652 4.57383 19.8645 4.60666 19.7448 4.60666C19.6315 4.61214 19.4678 4.64497 19.3796 4.68875C19.2915 4.73253 19.1718 4.76537 19.1089 4.77084C18.92 4.77084 18.1266 5.14297 17.6795 5.42754C16.9869 5.87629 16.1116 6.75737 15.8597 7.27178C15.8219 7.33198 15.7653 7.40313 15.7338 7.42502C15.696 7.44143 15.6645 7.51258 15.6645 7.57277C15.6645 7.63844 15.6205 7.73148 15.5638 7.7862C15.4127 7.93396 15.4945 8.05436 15.7527 8.05436C15.9479 8.05436 15.9857 8.03247 16.1179 7.79168C16.2501 7.56183 16.2879 7.53447 16.4957 7.51805C16.7161 7.50163 16.735 7.51258 16.8924 7.77526C17.0183 7.99963 17.0813 8.05436 17.2072 8.05436C17.3395 8.05436 17.3647 8.02699 17.3647 7.89018C17.3647 7.73695 17.3835 7.726 17.5787 7.726C17.6984 7.726 17.8369 7.6877 17.8936 7.64392C17.944 7.60014 18.0447 7.56183 18.114 7.56183C18.2777 7.56183 18.3281 7.47974 18.2147 7.39765C18.1643 7.35935 18.1203 7.28273 18.1203 7.22801C18.1203 7.17328 18.0888 7.11308 18.051 7.09666C17.9503 7.03647 17.8747 6.81757 17.9125 6.6917C17.9629 6.52205 18.2147 6.54394 18.5233 6.75189C18.8696 6.99269 19.027 7.16781 19.0648 7.36482C19.09 7.49616 19.134 7.53994 19.2537 7.55088C19.3418 7.56183 19.4363 7.60561 19.4615 7.64939C19.493 7.69864 19.6252 7.726 19.8519 7.726C20.173 7.726 20.1919 7.73148 20.2108 7.87376C20.2234 7.99416 20.2612 8.02699 20.3871 8.02699C20.5067 8.02699 20.5508 7.99416 20.576 7.85735C20.639 7.60561 20.6894 7.56183 20.916 7.56183C21.149 7.56183 21.2561 7.64392 21.3253 7.86829C21.3694 8.01605 21.3694 8.01605 21.9361 8.01605C22.5658 8.01605 22.6539 7.99416 22.6539 7.81357C22.6539 7.64392 22.7673 7.56183 23.0066 7.56183C23.227 7.56183 23.334 7.64392 23.4033 7.87376C23.4662 8.08172 23.7307 8.09266 23.7874 7.89018C23.8188 7.76979 23.8629 7.75337 24.1337 7.73695C24.3289 7.726 24.48 7.6877 24.5241 7.63297C24.5682 7.58372 24.6626 7.54541 24.7445 7.53994C24.8641 7.53447 24.8956 7.49616 24.9082 7.34293C24.9271 7.14592 25.0593 7.01458 25.519 6.70811C25.7834 6.53847 26.0164 6.54941 26.0416 6.73548C26.0668 6.86135 25.9157 7.17328 25.752 7.35387C25.6386 7.4688 25.7016 7.56183 25.8968 7.56183C25.9723 7.56183 26.0542 7.60014 26.0794 7.64392C26.0983 7.69864 26.199 7.726 26.369 7.726C26.6083 7.726 26.6209 7.73695 26.6209 7.89018C26.6209 8.02699 26.6461 8.05436 26.7783 8.05436C26.898 8.05436 26.9546 8.0051 27.0554 7.80809C27.2569 7.4086 27.6347 7.39765 27.8488 7.79168C27.9621 7.99963 28.0062 8.02699 28.214 8.04341C28.4911 8.0653 28.5855 7.94491 28.4218 7.7862C28.3651 7.73148 28.321 7.64939 28.321 7.60014C28.321 7.55088 28.2959 7.50163 28.2644 7.48521C28.2329 7.4688 28.1321 7.32651 28.0377 7.16781C27.704 6.60414 27.0302 5.90913 26.4194 5.50416C26.2242 5.37282 26.0479 5.26337 26.029 5.26337C26.0101 5.26337 25.8716 5.18675 25.7205 5.09919C25.5631 5.00616 25.4056 4.93502 25.3616 4.93502C25.3175 4.93502 25.2104 4.90218 25.1223 4.8584C24.8704 4.74895 24.3415 4.60666 24.1778 4.60666C24.1022 4.60666 24.0203 4.56836 24.0015 4.52458C23.9763 4.46438 23.8692 4.44249 23.6362 4.44249C23.3529 4.44249 23.2836 4.4206 23.1262 4.27831L22.9436 4.11414H21.9928H21.042L20.8594 4.27831Z" fill="#928D8A"/>
<path d="M18.1518 6.7077C18.1266 6.73506 18.1518 6.80621 18.2084 6.86093C18.2651 6.91566 18.3092 6.99774 18.3092 7.047C18.3092 7.09625 18.3533 7.15645 18.4099 7.18381C18.5673 7.26043 18.5044 7.59972 18.3281 7.62161C18.2525 7.63256 18.1581 7.67634 18.1203 7.72012C18.0762 7.7639 17.944 7.79673 17.8243 7.79673C17.6921 7.79673 17.5976 7.82957 17.5788 7.87882C17.5536 7.9226 17.5032 7.96091 17.4528 7.96091C17.3836 7.96091 17.3647 8.05394 17.3647 8.33304C17.3647 8.67781 17.3773 8.71612 17.5536 8.83651C17.7551 8.98427 17.8117 9.24148 17.648 9.29621C17.5913 9.31263 17.5536 9.39471 17.5536 9.51511C17.5536 9.68476 17.478 9.76684 16.9491 10.2265C16.6216 10.5166 16.3257 10.7519 16.2879 10.7519C16.1494 10.7519 16.269 10.6151 16.798 10.1609C17.3017 9.72306 17.3647 9.65192 17.3647 9.47133C17.3647 9.33452 17.3898 9.27432 17.4591 9.27432C17.6228 9.27432 17.5662 9.03353 17.3647 8.89124C17.2072 8.77084 17.1821 8.71612 17.1758 8.46438C17.1758 8.20717 17.1569 8.16887 17.0183 8.12509C16.9302 8.09772 16.842 8.02658 16.8168 7.97733C16.798 7.9226 16.7224 7.8241 16.6531 7.75295L16.5209 7.63256L16.3761 7.75295C16.2942 7.81862 16.2312 7.92808 16.2312 7.99922V8.13056L15.4001 8.11414L14.5626 8.09772L14.5311 7.79673L14.4996 7.49574L14.2604 7.47933C14.1218 7.46838 14.0022 7.4246 13.9833 7.38082C13.9392 7.27684 13.8637 7.28232 13.7125 7.41366C13.6118 7.50122 13.5866 7.59425 13.5866 7.87335C13.5866 8.11414 13.5551 8.24001 13.4921 8.28926C13.4229 8.33851 13.3977 8.53005 13.3851 9.15392C13.3662 9.82157 13.3473 9.95838 13.2718 9.96386C12.3524 10.0569 11.6409 10.232 10.9923 10.5166C10.9042 10.5549 10.7908 10.5877 10.7405 10.5877C10.6901 10.5877 10.5893 10.6479 10.5075 10.7136L10.3689 10.8449L10.6082 10.9817C10.7908 11.0912 10.9042 11.1186 11.0742 11.0967C11.2064 11.0803 11.3261 11.0967 11.3449 11.1295C11.3701 11.1623 11.4394 11.1897 11.5024 11.1897C11.5653 11.1897 11.6724 11.2444 11.7479 11.3156C11.855 11.4141 11.8865 11.5181 11.8991 11.9011L11.918 12.3663H13.5866H15.2552V12.2295C15.2552 12.1091 15.2238 12.0872 15.0034 12.0653L14.7515 12.0379L14.7326 10.9489C14.72 9.89271 14.72 9.85441 14.8585 9.72854C15.0475 9.55342 15.589 9.54794 15.8597 9.72307L16.0486 9.84893L16.0297 10.3524C16.0172 10.8012 16.0234 10.8668 16.1368 10.9434C16.2627 11.0255 16.2564 11.031 16.0612 11.1788C15.9479 11.2663 15.8534 11.3703 15.8534 11.4195C15.8534 11.4688 15.8094 11.5345 15.759 11.5728C15.7086 11.6111 15.6645 11.6822 15.6645 11.737C15.6645 11.7917 15.6205 11.8628 15.5701 11.9011C15.5071 11.9449 15.4756 12.0708 15.4756 12.2623V12.5578L13.6999 12.5688L11.918 12.5852L11.8991 12.8752C11.8865 13.0941 11.9054 13.1708 11.9746 13.1926C12.0502 13.22 12.0754 13.3076 12.0754 13.5429C12.0754 13.8548 12.0691 13.8658 11.9054 13.8822C11.7731 13.8931 11.7228 13.9314 11.7102 14.0354C11.6976 14.1066 11.6472 14.1941 11.5905 14.227C11.5276 14.2707 11.5087 14.3747 11.5213 14.6374L11.5401 14.9931L14.2478 15.0041C15.7401 15.015 16.9932 14.9986 17.0372 14.9712C17.0939 14.9439 17.1443 14.7304 17.1758 14.3857C17.2387 13.7892 17.3332 13.3349 17.4654 13.0668C17.5158 12.9737 17.5536 12.8698 17.5536 12.8424C17.5536 12.8096 17.6039 12.7056 17.6606 12.6016C17.7173 12.5031 17.8054 12.3444 17.8558 12.2568C18.0006 11.9996 18.4288 11.4524 18.6492 11.2554C18.92 10.9982 19.537 10.5877 19.6504 10.5877C19.7008 10.5877 19.7763 10.5494 19.8204 10.5056C19.8645 10.4619 19.94 10.4235 19.9904 10.4235C20.0408 10.4235 20.1415 10.3907 20.2171 10.3579C20.513 10.2101 21.0861 10.1335 22.0117 10.1116C22.8051 10.0952 22.994 10.1061 23.1073 10.1773C23.1829 10.2211 23.3088 10.2594 23.3844 10.2594C23.4599 10.2594 23.6048 10.2977 23.6992 10.3415C23.8 10.3852 23.9322 10.4235 23.9889 10.4235C24.0455 10.4235 24.1148 10.4509 24.1337 10.4837C24.1589 10.5111 24.2407 10.5604 24.31 10.5932C24.8956 10.8121 25.7709 11.6001 26.0479 12.1583C26.1989 12.3552 26.211 12.523 26.3313 12.7111C26.4635 12.9464 26.5642 13.22 26.6272 13.5265C26.6587 13.6852 26.7154 13.8767 26.7468 13.9533C26.7846 14.0354 26.8098 14.2926 26.8098 14.5279C26.8098 14.9329 26.8224 14.9657 26.9546 14.9931C27.0302 15.0095 28.2959 15.015 29.7693 15.0095L32.4454 14.9931L32.4643 14.6374C32.4769 14.3747 32.458 14.2707 32.3951 14.227C32.3384 14.1941 32.288 14.1066 32.2754 14.0354C32.2628 13.9314 32.2125 13.8931 32.0865 13.8822C31.9165 13.8658 31.9102 13.8548 31.9102 13.5429C31.9102 13.3076 31.9354 13.22 32.011 13.1926C32.0802 13.1708 32.0991 13.0941 32.0865 12.8752L32.0676 12.5852L30.2919 12.5688L28.5099 12.5578V12.3882C28.5099 12.2952 28.4722 12.1529 28.4218 12.0763C28.3714 11.9942 28.2707 11.819 28.1951 11.6822C28.1195 11.5454 28.0062 11.3594 27.9369 11.2718C27.7417 11.0036 27.7291 10.9599 27.8362 10.9051C27.9243 10.8668 27.9432 10.7628 27.9432 10.3579C27.9432 9.92008 27.9621 9.84893 28.0881 9.73401C28.2833 9.54794 28.8563 9.54794 29.0955 9.72854L29.2656 9.85441V10.8942C29.2656 11.6275 29.2404 11.9559 29.19 11.9996C29.1459 12.0379 29.02 12.0653 28.9003 12.0653C28.7114 12.0653 28.6926 12.0763 28.7114 12.2131L28.7303 12.3663H30.399H32.0676L32.0487 11.9668C32.0298 11.4962 32.1369 11.2663 32.4014 11.2116C32.4958 11.1897 32.6091 11.1514 32.6532 11.1186C32.6973 11.0912 32.8295 11.0803 32.9555 11.0967C33.1381 11.124 33.2199 11.1021 33.3962 10.9817L33.604 10.8395L33.4718 10.7136C33.3962 10.6424 33.2955 10.5877 33.2451 10.5877C33.1947 10.5877 33.0814 10.5549 32.9932 10.5111C32.458 10.2703 31.2994 9.98575 30.8335 9.98575C30.7327 9.98575 30.632 9.95291 30.6194 9.9146C30.6068 9.88177 30.5816 9.50964 30.569 9.09372C30.5564 8.60667 30.5249 8.3221 30.4745 8.27832C30.4305 8.24001 30.399 8.06489 30.399 7.86788C30.399 7.59425 30.3738 7.50122 30.273 7.41366C30.1219 7.28232 30.0464 7.27684 29.996 7.38629C29.9771 7.43555 29.8826 7.46838 29.7441 7.46838C29.4797 7.46838 29.4545 7.50122 29.4293 7.83504L29.4167 8.09772L28.5855 8.11414L27.7543 8.13056V7.99922C27.7543 7.92808 27.6914 7.81862 27.6095 7.75295L27.4647 7.63256L27.3262 7.75843C27.2506 7.82957 27.1876 7.93902 27.1876 7.99922C27.1876 8.08678 27.1435 8.11961 27.0176 8.13603C26.8539 8.15245 26.8413 8.16887 26.8224 8.44797C26.8035 8.69423 26.772 8.76537 26.6146 8.88577C26.4194 9.03353 26.3627 9.27432 26.5265 9.27432C26.5894 9.27432 26.6209 9.32904 26.6209 9.46038C26.6209 9.63003 26.6902 9.71212 27.1876 10.139C27.7103 10.5877 27.8488 10.7519 27.6977 10.7519C27.6599 10.7519 27.3639 10.5166 27.0365 10.2265C26.4761 9.74495 26.432 9.69023 26.432 9.48775C26.432 9.34546 26.4068 9.27432 26.3439 9.27432C26.2998 9.27432 26.2431 9.21959 26.2242 9.15392C26.1927 9.06089 26.2368 8.98975 26.4005 8.86388C26.6083 8.70517 26.6209 8.67781 26.6209 8.32757C26.6209 8.04847 26.602 7.96091 26.5328 7.96091C26.4824 7.96091 26.432 7.9226 26.4068 7.87882C26.3879 7.8241 26.2872 7.79673 26.1235 7.79673C25.9723 7.79673 25.8653 7.76937 25.8464 7.72012C25.8275 7.67634 25.7457 7.63256 25.6638 7.62161C25.5505 7.61067 25.5127 7.56689 25.5001 7.40818C25.4875 7.28232 25.5127 7.18928 25.5757 7.14003C25.6323 7.10172 25.6764 7.02511 25.6764 6.97038C25.6764 6.91566 25.7205 6.84999 25.7771 6.82262C25.8338 6.79526 25.8653 6.74601 25.8401 6.7077C25.7771 6.62014 25.7224 6.63957 25.6764 6.72959C25.654 6.77337 25.6467 6.79222 25.6134 6.81168C25.5873 6.82694 25.456 6.89377 25.3364 6.99227C25.1727 7.12909 25.116 7.23306 25.0971 7.39177C25.0845 7.55594 25.0467 7.61067 24.9523 7.62161C24.883 7.63256 24.7823 7.67634 24.7319 7.71465C24.6815 7.75843 24.4926 7.79673 24.3226 7.80768C24.0329 7.8241 24.0078 7.83504 23.9889 7.97186C23.97 8.11961 23.9574 8.12509 23.5922 8.12509H23.2207V7.87882C23.2207 7.6435 23.2144 7.63256 23.0318 7.63256C22.8491 7.63256 22.8429 7.6435 22.8429 7.87882V8.12509H21.9928H21.1427V7.87882C21.1427 7.6435 21.1364 7.63256 20.9601 7.63256C20.7838 7.63256 20.7712 7.64898 20.7523 7.8624L20.7334 8.09772H20.3556C19.9967 8.09772 19.9778 8.09225 19.9778 7.96091C19.9778 7.83504 19.9526 7.8241 19.663 7.80768C19.493 7.79673 19.3041 7.75843 19.2537 7.71465C19.2033 7.67634 19.1026 7.63256 19.0333 7.62161C18.9389 7.61067 18.9011 7.55594 18.8885 7.40271C18.8759 7.24948 18.8066 7.15098 18.5862 6.98133C18.4351 6.85546 18.3092 6.72959 18.3092 6.70223C18.3092 6.63109 18.2021 6.63109 18.1518 6.7077Z" fill="#928D8A"/>
<path d="M6.88054 10.1007C6.77979 10.128 6.63496 10.139 6.5657 10.1226C6.48384 10.1116 6.32012 10.1663 6.15641 10.2594C5.99899 10.3524 5.82268 10.4236 5.76601 10.4236C5.70304 10.4236 5.5771 10.4947 5.48265 10.5877C5.3945 10.6753 5.26856 10.7519 5.20559 10.7519C4.94743 10.7519 4.89076 10.9544 4.90965 11.8519L4.92854 12.6947H7.06944H9.21034V11.737C9.21034 10.8066 9.21034 10.7847 9.07181 10.7519C8.99625 10.7355 8.87661 10.6589 8.80735 10.5823C8.73808 10.5002 8.59955 10.4181 8.5051 10.3962C8.41065 10.3798 8.25323 10.3086 8.14619 10.243C8.03284 10.1718 7.85024 10.1226 7.69912 10.1171C7.56059 10.1171 7.36539 10.0952 7.25834 10.0788C7.15759 10.0624 6.98758 10.0678 6.88054 10.1007Z" fill="#928D8A"/>
<path d="M36.5383 10.0952C36.4376 10.1226 36.2927 10.1335 36.2109 10.1171C36.1227 10.0952 36.0094 10.1226 35.9024 10.1992C35.8079 10.2594 35.6253 10.3415 35.4931 10.3689C35.3482 10.4017 35.2034 10.4838 35.1404 10.5659C35.0838 10.6425 34.9704 10.73 34.8886 10.7574L34.7437 10.8067L34.7563 11.7479L34.7752 12.6947H36.9161H39.057L39.0759 11.8574C39.0885 11.1624 39.0759 11.0037 38.9878 10.8887C38.9311 10.8121 38.8366 10.7519 38.78 10.7519C38.717 10.7519 38.5911 10.6753 38.4903 10.5878C38.3896 10.4947 38.2636 10.4236 38.207 10.4236C38.144 10.4236 37.9866 10.3579 37.8543 10.2758C37.7158 10.1937 37.5143 10.1281 37.3884 10.1226C37.2687 10.1171 37.0673 10.0952 36.9476 10.0788C36.828 10.0624 36.6454 10.0679 36.5383 10.0952Z" fill="#928D8A"/>
<path d="M21.0798 10.3415C21.0357 10.3853 20.9034 10.4236 20.7838 10.4236C20.6642 10.4236 20.4879 10.4564 20.3997 10.5002C20.3053 10.5385 20.0912 10.6315 19.9274 10.7027C19.3859 10.9325 19.323 10.9708 19.0081 11.2335C18.687 11.5071 18.1203 12.131 18.1203 12.2186C18.1203 12.2459 18.0384 12.4046 17.9314 12.5743C17.8306 12.7439 17.7425 12.9409 17.7425 13.0121C17.7425 13.0832 17.711 13.1653 17.6732 13.1981C17.6354 13.231 17.585 13.3897 17.5536 13.5484C17.5221 13.7126 17.4654 13.9588 17.4276 14.0956C17.3898 14.2379 17.3647 14.4951 17.3773 14.6703L17.3961 14.9931L17.9314 15.0096C18.3155 15.0205 18.4792 15.0479 18.517 15.1026C18.5422 15.1464 18.624 15.1847 18.6933 15.1847C18.7562 15.1847 18.8696 15.2175 18.9389 15.2503C19.1403 15.3598 19.2033 15.2394 19.2348 14.714C19.2537 14.424 19.2978 14.1887 19.3544 14.123C19.3975 13.9274 19.5496 13.7542 19.6189 13.6086C19.6819 13.4554 20.173 12.9683 20.3808 12.8643C21.0294 12.5305 21.4329 12.3714 21.4329 12.5191C21.4329 12.6067 20.9538 12.8862 20.8027 12.8862C20.7208 12.8862 20.2486 13.2255 20.0471 13.4225C19.8393 13.6305 19.6315 13.9424 19.6315 14.0519C19.6315 14.0956 19.5874 14.2051 19.537 14.2981C19.4678 14.4131 19.4426 14.5882 19.4552 14.8673L19.4741 15.2668H21.9928H24.5115L24.5304 14.9494C24.5493 14.6429 24.4674 14.3474 24.203 13.8111C24.0392 13.4663 23.5733 13.0723 23.0947 12.8753C22.6539 12.6947 22.3697 12.5028 22.6405 12.5028C22.9553 12.5028 23.8063 12.9628 24.1148 13.3295C24.3604 13.6141 24.4737 13.7673 24.5052 13.8439C24.5115 13.8713 24.5619 13.9862 24.6059 14.0902C24.65 14.1941 24.7004 14.4514 24.713 14.6648C24.7445 15.1956 24.776 15.2941 24.9208 15.2941C24.9838 15.2941 25.0593 15.2668 25.0782 15.2394C25.0971 15.2066 25.1852 15.1847 25.2671 15.1847C25.349 15.1847 25.4434 15.1464 25.4686 15.1026C25.5064 15.0479 25.6701 15.0205 26.0542 15.0096L26.5894 14.9931L26.6083 14.725C26.6209 14.5827 26.5957 14.3474 26.5579 14.2051C26.5202 14.0683 26.4635 13.8275 26.432 13.6797C26.3816 13.4061 26.2998 13.1708 26.1487 12.8589C26.0983 12.7658 26.0164 12.5962 25.9598 12.4758C25.9031 12.3554 25.8275 12.2186 25.796 12.1748C25.7646 12.131 25.7205 12.0544 25.6953 12.0106C25.4812 11.5892 24.6689 10.9435 24.0078 10.6753C23.8692 10.6151 23.6803 10.5385 23.5859 10.4947C23.4977 10.4564 23.3466 10.4236 23.2584 10.4236C23.164 10.4236 23.0758 10.3853 23.0569 10.3415C23.0255 10.2758 22.8554 10.2594 22.0872 10.2594C21.3379 10.2594 21.1427 10.2758 21.0798 10.3415ZM22.5913 12.4813C22.5913 12.5469 22.4273 12.5579 21.9991 12.5579C21.5079 12.5579 21.3379 12.5196 21.4387 12.4265C21.4576 12.4101 21.7157 12.3937 22.0054 12.3937C22.4273 12.3937 22.5913 12.4156 22.5913 12.4813Z" fill="#928D8A"/>
<path d="M9.6826 10.9107L9.46221 10.9435L9.44332 11.9942L9.43073 13.0504H9.27961C9.19775 13.0504 9.097 13.0121 9.05292 12.9684C8.98366 12.8972 8.68771 12.8863 7.06944 12.8863C5.45117 12.8863 5.15522 12.8972 5.08596 12.9684C5.04188 13.0121 4.94113 13.0504 4.85927 13.0504H4.70815L4.69556 11.9942L4.67667 10.9435L4.39961 10.9271C4.00921 10.8997 3.8329 10.9545 3.76363 11.1077C3.71326 11.2171 3.65659 11.2445 3.48658 11.2445C3.17804 11.2445 3.07099 11.2938 3.07099 11.4361C3.07099 11.5072 2.99543 11.6385 2.90727 11.7316C2.75615 11.8903 2.71207 11.9012 2.34686 11.9012C1.96906 11.9012 1.93757 11.9122 1.86201 12.049C1.79904 12.1694 1.72978 12.2077 1.54087 12.2186C1.35827 12.235 1.30789 12.2569 1.30789 12.3445C1.30789 12.4047 1.26382 12.5251 1.21344 12.6126C1.13158 12.744 1.13158 12.7932 1.19455 12.8863C1.25752 12.9738 1.25752 13.0176 1.19455 13.1052C1.15677 13.1654 1.11899 13.2748 1.11899 13.3514C1.11899 13.4226 1.07491 13.5703 1.01824 13.6743C0.84823 13.9753 0.917495 14.0355 1.42753 14.0355H1.86201L1.83053 13.7072L1.79275 13.3788H3.20952C4.39331 13.3788 4.64518 13.3679 4.70815 13.2967C4.75223 13.2529 4.87816 13.2146 4.99151 13.2146C5.10485 13.2146 5.23078 13.1763 5.27486 13.1325C5.33783 13.0614 5.60229 13.0504 6.88054 13.0504C8.15878 13.0504 8.42324 13.0614 8.48621 13.1325C8.53029 13.1763 8.65623 13.2146 8.76957 13.2146C8.88291 13.2146 9.00885 13.2529 9.05292 13.2967C9.12219 13.3679 9.32998 13.3788 10.4004 13.3679L11.6661 13.3514V12.3937V11.4361L11.5213 11.4196C11.4394 11.4087 11.3575 11.3649 11.3387 11.3211C11.2946 11.2171 11.0049 11.2226 10.9168 11.3321C10.8538 11.4032 10.8223 11.3923 10.6586 11.25C10.5516 11.157 10.4256 11.0803 10.3752 11.0803C10.3186 11.0803 10.2304 11.0311 10.1675 10.9709C10.0541 10.856 10.0415 10.856 9.6826 10.9107Z" fill="#928D8A"/>
<path d="M33.7992 10.9654C33.7614 11.0311 33.6859 11.0803 33.6229 11.0803C33.5662 11.0803 33.434 11.157 33.327 11.25C33.1633 11.3923 33.1318 11.4032 33.0688 11.3321C32.9807 11.2226 32.754 11.2171 32.6847 11.3211C32.6595 11.3649 32.5651 11.4087 32.4769 11.4196L32.3195 11.436V12.3937V13.3514L33.4907 13.3679C34.4793 13.3788 34.6745 13.3679 34.7437 13.2967C34.7941 13.242 34.9326 13.2146 35.1216 13.2146C35.3105 13.2146 35.449 13.1818 35.4994 13.1325C35.5623 13.0614 35.8268 13.0504 37.105 13.0504C38.3833 13.0504 38.6477 13.0614 38.7107 13.1325C38.7548 13.1763 38.8807 13.2146 38.9941 13.2146C39.1074 13.2146 39.2333 13.2529 39.2774 13.2967C39.3404 13.3624 39.6111 13.3788 40.7509 13.3897L42.1425 13.4062L42.1613 13.6086C42.1739 13.7673 42.155 13.8221 42.048 13.8713C41.8213 13.9753 41.9787 14.0355 42.4951 14.0355C43.0618 14.0355 43.1499 13.9753 42.9673 13.7071C42.9107 13.6196 42.8666 13.4828 42.8666 13.3952C42.8666 13.3077 42.8225 13.1873 42.7721 13.1216C42.6903 13.0231 42.6903 12.9793 42.7532 12.8917C42.8099 12.8097 42.8099 12.7549 42.7532 12.64C42.7092 12.5634 42.6777 12.4375 42.6777 12.3664C42.6777 12.2569 42.6462 12.235 42.4447 12.2186C42.2558 12.2077 42.1865 12.1694 42.1236 12.049C42.048 11.9122 42.0165 11.9012 41.645 11.9012C41.305 11.9012 41.2294 11.8848 41.1035 11.7644C41.0153 11.6878 40.9209 11.5455 40.8831 11.447C40.8264 11.2938 40.7886 11.2664 40.5494 11.2445C40.3416 11.2226 40.2597 11.1843 40.203 11.0803C40.1275 10.9545 40.0897 10.9435 39.7182 10.9435H39.3089L39.29 11.9942L39.2774 13.0504H39.1263C39.0444 13.0504 38.9437 13.0121 38.8996 12.9684C38.8303 12.8972 38.5344 12.8863 36.9161 12.8863C35.2979 12.8863 35.0019 12.8972 34.9326 12.9684C34.8886 13.0121 34.7878 13.0504 34.706 13.0504H34.5548V12.0161C34.5548 11.4415 34.536 10.9654 34.5108 10.9545C34.4793 10.938 34.3282 10.9107 34.1644 10.8943C33.9063 10.8614 33.8622 10.8724 33.7992 10.9654Z" fill="#928D8A"/>
<path d="M5.55192 13.2967C5.48895 13.3405 5.32524 13.3788 5.19301 13.3788C5.04188 13.3788 4.94113 13.4062 4.92224 13.4609C4.89076 13.5266 4.72075 13.543 3.94625 13.543C3.0584 13.543 3.00803 13.5485 3.00803 13.647C3.00803 13.7126 3.12137 13.8276 3.28508 13.9261L3.56214 14.1012L3.58733 14.5609C3.59992 14.8126 3.644 15.0479 3.68178 15.0808C3.82031 15.2012 6.20679 15.0479 6.3705 14.9056C6.40828 14.8783 6.81128 14.8564 7.27094 14.8564C7.97618 14.8564 8.10841 14.8673 8.10841 14.9385C8.10841 15.0096 8.30991 15.0206 9.70149 15.0096L11.2883 14.9932L11.3072 14.6101C11.3198 14.3858 11.3638 14.1942 11.4142 14.145C11.4583 14.1012 11.5087 13.9863 11.5213 13.8987C11.5339 13.7783 11.5779 13.729 11.685 13.7181C11.7605 13.7072 11.8235 13.6634 11.8235 13.6196C11.8235 13.5539 11.5905 13.543 10.369 13.543C9.16627 13.543 8.9018 13.5266 8.82624 13.4609C8.76957 13.4171 8.64993 13.3788 8.54918 13.3788C8.45473 13.3788 8.29102 13.3405 8.19657 13.2967C7.9321 13.1763 5.73453 13.1763 5.55192 13.2967Z" fill="#928D8A"/>
<path d="M35.7512 13.2967C35.7009 13.3514 35.556 13.3788 35.3293 13.3788C35.0901 13.3788 34.983 13.4007 34.9578 13.4609C34.9264 13.532 34.706 13.543 33.5411 13.543C32.3888 13.543 32.1621 13.5539 32.1621 13.6196C32.1621 13.6634 32.225 13.7072 32.3069 13.7181C32.4139 13.729 32.4517 13.7728 32.4643 13.9261C32.4769 14.03 32.521 14.145 32.5714 14.1778C32.628 14.2161 32.6658 14.3693 32.6784 14.6156L32.6973 14.9932L34.1959 15.0096C35.4931 15.0206 35.6883 15.0096 35.6883 14.9385C35.6883 14.8673 35.8331 14.8564 36.6328 14.8564C37.4451 14.8564 37.5773 14.8673 37.5773 14.9439C37.5773 15.0041 37.6277 15.026 37.7536 15.0151C38.2007 14.9877 38.5218 15.0206 38.5218 15.1027C38.5218 15.1738 38.6792 15.1847 39.5608 15.1847H40.5997V14.6101C40.5997 14.134 40.6186 14.0355 40.6942 14.0355C40.7446 14.0355 40.7886 14.0027 40.7886 13.9589C40.7886 13.9151 40.8327 13.8659 40.8894 13.8494C40.9461 13.833 40.9775 13.7674 40.965 13.6962C40.9461 13.5703 40.9272 13.5703 40.033 13.5539C39.3089 13.543 39.1137 13.5211 39.0696 13.4609C39.0444 13.4116 38.9311 13.3788 38.8115 13.3788C38.6918 13.3788 38.5155 13.3405 38.4211 13.2967C38.1566 13.1763 35.8646 13.1763 35.7512 13.2967Z" fill="#928D8A"/>
<path d="M2.0824 13.6251C2.06351 13.6743 2.09499 13.7564 2.15166 13.8111C2.20833 13.8658 2.25241 13.9479 2.25241 14.0027C2.25241 14.0574 2.34056 14.1285 2.4602 14.1723C2.76245 14.2818 2.81282 14.3529 2.83171 14.7469L2.8506 15.1026H3.10247H3.35434L3.37323 14.6977L3.39212 14.2982L3.12766 14.1012C2.98283 13.9917 2.82541 13.8221 2.78134 13.7236C2.69948 13.5594 2.668 13.543 2.40983 13.543C2.20833 13.543 2.11388 13.5703 2.0824 13.6251Z" fill="#928D8A"/>
<path d="M41.2105 13.5757C41.1853 13.5976 41.1664 13.6742 41.1664 13.7399C41.1664 13.8165 41.0909 13.915 40.9775 13.9917C40.7949 14.1066 40.7886 14.123 40.7886 14.5608C40.7886 15.0807 40.8201 15.1847 40.9775 15.1847C41.1287 15.1847 41.1664 15.0807 41.1664 14.6867C41.1664 14.4349 41.1853 14.3638 41.2609 14.3638C41.3113 14.3638 41.3554 14.3255 41.3554 14.2817C41.3554 14.227 41.4183 14.1996 41.5443 14.1996C41.7143 14.1996 41.7332 14.1832 41.7332 14.0354C41.7332 13.9205 41.7646 13.8713 41.8339 13.8713C41.9032 13.8713 41.9221 13.8275 41.9095 13.718C41.8906 13.5812 41.8654 13.5703 41.5757 13.5539C41.3994 13.5429 41.2357 13.5539 41.2105 13.5757Z" fill="#928D8A"/>
<path d="M41.7332 14.2817C41.7332 14.3364 41.6702 14.3638 41.5443 14.3638H41.3554V14.7742C41.3554 15.0916 41.3805 15.1956 41.4498 15.2175C41.5002 15.2394 41.5443 15.3105 41.5443 15.3817C41.5443 15.513 41.5443 15.513 42.2999 15.513C43.0051 15.513 43.0555 15.5075 43.0555 15.409C43.0555 15.3488 43.2696 15.108 43.5277 14.8727C43.83 14.5991 44 14.4021 44 14.3255V14.1996H42.8666C41.9032 14.1996 41.7332 14.2105 41.7332 14.2817Z" fill="#928D8A"/>
<path d="M0.048542 14.342C0.048542 14.4788 0.155587 14.6156 0.483019 14.9002C0.646735 15.0424 0.835638 15.2285 0.892309 15.3051C0.999354 15.4474 1.01824 15.4529 1.67941 15.4529H2.36575L2.4665 15.2121C2.52947 15.0753 2.56725 14.8618 2.55466 14.7141C2.52317 14.3036 2.39724 14.2653 1.1064 14.2599C0.187071 14.2544 0.048542 14.2653 0.048542 14.342Z" fill="#928D8A"/>
<path d="M6.40828 15.0971C6.40828 15.1464 6.28234 15.1792 5.99269 15.2011C5.74082 15.2175 5.55192 15.2558 5.52043 15.2996C5.48895 15.3434 5.47006 16.5802 5.48265 18.0578L5.49525 20.7393H5.84157H6.18789L6.20678 19.4368L6.21937 18.1399H6.50273H6.78608L6.79868 19.4368L6.81757 20.7393H7.08833H7.36539L7.37168 19.4533L7.38428 18.1672H7.9195H8.45473V19.5353V20.9035L6.88054 20.9308L5.30634 20.9582V21.1771V21.396L6.97499 21.4288C7.89432 21.4453 8.71919 21.4781 8.80735 21.5C9.14737 21.5875 9.39924 21.2756 9.14737 21.095C9.06551 21.0348 9.05292 20.6189 9.04033 18.118L9.02144 15.212L8.56807 15.1956C8.21545 15.1847 8.10841 15.1628 8.10841 15.1026C8.10841 15.0369 7.96358 15.0205 7.25834 15.0205C6.58459 15.0205 6.40828 15.0369 6.40828 15.0971ZM8.3162 15.7921L8.54918 15.8469V16.4762C8.54918 17.1657 8.55259 17.0112 8.54479 17.1525C8.1468 17.1641 7.75358 17.156 7.48503 17.1439C7.39687 17.1274 7.38428 17.0344 7.38428 16.4707V15.814L7.57318 15.7812C7.86913 15.7265 8.05803 15.7265 8.3162 15.7921H8.3162ZM6.91832 16.208C6.93721 16.7553 6.89943 17.0727 6.82386 17.1165C6.78608 17.1384 6.64126 17.1493 6.50273 17.1439L6.25086 17.1274L6.23197 16.5802L6.21308 16.0275L6.42087 15.9727C6.53421 15.9399 6.69163 15.9071 6.77349 15.9016C6.89943 15.8961 6.91202 15.918 6.91832 16.208Z" fill="#928D8A"/>
<path d="M35.6883 15.1026C35.6883 15.1573 35.5938 15.1847 35.3293 15.1956L34.9641 15.212L34.9452 18.118C34.9326 20.6189 34.9201 21.0348 34.8382 21.095C34.7878 21.1333 34.7437 21.2209 34.7437 21.2866C34.7437 21.4671 34.8949 21.5547 35.1341 21.5055C35.2475 21.4836 36.0913 21.4507 37.0106 21.4288L38.6792 21.396L38.6981 21.1662L38.717 20.9308L37.1239 20.9199L35.5308 20.9035V19.5353V18.1672H36.0346H36.5383L36.5194 19.4368L36.4942 20.7065L36.6517 20.7393C36.7335 20.7612 36.8909 20.7667 36.9854 20.7557L37.168 20.7393L37.1869 19.4368L37.1995 18.1344L37.4702 18.1508L37.7347 18.1672L37.7662 19.4533L37.7977 20.7393L38.1629 20.7557L38.5218 20.7721V17.9757V15.1847H38.0495C37.6717 15.1847 37.5773 15.1683 37.5773 15.1026C37.5773 15.0315 37.4325 15.0205 36.6328 15.0205C35.852 15.0205 35.6883 15.0315 35.6883 15.1026ZM36.5761 15.8195C36.6076 15.8359 36.6328 16.1314 36.6328 16.4762C36.6328 16.9089 36.6424 16.9443 36.6536 17.1716C36.191 17.1779 35.7742 17.2794 35.4453 17.1581C35.3635 16.9775 35.3797 15.9016 35.4679 15.8414C35.4994 15.8195 35.6001 15.7867 35.6883 15.7702C35.8646 15.7374 36.4942 15.7702 36.5761 15.8195ZM37.4828 15.9727L37.7347 16.0493V16.5911V17.1274L37.4639 17.1439C37.0547 17.1712 37.0106 17.111 37.0106 16.5528C37.0106 15.8523 37.0232 15.8359 37.4828 15.9727Z" fill="#928D8A"/>
<path d="M9.2859 15.2176C9.26071 15.2395 9.24182 16.5201 9.24182 18.0578C9.24182 20.4439 9.25441 20.8707 9.33627 20.9309C9.38665 20.9692 9.43073 21.117 9.44332 21.2757L9.46221 21.5603H9.90298C10.3186 21.5603 10.3438 21.5548 10.3626 21.4289C10.3752 21.3578 10.4697 21.2374 10.5704 21.1662L10.753 21.0294V18.5504C10.753 16.438 10.7405 16.0604 10.6649 16.0221C10.6019 15.9892 10.5641 15.8579 10.5515 15.5952L10.5327 15.2121L9.93447 15.1957C9.60074 15.1902 9.31109 15.1957 9.2859 15.2176Z" fill="#928D8A"/>
<path d="M11.7102 27.4213C11.7306 26.8303 11.8483 26.688 11.8676 27.2243C11.8735 27.3885 11.8802 27.5581 11.8802 27.591C11.8865 27.6293 11.9305 27.6621 11.9809 27.6621C12.0628 27.6621 12.0754 27.3885 12.0754 25.5333C12.0754 23.6945 12.0628 23.399 11.9809 23.3717C11.9305 23.3552 11.8865 23.2786 11.8865 23.202C11.8865 23.1145 11.8487 23.0652 11.792 23.0652C11.7102 23.0652 11.6976 23.306 11.6976 24.9204C11.6976 26.6223 11.6661 26.9671 11.5401 26.7865M11.5401 26.7865C11.5213 26.7592 11.5024 25.7084 11.5024 24.4552C11.5087 22.5289 11.5213 22.1622 11.6031 22.0637C11.6535 21.9981 11.6976 21.8448 11.6976 21.7244C11.6976 21.5438 11.6598 21.4672 11.5087 21.3414L11.3198 21.1826V18.5175C11.3198 16.1589 11.3324 15.8469 11.4205 15.8196C11.4898 15.7977 11.5087 15.7211 11.4961 15.5022L11.4772 15.2121L11.1623 15.1957C10.986 15.1848 10.8223 15.1957 10.7971 15.2176C10.709 15.2942 10.7468 15.7867 10.8475 15.8196C10.9294 15.8469 10.942 16.2026 10.942 18.5339V21.21L10.7593 21.3578C10.6586 21.4399 10.5641 21.5548 10.5516 21.615C10.539 21.6971 10.4697 21.7299 10.2808 21.7518L10.0289 21.7792L10.01 22.0637C9.99744 22.2224 9.95336 22.3702 9.90299 22.4085C9.75816 22.5125 9.76446 26.9069 9.90299 27.0054C9.97225 27.0547 9.99744 27.186 9.99744 27.4815C9.99744 27.7552 10.0226 27.892 10.0793 27.9084C10.1171 27.9193 10.5012 27.9412 10.9231 27.9522L11.6913 27.9686L11.7102 27.4213" fill="#928D8A"/>
<path d="M11.7228 15.2503C11.6976 15.2832 11.7416 15.3543 11.8235 15.4145C11.9557 15.5075 12.132 15.513 14.4367 15.513C16.7413 15.513 16.9176 15.5075 17.0498 15.4145C17.1317 15.3543 17.1758 15.2832 17.1506 15.2503C17.0876 15.1573 11.7857 15.1573 11.7228 15.2503Z" fill="#928D8A"/>
<path d="M17.3961 15.2503C17.3773 15.2887 17.371 16.4652 17.3773 17.8662L17.3961 20.4109H17.7425H18.0888L18.1014 18.2493C18.1077 17.0618 18.114 16.0712 18.1203 16.0439C18.1203 16.022 18.1644 16.0056 18.2147 16.0056C18.2966 16.0056 18.3092 15.9344 18.2966 15.6061L18.2777 15.212L17.8495 15.1956C17.5473 15.1847 17.415 15.2011 17.3961 15.2503Z" fill="#928D8A"/>
<path d="M25.7205 15.2176C25.6953 15.2395 25.6764 15.4146 25.6764 15.6007C25.6764 15.8469 25.7016 15.9564 25.7709 15.9892C25.8527 16.0275 25.8653 16.3559 25.8779 18.222L25.8968 20.411H26.2431H26.5894V17.8116V15.2121L26.1801 15.1957C25.9535 15.1848 25.7457 15.1957 25.7205 15.2176Z" fill="#928D8A"/>
<path d="M26.8539 15.223C26.7846 15.2777 26.8035 15.3325 26.9106 15.4255C26.9924 15.5021 27.3199 15.513 29.5174 15.513C31.8535 15.513 32.0298 15.5076 32.1621 15.4145C32.4706 15.1956 32.3384 15.1847 29.5552 15.1847C28.0944 15.1847 26.8728 15.2011 26.8539 15.223Z" fill="#928D8A"/>
<path d="M32.5021 15.2449C32.4265 15.3598 32.4706 15.7539 32.5714 15.8195C32.6532 15.8743 32.6658 16.2409 32.6658 18.5449V21.21L32.4769 21.3523C32.3132 21.4727 32.288 21.5219 32.288 21.7791C32.288 21.9652 32.3195 22.0911 32.3825 22.1348C32.4643 22.195 32.4769 22.5179 32.4769 24.4607C32.4769 26.4034 32.4643 26.7263 32.3825 26.7865C32.3069 26.8412 32.288 26.9835 32.288 27.4158V27.974L33.031 27.9795C33.4403 27.9795 33.8118 27.9631 33.8559 27.9412C33.9 27.9138 33.9441 27.7278 33.9629 27.476C33.9818 27.2024 34.0259 27.0218 34.0826 26.9671C34.2211 26.8467 34.2211 22.4905 34.0889 22.4249C34.0322 22.3975 33.9881 22.2716 33.9755 22.0801L33.9566 21.7791L33.6922 21.7627C33.4529 21.7463 33.4214 21.7299 33.4214 21.6149C33.4214 21.5383 33.3459 21.4289 33.2325 21.3523L33.0436 21.21V18.5613C33.0436 16.2354 33.0562 15.9016 33.1381 15.8414C33.2136 15.7867 33.2325 15.6882 33.2199 15.4912L33.201 15.2121L32.8736 15.1957C32.6721 15.1847 32.5336 15.2011 32.5021 15.2449Z" fill="#928D8A"/>
<path d="M33.4655 15.2176C33.4403 15.2395 33.4214 15.4091 33.4214 15.5952C33.4214 15.8305 33.3899 15.9564 33.327 16.0056C33.2451 16.0658 33.2325 16.4161 33.2325 18.5504V21.0294L33.4151 21.1662C33.5159 21.2374 33.6103 21.3578 33.6229 21.4289C33.6418 21.5548 33.667 21.5603 34.0826 21.5603H34.5234L34.5422 21.2647C34.5548 21.0841 34.5989 20.9419 34.6556 20.909C34.7311 20.8598 34.7437 20.4439 34.7311 18.0305L34.7123 15.2121L34.1141 15.1957C33.7803 15.1902 33.4907 15.1957 33.4655 15.2176Z" fill="#928D8A"/>
<path d="M2.6743 15.3817C2.59874 15.4473 2.62392 15.5568 2.74356 15.6553C2.84431 15.7428 2.85061 15.9617 2.8695 18.3861C2.88209 20.9746 2.88209 21.0238 2.75616 21.1223C2.68689 21.1771 2.63022 21.2427 2.63022 21.2701C2.63022 21.292 2.54836 21.4179 2.44132 21.5437C2.21463 21.8173 2.20834 21.8611 2.40983 22.0253L2.56096 22.1512V25.0243C2.56096 26.6003 2.57355 27.9083 2.59244 27.9192C2.64281 27.963 3.60622 27.9575 3.68808 27.9137C3.73215 27.8919 3.76364 27.7332 3.76364 27.5416C3.76364 27.268 3.79512 27.175 3.95254 26.967L4.14144 26.7262V24.6685C4.14144 22.9666 4.12885 22.5944 4.05329 22.5233C4.00292 22.4741 3.93995 22.288 3.90846 22.1074C3.86439 21.8228 3.8392 21.779 3.71326 21.7626C3.58103 21.7462 3.54955 21.6805 3.56844 21.4507C3.57474 21.3905 3.49288 21.2646 3.38583 21.1771L3.19693 21.0184V18.4572C3.19693 16.2135 3.20952 15.8742 3.29768 15.7593C3.34805 15.6881 3.38583 15.5732 3.37324 15.502C3.35435 15.3926 3.31657 15.3762 3.03951 15.3598C2.8632 15.3488 2.69948 15.3598 2.6743 15.3817Z" fill="#928D8A"/>
<path d="M3.65029 15.3927C3.60621 15.42 3.58732 15.4802 3.61251 15.5295C3.6314 15.5787 3.60621 15.6936 3.54954 15.7922C3.46768 15.9399 3.44879 16.3011 3.44879 18.4354L3.4425 20.9035L3.59992 21.0184C3.70696 21.1005 3.76363 21.21 3.77623 21.3468L3.79512 21.5602L4.26737 21.5438C4.52554 21.5328 4.81519 21.4891 4.90965 21.4453C5.05447 21.3796 5.07336 21.3413 5.06706 21.1169C5.05447 20.9363 5.08595 20.8488 5.16781 20.7995C5.26856 20.7284 5.27486 20.5533 5.26226 18.0523L5.24337 15.3762L4.48776 15.3598C4.07217 15.3544 3.69437 15.3708 3.65029 15.3927Z" fill="#928D8A"/>
<path d="M18.5422 15.3818C18.517 15.4036 18.4981 15.5514 18.4981 15.7101C18.4981 15.9126 18.4729 16.0056 18.4036 16.0275C18.3218 16.0549 18.3092 16.334 18.3218 18.2329L18.3407 20.411H18.7814H19.2222V17.9757V15.5405L18.9766 15.524C18.8381 15.5131 18.6933 15.4693 18.6555 15.4255C18.6177 15.3818 18.5673 15.3599 18.5422 15.3818Z" fill="#928D8A"/>
<path d="M38.8115 15.3926C38.7422 15.4911 38.7611 20.701 38.8304 20.8159C38.8681 20.8761 38.8996 21.0238 38.8996 21.1442C38.8996 21.4616 39.0822 21.5547 39.7119 21.5601H40.1905L40.2093 21.3522C40.2219 21.2318 40.2912 21.0895 40.3857 21.0019L40.5368 20.8597V19.4696C40.5373 18.5904 40.5327 17.3945 40.4801 16.5199C40.4486 16.4926 40.4045 16.2846 40.3857 16.0602C40.3227 15.2941 40.4234 15.3762 39.5797 15.3598C39.1767 15.3543 38.8304 15.3652 38.8115 15.3926Z" fill="#928D8A"/>
<path d="M40.5683 15.4529C40.5305 15.5623 40.6186 15.8086 40.7131 15.8633C40.7446 15.8797 40.7761 16.9633 40.7823 18.4518L40.7949 21.0129L40.606 21.1388C40.4549 21.2318 40.4171 21.3085 40.3982 21.4891C40.3794 21.6861 40.3542 21.7244 40.2219 21.7517C40.0834 21.7791 40.0645 21.8174 40.0456 22.0801C40.033 22.2388 39.9827 22.4249 39.9323 22.4851C39.7938 22.6547 39.8001 26.7974 39.9386 26.8959C39.989 26.9342 40.033 26.9944 40.033 27.0327C40.033 27.071 40.0771 27.1312 40.1275 27.1695C40.1842 27.2078 40.2219 27.3611 40.2345 27.5964L40.2534 27.9631L40.7446 27.9795C41.0594 27.9904 41.2735 27.974 41.3302 27.9302C41.4057 27.8755 41.4183 27.3994 41.4183 25.0134V22.1512L41.5757 22.0254C41.6639 21.9542 41.7332 21.8721 41.7332 21.8448C41.7332 21.7791 41.2924 21.1881 41.1727 21.106C41.0909 21.0458 41.0783 20.8324 41.0972 19.4861C41.0139 18.5504 41.095 17.5568 41.1035 16.6896C41.1035 16.0001 41.1224 15.7867 41.1979 15.6991C41.2483 15.6444 41.2924 15.5404 41.2924 15.4693C41.2924 15.3598 41.2609 15.3489 40.9524 15.3489C40.669 15.3489 40.5997 15.3653 40.5683 15.4529Z" fill="#928D8A"/>
<path d="M25.2986 15.4528C25.2986 15.4857 25.179 15.513 25.0341 15.524L24.7634 15.5404V17.9757V20.4109H25.2041H25.6449L25.6638 18.2329C25.6764 16.3339 25.6638 16.0548 25.5819 16.0274C25.5127 16.0001 25.4875 15.9125 25.4875 15.6991C25.4875 15.4747 25.4623 15.4036 25.393 15.4036C25.3427 15.4036 25.2986 15.4255 25.2986 15.4528Z" fill="#928D8A"/>
<path d="M19.4804 15.5623C19.4615 15.5897 19.4867 15.6389 19.537 15.6772C19.5874 15.7155 19.6315 15.7976 19.6315 15.8633C19.6315 15.9235 19.6567 16.0056 19.6819 16.0384C19.7511 16.1369 20.066 16.1643 20.1415 16.0822C20.1793 16.0384 20.2549 16.0056 20.3052 16.0056C20.3745 16.0056 20.3871 16.0986 20.3745 16.4817C20.3556 16.9523 20.3493 16.9633 20.1982 16.9633C20.1038 16.9633 20.0345 17.0016 20.0219 17.0618C20.0093 17.122 19.94 17.1548 19.8141 17.1548H19.6315V16.6568C19.6315 16.2847 19.6126 16.1643 19.5559 16.1807C19.493 16.2026 19.4741 16.3777 19.4741 16.8319V17.4558H21.9928H24.5115V16.8319C24.5115 16.3777 24.4926 16.2026 24.4359 16.1807C24.373 16.1643 24.3541 16.2847 24.3541 16.6568V17.1548H24.1715C24.0455 17.1548 23.9826 17.122 23.9574 17.0454C23.9322 16.9687 23.8818 16.9414 23.7748 16.9469C23.6362 16.9633 23.6299 16.9523 23.6111 16.4817C23.5985 16.0713 23.6048 16.0056 23.6992 16.0056C23.7559 16.0056 23.8126 16.0548 23.8314 16.115C23.8566 16.1916 23.8881 16.2081 23.9385 16.1752C23.9763 16.1479 24.077 16.115 24.1652 16.1041C24.2848 16.0931 24.3289 16.0494 24.3415 15.9235C24.3541 15.8305 24.4044 15.721 24.4548 15.6718C24.5052 15.6225 24.5241 15.5678 24.4989 15.5514C24.4359 15.4966 19.5182 15.5076 19.4804 15.5623ZM20.8153 16.5966C20.8342 17.1274 20.8279 17.1548 20.7019 17.1548C20.5823 17.1548 20.576 17.122 20.576 16.5747C20.576 16.0548 20.5886 16.0001 20.6894 16.0165C20.7838 16.0329 20.7964 16.1096 20.8153 16.5966ZM23.4096 16.5802C23.4096 17.1056 23.397 17.1548 23.2899 17.1548C23.1325 17.1548 23.0947 17.0508 23.0947 16.6349C23.0947 16.2354 23.1766 16.0056 23.3151 16.0056C23.3907 16.0056 23.4096 16.1041 23.4096 16.5802Z" fill="#928D8A"/>
<path d="M0.804153 15.7593C0.804153 15.8195 0.911199 15.8414 1.26382 15.8523L1.71719 15.8687L1.74867 18.7965C1.78015 21.6477 1.78645 21.7244 1.89979 21.7244C1.98795 21.7244 2.03832 21.6696 2.0761 21.5492C2.10758 21.4562 2.23982 21.2756 2.37835 21.1552L2.63022 20.9363V18.3971C2.63022 16.0056 2.62392 15.8523 2.51688 15.7702C2.35316 15.6389 0.804153 15.6334 0.804153 15.7593Z" fill="#928D8A"/>
<path d="M11.729 15.7429C11.7102 15.7812 11.7039 16.9578 11.7102 18.3588L11.729 20.9035H11.8865H12.0439L12.0628 18.4956C12.0754 16.3777 12.088 16.0822 12.1761 16.022C12.2328 15.9892 12.2643 15.9016 12.2517 15.8305C12.2391 15.7265 12.1887 15.6991 11.9935 15.6882C11.8424 15.6772 11.7479 15.6937 11.729 15.7429Z" fill="#928D8A"/>
<path d="M12.4973 15.7101C12.4721 15.732 12.4532 15.8195 12.4532 15.9016C12.4532 15.9837 12.428 16.0713 12.3902 16.0877C12.3524 16.1096 12.3272 16.9742 12.3272 18.5011C12.3272 20.0498 12.3461 20.8761 12.3902 20.8761C12.428 20.8761 12.4532 20.3946 12.4532 19.5354V18.1946L12.6043 18.1618C12.6862 18.1454 12.8247 18.1399 12.9002 18.1508L13.0514 18.1672L13.0703 19.519L13.0829 20.8761L13.234 20.909C13.3158 20.9254 13.4544 20.9309 13.5299 20.9199L13.681 20.9035L13.7125 19.5354L13.744 18.1672H14.2478H14.7515L14.783 19.5354L14.8145 20.9035H15.1293H15.4441L15.463 18.5558C15.4756 16.6021 15.463 16.1862 15.3875 16.0877C15.3371 16.022 15.2867 15.9126 15.2741 15.8359L15.2552 15.7046L13.8951 15.6882C13.1521 15.6827 12.5224 15.6937 12.4973 15.7101ZM14.8963 16.5693C14.9018 16.8148 14.9114 16.9995 14.8963 17.1872C14.245 17.1704 14.0573 17.1662 13.7503 17.1439C13.6307 17.1275 13.6181 17.0892 13.5992 16.6404C13.5866 16.3723 13.5992 16.115 13.6118 16.0767C13.637 16.0165 13.7881 16.0056 14.2604 16.0165L14.8775 16.033L14.8963 16.5693ZM13.1395 16.1369C13.2277 16.2245 13.2214 16.9907 13.1332 17.0837C13.064 17.1603 12.8247 17.1767 12.598 17.122C12.4595 17.0892 12.4532 17.0563 12.4532 16.6349C12.4532 16.2245 12.4658 16.1807 12.598 16.126C12.7932 16.0439 13.0577 16.0494 13.1395 16.1369Z" fill="#928D8A"/>
<path d="M15.5008 15.7594C15.4756 15.8086 15.5071 15.8907 15.5638 15.9454C15.6519 16.0275 15.6645 16.3176 15.6771 18.3916L15.696 20.7394L15.8408 20.7558C15.9227 20.7667 16.036 20.7394 16.099 20.6901C16.1683 20.6354 16.3635 20.6025 16.672 20.5916L17.1443 20.5752V18.1399V15.7046L16.3383 15.6882C15.6582 15.6773 15.5323 15.6882 15.5008 15.7594Z" fill="#928D8A"/>
<path d="M26.8539 15.7156C26.8287 15.732 26.8098 16.8429 26.8098 18.1782V20.6025H27.3073C27.6725 20.6025 27.8236 20.6244 27.8803 20.6846C27.9243 20.7284 28.0377 20.7667 28.1384 20.7667H28.321V18.408C28.3147 16.2792 28.3273 16.0384 28.4218 15.9454C28.4785 15.8907 28.5099 15.8086 28.4911 15.7593C28.4596 15.6937 28.3147 15.6772 27.6725 15.6772C27.2443 15.6772 26.8728 15.6937 26.8539 15.7156Z" fill="#928D8A"/>
<path d="M28.7429 15.7155C28.7177 15.7319 28.6988 15.8031 28.6988 15.8687C28.6988 15.9399 28.6548 16.022 28.6044 16.0603C28.5225 16.1205 28.5099 16.4434 28.5225 18.5174L28.5414 20.9035L28.724 20.9199C28.8185 20.9308 28.9696 20.9254 29.0515 20.9089L29.2026 20.8761L29.2152 19.5189L29.2341 18.1672L29.7189 18.1508L30.2101 18.1344L30.2227 19.5189L30.2416 20.9035H30.5249H30.8083L30.8397 19.5353L30.8712 18.1672L31.079 18.1508C31.1924 18.1398 31.2344 18.2787 31.3813 18.2C31.418 18.1804 31.45 20.8974 31.4771 20.8808C31.5042 20.8642 31.5263 20.8435 31.5434 20.8077C31.5605 20.772 31.5724 17.9914 31.5791 17.9142C31.5857 17.837 31.587 17.7335 31.5828 17.5926C31.5682 17.1054 31.5576 17.0727 31.4379 17.0891C30.7705 17.1876 30.7768 17.1931 30.7768 16.6021C30.7768 16.1533 30.8334 16.0603 31.0916 16.0603C31.3498 16.0603 31.4631 16.208 31.4316 16.4926C31.419 16.6239 31.4447 17.1064 31.4918 17.1401C31.5587 17.1555 31.5261 16.7225 31.5324 16.3284C31.5324 15.8469 31.5135 15.7374 31.4316 15.71C31.2994 15.6663 28.7933 15.6663 28.7429 15.7155ZM30.3675 16.5802C30.3675 17.0946 30.3701 17.0185 30.3696 17.1594C29.7635 17.1595 29.4721 17.1587 29.2404 17.1438C29.1207 17.1274 29.1081 17.0891 29.0892 16.6404C29.0766 16.3722 29.0892 16.115 29.1018 16.0767C29.127 16.0165 29.2781 16.0056 29.7504 16.0165L30.3675 16.0329V16.5802Z" fill="#928D8A"/>
<path d="M31.7654 15.71C31.7024 15.7702 31.7087 15.9727 31.7843 16.0384C31.822 16.0712 31.8535 17.0015 31.8598 18.4955L31.8787 20.9035H32.0676H32.2565V18.304V15.7045L32.0361 15.6881C31.9102 15.6772 31.7906 15.6881 31.7654 15.71Z" fill="#928D8A"/>
<path d="M41.3302 16.126C41.3113 16.3777 41.2924 17.5434 41.2987 18.7254C41.305 21.1005 41.2735 20.909 41.7206 21.3194C41.8024 21.3906 41.8843 21.5219 41.9032 21.604C41.9284 21.7189 41.9724 21.7518 42.0606 21.7408C42.1865 21.7244 42.1865 21.6642 42.1802 18.8185C42.1676 16.1807 42.1802 15.9071 42.2684 15.8743C42.3251 15.8578 42.5706 15.8414 42.8099 15.8414C43.1562 15.8414 43.2444 15.825 43.2444 15.7593C43.2444 15.6882 43.0996 15.6772 42.3062 15.6772H41.3679L41.3302 16.126Z" fill="#928D8A"/>
<path d="M0.77267 16.0603C0.75378 16.0931 0.816748 16.2135 0.923793 16.3285L1.11899 16.5419L1.13159 19.1304L1.15048 21.7244L1.32679 21.7408L1.4968 21.7572L1.48421 18.8951L1.46532 16.0329L1.13788 16.0165C0.955277 16.0056 0.797858 16.0275 0.77267 16.0603Z" fill="#928D8A"/>
<path d="M42.4951 16.0822C42.4447 16.1314 42.4321 16.9304 42.4384 18.9388L42.4573 21.7244H42.6462H42.8351L42.854 19.1304L42.8666 16.5419L43.0555 16.3339C43.1625 16.219 43.2444 16.0986 43.2444 16.0658C43.2444 15.9782 42.5832 15.9891 42.4951 16.0822Z" fill="#928D8A"/>
<path d="M43.6537 16.2628C43.5844 16.2738 43.4648 16.2957 43.3892 16.3121C43.3074 16.323 43.2444 16.3613 43.2444 16.3942C43.2444 16.427 43.2003 16.4872 43.1499 16.531C43.0681 16.6021 43.0555 16.9742 43.0555 19.1851C43.0555 21.4289 43.0681 21.7518 43.1499 21.7518C43.2444 21.7518 43.2633 21.1334 43.2759 17.4887C43.2759 16.9797 43.2885 16.914 43.4018 16.8593C43.9056 16.6131 44.1385 16.334 43.8993 16.2573C43.8426 16.2409 43.7985 16.23 43.7922 16.23C43.7859 16.2355 43.7229 16.2464 43.6537 16.2628Z" fill="#928D8A"/>
<path d="M0.00446335 16.3722C-0.039614 16.4652 0.250037 16.717 0.552282 16.8428C0.697108 16.9085 0.709702 16.9359 0.697108 17.2916C0.684514 17.505 0.684514 17.7458 0.684514 17.8388C0.715998 21.0074 0.741185 21.7243 0.816747 21.7243C0.879714 21.7243 0.904901 21.2209 0.917495 19.3164C0.923792 17.9921 0.917495 16.8319 0.898605 16.7389C0.841934 16.4598 0.602656 16.2792 0.300412 16.2792C0.117805 16.2792 0.0359472 16.3065 0.00446335 16.3722Z" fill="#928D8A"/>
<path d="M19.4993 17.7076C19.4615 17.724 19.4489 18.2931 19.4552 19.0757C19.4741 20.3836 19.4741 20.411 19.6063 20.4274C19.6756 20.4383 19.7763 20.4055 19.8204 20.3563C19.9274 20.2468 20.1163 20.2523 20.1919 20.3672C20.2486 20.4602 20.2549 20.4602 20.3682 20.3672C20.5193 20.2523 20.6642 20.2468 20.7649 20.3563C20.8279 20.4219 21.0483 20.4383 22.0054 20.4383C22.9751 20.4383 23.1703 20.4274 23.1955 20.3563C23.2207 20.3125 23.3025 20.2742 23.3844 20.2742C23.4725 20.2742 23.5544 20.3125 23.5733 20.3563C23.5985 20.4 23.6488 20.4383 23.6929 20.4383C23.737 20.4383 23.7874 20.4 23.8126 20.3563C23.8566 20.2468 24.0644 20.2523 24.1652 20.3563C24.2093 20.4055 24.31 20.4383 24.3793 20.4274C24.5115 20.411 24.5115 20.3836 24.5304 19.103C24.5367 18.2329 24.5241 17.7732 24.48 17.7349C24.4107 17.6747 19.6126 17.6474 19.4993 17.7076ZM20.173 18.3369C20.2234 18.5065 20.0849 18.6543 19.9274 18.5996C19.8204 18.5667 19.7763 18.3041 19.8645 18.2329C19.9652 18.1454 20.1352 18.2001 20.173 18.3369ZM20.6763 18.3916C20.6889 18.523 20.67 18.5722 20.5693 18.5941C20.4182 18.6269 20.3111 18.5394 20.3111 18.3861C20.3111 18.2329 20.3678 18.1837 20.5315 18.2056C20.6197 18.2165 20.6637 18.2712 20.6763 18.3916ZM23.5607 18.2822C23.6614 18.512 23.5355 18.6707 23.3151 18.5996C23.2207 18.5667 23.1829 18.2986 23.2647 18.2329C23.3403 18.1618 23.5229 18.1946 23.5607 18.2822ZM24.1526 18.3643C24.1652 18.4463 24.1274 18.5339 24.0707 18.5777C23.9196 18.6871 23.7559 18.5284 23.8126 18.3314C23.8692 18.1344 24.1274 18.1563 24.1526 18.3643ZM20.1856 19.1578C20.2045 19.508 20.1101 19.6612 19.9149 19.5956C19.8456 19.5737 19.8204 19.4807 19.8204 19.218C19.8204 18.8349 19.8456 18.7856 20.0408 18.8075C20.1478 18.8239 20.1667 18.8677 20.1856 19.1578ZM20.7334 19.207C20.7334 19.5792 20.7271 19.5901 20.576 19.5901C20.4312 19.5901 20.4186 19.5682 20.3997 19.2672C20.3745 18.8677 20.4123 18.7856 20.5886 18.8075C20.7208 18.8239 20.7334 18.8513 20.7334 19.207ZM23.567 19.207C23.567 19.5792 23.5607 19.5901 23.4096 19.5901C23.2647 19.5901 23.2521 19.5682 23.2333 19.2672C23.2081 18.8677 23.2458 18.7856 23.4222 18.8075C23.5544 18.8239 23.567 18.8513 23.567 19.207ZM24.1337 19.207C24.1337 19.5792 24.1274 19.5901 23.9763 19.5901C23.8314 19.5901 23.8189 19.5682 23.8 19.2672C23.7748 18.8677 23.8126 18.7856 23.9889 18.8075C24.1211 18.8239 24.1337 18.8513 24.1337 19.207ZM20.1793 19.8692C20.2234 19.9787 20.0408 20.1155 19.9086 20.0717C19.8204 20.0443 19.7889 19.8801 19.8645 19.8199C19.94 19.7488 20.1415 19.7816 20.1793 19.8692ZM20.7523 19.9239C20.7712 20.0443 20.6264 20.1155 20.469 20.0717C20.3808 20.0443 20.3619 19.8801 20.4312 19.8145C20.5193 19.7379 20.7334 19.809 20.7523 19.9239ZM23.5733 19.8637C23.6299 19.9841 23.4914 20.1045 23.3466 20.0717C23.2647 20.0553 23.2207 19.9951 23.2207 19.913C23.2207 19.809 23.2521 19.7816 23.3781 19.7816C23.4662 19.7816 23.5544 19.8199 23.5733 19.8637ZM24.1526 19.9239C24.1778 20.0717 23.9889 20.1428 23.8629 20.0334C23.7307 19.9239 23.8126 19.7707 23.9889 19.7926C24.077 19.8035 24.14 19.8528 24.1526 19.9239Z" fill="#928D8A"/>
<path d="M17.3647 20.6846C17.308 20.7448 17.1506 20.7667 16.7665 20.7667C16.3824 20.7667 16.2249 20.7886 16.1683 20.8488C16.1242 20.8926 16.036 20.9309 15.9731 20.9309C15.8723 20.9309 15.8534 20.9747 15.8534 21.2264C15.8534 21.418 15.8219 21.5438 15.759 21.5876C15.633 21.6806 15.633 22.0801 15.759 22.0801C15.8219 22.0801 15.8534 22.1622 15.866 22.3921L15.8849 22.7095L16.3194 22.7259C16.672 22.7368 16.7602 22.7259 16.8294 22.6438C16.9113 22.5508 17.1758 22.5453 21.955 22.5453C26.6209 22.5508 26.9987 22.5563 27.1121 22.6438C27.2002 22.715 27.345 22.7368 27.6788 22.7368H28.1321V22.4359C28.1321 22.217 28.1573 22.1239 28.2266 22.102C28.2896 22.0801 28.321 21.9926 28.321 21.8339C28.321 21.6752 28.2896 21.5876 28.2266 21.5657C28.1573 21.5438 28.1321 21.4508 28.1321 21.2319C28.1321 20.9747 28.1132 20.9309 28.0125 20.9309C27.9495 20.9309 27.8614 20.8926 27.8173 20.8488C27.7606 20.7886 27.6095 20.7667 27.2569 20.7667C26.9357 20.7613 26.7405 20.7394 26.6587 20.6846C26.4698 20.5588 17.4843 20.5642 17.3647 20.6846Z" fill="#928D8A"/>
<path d="M11.7416 21.1278C11.7165 21.1497 11.7353 21.2044 11.7794 21.2482C11.8172 21.292 11.8676 21.4671 11.8865 21.6368L11.918 21.9432L13.3977 21.9596C15.186 21.9815 15.4127 21.9596 15.4127 21.7845C15.4127 21.7134 15.4693 21.593 15.5449 21.5109C15.6142 21.4343 15.6645 21.3139 15.6519 21.2482L15.633 21.1223L13.7062 21.1059C12.6484 21.1004 11.7668 21.1114 11.7416 21.1278Z" fill="#928D8A"/>
<path d="M28.3651 21.1334C28.2959 21.1936 28.3147 21.3687 28.4092 21.5219C28.4596 21.604 28.5162 21.7354 28.5414 21.8229L28.5729 21.9707L30.3234 21.9597L32.0676 21.9433L32.0865 21.6423C32.0991 21.4781 32.1495 21.303 32.1998 21.2538C32.2502 21.21 32.2691 21.1498 32.2439 21.1334C32.1936 21.0841 28.4155 21.0841 28.3651 21.1334Z" fill="#928D8A"/>
<path d="M5.14892 21.6477C5.02929 21.6751 4.75852 21.7188 4.55073 21.7407L4.17292 21.779L4.15403 22.0144C4.14144 22.1621 4.17292 22.3044 4.2296 22.381C4.31775 22.4959 4.33034 22.8079 4.33034 24.674V26.8411L4.14144 27.1038C3.99032 27.3227 3.95254 27.4322 3.95254 27.6839V27.9958L4.31775 27.9794L4.67667 27.963L4.68926 26.1023C4.70185 24.6412 4.72704 24.2088 4.7963 24.0775C4.84668 23.9845 4.93483 23.8148 5.0041 23.6944C5.18472 23.3594 5.54528 23.0869 5.84157 22.9173C6.22029 22.6907 6.47806 22.7148 6.89313 22.7148C7.71164 22.7589 7.86258 22.8246 8.39176 23.2128C8.73144 23.4915 8.78335 23.6686 8.95217 23.9298C9.19145 24.3347 9.24182 24.767 9.24182 26.365C9.24182 28.0615 9.23553 28.0287 9.60074 27.9411C9.76446 27.9028 9.77705 27.8809 9.79594 27.5854C9.80853 27.3665 9.78335 27.2297 9.72038 27.1367C9.63222 27.0272 9.61963 26.6934 9.61963 24.6631C9.61963 22.6054 9.63222 22.3044 9.72038 22.2442C9.78335 22.195 9.80853 22.1019 9.79594 21.9761L9.77705 21.779L9.24182 21.7626C8.94588 21.7572 8.62474 21.7243 8.5177 21.6915C8.26582 21.6094 5.43858 21.5766 5.14892 21.6477Z" fill="#928D8A"/>
<path d="M35.6883 21.6477C35.5308 21.6751 35.1341 21.7189 34.8067 21.7408L34.2085 21.7791L34.1896 21.9761C34.177 22.1019 34.2022 22.195 34.2652 22.2442C34.3533 22.3044 34.3659 22.6054 34.3659 24.6357C34.3659 26.6387 34.3533 26.9725 34.2715 27.0819C34.1959 27.175 34.177 27.3173 34.1896 27.5854L34.2085 27.963H34.4604H34.7123L34.7437 26.2392C34.7689 25.0297 34.8004 24.4715 34.8571 24.3621C34.8949 24.2745 34.8655 24.2304 34.9327 24.083C35.1125 23.4796 35.8224 22.977 36.1731 22.8243C36.4212 22.75 36.595 22.7203 37.0673 22.7203C37.7536 22.7258 38.0379 22.8468 38.44 23.1089C38.8756 23.4065 39.0983 23.7684 39.183 24.1596C39.2585 24.2691 39.2711 24.6467 39.2774 26.1407V27.9904H39.6489H40.0141L40.0456 27.7168C40.0834 27.3993 40.0456 27.1695 39.9575 27.1695C39.926 27.1695 39.8441 27.1148 39.7749 27.0436C39.6678 26.9287 39.6615 26.7919 39.6552 24.674C39.6552 22.7039 39.6678 22.4139 39.7497 22.3537C39.8189 22.3044 39.8441 22.2059 39.8315 22.0308L39.8126 21.7791L39.4663 21.7462C39.2774 21.7243 39.0193 21.686 38.8996 21.6477C38.6352 21.5766 36.1164 21.5766 35.6883 21.6477Z" fill="#928D8A"/>
<path d="M41.9724 22.009C41.9347 22.0473 41.8717 22.0801 41.8276 22.0801C41.7835 22.0801 41.7332 22.1348 41.708 22.2005C41.6891 22.2716 41.6702 23.5741 41.6702 25.0955C41.6702 27.3994 41.6828 27.881 41.7584 27.9302C41.815 27.974 42.0795 27.9904 42.5266 27.9795L43.2129 27.9631L43.2444 25.1447C43.2633 23.596 43.2822 22.3209 43.2948 22.3154C43.3011 22.3099 43.3703 22.299 43.4522 22.2881C43.6096 22.2716 43.6852 22.0418 43.5466 21.998C43.5026 21.9871 43.1436 21.9652 42.7532 21.9597C42.2369 21.9488 42.0165 21.9652 41.9724 22.009Z" fill="#928D8A"/>
<path d="M0.388567 22.0527C0.331896 22.1786 0.407457 22.299 0.552283 22.299C0.621547 22.299 0.684515 22.3045 0.690812 22.3099C0.703405 22.3209 0.722295 23.5905 0.741186 25.1392L0.77267 27.9521H1.4968L2.22093 27.9466L2.23982 25.0571L2.25241 22.1622L2.11388 22.0691C1.91239 21.9378 0.445238 21.9214 0.388567 22.0527Z" fill="#928D8A"/>
<path d="M28.3651 22.113C28.3399 22.1349 28.321 22.3209 28.321 22.5289V22.901L30.2919 22.8901L32.2565 22.8737L32.2754 22.5836C32.2943 22.3209 32.2817 22.2936 32.1306 22.2443C32.0361 22.2115 31.2364 22.1896 30.2478 22.1896C29.1711 22.1896 28.5099 22.1677 28.4722 22.1349C28.4344 22.102 28.3903 22.0966 28.3651 22.113Z" fill="#928D8A"/>
<path d="M15.2867 22.184C15.1671 22.2059 14.3863 22.2114 13.5551 22.2005C12.5539 22.184 11.9872 22.2004 11.8676 22.2388C11.7039 22.2935 11.6913 22.3154 11.7102 22.5835L11.729 22.8736H13.681H15.633L15.6519 22.6328C15.6771 22.3701 15.6268 22.1293 15.5512 22.1403C15.526 22.1457 15.4064 22.1676 15.2867 22.184Z" fill="#928D8A"/>
<path d="M17.0309 22.7696C16.9554 22.8353 16.9806 22.994 17.0813 23.0651C17.2261 23.1691 17.2261 27.3939 17.075 27.4979C17.012 27.5471 16.9869 27.6401 16.9995 27.766C17.0183 27.9576 17.0246 27.963 17.2702 27.963C17.5158 27.963 17.5221 27.9576 17.541 27.766C17.5536 27.6401 17.5284 27.5471 17.4654 27.4979C17.3773 27.4377 17.3647 27.1531 17.3647 25.2815C17.3647 23.4099 17.3773 23.1253 17.4591 23.0651C17.5158 23.0268 17.5536 22.9392 17.541 22.879C17.5284 22.7915 17.4717 22.7586 17.3017 22.7477C17.1758 22.7368 17.0561 22.7477 17.0309 22.7696Z" fill="#928D8A"/>
<path d="M17.7865 22.7697C17.7614 22.7915 17.7425 22.89 17.7425 22.9831C17.7425 23.0816 17.6984 23.191 17.648 23.2293C17.5662 23.2895 17.5536 23.5851 17.5536 25.2651V27.2352L17.7299 27.3939C17.8243 27.487 17.9125 27.6347 17.9314 27.7551L17.9628 27.9521H18.7185C19.5559 27.9467 19.6315 27.9138 19.6315 27.5745C19.6315 27.4815 19.6756 27.372 19.7259 27.3337C19.8645 27.2352 19.8708 23.3333 19.7322 23.2293C19.6819 23.1965 19.6315 23.0761 19.6189 22.9667L19.6 22.7642L18.7122 22.7478C18.2273 22.7423 17.8117 22.7532 17.7865 22.7697Z" fill="#928D8A"/>
<path d="M19.8645 22.7696C19.7889 22.8353 19.8141 22.994 19.9148 23.0651C20.0597 23.1691 20.0597 27.3939 19.9086 27.4979C19.8456 27.5471 19.8204 27.6401 19.833 27.766C19.8519 27.9576 19.8582 27.963 20.1038 27.963C20.3493 27.963 20.3556 27.9576 20.3745 27.766C20.3871 27.6401 20.3619 27.5471 20.299 27.4979C20.2108 27.4377 20.1982 27.1531 20.1982 25.2815C20.1982 23.4099 20.2108 23.1253 20.2927 23.0651C20.3493 23.0268 20.3871 22.9392 20.3745 22.879C20.3619 22.7915 20.3052 22.7586 20.1352 22.7477C20.0093 22.7368 19.8897 22.7477 19.8645 22.7696Z" fill="#928D8A"/>
<path d="M20.6201 22.7697C20.5949 22.7915 20.576 22.901 20.576 23.0159C20.576 23.1418 20.5445 23.2293 20.4816 23.2512C20.3997 23.2786 20.3871 23.5522 20.3871 25.2706C20.3871 26.978 20.3997 27.2735 20.4816 27.3337C20.5319 27.372 20.576 27.4924 20.576 27.6074C20.576 27.7223 20.6201 27.8427 20.6705 27.881C20.7334 27.9248 21.1364 27.9467 22.0683 27.9521H23.3781L23.397 27.6566C23.4096 27.4706 23.4536 27.3447 23.5103 27.3173C23.6425 27.2517 23.6425 23.3278 23.5103 23.2293C23.4599 23.1965 23.4096 23.0761 23.397 22.9667L23.3781 22.7642L22.018 22.7478C21.275 22.7423 20.6453 22.7532 20.6201 22.7697Z" fill="#928D8A"/>
<path d="M23.6425 22.7696C23.567 22.8353 23.5922 22.994 23.6929 23.0651C23.8377 23.1691 23.8377 27.3939 23.6866 27.4979C23.6236 27.5471 23.5985 27.6401 23.6111 27.766C23.6299 27.9576 23.6362 27.963 23.8818 27.963C24.1274 27.963 24.1337 27.9576 24.1526 27.766C24.1652 27.6401 24.14 27.5471 24.077 27.4979C23.9889 27.4377 23.9763 27.1531 23.9763 25.2815C23.9763 23.4099 23.9889 23.1253 24.0707 23.0651C24.1274 23.0268 24.1652 22.9392 24.1526 22.879C24.14 22.7915 24.0833 22.7586 23.9133 22.7477C23.7874 22.7368 23.6677 22.7477 23.6425 22.7696Z" fill="#928D8A"/>
<path d="M24.3982 22.7697C24.373 22.7915 24.3541 22.89 24.3541 22.9831C24.3541 23.0816 24.31 23.191 24.2596 23.2293C24.1211 23.3278 24.1148 27.2298 24.2596 27.3337C24.31 27.3666 24.3541 27.5198 24.3667 27.6785L24.3856 27.9576H25.2986H26.2116L26.2305 27.6785C26.2431 27.5198 26.2872 27.3666 26.3376 27.3337C26.4761 27.2352 26.4761 23.3278 26.3439 23.2293C26.2935 23.1965 26.2431 23.0761 26.2305 22.9667L26.2116 22.7642L25.3238 22.7478C24.8389 22.7423 24.4233 22.7532 24.3982 22.7697Z" fill="#928D8A"/>
<path d="M26.4761 22.7751C26.4005 22.8353 26.4257 22.994 26.5265 23.0652C26.6713 23.1691 26.6713 27.3939 26.5202 27.4979C26.4572 27.5472 26.432 27.6402 26.4446 27.7661C26.4635 27.9576 26.4761 27.9631 26.7343 27.9795L26.9987 27.9959V27.7825C26.9987 27.6566 26.9609 27.5362 26.9043 27.4979C26.8224 27.4377 26.8098 27.1258 26.8098 25.2815C26.8098 23.4373 26.8224 23.1254 26.9043 23.0652C26.9546 23.0269 26.9987 22.9393 26.9987 22.8682C26.9987 22.7532 26.9672 22.7368 26.7594 22.7368C26.6272 22.7368 26.495 22.7532 26.4761 22.7751Z" fill="#928D8A"/>
<path d="M6.09974 23.0213C5.56421 23.2949 5.22047 23.6593 5.02928 24.1268C4.90335 24.4551 4.89705 24.5536 4.90965 26.2173L4.92854 27.963H5.14263C5.52673 27.963 5.52673 27.974 5.52673 26.2775C5.52673 24.6084 5.54562 24.5044 5.87305 24.1268C6.11233 23.8477 6.25086 23.7656 6.59718 23.6835C7.18908 23.5412 7.78727 23.8039 8.1273 24.3511C8.25953 24.5591 8.26582 24.6576 8.29731 26.2665L8.32879 27.9575L8.56807 27.963C8.69401 27.9685 8.82624 27.9466 8.86402 27.9083C8.93328 27.8371 8.95847 24.9312 8.8955 24.488C8.79653 24.0153 8.46526 23.4698 8.09581 23.2183C7.65504 22.9502 7.47243 22.9009 6.91202 22.9064C6.51532 22.9064 6.30123 22.9392 6.09974 23.0213Z" fill="#928D8A"/>
<path d="M15.8786 22.9612C15.8031 23.0761 15.8408 23.3552 15.9416 23.4045C16.0297 23.4483 16.0423 23.7055 16.0423 25.5333C16.0423 27.3283 16.0297 27.6129 15.9479 27.6402C15.8912 27.6621 15.8534 27.7442 15.8534 27.8318C15.8534 27.985 15.866 27.9905 16.1368 27.9905C16.4075 27.9905 16.4201 27.985 16.4201 27.8318C16.4201 27.7442 16.3824 27.6621 16.3257 27.6402C16.2438 27.6129 16.2312 27.3283 16.2312 25.5278C16.2312 23.7274 16.2438 23.4428 16.3257 23.4154C16.3887 23.3935 16.4201 23.306 16.4201 23.1418V22.901H16.1746C16.036 22.901 15.9038 22.9284 15.8786 22.9612Z" fill="#928D8A"/>
<path d="M27.5339 22.9557C27.4773 23.0378 27.5654 23.3826 27.6662 23.4537C27.7984 23.5468 27.7858 27.6019 27.6536 27.6457C27.6032 27.6621 27.5654 27.7442 27.5654 27.8318C27.5654 27.985 27.578 27.9905 27.8488 27.9905C28.1195 27.9905 28.1321 27.985 28.1321 27.8318C28.1321 27.7442 28.0944 27.6621 28.0377 27.6402C27.9558 27.6129 27.9432 27.3283 27.9432 25.5278C27.9432 23.7274 27.9558 23.4428 28.0377 23.4154C28.1007 23.3935 28.1321 23.306 28.1321 23.1418V22.901H27.8551C27.6977 22.901 27.5528 22.9229 27.5339 22.9557Z" fill="#928D8A"/>
<path d="M36.1164 23.0816C35.6316 23.3169 35.2034 23.8313 35.0838 24.3239C35.0586 24.4278 35.0271 25.2816 35.0145 26.2228L34.9893 27.9303L35.2097 27.9631C35.6883 28.0452 35.6505 28.1601 35.6883 26.2392C35.726 24.3129 35.7134 24.3512 36.2046 23.9408C36.3935 23.7766 36.5131 23.7219 36.7587 23.6945C37.4073 23.6179 37.8606 23.7876 38.2007 24.2418L38.3644 24.4607L38.3959 26.1736C38.4337 28.0616 38.4148 28.0069 38.8366 27.9795L39.057 27.9631V26.1572C39.057 24.3512 39.0444 24.2089 38.8303 23.8861C38.7989 23.8423 38.7485 23.7547 38.717 23.6945C38.6226 23.4975 38.1377 23.1254 37.8418 23.0105C37.6277 22.9284 37.4262 22.901 37.0169 22.901C36.5257 22.9065 36.4439 22.9229 36.1164 23.0816Z" fill="#928D8A"/>
<path d="M16.6783 23.1527C16.672 23.2403 16.6279 23.3661 16.5776 23.4263C16.502 23.5139 16.4894 23.8587 16.4831 25.5442C16.4831 27.4651 16.4894 27.569 16.609 27.7004L16.7287 27.8372L16.7665 27.6785C16.7917 27.5964 16.8483 27.4596 16.8987 27.3775C16.968 27.2626 16.9869 26.8686 16.9869 25.2596C16.9869 23.503 16.9743 23.2786 16.8861 23.2457C16.8294 23.2293 16.7602 23.1637 16.735 23.098C16.6846 22.9995 16.6783 23.005 16.6783 23.1527Z" fill="#928D8A"/>
<path d="M12.0754 23.2184C12.0754 23.3115 12.1132 23.3936 12.1698 23.4154C12.2517 23.4428 12.2643 23.7274 12.2643 25.5278C12.2643 27.3283 12.2517 27.6129 12.1698 27.6402C12.1132 27.6621 12.0754 27.7442 12.0754 27.8318C12.0754 27.985 12.088 27.9905 12.3587 27.9905C12.6295 27.9905 12.6421 27.985 12.6421 27.8318C12.6421 27.7442 12.6043 27.6621 12.5476 27.6402C12.4658 27.6129 12.4532 27.3283 12.4532 25.5333C12.4532 23.6891 12.4658 23.4483 12.5539 23.4045C12.6106 23.3771 12.6421 23.306 12.6295 23.2239C12.6169 23.1145 12.5728 23.0926 12.3461 23.0761C12.0817 23.0597 12.0754 23.0652 12.0754 23.2184Z" fill="#928D8A"/>
<path d="M13.0514 23.109C13.0136 23.1308 12.9254 23.2458 12.8562 23.3662C12.7239 23.5796 12.7176 23.6562 12.7113 25.5388L12.6988 27.4925L12.8625 27.7168C12.9506 27.8372 13.0451 27.9357 13.0703 27.9357C13.0954 27.9357 13.3851 27.9412 13.7125 27.9467C14.2918 27.9576 14.3107 27.9521 14.3296 27.8372C14.3422 27.7661 14.3926 27.6949 14.443 27.6785C14.5752 27.6347 14.5752 23.492 14.443 23.3935C14.3926 23.3607 14.3422 23.2786 14.3296 23.2129C14.3107 23.098 14.2729 23.0925 13.7125 23.0816C13.3851 23.0761 13.0829 23.0871 13.0514 23.109Z" fill="#928D8A"/>
<path d="M14.6319 23.1089C14.613 23.1417 14.6382 23.2348 14.6885 23.3169C14.7641 23.4482 14.783 23.8203 14.783 25.5661C14.783 27.5909 14.7767 27.6675 14.657 27.7715C14.4493 27.9521 14.4996 27.9959 14.8963 27.9794C15.2364 27.963 15.2552 27.9576 15.2741 27.8153C15.2867 27.7058 15.2678 27.662 15.1986 27.662C15.1104 27.662 15.0978 27.4267 15.0978 25.5278C15.0978 23.6288 15.1104 23.3935 15.1986 23.3935C15.2678 23.3935 15.2867 23.3497 15.2741 23.2402C15.2552 23.1034 15.2301 23.0925 14.9593 23.0761C14.8019 23.0651 14.6508 23.0815 14.6319 23.1089Z" fill="#928D8A"/>
<path d="M28.6988 23.2239C28.6988 23.3114 28.7366 23.3935 28.7933 23.4154C28.8752 23.4428 28.8877 23.7274 28.8877 25.5552C28.8877 27.394 28.8752 27.6621 28.7933 27.6621C28.7303 27.6621 28.6988 27.7168 28.6988 27.8263C28.6988 27.985 28.7114 27.9905 28.9759 27.9905C29.3159 27.9905 29.3663 27.9357 29.2404 27.7059C29.1522 27.5636 29.1396 27.2407 29.1396 25.5224C29.1396 23.596 29.1459 23.503 29.2656 23.3224C29.4167 23.1035 29.3726 23.0652 28.9444 23.0652C28.7177 23.0652 28.6988 23.0761 28.6988 23.2239Z" fill="#928D8A"/>
<path d="M29.6874 23.1034C29.6623 23.1199 29.6434 23.1801 29.6434 23.2348C29.6434 23.2895 29.593 23.3552 29.5363 23.388C29.4293 23.4373 29.423 23.6015 29.4104 25.4621L29.3978 27.4869L29.5489 27.7223L29.6937 27.9631L30.2982 27.974L30.909 27.9795L31.0601 27.766L31.2176 27.5526V25.5387C31.2176 23.8532 31.205 23.5084 31.1231 23.4154C31.0727 23.3607 31.0287 23.2731 31.0287 23.2238C31.0287 23.1746 30.9846 23.1144 30.9279 23.098C30.7957 23.0542 29.7378 23.0542 29.6874 23.1034Z" fill="#928D8A"/>
<path d="M31.312 23.1199C31.2868 23.1527 31.3183 23.2513 31.3687 23.3498C31.5135 23.596 31.5198 27.5144 31.3813 27.7497C31.2553 27.9522 31.2994 27.9905 31.6331 27.9905C31.8976 27.9905 31.9102 27.985 31.9102 27.8318C31.9102 27.7442 31.8724 27.6621 31.8158 27.6402C31.7339 27.6129 31.7213 27.3283 31.7213 25.5278C31.7213 23.7274 31.7339 23.4428 31.8158 23.4154C31.8724 23.3935 31.9102 23.3114 31.9102 23.2239C31.9102 23.0707 31.8976 23.0652 31.6331 23.0652C31.4757 23.0652 31.3309 23.0925 31.312 23.1199Z" fill="#928D8A"/>
<path d="M32.0991 23.202C32.0991 23.2786 32.055 23.3552 32.0046 23.3716C31.9228 23.399 31.9102 23.6945 31.9102 25.5333C31.9102 27.3885 31.9228 27.6621 32.0046 27.6621C32.0802 27.6621 32.0991 27.58 32.0991 27.2353C32.0991 26.9452 32.1306 26.7756 32.1935 26.6989C32.3321 26.5402 32.3321 23.0652 32.1935 23.0652C32.1369 23.0652 32.0991 23.1144 32.0991 23.202Z" fill="#928D8A"/>
<path d="M27.0428 23.213C27.0176 23.2294 26.9987 24.1597 26.9987 25.2761C26.9987 26.896 27.0176 27.3338 27.0869 27.4159C27.131 27.4761 27.1876 27.5965 27.2128 27.6895L27.2632 27.8537L27.3828 27.6512C27.4962 27.4651 27.5025 27.3228 27.4836 25.4895C27.471 23.5358 27.471 23.5304 27.3262 23.3498C27.1813 23.1747 27.1184 23.1418 27.0428 23.213Z" fill="#928D8A"/>
<path d="M15.4756 23.3825C15.4253 23.3989 15.3623 23.4373 15.3371 23.4701C15.3119 23.5029 15.2867 24.4387 15.2867 25.5496V27.569L15.4379 27.6894L15.5827 27.8098L15.6897 27.6402C15.7842 27.4869 15.7905 27.2516 15.7779 25.4895C15.759 23.8094 15.7464 23.4974 15.6645 23.4318C15.6142 23.388 15.526 23.3661 15.4756 23.3825Z" fill="#928D8A"/>
<path d="M28.3084 23.3989C28.2014 23.4482 28.1951 23.6069 28.1951 25.5004C28.1951 27.4541 28.2014 27.5581 28.321 27.7277C28.3903 27.8262 28.447 27.8809 28.447 27.8481C28.447 27.8153 28.5036 27.7332 28.5729 27.662C28.6925 27.5417 28.6988 27.4596 28.6988 25.5606C28.6988 23.8586 28.6862 23.5631 28.5981 23.4591C28.491 23.3223 28.4596 23.3169 28.3084 23.3989Z" fill="#928D8A"/>
</g>
<defs>
<clipPath id="clip0_23_830">
<rect width="44" height="28" fill="white"/>
</clipPath>
</defs>
</svg>
