<svg width="48" height="34" viewBox="0 0 48 34" fill="none" xmlns="http://www.w3.org/2000/svg">
<path d="M1.93 10.91C1.82333 10.97 1.69667 11.01 1.55 11.03C1.41 11.0567 1.26333 11.07 1.11 11.07V3.97C1.33667 3.85 1.61 3.79 1.93 3.79V10.91ZM7.99711 9.78C7.96378 9.81333 7.91711 9.84333 7.85711 9.87C7.79711 9.89 7.73044 9.91 7.65711 9.93C7.59044 9.95 7.52044 9.96667 7.44711 9.98C7.37378 9.98667 7.30711 9.99 7.24711 9.99L5.07711 4.75C5.03044 5.27 4.98378 5.8 4.93711 6.34C4.89711 6.87333 4.85711 7.40333 4.81711 7.93C4.78378 8.45 4.75044 8.96333 4.71711 9.47C4.69044 9.97 4.66711 10.45 4.64711 10.91C4.54711 10.97 4.42044 11.01 4.26711 11.03C4.12044 11.0567 3.97378 11.07 3.82711 11.07C3.96711 9.91 4.11711 8.73333 4.27711 7.54C4.43711 6.34667 4.60044 5.16 4.76711 3.98C4.86044 3.92667 4.98378 3.88333 5.13711 3.85C5.29044 3.81 5.43378 3.79 5.56711 3.79L7.74711 9.18C8.08711 8.32667 8.43378 7.46 8.78711 6.58C9.14711 5.7 9.49711 4.82333 9.83711 3.95C9.94378 3.89667 10.0671 3.85667 10.2071 3.83C10.3538 3.80333 10.4938 3.79 10.6271 3.79L11.4671 10.92C11.3738 10.9733 11.2504 11.01 11.0971 11.03C10.9438 11.0567 10.7938 11.07 10.6471 11.07L9.93711 4.89C9.60378 5.72333 9.27044 6.55333 8.93711 7.38C8.61044 8.20667 8.29711 9.00667 7.99711 9.78ZM13.3461 4.09C13.6461 3.98333 13.9894 3.89 14.3761 3.81C14.7628 3.73 15.1861 3.69 15.6461 3.69C16.1261 3.69 16.5294 3.75 16.8561 3.87C17.1828 3.98333 17.4428 4.13667 17.6361 4.33C17.8361 4.52333 17.9794 4.74333 18.0661 4.99C18.1528 5.23667 18.1961 5.49 18.1961 5.75C18.1961 6.15667 18.1128 6.52 17.9461 6.84C17.7861 7.16 17.5628 7.43 17.2761 7.65C16.9961 7.87 16.6661 8.04 16.2861 8.16C15.9061 8.27333 15.4961 8.33 15.0561 8.33C14.8828 8.33 14.7194 8.32333 14.5661 8.31C14.4128 8.29667 14.2794 8.28 14.1661 8.26V10.91C14.0594 10.97 13.9328 11.01 13.7861 11.03C13.6461 11.0567 13.4994 11.07 13.3461 11.07V4.09ZM15.3661 4.15C15.1261 4.15 14.9061 4.16333 14.7061 4.19C14.5061 4.21667 14.3261 4.24667 14.1661 4.28V7.59C14.3128 7.67 14.4828 7.73667 14.6761 7.79C14.8761 7.84333 15.1228 7.87 15.4161 7.87C15.9961 7.87 16.4561 7.71667 16.7961 7.41C17.1361 7.10333 17.3061 6.66 17.3061 6.08C17.3061 5.81333 17.2694 5.56333 17.1961 5.33C17.1228 5.09667 17.0061 4.89333 16.8461 4.72C16.6861 4.54 16.4828 4.4 16.2361 4.3C15.9961 4.2 15.7061 4.15 15.3661 4.15ZM19.8109 11.07V4.05C20.0376 3.92333 20.3109 3.85333 20.6309 3.84C20.8243 3.83333 21.0809 3.83 21.4009 3.83C21.7276 3.82333 22.0709 3.81667 22.4309 3.81C22.7976 3.80333 23.1543 3.8 23.5009 3.8C23.8543 3.79333 24.1509 3.79 24.3909 3.79C24.3776 3.93 24.3376 4.05667 24.2709 4.17C24.2109 4.28333 24.1409 4.35667 24.0609 4.39C23.8343 4.39 23.5776 4.38667 23.2909 4.38C23.0043 4.36667 22.7076 4.35667 22.4009 4.35C22.0943 4.33667 21.7876 4.32333 21.4809 4.31C21.1743 4.29667 20.8909 4.28333 20.6309 4.27V7.21L23.8009 7.15C23.7876 7.27 23.7543 7.38 23.7009 7.48C23.6476 7.58 23.5876 7.63667 23.5209 7.65C23.0343 7.64333 22.5509 7.64 22.0709 7.64C21.5909 7.63333 21.1109 7.62333 20.6309 7.61V10.63C21.2176 10.6167 21.8276 10.5967 22.4609 10.57C23.0943 10.5367 23.7643 10.4967 24.4709 10.45C24.4509 10.6033 24.4109 10.7367 24.3509 10.85C24.2909 10.9567 24.2243 11.03 24.1509 11.07H19.8109ZM26.0902 4.08C26.3836 3.97333 26.7269 3.88333 27.1202 3.81C27.5202 3.73 27.9236 3.69 28.3302 3.69C28.7836 3.69 29.1669 3.74333 29.4802 3.85C29.8002 3.95 30.0602 4.09 30.2602 4.27C30.4602 4.44333 30.6036 4.64667 30.6902 4.88C30.7836 5.11333 30.8302 5.36 30.8302 5.62C30.8302 5.94 30.7702 6.22333 30.6502 6.47C30.5302 6.71 30.3736 6.92 30.1802 7.1C29.9936 7.27333 29.7769 7.42 29.5302 7.54C29.2836 7.65333 29.0369 7.74 28.7902 7.8C28.9036 7.87333 29.0102 7.96667 29.1102 8.08C29.2102 8.18667 29.3169 8.31333 29.4302 8.46L30.4202 9.74C30.6269 10.0067 30.8169 10.2367 30.9902 10.43C31.1636 10.6233 31.3102 10.77 31.4302 10.87V10.93C31.3369 10.9767 31.2002 11.01 31.0202 11.03C30.8402 11.0567 30.6702 11.07 30.5102 11.07C30.4436 11.0433 30.3536 10.9733 30.2402 10.86C30.1336 10.74 29.9836 10.54 29.7902 10.26L28.6102 8.59C28.5236 8.47 28.4402 8.36667 28.3602 8.28C28.2869 8.19333 28.2036 8.12333 28.1102 8.07C28.0236 8.01 27.9202 7.97 27.8002 7.95C27.6869 7.92333 27.5469 7.91 27.3802 7.91H26.9102V10.91C26.8036 10.97 26.6769 11.01 26.5302 11.03C26.3902 11.0567 26.2436 11.07 26.0902 11.07V4.08ZM27.9702 4.15C27.8102 4.15 27.6369 4.16 27.4502 4.18C27.2636 4.2 27.0836 4.23 26.9102 4.27V7.37C27.0236 7.40333 27.1536 7.43 27.3002 7.45C27.4536 7.47 27.6269 7.48 27.8202 7.48C28.4736 7.48 28.9902 7.34667 29.3702 7.08C29.7502 6.81333 29.9402 6.40333 29.9402 5.85C29.9402 5.61 29.9002 5.38667 29.8202 5.18C29.7402 4.96667 29.6169 4.78667 29.4502 4.64C29.2902 4.48667 29.0869 4.36667 28.8402 4.28C28.5936 4.19333 28.3036 4.15 27.9702 4.15ZM33.6976 10.91C33.5909 10.97 33.4642 11.01 33.3176 11.03C33.1776 11.0567 33.0309 11.07 32.8776 11.07V3.97C33.1042 3.85 33.3776 3.79 33.6976 3.79V10.91ZM35.0247 11.07C35.2447 10.51 35.478 9.91333 35.7247 9.28C35.9714 8.64 36.218 8.00667 36.4647 7.38C36.718 6.74667 36.9614 6.13667 37.1947 5.55C37.4347 4.95667 37.648 4.42333 37.8347 3.95C37.948 3.89667 38.0714 3.85667 38.2047 3.83C38.338 3.80333 38.4714 3.79 38.6047 3.79L41.2547 10.96C41.1947 10.9933 41.1114 11.02 41.0047 11.04C40.898 11.0667 40.7714 11.08 40.6247 11.08C40.5914 11.08 40.558 11.08 40.5247 11.08C40.498 11.08 40.468 11.0767 40.4347 11.07L39.6547 8.95H36.4547C36.2214 9.66333 36.0147 10.3433 35.8347 10.99C35.7747 11.0233 35.6947 11.0467 35.5947 11.06C35.5014 11.08 35.4047 11.09 35.3047 11.09C35.2447 11.09 35.1914 11.0867 35.1447 11.08C35.098 11.08 35.058 11.0767 35.0247 11.07ZM38.0447 4.53C37.8114 5.13667 37.5714 5.77667 37.3247 6.45C37.0847 7.11667 36.848 7.79 36.6147 8.47H39.4847L38.0447 4.53ZM43.5118 10.63C44.0518 10.61 44.6118 10.5833 45.1918 10.55C45.7718 10.5167 46.4251 10.4767 47.1518 10.43C47.1385 10.5833 47.1018 10.72 47.0418 10.84C46.9818 10.9533 46.9151 11.03 46.8418 11.07H42.6918V3.97C42.9185 3.85 43.1918 3.79 43.5118 3.79V10.63Z" fill="#FFFEFE"/>
<path d="M14.73 27.91C14.6233 27.97 14.4967 28.01 14.35 28.03C14.21 28.0567 14.0633 28.07 13.91 28.07V24.56H9.92V27.91C9.81333 27.97 9.68667 28.01 9.54 28.03C9.4 28.0567 9.25333 28.07 9.1 28.07V20.97C9.32667 20.85 9.6 20.79 9.92 20.79V24.09H13.91V20.97C14.1367 20.85 14.41 20.79 14.73 20.79V27.91ZM17.402 24.21C17.402 24.7767 17.472 25.2767 17.612 25.71C17.7587 26.1433 17.952 26.51 18.192 26.81C18.432 27.1033 18.712 27.3267 19.032 27.48C19.3587 27.6333 19.702 27.71 20.062 27.71C20.8287 27.71 21.422 27.4467 21.842 26.92C22.2687 26.3933 22.482 25.6033 22.482 24.55C22.482 24.0367 22.4187 23.5733 22.292 23.16C22.1654 22.74 21.9854 22.3833 21.752 22.09C21.5254 21.79 21.2487 21.56 20.922 21.4C20.602 21.24 20.242 21.16 19.842 21.16C19.522 21.16 19.212 21.22 18.912 21.34C18.6187 21.46 18.3587 21.6467 18.132 21.9C17.912 22.1467 17.7354 22.4633 17.602 22.85C17.4687 23.23 17.402 23.6833 17.402 24.21ZM16.512 24.53C16.512 23.9633 16.6087 23.4467 16.802 22.98C17.002 22.5067 17.2654 22.1 17.592 21.76C17.9254 21.42 18.3087 21.1567 18.742 20.97C19.182 20.7833 19.6454 20.69 20.132 20.69C20.6587 20.69 21.122 20.78 21.522 20.96C21.9287 21.14 22.2687 21.39 22.542 21.71C22.8154 22.03 23.022 22.4067 23.162 22.84C23.302 23.2667 23.372 23.73 23.372 24.23C23.372 24.7833 23.292 25.3 23.132 25.78C22.972 26.26 22.7387 26.6767 22.432 27.03C22.1254 27.3833 21.7487 27.6633 21.302 27.87C20.862 28.0767 20.362 28.18 19.802 28.18C19.3554 28.18 18.932 28.0967 18.532 27.93C18.1387 27.7633 17.792 27.5233 17.492 27.21C17.192 26.89 16.952 26.5067 16.772 26.06C16.5987 25.6067 16.512 25.0967 16.512 24.53ZM28.8291 26.78C28.7958 26.8133 28.7491 26.8433 28.6891 26.87C28.6291 26.89 28.5625 26.91 28.4891 26.93C28.4225 26.95 28.3525 26.9667 28.2791 26.98C28.2058 26.9867 28.1391 26.99 28.0791 26.99L25.9091 21.75C25.8625 22.27 25.8158 22.8 25.7691 23.34C25.7291 23.8733 25.6891 24.4033 25.6491 24.93C25.6158 25.45 25.5825 25.9633 25.5491 26.47C25.5225 26.97 25.4991 27.45 25.4791 27.91C25.3791 27.97 25.2525 28.01 25.0991 28.03C24.9525 28.0567 24.8058 28.07 24.6591 28.07C24.7991 26.91 24.9491 25.7333 25.1091 24.54C25.2691 23.3467 25.4325 22.16 25.5991 20.98C25.6925 20.9267 25.8158 20.8833 25.9691 20.85C26.1225 20.81 26.2658 20.79 26.3991 20.79L28.5791 26.18C28.9191 25.3267 29.2658 24.46 29.6191 23.58C29.9791 22.7 30.3291 21.8233 30.6691 20.95C30.7758 20.8967 30.8991 20.8567 31.0391 20.83C31.1858 20.8033 31.3258 20.79 31.4591 20.79L32.2991 27.92C32.2058 27.9733 32.0825 28.01 31.9291 28.03C31.7758 28.0567 31.6258 28.07 31.4791 28.07L30.7691 21.89C30.4358 22.7233 30.1025 23.5533 29.7691 24.38C29.4425 25.2067 29.1291 26.0067 28.8291 26.78ZM34.1781 28.07V21.05C34.4048 20.9233 34.6781 20.8533 34.9981 20.84C35.1915 20.8333 35.4481 20.83 35.7681 20.83C36.0948 20.8233 36.4381 20.8167 36.7981 20.81C37.1648 20.8033 37.5215 20.8 37.8681 20.8C38.2215 20.7933 38.5181 20.79 38.7581 20.79C38.7448 20.93 38.7048 21.0567 38.6381 21.17C38.5781 21.2833 38.5081 21.3567 38.4281 21.39C38.2015 21.39 37.9448 21.3867 37.6581 21.38C37.3715 21.3667 37.0748 21.3567 36.7681 21.35C36.4615 21.3367 36.1548 21.3233 35.8481 21.31C35.5415 21.2967 35.2581 21.2833 34.9981 21.27V24.21L38.1681 24.15C38.1548 24.27 38.1215 24.38 38.0681 24.48C38.0148 24.58 37.9548 24.6367 37.8881 24.65C37.4015 24.6433 36.9181 24.64 36.4381 24.64C35.9581 24.6333 35.4781 24.6233 34.9981 24.61V27.63C35.5848 27.6167 36.1948 27.5967 36.8281 27.57C37.4615 27.5367 38.1315 27.4967 38.8381 27.45C38.8181 27.6033 38.7781 27.7367 38.7181 27.85C38.6581 27.9567 38.5915 28.03 38.5181 28.07H34.1781Z" fill="#FFFEFE"/>
</svg>
