<svg width="50" height="41" viewBox="0 0 50 41" fill="none" xmlns="http://www.w3.org/2000/svg">
<path d="M50 4.82031C48.1568 5.64062 46.1811 6.19141 44.1041 6.44141C46.224 5.16797 47.8529 3.15234 48.6166 0.753906C46.6371 1.92969 44.4354 2.78516 42.1012 3.24609C40.2307 1.24609 37.5653 0 34.6154 0C28.9494 0 24.3551 4.60156 24.3551 10.2812C24.3551 11.0859 24.4486 11.8711 24.624 12.625C16.0977 12.1953 8.54181 8.10156 3.47985 1.87891C2.59528 3.40234 2.09259 5.16797 2.09259 7.05078C2.09259 10.6172 3.90071 13.7656 6.65576 15.6133C4.97233 15.5586 3.39023 15.0938 2.00686 14.3242C2.00686 14.3672 2.00686 14.4102 2.00686 14.4531C2.00686 19.4375 5.54516 23.5898 10.233 24.5391C9.37573 24.7734 8.46777 24.8984 7.53254 24.8984C6.87008 24.8984 6.22711 24.8359 5.59972 24.7109C6.90905 28.793 10.6968 31.7734 15.182 31.8555C11.6749 34.6133 7.25197 36.2539 2.4433 36.2539C1.61328 36.2539 0.798847 36.207 0 36.1094C4.53589 39.0312 9.92908 40.7305 15.7236 40.7305C34.592 40.7305 44.9108 25.0625 44.9108 11.4766C44.9108 11.0313 44.8991 10.582 44.8835 10.1445C46.8864 8.69531 48.6244 6.88281 50 4.82031Z" fill="#B17D2F"/>
</svg>
